<?xml version="1.0" encoding="utf-8" standalone="no"?>
<!DOCTYPE svg PUBLIC "-//W3C//DTD SVG 1.1//EN"
  "http://www.w3.org/Graphics/SVG/1.1/DTD/svg11.dtd">
<!-- Created with matplotlib (https://matplotlib.org/) -->
<svg height="320.4pt" version="1.1" viewBox="0 0 540 320.4" width="540pt" xmlns="http://www.w3.org/2000/svg" xmlns:xlink="http://www.w3.org/1999/xlink">
 <defs>
  <style type="text/css">
*{stroke-linecap:butt;stroke-linejoin:round;}
  </style>
 </defs>
 <g id="figure_1">
  <g id="patch_1">
   <path d="M 0 320.4 
L 540 320.4 
L 540 0 
L 0 0 
z
" style="fill:#ffffff;"/>
  </g>
  <g id="axes_1">
   <g id="patch_2">
    <path d="M 73.27231 256.170598 
L 518.218158 256.170598 
L 518.218158 44.247139 
L 73.27231 44.247139 
z
" style="fill:#ffffff;"/>
   </g>
   <g id="matplotlib.axis_1">
    <g id="xtick_1">
     <g id="line2d_1">
      <defs>
       <path d="M 0 0 
L 0 3.5 
" id="m0b50ab6c8f" style="stroke:#000000;stroke-width:0.8;"/>
      </defs>
      <g>
       <use style="stroke:#000000;stroke-width:0.8;" x="93.497121" xlink:href="#m0b50ab6c8f" y="256.170598"/>
      </g>
     </g>
     <g id="text_1">
      <!-- $9$ -->
      <defs>
       <path d="M 35.203125 29.125 
C 35.203125 7.25 26.09375 0.484375 18.59375 0.484375 
C 16.296875 0.484375 10.703125 0.484375 8.40625 4.59375 
C 11 4.1875 12.90625 5.578125 12.90625 8.09375 
C 12.90625 10.8125 10.703125 11.703125 9.296875 11.703125 
C 8.40625 11.703125 5.703125 11.296875 5.703125 7.90625 
C 5.703125 1.109375 11.59375 -2 18.796875 -2 
C 30.296875 -2 42 10.53125 42 32.390625 
C 42 59.640625 30.796875 65.296875 23.203125 65.296875 
C 13.296875 65.296875 3.796875 56.6875 3.796875 43.40625 
C 3.796875 31.109375 11.90625 22 22.09375 22 
C 30.5 22 34.203125 29.734375 35.203125 33 
z
M 22.296875 23.59375 
C 19.59375 23.59375 15.796875 24.09375 12.703125 30.03125 
C 10.59375 33.890625 10.59375 38.453125 10.59375 43.296875 
C 10.59375 49.15625 10.59375 53.203125 13.40625 57.5625 
C 14.796875 59.640625 17.40625 63 23.203125 63 
C 35 63 35 45.078125 35 41.125 
C 35 34.09375 31.796875 23.59375 22.296875 23.59375 
z
" id="CMR17-57"/>
      </defs>
      <g transform="translate(90.082877 272.856474)scale(0.14 -0.14)">
       <use transform="scale(0.996264)" xlink:href="#CMR17-57"/>
      </g>
     </g>
    </g>
    <g id="xtick_2">
     <g id="line2d_2">
      <g>
       <use style="stroke:#000000;stroke-width:0.8;" x="160.913158" xlink:href="#m0b50ab6c8f" y="256.170598"/>
      </g>
     </g>
     <g id="text_2">
      <!-- $10$ -->
      <defs>
       <path d="M 26.59375 63.40625 
C 26.59375 65.5 26.5 65.5 25.09375 65.5 
C 21.203125 61.1875 15.296875 59.796875 9.703125 59.796875 
C 9.40625 59.796875 8.90625 59.796875 8.796875 59.5 
C 8.703125 59.296875 8.703125 59.09375 8.703125 57 
C 11.796875 57 17 57.59375 21 59.984375 
L 21 7.203125 
C 21 3.6875 20.796875 2.5 12.203125 2.5 
L 9.203125 2.5 
L 9.203125 0 
C 14 0 19 0 23.796875 0 
C 28.59375 0 33.59375 0 38.40625 0 
L 38.40625 2.5 
L 35.40625 2.5 
C 26.796875 2.5 26.59375 3.59375 26.59375 7.15625 
z
" id="CMR17-49"/>
       <path d="M 42 31.640625 
C 42 37.75 41.90625 48.125 37.703125 56.109375 
C 34 63.109375 28.09375 65.59375 22.90625 65.59375 
C 18.09375 65.59375 12 63.40625 8.203125 56.203125 
C 4.203125 48.71875 3.796875 39.4375 3.796875 31.640625 
C 3.796875 25.953125 3.90625 17.28125 7 9.671875 
C 11.296875 -0.609375 19 -2 22.90625 -2 
C 27.5 -2 34.5 -0.109375 38.59375 9.375 
C 41.59375 16.28125 42 24.359375 42 31.640625 
z
M 22.90625 -0.40625 
C 16.5 -0.40625 12.703125 5.078125 11.296875 12.6875 
C 10.203125 18.5625 10.203125 27.15625 10.203125 32.75 
C 10.203125 40.4375 10.203125 46.828125 11.5 52.921875 
C 13.40625 61.390625 19 64 22.90625 64 
C 27 64 32.296875 61.296875 34.203125 53.125 
C 35.5 47.4375 35.59375 40.734375 35.59375 32.75 
C 35.59375 26.25 35.59375 18.265625 34.40625 12.375 
C 32.296875 1.484375 26.40625 -0.40625 22.90625 -0.40625 
z
" id="CMR17-48"/>
      </defs>
      <g transform="translate(154.08467 272.856474)scale(0.14 -0.14)">
       <use transform="scale(0.996264)" xlink:href="#CMR17-49"/>
       <use transform="translate(45.690477 0)scale(0.996264)" xlink:href="#CMR17-48"/>
      </g>
     </g>
    </g>
    <g id="xtick_3">
     <g id="line2d_3">
      <g>
       <use style="stroke:#000000;stroke-width:0.8;" x="228.329196" xlink:href="#m0b50ab6c8f" y="256.170598"/>
      </g>
     </g>
     <g id="text_3">
      <!-- $11$ -->
      <g transform="translate(221.500708 272.856474)scale(0.14 -0.14)">
       <use transform="scale(0.996264)" xlink:href="#CMR17-49"/>
       <use transform="translate(45.690477 0)scale(0.996264)" xlink:href="#CMR17-49"/>
      </g>
     </g>
    </g>
    <g id="xtick_4">
     <g id="line2d_4">
      <g>
       <use style="stroke:#000000;stroke-width:0.8;" x="295.745234" xlink:href="#m0b50ab6c8f" y="256.170598"/>
      </g>
     </g>
     <g id="text_4">
      <!-- $12$ -->
      <defs>
       <path d="M 41.703125 15.453125 
L 39.90625 15.453125 
C 38.90625 8.375 38.09375 7.171875 37.703125 6.5625 
C 37.203125 5.765625 30 5.765625 28.59375 5.765625 
L 9.40625 5.765625 
C 13 9.671875 20 16.75 28.5 24.953125 
C 34.59375 30.734375 41.703125 37.53125 41.703125 47.421875 
C 41.703125 59.21875 32.296875 66 21.796875 66 
C 10.796875 66 4.09375 56.3125 4.09375 47.34375 
C 4.09375 43.4375 7 42.9375 8.203125 42.9375 
C 9.203125 42.9375 12.203125 43.546875 12.203125 47.03125 
C 12.203125 50.109375 9.59375 51 8.203125 51 
C 7.59375 51 7 50.90625 6.59375 50.703125 
C 8.5 59.21875 14.296875 63.40625 20.40625 63.40625 
C 29.09375 63.40625 34.796875 56.515625 34.796875 47.421875 
C 34.796875 38.734375 29.703125 31.25 24 24.75 
L 4.09375 2.28125 
L 4.09375 0 
L 39.296875 0 
z
" id="CMR17-50"/>
      </defs>
      <g transform="translate(288.916745 272.856474)scale(0.14 -0.14)">
       <use transform="scale(0.996264)" xlink:href="#CMR17-49"/>
       <use transform="translate(45.690477 0)scale(0.996264)" xlink:href="#CMR17-50"/>
      </g>
     </g>
    </g>
    <g id="xtick_5">
     <g id="line2d_5">
      <g>
       <use style="stroke:#000000;stroke-width:0.8;" x="363.161272" xlink:href="#m0b50ab6c8f" y="256.170598"/>
      </g>
     </g>
     <g id="text_5">
      <!-- $13$ -->
      <defs>
       <path d="M 22.09375 33.703125 
C 31 33.703125 34.90625 25.96875 34.90625 17.03125 
C 34.90625 5 28.5 0.390625 22.703125 0.390625 
C 17.40625 0.390625 8.796875 3.03125 6.09375 10.828125 
C 6.59375 10.625 7.09375 10.625 7.59375 10.625 
C 10 10.625 11.796875 12.21875 11.796875 14.8125 
C 11.796875 17.703125 9.59375 19 7.59375 19 
C 5.90625 19 3.296875 18.203125 3.296875 14.46875 
C 3.296875 5.234375 12.296875 -2 22.90625 -2 
C 34 -2 42.5 6.71875 42.5 16.953125 
C 42.5 26.671875 34.5 33.703125 25 34.796875 
C 32.59375 36.375 39.90625 43.0625 39.90625 52.015625 
C 39.90625 59.6875 32 65.296875 23 65.296875 
C 13.90625 65.296875 5.90625 59.828125 5.90625 52.015625 
C 5.90625 48.59375 8.5 48 9.796875 48 
C 11.90625 48 13.703125 49.296875 13.703125 51.890625 
C 13.703125 54.46875 11.90625 55.765625 9.796875 55.765625 
C 9.40625 55.765625 8.90625 55.765625 8.5 55.578125 
C 11.40625 61.859375 19.296875 63 22.796875 63 
C 26.296875 63 32.90625 61.328125 32.90625 51.875 
C 32.90625 49.109375 32.5 44.1875 29.09375 39.84375 
C 26.09375 36 22.703125 36 19.40625 35.6875 
C 18.90625 35.6875 16.59375 35.453125 16.203125 35.453125 
C 15.5 35.359375 15.09375 35.265625 15.09375 34.5 
C 15.09375 33.796875 15.203125 33.703125 17.203125 33.703125 
z
" id="CMR17-51"/>
      </defs>
      <g transform="translate(356.332783 272.856474)scale(0.14 -0.14)">
       <use transform="scale(0.996264)" xlink:href="#CMR17-49"/>
       <use transform="translate(45.690477 0)scale(0.996264)" xlink:href="#CMR17-51"/>
      </g>
     </g>
    </g>
    <g id="xtick_6">
     <g id="line2d_6">
      <g>
       <use style="stroke:#000000;stroke-width:0.8;" x="430.577309" xlink:href="#m0b50ab6c8f" y="256.170598"/>
      </g>
     </g>
     <g id="text_6">
      <!-- $14$ -->
      <defs>
       <path d="M 33.59375 64.40625 
C 33.59375 66.5 33.5 66.5 31.703125 66.5 
L 2 19.59375 
L 2 17 
L 27.796875 17 
L 27.796875 7.140625 
C 27.796875 3.5 27.59375 2.5 20.59375 2.5 
L 18.703125 2.5 
L 18.703125 0 
C 21.90625 0 27.296875 0 30.703125 0 
C 34.09375 0 39.5 0 42.703125 0 
L 42.703125 2.5 
L 40.796875 2.5 
C 33.796875 2.5 33.59375 3.5 33.59375 7.140625 
L 33.59375 17 
L 43.796875 17 
L 43.796875 19.59375 
L 33.59375 19.59375 
z
M 28.09375 57.859375 
L 28.09375 19.59375 
L 4 19.59375 
z
" id="CMR17-52"/>
      </defs>
      <g transform="translate(423.748821 272.856474)scale(0.14 -0.14)">
       <use transform="scale(0.996264)" xlink:href="#CMR17-49"/>
       <use transform="translate(45.690477 0)scale(0.996264)" xlink:href="#CMR17-52"/>
      </g>
     </g>
    </g>
    <g id="xtick_7">
     <g id="line2d_7">
      <g>
       <use style="stroke:#000000;stroke-width:0.8;" x="497.993347" xlink:href="#m0b50ab6c8f" y="256.170598"/>
      </g>
     </g>
     <g id="text_7">
      <!-- $15$ -->
      <defs>
       <path d="M 11.40625 57.6875 
C 12.40625 57.28125 16.5 56 20.703125 56 
C 30 56 35.09375 61.109375 38 64.0625 
C 38 64.953125 38 65.5 37.40625 65.5 
C 37.296875 65.5 37.09375 65.5 36.296875 65.046875 
C 32.796875 63.40625 28.703125 62.078125 23.703125 62.078125 
C 20.703125 62.078125 16.203125 62.484375 11.296875 64.671875 
C 10.203125 65.171875 10 65.171875 9.90625 65.171875 
C 9.40625 65.171875 9.296875 65.0625 9.296875 63.078125 
L 9.296875 34.421875 
C 9.296875 32.640625 9.296875 32.140625 10.296875 32.140625 
C 10.796875 32.140625 11 32.34375 11.5 33.03125 
C 14.703125 37.515625 19.09375 39.40625 24.09375 39.40625 
C 27.59375 39.40625 35.09375 37.21875 35.09375 20.140625 
C 35.09375 16.953125 35.09375 11.171875 32.09375 6.578125 
C 29.59375 2.484375 25.703125 0.390625 21.40625 0.390625 
C 14.796875 0.390625 8.09375 5 6.296875 12.71875 
C 6.703125 12.609375 7.5 12.421875 7.90625 12.421875 
C 9.203125 12.421875 11.703125 13.125 11.703125 16.21875 
C 11.703125 18.90625 9.796875 20 7.90625 20 
C 5.59375 20 4.09375 18.59375 4.09375 15.796875 
C 4.09375 7.09375 11 -2 21.59375 -2 
C 31.90625 -2 41.703125 6.875 41.703125 19.75 
C 41.703125 31.71875 33.90625 41 24.203125 41 
C 19.09375 41 14.796875 39.109375 11.40625 35.53125 
z
" id="CMR17-53"/>
      </defs>
      <g transform="translate(491.164858 272.856474)scale(0.14 -0.14)">
       <use transform="scale(0.996264)" xlink:href="#CMR17-49"/>
       <use transform="translate(45.690477 0)scale(0.996264)" xlink:href="#CMR17-53"/>
      </g>
     </g>
    </g>
    <g id="text_8">
     <!-- $\tau$ -->
     <defs>
      <path d="M 28.703125 37.625 
L 45.296875 37.625 
C 46.59375 37.625 49.90625 37.625 49.90625 40.8125 
C 49.90625 43 48 43 46.203125 43 
L 18.703125 43 
C 16.40625 43 13 43 8.40625 38.125 
C 5.796875 35.234375 2.59375 29.953125 2.59375 29.359375 
C 2.59375 28.765625 3.09375 28.5625 3.703125 28.5625 
C 4.40625 28.5625 4.5 28.859375 5 29.453125 
C 10.203125 37.625 15.40625 37.625 17.90625 37.625 
L 26.203125 37.625 
L 15.796875 3.484375 
C 15.296875 1.984375 15.296875 1.78125 15.296875 1.484375 
C 15.296875 0.390625 16 -1 18 -1 
C 21.09375 -1 21.59375 1.6875 21.90625 3.171875 
z
" id="CMMI12-28"/>
     </defs>
     <g transform="translate(292.779769 289.254379)scale(0.14 -0.14)">
      <use transform="scale(0.996264)" xlink:href="#CMMI12-28"/>
     </g>
    </g>
   </g>
   <g id="matplotlib.axis_2">
    <g id="ytick_1">
     <g id="line2d_8">
      <defs>
       <path d="M 0 0 
L -3.5 0 
" id="mce463ac1c8" style="stroke:#000000;stroke-width:0.8;"/>
      </defs>
      <g>
       <use style="stroke:#000000;stroke-width:0.8;" x="73.27231" xlink:href="#mce463ac1c8" y="224.136989"/>
      </g>
     </g>
     <g id="text_9">
      <!-- $0.4$ -->
      <defs>
       <path d="M 18.40625 4.796875 
C 18.40625 7.6875 16 9.671875 13.59375 9.671875 
C 10.703125 9.671875 8.703125 7.28125 8.703125 4.890625 
C 8.703125 2 11.09375 0 13.5 0 
C 16.40625 0 18.40625 2.390625 18.40625 4.796875 
z
" id="CMMI12-58"/>
      </defs>
      <g transform="translate(48.821727 228.979928)scale(0.14 -0.14)">
       <use transform="scale(0.996264)" xlink:href="#CMR17-48"/>
       <use transform="translate(45.690477 0)scale(0.996264)" xlink:href="#CMMI12-58"/>
       <use transform="translate(72.787654 0)scale(0.996264)" xlink:href="#CMR17-52"/>
      </g>
     </g>
    </g>
    <g id="ytick_2">
     <g id="line2d_9">
      <g>
       <use style="stroke:#000000;stroke-width:0.8;" x="73.27231" xlink:href="#mce463ac1c8" y="167.384667"/>
      </g>
     </g>
     <g id="text_10">
      <!-- $0.6$ -->
      <defs>
       <path d="M 10.59375 34 
C 10.59375 57.65625 21.796875 63 28.296875 63 
C 30.40625 63 35.5 62.640625 37.5 59 
C 35.90625 59 32.90625 59 32.90625 55.515625 
C 32.90625 52.828125 35.09375 51.921875 36.5 51.921875 
C 37.40625 51.921875 40.09375 52.3125 40.09375 55.625 
C 40.09375 61.78125 35.09375 65.296875 28.203125 65.296875 
C 16.296875 65.296875 3.796875 52.96875 3.796875 31 
C 3.796875 3.953125 15.09375 -2 23.09375 -2 
C 32.796875 -2 42 6.671875 42 20.046875 
C 42 32.515625 33.90625 41.59375 23.703125 41.59375 
C 17.59375 41.59375 13.09375 37.609375 10.59375 30.625 
z
M 23.09375 0.390625 
C 10.796875 0.390625 10.796875 18.75 10.796875 22.4375 
C 10.796875 29.625 14.203125 40 23.5 40 
C 25.203125 40 30.09375 40 33.40625 33.125 
C 35.203125 29.21875 35.203125 25.140625 35.203125 20.140625 
C 35.203125 14.75 35.203125 10.78125 33.09375 6.78125 
C 30.90625 2.671875 27.703125 0.390625 23.09375 0.390625 
z
" id="CMR17-54"/>
      </defs>
      <g transform="translate(48.821727 172.227605)scale(0.14 -0.14)">
       <use transform="scale(0.996264)" xlink:href="#CMR17-48"/>
       <use transform="translate(45.690477 0)scale(0.996264)" xlink:href="#CMMI12-58"/>
       <use transform="translate(72.787654 0)scale(0.996264)" xlink:href="#CMR17-54"/>
      </g>
     </g>
    </g>
    <g id="ytick_3">
     <g id="line2d_10">
      <g>
       <use style="stroke:#000000;stroke-width:0.8;" x="73.27231" xlink:href="#mce463ac1c8" y="110.632345"/>
      </g>
     </g>
     <g id="text_11">
      <!-- $0.8$ -->
      <defs>
       <path d="M 27.203125 35.375 
C 33.5 38.546875 39.90625 43.328125 39.90625 50.984375 
C 39.90625 60.015625 31.09375 65.296875 23 65.296875 
C 13.90625 65.296875 5.90625 58.734375 5.90625 49.6875 
C 5.90625 47.203125 6.5 42.921875 10.40625 39.140625 
C 11.40625 38.15625 15.59375 35.171875 18.296875 33.28125 
C 13.796875 30.984375 3.296875 25.53125 3.296875 14.59375 
C 3.296875 4.359375 13.09375 -2 22.796875 -2 
C 33.5 -2 42.5 5.65625 42.5 15.78125 
C 42.5 24.84375 36.40625 29.015625 32.40625 31.703125 
z
M 14.09375 44.09375 
C 13.296875 44.59375 9.296875 47.671875 9.296875 52.359375 
C 9.296875 58.421875 15.59375 63 22.796875 63 
C 30.703125 63 36.5 57.4375 36.5 50.96875 
C 36.5 41.703125 26.09375 36.421875 25.59375 36.421875 
C 25.5 36.421875 25.40625 36.421875 24.59375 37.03125 
z
M 32.5 23.734375 
C 34 22.640625 38.796875 19.375 38.796875 13.296875 
C 38.796875 5.953125 31.40625 0.390625 23 0.390625 
C 13.90625 0.390625 7 6.84375 7 14.6875 
C 7 22.546875 13.09375 29.09375 20 32.1875 
z
" id="CMR17-56"/>
      </defs>
      <g transform="translate(48.821727 115.475283)scale(0.14 -0.14)">
       <use transform="scale(0.996264)" xlink:href="#CMR17-48"/>
       <use transform="translate(45.690477 0)scale(0.996264)" xlink:href="#CMMI12-58"/>
       <use transform="translate(72.787654 0)scale(0.996264)" xlink:href="#CMR17-56"/>
      </g>
     </g>
    </g>
    <g id="ytick_4">
     <g id="line2d_11">
      <g>
       <use style="stroke:#000000;stroke-width:0.8;" x="73.27231" xlink:href="#mce463ac1c8" y="53.880023"/>
      </g>
     </g>
     <g id="text_12">
      <!-- $1.0$ -->
      <g transform="translate(48.821727 58.722961)scale(0.14 -0.14)">
       <use transform="scale(0.996264)" xlink:href="#CMR17-49"/>
       <use transform="translate(45.690477 0)scale(0.996264)" xlink:href="#CMMI12-58"/>
       <use transform="translate(72.787654 0)scale(0.996264)" xlink:href="#CMR17-48"/>
      </g>
     </g>
    </g>
    <g id="text_13">
     <!-- $P_x$ -->
     <defs>
      <path d="M 29.59375 31.609375 
L 46.40625 31.609375 
C 60.203125 31.609375 74 41.765625 74 53.140625 
C 74 60.90625 67.40625 68 54.796875 68 
L 23.90625 68 
C 22 68 21.09375 68 21.09375 66.109375 
C 21.09375 65.109375 22 65.109375 23.5 65.109375 
C 29.59375 65.109375 29.59375 64.3125 29.59375 63.21875 
C 29.59375 63.03125 29.59375 62.421875 29.203125 60.921875 
L 15.703125 7.375 
C 14.796875 3.890625 14.59375 2.890625 7.59375 2.890625 
C 5.703125 2.890625 4.703125 2.890625 4.703125 1.09375 
C 4.703125 0 5.59375 0 6.203125 0 
C 8.09375 0 10.09375 0 12 0 
L 23.703125 0 
C 25.59375 0 27.703125 0 29.59375 0 
C 30.40625 0 31.5 0 31.5 1.890625 
C 31.5 2.890625 30.59375 2.890625 29.09375 2.890625 
C 23.09375 2.890625 23 3.59375 23 4.578125 
C 23 5.078125 23.09375 5.765625 23.203125 6.265625 
z
M 36.796875 61.40625 
C 37.703125 65.109375 38.09375 65.109375 42 65.109375 
L 51.90625 65.109375 
C 59.40625 65.109375 65.59375 62.703125 65.59375 55.234375 
C 65.59375 52.640625 64.296875 44.171875 59.703125 39.59375 
C 58 37.796875 53.203125 34 44.09375 34 
L 30 34 
z
" id="CMMI12-80"/>
      <path d="M 47.40625 40.71875 
C 44.203125 40.109375 43 37.71875 43 35.828125 
C 43 33.421875 44.90625 32.625 46.296875 32.625 
C 49.296875 32.625 51.40625 35.21875 51.40625 37.921875 
C 51.40625 42.109375 46.59375 44 42.40625 44 
C 36.296875 44 32.90625 38.015625 32 36.125 
C 29.703125 44 23.5 44 21.703125 44 
C 11.5 44 6.09375 30.9375 6.09375 28.734375 
C 6.09375 28.34375 6.5 27.84375 7.203125 27.84375 
C 8 27.84375 8.203125 28.4375 8.40625 28.84375 
C 11.796875 39.921875 18.5 42.015625 21.40625 42.015625 
C 25.90625 42.015625 26.796875 37.8125 26.796875 35.421875 
C 26.796875 33.234375 26.203125 30.9375 25 26.140625 
L 21.59375 12.46875 
C 20.09375 6.484375 17.203125 1 11.90625 1 
C 11.40625 1 8.90625 1 6.796875 2.296875 
C 10.40625 3 11.203125 5.984375 11.203125 7.1875 
C 11.203125 9.1875 9.703125 10.375 7.796875 10.375 
C 5.40625 10.375 2.796875 8.28125 2.796875 5.09375 
C 2.796875 0.890625 7.5 -1 11.796875 -1 
C 16.59375 -1 20 2.796875 22.09375 6.890625 
C 23.703125 1 28.703125 -1 32.40625 -1 
C 42.59375 -1 48 12.078125 48 14.265625 
C 48 14.765625 47.59375 15.171875 47 15.171875 
C 46.09375 15.171875 46 14.671875 45.703125 13.875 
C 43 5.09375 37.203125 1 32.703125 1 
C 29.203125 1 27.296875 3.59375 27.296875 7.6875 
C 27.296875 9.875 27.703125 11.46875 29.296875 18.0625 
L 32.796875 31.625 
C 34.296875 37.625 37.703125 42.015625 42.296875 42.015625 
C 42.5 42.015625 45.296875 42.015625 47.40625 40.71875 
z
" id="CMMI12-120"/>
     </defs>
     <g transform="translate(42.109699 157.454137)rotate(-90)scale(0.14 -0.14)">
      <use transform="translate(0 14.943915)scale(0.996264)" xlink:href="#CMMI12-80"/>
      <use transform="translate(62.877232 0)scale(0.697382)" xlink:href="#CMMI12-120"/>
     </g>
    </g>
   </g>
   <g id="line2d_12">
    <path clip-path="url(#pd2cb468dfb)" d="M 93.497121 53.883291 
L 94.307735 54.095006 
L 95.928962 54.918002 
L 96.739576 55.04448 
L 97.550189 54.840054 
L 99.171417 54.098669 
L 99.98203 54.026892 
L 100.792644 54.269949 
L 102.413871 54.991504 
L 103.224485 55.01273 
L 104.035099 54.714931 
L 105.656326 53.935645 
L 106.46694 53.917462 
L 107.277553 54.226583 
L 108.898781 55.007566 
L 109.709394 55.012269 
L 110.520008 54.69059 
L 111.330622 54.235007 
L 112.141235 53.919569 
L 112.951849 53.935511 
L 113.762463 54.275725 
L 114.573076 54.737907 
L 115.38369 55.04521 
L 116.194304 55.012517 
L 118.626145 53.903905 
L 119.436759 53.961478 
L 121.8686 55.09355 
L 122.679213 55.018969 
L 125.111054 53.891828 
L 125.921668 53.995148 
L 128.353509 55.153815 
L 129.164123 55.033529 
L 130.78535 54.122775 
L 131.595964 53.884119 
L 132.406577 54.03792 
L 134.027805 54.99537 
L 134.838418 55.229486 
L 135.649032 55.05864 
L 137.27026 54.09013 
L 138.080873 53.881432 
L 138.891487 54.092285 
L 140.512714 55.11992 
L 141.323328 55.326343 
L 142.133942 55.098059 
L 143.755169 54.060074 
L 144.565783 53.884728 
L 145.376396 54.162315 
L 146.997624 55.277503 
L 147.808237 55.453745 
L 148.618851 55.157841 
L 150.240078 54.032562 
L 151.050692 53.895636 
L 151.861306 54.254795 
L 153.482533 55.484831 
L 154.293147 55.627386 
L 155.10376 55.248207 
L 156.724988 54.00759 
L 157.535602 53.917059 
L 158.346215 54.381592 
L 159.967443 55.771416 
L 160.778056 55.875209 
L 161.58867 55.387543 
L 162.399284 54.595439 
L 163.209897 53.985258 
L 164.020511 53.954477 
L 164.831125 54.564971 
L 165.641738 55.489646 
L 166.452352 56.193691 
L 167.262966 56.251321 
L 168.073579 55.61198 
L 168.884193 54.651517 
L 169.694807 53.965915 
L 170.50542 54.019096 
L 171.316034 54.850883 
L 172.126648 56.026356 
L 172.937261 56.87206 
L 173.747875 56.873388 
L 174.558489 56.001855 
L 175.369102 54.768348 
L 176.179716 53.950583 
L 176.99033 54.136589 
L 177.800943 55.34779 
L 178.611557 56.977259 
L 179.422171 58.106935 
L 180.232785 58.044105 
L 181.043398 56.771374 
L 181.854012 55.028925 
L 182.664626 53.942674 
L 183.475239 54.376162 
L 184.285853 56.367872 
L 185.096467 59.00345 
L 185.90708 60.852274 
L 186.717694 60.777773 
L 187.528308 58.686382 
L 188.338921 55.760178 
L 189.149535 53.959225 
L 189.960149 54.97387 
L 190.770762 59.15062 
L 191.581376 65.010741 
L 192.39199 69.746734 
L 193.202603 70.606246 
L 194.013217 66.580919 
L 194.823831 59.564636 
L 195.634444 54.287236 
L 196.445058 56.834664 
L 197.255672 72.219877 
L 198.066285 101.967227 
L 200.498127 224.350583 
L 201.30874 245.996871 
L 202.119354 246.537714 
L 202.929968 226.18151 
L 203.740581 190.423421 
L 205.361809 108.371908 
L 206.172422 78.198752 
L 206.983036 60.496453 
L 207.79365 54.16994 
L 208.604263 55.363169 
L 209.414877 59.397088 
L 210.225491 62.546263 
L 211.036104 63.031288 
L 211.846718 61.025845 
L 212.657332 57.907775 
L 213.467945 55.240517 
L 214.278559 53.975154 
L 215.089173 54.157895 
L 216.7104 56.075356 
L 217.521014 56.371996 
L 218.331627 55.933584 
L 219.952855 54.289351 
L 220.763468 53.905675 
L 221.574082 53.994194 
L 223.19531 54.714166 
L 224.005923 54.829092 
L 224.816537 54.661874 
L 226.437764 54.027122 
L 227.248378 53.887631 
L 228.869605 54.10362 
L 230.490833 54.296111 
L 232.11206 54.068442 
L 233.733287 53.882979 
L 238.596969 53.961556 
L 240.218197 53.881864 
L 245.081879 53.915159 
L 248.324334 53.908924 
L 253.998629 53.886333 
L 265.347221 53.881033 
L 369.916385 53.974541 
L 371.537613 54.048907 
L 375.590681 53.96996 
L 378.022522 54.243782 
L 381.264977 53.919422 
L 382.886204 54.396009 
L 383.696818 54.649847 
L 384.507432 54.711286 
L 385.318045 54.521996 
L 386.939273 53.924987 
L 387.749886 53.994752 
L 388.5605 54.488732 
L 390.181727 55.916103 
L 390.992341 56.079502 
L 391.802955 55.576972 
L 392.613569 54.662716 
L 393.424182 53.980826 
L 394.234796 54.271767 
L 395.04541 55.921021 
L 396.666637 61.154803 
L 397.477251 62.200618 
L 398.287864 60.802478 
L 399.909092 54.415251 
L 400.719705 55.608572 
L 401.530319 65.192887 
L 402.340933 85.933044 
L 403.151546 117.552161 
L 404.772774 193.857089 
L 405.583387 222.605382 
L 406.394001 234.936855 
L 407.204615 227.387852 
L 408.015228 201.595917 
L 410.447069 88.337181 
L 411.257683 65.112942 
L 412.068297 55.041129 
L 412.878911 55.471946 
L 414.500138 67.023093 
L 415.310752 69.249231 
L 416.121365 67.121738 
L 417.742593 57.201072 
L 418.553206 54.313943 
L 419.36382 54.346204 
L 420.174434 56.498884 
L 420.985047 59.050877 
L 421.795661 60.383574 
L 422.606275 59.800037 
L 424.227502 55.440434 
L 425.038116 54.06642 
L 425.848729 54.184044 
L 426.659343 55.470776 
L 427.469957 57.001326 
L 428.28057 57.820531 
L 429.091184 57.474348 
L 430.712411 54.784116 
L 431.523025 53.969457 
L 432.333639 54.139899 
L 433.954866 56.153922 
L 434.76548 56.701395 
L 435.576094 56.41255 
L 437.197321 54.462786 
L 438.007935 53.92582 
L 438.818548 54.129883 
L 440.439776 55.714835 
L 441.250389 56.098445 
L 442.061003 55.823336 
L 443.68223 54.278252 
L 444.492844 53.905979 
L 445.303458 54.134487 
L 446.924685 55.455826 
L 447.735299 55.729254 
L 448.545912 55.453556 
L 450.16714 54.160869 
L 450.977753 53.898851 
L 451.788367 54.147079 
L 453.409594 55.289947 
L 454.220208 55.482749 
L 455.030822 55.2008 
L 456.652049 54.080952 
L 457.462663 53.899585 
L 458.273277 54.164855 
L 459.894504 55.177696 
L 460.705118 55.307487 
L 461.515731 55.016802 
L 463.136959 54.024077 
L 463.947572 53.90581 
L 464.758186 54.186435 
L 466.379413 55.098832 
L 467.190027 55.176787 
L 468.000641 54.876259 
L 469.621868 53.982549 
L 470.432482 53.916257 
L 471.243095 54.211044 
L 472.864323 55.042038 
L 473.674936 55.075654 
L 474.48555 54.764869 
L 476.106777 53.951971 
L 476.917391 53.93017 
L 477.728005 54.238157 
L 478.538619 54.685304 
L 479.349232 55.00058 
L 480.159846 54.995203 
L 480.97046 54.674184 
L 481.781073 54.230951 
L 482.591687 53.929707 
L 483.402301 53.946973 
L 485.834142 54.970268 
L 486.644755 54.930132 
L 489.076596 53.914132 
L 489.88721 53.965919 
L 492.319051 54.948417 
L 493.129665 54.877814 
L 495.561506 53.904281 
L 496.372119 53.985056 
L 497.993347 54.719487 
L 497.993347 54.719487 
" style="fill:none;stroke:#1f77b4;stroke-linecap:square;stroke-width:1.5;"/>
   </g>
   <g id="line2d_13">
    <path clip-path="url(#pd2cb468dfb)" d="M 93.497121 54.347026 
L 94.307735 53.921 
L 95.118348 53.983813 
L 97.550189 55.471451 
L 98.360803 55.288198 
L 99.98203 54.101741 
L 100.792644 53.884055 
L 101.603258 54.200848 
L 103.224485 55.411052 
L 104.035099 55.511974 
L 104.845712 55.084733 
L 105.656326 54.409251 
L 106.46694 53.933632 
L 107.277553 53.979663 
L 108.088167 54.527976 
L 108.898781 55.226084 
L 109.709394 55.61714 
L 110.520008 55.441198 
L 112.141235 54.141651 
L 112.951849 53.883187 
L 113.762463 54.219651 
L 115.38369 55.587096 
L 116.194304 55.725946 
L 117.004918 55.263921 
L 117.815531 54.502544 
L 118.626145 53.949301 
L 119.436759 53.984776 
L 120.247372 54.606717 
L 121.057986 55.422605 
L 121.8686 55.901401 
L 122.679213 55.723541 
L 124.300441 54.206468 
L 125.111054 53.88316 
L 125.921668 54.270146 
L 127.542895 55.942836 
L 128.353509 56.146699 
L 129.164123 55.609406 
L 129.974736 54.678096 
L 130.78535 53.977074 
L 131.595964 54.001154 
L 132.406577 54.780072 
L 133.217191 55.840013 
L 134.027805 56.499552 
L 134.838418 56.316639 
L 136.459646 54.342179 
L 137.27026 53.884178 
L 138.080873 54.388319 
L 139.702101 56.762927 
L 140.512714 57.128798 
L 141.323328 56.428985 
L 142.133942 55.103132 
L 142.944555 54.047142 
L 143.755169 54.04294 
L 144.565783 55.224415 
L 145.376396 56.937848 
L 146.18701 58.118978 
L 146.997624 57.975874 
L 147.808237 56.548285 
L 148.618851 54.761031 
L 149.429465 53.890296 
L 150.240078 54.741147 
L 151.861306 59.54689 
L 152.671919 60.666259 
L 153.482533 59.58836 
L 155.10376 54.406908 
L 155.914374 54.177205 
L 156.724988 57.164679 
L 158.346215 67.186547 
L 159.156829 68.602992 
L 159.967443 65.299808 
L 160.778056 58.939685 
L 161.58867 54.174349 
L 162.399284 56.995506 
L 163.209897 72.05086 
L 164.020511 100.12563 
L 165.641738 174.479358 
L 166.452352 202.886965 
L 167.262966 214.659784 
L 168.073579 206.90935 
L 168.884193 182.307216 
L 171.316034 82.990545 
L 172.126648 63.953593 
L 172.937261 55.2882 
L 173.747875 54.13448 
L 175.369102 58.887046 
L 176.179716 59.577512 
L 176.99033 58.450112 
L 178.611557 54.740528 
L 179.422171 53.93981 
L 180.232785 54.043689 
L 181.854012 55.025747 
L 182.664626 55.072785 
L 183.475239 54.7533 
L 185.096467 53.976929 
L 185.90708 53.885883 
L 189.149535 54.177137 
L 191.581376 53.887799 
L 220.763468 53.898006 
L 228.869605 53.88293 
L 233.733287 53.89279 
L 236.975742 53.949126 
L 240.218197 53.88533 
L 249.134947 53.96801 
L 251.566788 53.924467 
L 253.998629 53.908309 
L 256.43047 53.987599 
L 260.483539 53.914923 
L 263.725994 53.990073 
L 272.642744 53.967641 
L 275.074585 53.954896 
L 277.506426 53.893127 
L 280.748881 53.980096 
L 283.991335 53.907477 
L 286.423177 53.991303 
L 290.476245 53.925316 
L 292.908086 53.973525 
L 296.150541 53.901754 
L 299.392995 53.949046 
L 301.824836 53.886691 
L 305.877905 53.923171 
L 308.309746 53.895573 
L 311.552201 53.928997 
L 314.794655 53.902128 
L 318.03711 53.905258 
L 322.900792 53.909279 
L 335.059997 53.883435 
L 345.597975 53.991783 
L 347.219202 54.187986 
L 348.84043 54.062222 
L 349.651044 53.924502 
L 350.461657 53.928518 
L 351.272271 54.225108 
L 352.893498 55.488836 
L 353.704112 55.834641 
L 354.514726 55.526161 
L 355.325339 54.645704 
L 356.135953 53.969271 
L 356.946567 54.967679 
L 357.75718 59.402275 
L 358.567794 68.577544 
L 359.378408 82.524021 
L 360.999635 116.162699 
L 361.810249 128.422411 
L 362.620862 132.831708 
L 363.431476 127.875998 
L 364.24209 114.662208 
L 365.863317 78.40497 
L 366.673931 64.102292 
L 367.484544 56.022918 
L 368.295158 54.042992 
L 369.105772 56.054339 
L 369.916385 59.140933 
L 370.726999 60.916624 
L 371.537613 60.412841 
L 373.15884 55.611605 
L 373.969454 54.087333 
L 374.780068 54.151611 
L 376.401295 56.752366 
L 377.211909 57.336031 
L 378.022522 56.801114 
L 379.64375 54.353405 
L 380.454363 53.905894 
L 381.264977 54.353637 
L 382.075591 55.290135 
L 382.886204 56.048741 
L 383.696818 56.135099 
L 384.507432 55.517796 
L 385.318045 54.610805 
L 386.128659 53.981768 
L 386.939273 53.985817 
L 387.749886 54.556971 
L 388.5605 55.276594 
L 389.371114 55.658925 
L 390.181727 55.461951 
L 391.802955 54.168038 
L 392.613569 53.894727 
L 393.424182 54.150974 
L 395.04541 55.247236 
L 395.856023 55.348401 
L 396.666637 54.980603 
L 397.477251 54.389829 
L 398.287864 53.956866 
L 399.098478 53.947298 
L 399.909092 54.344582 
L 400.719705 54.870409 
L 401.530319 55.172929 
L 402.340933 55.056248 
L 403.96216 54.108837 
L 404.772774 53.891744 
L 405.583387 54.07873 
L 407.204615 54.945836 
L 408.015228 55.046445 
L 408.825842 54.771516 
L 410.447069 53.948724 
L 411.257683 53.930096 
L 413.689524 54.953894 
L 414.500138 54.873719 
L 416.121365 54.085234 
L 416.931979 53.891054 
L 417.742593 54.040203 
L 419.36382 54.791873 
L 420.174434 54.894884 
L 420.985047 54.670029 
L 422.606275 53.948047 
L 423.416888 53.919015 
L 424.227502 54.192186 
L 425.038116 54.583008 
L 425.848729 54.832714 
L 426.659343 54.778091 
L 429.091184 53.891925 
L 429.901798 54.012102 
L 431.523025 54.696566 
L 432.333639 54.808818 
L 433.144252 54.621064 
L 434.76548 53.954887 
L 435.576094 53.908706 
L 436.386707 54.144962 
L 438.007935 54.754691 
L 438.818548 54.729464 
L 441.250389 53.896445 
L 442.061003 53.980175 
L 443.68223 54.61768 
L 444.492844 54.756944 
L 445.303458 54.61718 
L 446.924685 53.984599 
L 447.735299 53.894069 
L 448.545912 54.071764 
L 450.16714 54.67533 
L 450.977753 54.724648 
L 451.788367 54.524107 
L 453.409594 53.945765 
L 454.220208 53.901428 
L 455.841436 54.359633 
L 456.652049 54.602831 
L 457.462663 54.716441 
L 462.326345 54.598291 
L 464.758186 53.903051 
L 465.5688 53.941642 
L 468.000641 54.694131 
L 468.811254 54.649101 
L 471.243095 53.895754 
L 472.053709 53.97643 
L 473.674936 54.570394 
L 474.48555 54.703991 
L 475.296164 54.575989 
L 476.917391 53.97914 
L 477.728005 53.896207 
L 478.538619 54.07363 
L 480.159846 54.655145 
L 480.97046 54.680745 
L 483.402301 53.910687 
L 484.212914 53.946457 
L 486.644755 54.704035 
L 487.455369 54.607216 
L 489.076596 54.003696 
L 489.88721 53.893396 
L 490.697824 54.050869 
L 492.319051 54.650456 
L 493.129665 54.699358 
L 493.940278 54.487931 
L 495.561506 53.919713 
L 496.372119 53.938091 
L 497.993347 54.533333 
L 497.993347 54.533333 
" style="fill:none;stroke:#ff7f0e;stroke-linecap:square;stroke-width:1.5;"/>
   </g>
   <g id="line2d_14">
    <path clip-path="url(#pd2cb468dfb)" d="M 93.497121 53.88291 
L 94.307735 54.097403 
L 95.928962 54.920696 
L 96.739576 55.044543 
L 97.550189 54.83744 
L 99.171417 54.09612 
L 99.98203 54.027041 
L 100.792644 54.272667 
L 102.413871 54.993564 
L 103.224485 55.011844 
L 104.035099 54.711407 
L 105.656326 53.933141 
L 106.46694 53.918127 
L 107.277553 54.229984 
L 108.088167 54.684221 
L 108.898781 55.009729 
L 109.709394 55.011115 
L 110.520008 54.686661 
L 111.330622 54.230535 
L 112.141235 53.917152 
L 112.951849 53.936552 
L 115.38369 55.047211 
L 116.194304 55.010909 
L 118.626145 53.901663 
L 119.436759 53.962999 
L 121.8686 55.095326 
L 122.679213 55.016811 
L 125.111054 53.88981 
L 125.921668 53.997237 
L 128.353509 55.155303 
L 129.164123 55.030716 
L 130.78535 54.11756 
L 131.595964 53.882381 
L 132.406577 54.040682 
L 134.027805 55.000295 
L 134.838418 55.230614 
L 135.649032 55.055039 
L 137.27026 54.084605 
L 138.080873 53.880043 
L 138.891487 54.09586 
L 140.512714 55.125118 
L 141.323328 55.327013 
L 142.133942 55.093489 
L 143.755169 54.054183 
L 144.565783 53.883782 
L 145.376396 54.166896 
L 146.997624 55.28302 
L 147.808237 55.453824 
L 148.618851 55.152044 
L 150.240078 54.026216 
L 151.050692 53.895263 
L 151.861306 54.260667 
L 153.482533 55.490746 
L 154.293147 55.62668 
L 155.10376 55.240793 
L 156.724988 54.000647 
L 157.535602 53.917456 
L 158.346215 54.389199 
L 159.967443 55.777865 
L 160.778056 55.87342 
L 161.58867 55.377893 
L 162.399284 54.583155 
L 163.209897 53.977475 
L 164.020511 53.955961 
L 164.831125 54.575054 
L 165.641738 55.502308 
L 166.452352 56.200932 
L 167.262966 56.247958 
L 168.073579 55.599022 
L 168.884193 54.635956 
L 169.694807 53.956838 
L 170.50542 54.022229 
L 171.316034 54.864816 
L 172.126648 56.042865 
L 172.937261 56.880648 
L 173.747875 56.867581 
L 174.558489 55.983538 
L 175.369102 54.747331 
L 176.179716 53.939252 
L 176.99033 54.142484 
L 177.800943 55.36847 
L 178.611557 57.000799 
L 179.422171 58.11831 
L 180.232785 58.034165 
L 181.043398 56.743187 
L 181.854012 54.99735 
L 182.664626 53.92663 
L 183.475239 54.387432 
L 184.285853 56.402817 
L 185.096467 59.043032 
L 185.90708 60.871517 
L 186.717694 60.760306 
L 187.528308 58.636077 
L 188.338921 55.702473 
L 189.149535 53.929642 
L 189.960149 54.998307 
L 190.770762 59.227482 
L 191.581376 65.105633 
L 192.39199 69.805287 
L 193.202603 70.581698 
L 194.013217 66.464601 
L 194.823831 59.404008 
L 195.634444 54.179879 
L 196.445058 56.89669 
L 197.255672 72.539121 
L 198.066285 102.559919 
L 200.498127 225.034155 
L 201.30874 246.366367 
L 202.119354 246.505839 
L 202.929968 225.766052 
L 203.740581 189.737981 
L 205.361809 107.652655 
L 206.172422 77.665711 
L 206.983036 60.192395 
L 207.79365 54.064562 
L 208.604263 55.380051 
L 209.414877 59.450776 
L 210.225491 62.573934 
L 211.036104 63.008214 
L 211.846718 60.962261 
L 212.657332 57.83272 
L 213.467945 55.18241 
L 214.278559 53.948137 
L 215.089173 54.158485 
L 216.7104 56.084079 
L 217.521014 56.366741 
L 218.331627 55.914819 
L 219.952855 54.269173 
L 220.763468 53.895459 
L 221.574082 53.993665 
L 223.19531 54.716636 
L 224.005923 54.826017 
L 224.816537 54.653292 
L 226.437764 54.017978 
L 227.248378 53.88274 
L 228.869605 54.104763 
L 230.490833 54.293798 
L 232.11206 54.062689 
L 233.733287 53.88021 
L 237.786356 54.028496 
L 240.218197 53.880061 
L 245.081879 53.912998 
L 248.324334 53.908149 
L 253.998629 53.885444 
L 265.347221 53.88015 
L 369.916385 53.973678 
L 371.537613 54.044773 
L 375.590681 53.969281 
L 377.211909 54.2098 
L 378.833136 54.154657 
L 380.454363 53.891868 
L 381.264977 53.913428 
L 382.886204 54.4039 
L 383.696818 54.652378 
L 384.507432 54.699579 
L 385.318045 54.494168 
L 386.939273 53.896713 
L 387.749886 53.988175 
L 388.5605 54.506925 
L 390.181727 55.931416 
L 390.992341 56.056023 
L 391.802955 55.508238 
L 392.613569 54.57054 
L 393.424182 53.910236 
L 394.234796 54.269042 
L 395.04541 56.003271 
L 396.666637 61.253988 
L 397.477251 62.16783 
L 398.287864 60.583526 
L 399.098478 57.075 
L 399.909092 54.099177 
L 400.719705 55.611068 
L 401.530319 65.804588 
L 402.340933 87.336255 
L 403.151546 119.713011 
L 404.772774 196.433521 
L 405.583387 224.548903 
L 406.394001 235.766156 
L 407.204615 226.888471 
L 408.015228 199.898647 
L 410.447069 86.125791 
L 411.257683 63.669729 
L 412.068297 54.43442 
L 412.878911 55.502747 
L 414.500138 67.294114 
L 415.310752 69.265215 
L 416.121365 66.862492 
L 417.742593 56.832232 
L 418.553206 54.119379 
L 419.36382 54.356068 
L 420.985047 59.192629 
L 421.795661 60.422762 
L 422.606275 59.704161 
L 424.227502 55.260484 
L 425.038116 53.970674 
L 425.848729 54.199328 
L 427.469957 57.093567 
L 428.28057 57.848812 
L 429.091184 57.415634 
L 430.712411 54.669577 
L 431.523025 53.912159 
L 432.333639 54.158793 
L 433.954866 56.222253 
L 434.76548 56.720773 
L 435.576094 56.367009 
L 437.197321 54.379354 
L 438.007935 53.888226 
L 438.818548 54.151329 
L 440.439776 55.769353 
L 441.250389 56.111231 
L 442.061003 55.783385 
L 443.68223 54.21258 
L 444.492844 53.88042 
L 445.303458 54.158028 
L 446.924685 55.501298 
L 447.735299 55.736865 
L 448.545912 55.416025 
L 450.16714 54.106659 
L 450.977753 53.881625 
L 451.788367 54.172527 
L 453.409594 55.328902 
L 454.220208 55.486017 
L 455.030822 55.164103 
L 456.652049 54.03485 
L 457.462663 53.888707 
L 458.273277 54.192137 
L 459.894504 55.21158 
L 460.705118 55.306897 
L 461.515731 54.980039 
L 463.136959 53.984148 
L 463.947572 53.900142 
L 464.758186 54.215532 
L 466.379413 55.128507 
L 467.190027 55.172617 
L 468.000641 54.838869 
L 469.621868 53.947617 
L 470.432482 53.915115 
L 471.243095 54.24196 
L 472.053709 54.723979 
L 472.864323 55.068029 
L 473.674936 55.068055 
L 474.48555 54.726479 
L 475.296164 54.249538 
L 476.106777 53.921295 
L 476.917391 53.93313 
L 479.349232 55.023211 
L 480.159846 54.984255 
L 482.591687 53.902798 
L 483.402301 53.953754 
L 485.834142 54.989755 
L 486.644755 54.915891 
L 489.076596 53.890621 
L 489.88721 53.976283 
L 492.319051 54.964978 
L 493.129665 54.860412 
L 495.561506 53.883733 
L 496.372119 53.998603 
L 497.993347 54.757763 
L 497.993347 54.757763 
" style="fill:none;stroke:#0000ff;stroke-linecap:square;stroke-width:1.5;"/>
   </g>
   <g id="line2d_15">
    <path clip-path="url(#pd2cb468dfb)" d="M 93.497121 54.340546 
L 94.307735 53.91775 
L 95.118348 53.985908 
L 97.550189 55.473247 
L 98.360803 55.284422 
L 99.98203 54.095873 
L 100.792644 53.883215 
L 101.603258 54.205595 
L 103.224485 55.415828 
L 104.035099 55.510969 
L 104.845712 55.078341 
L 105.656326 54.401466 
L 106.46694 53.92948 
L 107.277553 53.981881 
L 108.088167 54.535123 
L 108.898781 55.233391 
L 109.709394 55.619591 
L 110.520008 55.436873 
L 112.141235 54.134314 
L 112.951849 53.881863 
L 113.762463 54.225264 
L 115.38369 55.593224 
L 116.194304 55.724987 
L 117.004918 55.256113 
L 117.815531 54.492715 
L 118.626145 53.9438 
L 119.436759 53.987276 
L 120.247372 54.615661 
L 121.057986 55.432056 
L 121.8686 55.904851 
L 122.679213 55.718246 
L 124.300441 54.19668 
L 125.111054 53.881049 
L 125.921668 54.277262 
L 127.542895 55.951313 
L 128.353509 56.14581 
L 129.164123 55.599065 
L 129.974736 54.664571 
L 130.78535 53.969088 
L 131.595964 54.004145 
L 132.406577 54.792365 
L 133.217191 55.853559 
L 134.027805 56.504994 
L 134.838418 56.309532 
L 136.459646 54.327411 
L 137.27026 53.880338 
L 138.080873 54.398453 
L 139.702101 56.776655 
L 140.512714 57.128357 
L 141.323328 56.413206 
L 142.133942 55.08116 
L 142.944555 54.033094 
L 143.755169 54.046768 
L 144.565783 55.244801 
L 145.376396 56.962056 
L 146.18701 58.130387 
L 146.997624 57.964858 
L 147.808237 56.519493 
L 148.618851 54.731824 
L 149.429465 53.880453 
L 150.240078 54.759734 
L 151.861306 59.580236 
L 152.671919 60.6709 
L 153.482533 59.555956 
L 155.10376 54.365888 
L 155.914374 54.180901 
L 156.724988 57.221826 
L 158.346215 67.248541 
L 159.156829 68.593412 
L 159.967443 65.205355 
L 160.778056 58.802822 
L 161.58867 54.087369 
L 162.399284 57.066619 
L 163.209897 72.355223 
L 164.020511 100.663363 
L 165.641738 175.149399 
L 166.452352 203.374015 
L 167.262966 214.837682 
L 168.073579 206.740414 
L 168.884193 181.851825 
L 171.316034 82.500533 
L 172.126648 63.64484 
L 172.937261 55.152363 
L 173.747875 54.115829 
L 175.369102 58.90777 
L 176.179716 59.566139 
L 176.99033 58.41088 
L 178.611557 54.703754 
L 179.422171 53.922473 
L 180.232785 54.042437 
L 181.854012 55.02697 
L 182.664626 55.066399 
L 183.475239 54.741223 
L 185.096467 53.967889 
L 185.90708 53.881881 
L 188.338921 54.212276 
L 189.960149 54.058656 
L 191.581376 53.884774 
L 210.225491 53.880025 
L 306.688519 53.890203 
L 313.984042 53.883837 
L 318.847724 53.885749 
L 335.059997 53.880665 
L 345.597975 53.990077 
L 347.219202 54.183278 
L 348.84043 54.042386 
L 349.651044 53.903616 
L 350.461657 53.917367 
L 351.272271 54.232003 
L 352.893498 55.507775 
L 353.704112 55.822127 
L 354.514726 55.461591 
L 355.325339 54.539754 
L 356.135953 53.881192 
L 356.946567 55.002571 
L 357.75718 59.681137 
L 358.567794 69.18587 
L 359.378408 83.458263 
L 360.999635 117.277966 
L 361.810249 129.24672 
L 362.620862 133.144981 
L 363.431476 127.589506 
L 364.24209 113.857959 
L 365.863317 77.314849 
L 366.673931 63.268972 
L 367.484544 55.574897 
L 368.295158 53.954949 
L 369.105772 56.182598 
L 369.916385 59.303041 
L 370.726999 60.975556 
L 371.537613 60.327205 
L 373.15884 55.436838 
L 373.969454 53.99747 
L 374.780068 54.168568 
L 376.401295 56.829337 
L 377.211909 57.349874 
L 378.022522 56.740728 
L 379.64375 54.273246 
L 380.454363 53.884566 
L 381.264977 54.392392 
L 382.075591 55.353547 
L 382.886204 56.089452 
L 383.696818 56.123986 
L 384.507432 55.4607 
L 385.318045 54.542452 
L 386.128659 53.942109 
L 386.939273 53.994562 
L 388.5605 55.324276 
L 389.371114 55.675199 
L 390.181727 55.434901 
L 391.802955 54.120474 
L 392.613569 53.881353 
L 393.424182 54.17676 
L 395.04541 55.279151 
L 395.856023 55.345326 
L 396.666637 54.943687 
L 397.477251 54.342153 
L 398.287864 53.927895 
L 399.098478 53.953661 
L 401.530319 55.188592 
L 402.340933 55.037726 
L 403.96216 54.070816 
L 404.772774 53.880458 
L 405.583387 54.099843 
L 407.204615 54.974514 
L 408.015228 55.046115 
L 408.825842 54.741761 
L 409.636456 54.263839 
L 410.447069 53.923313 
L 411.257683 53.935088 
L 413.689524 54.969621 
L 414.500138 54.858929 
L 416.121365 54.050781 
L 416.931979 53.880076 
L 417.742593 54.058933 
L 419.36382 54.819613 
L 420.174434 54.896334 
L 420.985047 54.643716 
L 422.606275 53.923573 
L 423.416888 53.922733 
L 425.848729 54.849284 
L 426.659343 54.76571 
L 428.28057 54.046223 
L 429.091184 53.880136 
L 429.901798 54.029053 
L 431.523025 54.724763 
L 432.333639 54.812271 
L 433.144252 54.597059 
L 434.76548 53.929695 
L 435.576094 53.910501 
L 438.007935 54.773271 
L 438.818548 54.719844 
L 441.250389 53.882165 
L 442.061003 53.994376 
L 443.68223 54.647799 
L 444.492844 54.764328 
L 445.303458 54.596737 
L 446.924685 53.956391 
L 447.735299 53.890656 
L 448.545912 54.094804 
L 450.16714 54.699397 
L 450.977753 54.723287 
L 452.598981 54.165315 
L 453.409594 53.922227 
L 454.220208 53.901353 
L 455.841436 54.389429 
L 456.652049 54.626312 
L 457.462663 54.72675 
L 462.326345 54.58396 
L 464.758186 53.886658 
L 465.5688 53.950735 
L 468.000641 54.710964 
L 468.811254 54.637253 
L 471.243095 53.881059 
L 472.053709 53.991974 
L 473.674936 54.603609 
L 474.48555 54.712696 
L 475.296164 54.553978 
L 476.917391 53.94795 
L 477.728005 53.893019 
L 478.538619 54.10054 
L 480.159846 54.681193 
L 480.97046 54.675911 
L 483.402301 53.889387 
L 484.212914 53.958036 
L 486.644755 54.717764 
L 487.455369 54.587165 
L 489.076596 53.967945 
L 489.88721 53.886511 
L 490.697824 54.077436 
L 492.319051 54.680833 
L 493.129665 54.697051 
L 495.561506 53.894497 
L 496.372119 53.948318 
L 497.993347 54.575463 
L 497.993347 54.575463 
" style="fill:none;stroke:#008000;stroke-linecap:square;stroke-width:1.5;"/>
   </g>
   <g id="patch_3">
    <path d="M 73.27231 256.170598 
L 73.27231 44.247139 
" style="fill:none;stroke:#000000;stroke-linecap:square;stroke-linejoin:miter;stroke-width:0.8;"/>
   </g>
   <g id="patch_4">
    <path d="M 518.218158 256.170598 
L 518.218158 44.247139 
" style="fill:none;stroke:#000000;stroke-linecap:square;stroke-linejoin:miter;stroke-width:0.8;"/>
   </g>
   <g id="patch_5">
    <path d="M 73.27231 256.170598 
L 518.218158 256.170598 
" style="fill:none;stroke:#000000;stroke-linecap:square;stroke-linejoin:miter;stroke-width:0.8;"/>
   </g>
   <g id="patch_6">
    <path d="M 73.27231 44.247139 
L 518.218158 44.247139 
" style="fill:none;stroke:#000000;stroke-linecap:square;stroke-linejoin:miter;stroke-width:0.8;"/>
   </g>
   <g id="text_14">
    <!-- Dynamical Decoupling on Carbon Atoms -->
    <defs>
     <path d="M 5.203125 68 
L 5.203125 65.40625 
C 12.09375 65.40625 13.203125 65.40625 13.203125 60.9375 
L 13.203125 7.0625 
C 13.203125 2.59375 12.09375 2.59375 5.203125 2.59375 
L 5.203125 0 
L 37 0 
C 53.09375 0 66 14.734375 66 33.453125 
C 66 52.28125 53.296875 68 37 68 
z
M 23.796875 2.59375 
C 19.796875 2.59375 19.59375 3.078125 19.59375 6.46875 
L 19.59375 61.53125 
C 19.59375 64.921875 19.796875 65.40625 23.796875 65.40625 
L 35 65.40625 
C 43.296875 65.40625 58.59375 60.53125 58.59375 33.453125 
C 58.59375 19.40625 54.5 13.734375 52.59375 11.046875 
C 50.203125 7.96875 44.5 2.59375 35 2.59375 
z
" id="CMR17-68"/>
     <path d="M 39 34.328125 
C 41.5 40.40625 46 40.40625 47.40625 40.40625 
L 47.40625 43 
C 45.5 43 43 43 41.09375 43 
C 39 43 35.703125 43 33.703125 43.09375 
L 33.703125 40.5 
C 37.5 40.203125 37.59375 37.40625 37.59375 36.609375 
C 37.59375 35.625 37.40625 35.125 36.90625 33.921875 
L 26 7.015625 
L 14.09375 36.03125 
C 13.59375 37.21875 13.59375 37.90625 13.59375 38.015625 
C 13.59375 40.203125 15.90625 40.40625 18.296875 40.40625 
L 18.296875 43.09375 
C 15.90625 43 11.59375 43 9.09375 43 
C 6.40625 43 3.203125 43 1 43.09375 
L 1 40.40625 
C 6.40625 40.40625 7 39.90625 8.296875 36.71875 
L 23.203125 0.234375 
C 18.703125 -11.53125 16.09375 -18.40625 9.796875 -18.40625 
C 8.703125 -18.40625 6.203125 -18.109375 4.40625 -16.3125 
C 6.703125 -16.109375 7.703125 -14.71875 7.703125 -13.015625 
C 7.703125 -11.328125 6.5 -9.828125 4.5 -9.828125 
C 2.296875 -9.828125 1.203125 -11.328125 1.203125 -13.125 
C 1.203125 -17.109375 5.296875 -20 9.796875 -20 
C 15.59375 -20 19.203125 -14.40625 21.203125 -9.4375 
z
" id="CMR17-121"/>
     <path d="M 41.5 30.203125 
C 41.5 35.296875 40.5 43.59375 28.703125 43.59375 
C 20.796875 43.59375 16.703125 37.5 15.203125 33.5 
L 15.09375 33.5 
L 15.09375 43.59375 
L 3.296875 42.5 
L 3.296875 39.90625 
C 9.203125 39.90625 10.09375 39.296875 10.09375 34.5 
L 10.09375 6.6875 
C 10.09375 2.875 9.703125 2.390625 3.296875 2.390625 
L 3.296875 -0.203125 
C 5.703125 0 10.09375 0 12.703125 0 
C 15.296875 0 19.796875 0 22.203125 -0.203125 
L 22.203125 2.390625 
C 15.796875 2.390625 15.40625 2.78125 15.40625 6.6875 
L 15.40625 25.90625 
C 15.40625 35.109375 21 42 28 42 
C 35.40625 42 36.203125 35.40625 36.203125 30.59375 
L 36.203125 6.6875 
C 36.203125 2.875 35.796875 2.390625 29.40625 2.390625 
L 29.40625 -0.203125 
C 31.796875 0 36.203125 0 38.796875 0 
C 41.40625 0 45.90625 0 48.296875 -0.203125 
L 48.296875 2.390625 
C 41.90625 2.390625 41.5 2.78125 41.5 6.6875 
z
" id="CMR17-110"/>
     <path d="M 36 25.828125 
C 36 32.375 36 35.84375 31.796875 39.734375 
C 28.09375 43 23.796875 44 20.40625 44 
C 12.5 44 6.796875 37.609375 6.796875 30.796875 
C 6.796875 27 9.796875 27 10.40625 27 
C 11.703125 27 14 27.78125 14 30.53125 
C 14 33 12.09375 34.078125 10.40625 34.078125 
C 10 34.078125 9.5 33.96875 9.203125 33.875 
C 11.296875 40.5 16.703125 42.40625 20.203125 42.40625 
C 25.203125 42.40625 30.703125 37.953125 30.703125 29.453125 
L 30.703125 25 
C 24.796875 25 17.703125 24.203125 12.09375 21.203125 
C 5.796875 17.703125 4 12.703125 4 8.90625 
C 4 1.203125 13 -1 18.296875 -1 
C 23.796875 -1 28.90625 2.171875 31.09375 7.984375 
C 31.296875 3.640625 34.09375 -0.28125 38.5 -0.28125 
C 40.59375 -0.28125 45.90625 1.09375 45.90625 8.859375 
L 45.90625 14.375 
L 44.09375 14.375 
L 44.09375 8.78125 
C 44.09375 2.78125 41.40625 2 40.09375 2 
C 36 2 36 7.15625 36 11.53125 
z
M 30.703125 13.59375 
C 30.703125 4.953125 24.5 0.59375 19 0.59375 
C 14 0.59375 10.09375 4.296875 10.09375 8.90625 
C 10.09375 11.890625 11.40625 17.1875 17.203125 20.390625 
C 22 23.09375 27.5 23.5 30.703125 23.5 
z
" id="CMR17-97"/>
     <path d="M 67.59375 30.203125 
C 67.59375 35.1875 66.703125 43.59375 54.796875 43.59375 
C 48 43.59375 43.296875 39 41.5 33.609375 
L 41.40625 33.609375 
C 40.203125 41.8125 34.296875 43.59375 28.703125 43.59375 
C 20.796875 43.59375 16.703125 37.5 15.203125 33.5 
L 15.09375 33.5 
L 15.09375 43.59375 
L 3.296875 42.5 
L 3.296875 39.90625 
C 9.203125 39.90625 10.09375 39.296875 10.09375 34.5 
L 10.09375 6.6875 
C 10.09375 2.875 9.703125 2.390625 3.296875 2.390625 
L 3.296875 -0.203125 
C 5.703125 0 10.09375 0 12.703125 0 
C 15.296875 0 19.796875 0 22.203125 -0.203125 
L 22.203125 2.390625 
C 15.796875 2.390625 15.40625 2.78125 15.40625 6.6875 
L 15.40625 25.90625 
C 15.40625 35.109375 21 42 28 42 
C 35.40625 42 36.203125 35.40625 36.203125 30.59375 
L 36.203125 6.6875 
C 36.203125 2.875 35.796875 2.390625 29.40625 2.390625 
L 29.40625 -0.203125 
C 31.796875 0 36.203125 0 38.796875 0 
C 41.40625 0 45.90625 0 48.296875 -0.203125 
L 48.296875 2.390625 
C 41.90625 2.390625 41.5 2.78125 41.5 6.6875 
L 41.5 25.90625 
C 41.5 35.109375 47.09375 42 54.09375 42 
C 61.5 42 62.296875 35.40625 62.296875 30.59375 
L 62.296875 6.6875 
C 62.296875 2.875 61.90625 2.390625 55.5 2.390625 
L 55.5 -0.203125 
C 57.90625 0 62.296875 0 64.90625 0 
C 67.5 0 72 0 74.40625 -0.203125 
L 74.40625 2.390625 
C 68 2.390625 67.59375 2.78125 67.59375 6.6875 
z
" id="CMR17-109"/>
     <path d="M 15.5 61.078125 
C 15.5 63.265625 13.703125 65.15625 11.40625 65.15625 
C 9.203125 65.15625 7.296875 63.375 7.296875 61.078125 
C 7.296875 58.890625 9.09375 57 11.40625 57 
C 13.59375 57 15.5 58.796875 15.5 61.078125 
z
M 3.796875 42.28125 
L 3.796875 39.703125 
C 9.40625 39.703125 10.203125 39.09375 10.203125 34.328125 
L 10.203125 6.671875 
C 10.203125 2.875 9.796875 2.390625 3.40625 2.390625 
L 3.40625 -0.203125 
C 5.796875 0 10.09375 0 12.59375 0 
C 15 0 19.09375 0 21.40625 -0.203125 
L 21.40625 2.390625 
C 15.5 2.390625 15.296875 2.984375 15.296875 6.5625 
L 15.296875 43.375 
z
" id="CMR17-105"/>
     <path d="M 34.90625 35 
C 33 35 30.203125 35 30.203125 31.515625 
C 30.203125 28.71875 32.5 27.921875 33.796875 27.921875 
C 34.5 27.921875 37.40625 28.234375 37.40625 31.625 
C 37.40625 38.546875 30.59375 43.796875 22.90625 43.796875 
C 12.296875 43.796875 3.296875 34.03125 3.296875 21.296875 
C 3.296875 8.0625 12.703125 -1 22.90625 -1 
C 35.296875 -1 38.40625 10.578125 38.40625 11.6875 
C 38.40625 12.09375 38.296875 12.390625 37.59375 12.390625 
C 36.90625 12.390625 36.796875 12.296875 36.40625 10.984375 
C 33.796875 2.8125 28.09375 0.796875 23.796875 0.796875 
C 17.40625 0.796875 9.703125 6.671875 9.703125 21.390625 
C 9.703125 36.53125 17.09375 42 23 42 
C 26.90625 42 32.703125 40.203125 34.90625 35 
z
" id="CMR17-99"/>
     <path d="M 15.296875 68.6875 
L 3.40625 67.59375 
L 3.40625 65 
C 9.296875 65 10.203125 64.40625 10.203125 59.640625 
L 10.203125 6.65625 
C 10.203125 2.875 9.796875 2.390625 3.40625 2.390625 
L 3.40625 -0.203125 
C 5.796875 0 10.203125 0 12.703125 0 
C 15.296875 0 19.703125 0 22.09375 -0.203125 
L 22.09375 2.390625 
C 15.703125 2.390625 15.296875 2.78125 15.296875 6.65625 
z
" id="CMR17-108"/>
     <path d="M 38.09375 23 
C 38.5 23.40625 38.5 23.609375 38.5 24.625 
C 38.5 34.96875 33.09375 44 21.703125 44 
C 11.09375 44 2.703125 33.890625 2.703125 21.609375 
C 2.703125 8.609375 12.203125 -1 22.796875 -1 
C 34 -1 38.40625 9.484375 38.40625 11.5625 
C 38.40625 12.25 37.796875 12.25 37.59375 12.25 
C 36.90625 12.25 36.796875 12.046875 36.40625 10.875 
C 34.203125 4.140625 28.703125 0.796875 23.5 0.796875 
C 19.203125 0.796875 14.90625 3.171875 12.203125 7.5 
C 9.09375 12.546875 9.09375 18.375 9.09375 23 
z
M 9.203125 24.5 
C 9.90625 39.140625 17.59375 42.40625 21.59375 42.40625 
C 28.40625 42.40625 33 35.890625 33.09375 24.5 
z
" id="CMR17-101"/>
     <path d="M 43.09375 21.1875 
C 43.09375 34 33.796875 44 22.90625 44 
C 12 44 2.703125 34 2.703125 21.1875 
C 2.703125 8.609375 12 -1 22.90625 -1 
C 33.796875 -1 43.09375 8.609375 43.09375 21.1875 
z
M 22.90625 0.796875 
C 18.203125 0.796875 14.203125 3.59375 11.90625 7.5 
C 9.40625 11.984375 9.09375 17.59375 9.09375 22 
C 9.09375 26.203125 9.296875 31.40625 11.90625 35.90625 
C 13.90625 39.203125 17.796875 42.40625 22.90625 42.40625 
C 27.40625 42.40625 31.203125 39.90625 33.59375 36.40625 
C 36.703125 31.703125 36.703125 25.109375 36.703125 22 
C 36.703125 18.09375 36.5 12.109375 33.796875 7.296875 
C 31 2.703125 26.703125 0.796875 22.90625 0.796875 
z
" id="CMR17-111"/>
     <path d="M 29.40625 42.078125 
L 29.40625 39.5 
C 35.296875 39.5 36.203125 38.890625 36.203125 34.15625 
L 36.203125 16.125 
C 36.203125 7.8125 31.703125 0.59375 24.296875 0.59375 
C 16.09375 0.59375 15.40625 5.4375 15.40625 10.59375 
L 15.40625 43.171875 
L 3.296875 42.078125 
L 3.296875 39.5 
C 7.296875 39.5 10 39.5 10.09375 35.53125 
L 10.09375 16.53125 
C 10.09375 9.890625 10.09375 5.640625 12.703125 2.859375 
C 14 1.578125 16.5 -1 23.703125 -1 
C 32.203125 -1 35.5 5.890625 36.296875 7.90625 
L 36.40625 7.90625 
L 36.40625 -0.984375 
L 48.296875 -0.984375 
L 48.296875 2 
C 42.40625 2 41.5 2.59375 41.5 7.390625 
L 41.5 43.171875 
z
" id="CMR17-117"/>
     <path d="M 22 -16.609375 
C 15.59375 -16.609375 15.203125 -16.203125 15.203125 -12.328125 
L 15.203125 6.28125 
C 18.09375 2.09375 22.296875 -0.59375 27.59375 -0.59375 
C 37.59375 -0.59375 47.703125 8.171875 47.703125 21.6875 
C 47.703125 34.234375 39 43.78125 28.703125 43.78125 
C 22.703125 43.78125 17.796875 40.5 15 36.53125 
L 15 43.78125 
L 3.09375 42.6875 
L 3.09375 40.109375 
C 9 40.109375 9.90625 39.5 9.90625 34.734375 
L 9.90625 -12.328125 
C 9.90625 -16.109375 9.5 -16.609375 3.09375 -16.609375 
L 3.09375 -19.1875 
C 5.5 -19 9.90625 -19 12.5 -19 
C 15.09375 -19 19.59375 -19 22 -19.1875 
z
M 15.203125 31.4375 
C 15.203125 32.84375 15.203125 34.921875 19.09375 38.609375 
C 19.59375 39.015625 23 42 28 42 
C 35.296875 42 41.296875 32.9375 41.296875 21.59375 
C 41.296875 10.25 34.90625 1 27 1 
C 23.40625 1 19.5 2.6875 16.5 7.375 
C 15.203125 9.5625 15.203125 10.15625 15.203125 11.75 
z
" id="CMR17-112"/>
     <path d="M 11.09375 18.1875 
C 13 16.6875 16.296875 15 20.296875 15 
C 28.203125 15 35 21.203125 35 29.5 
C 35 32.09375 34.203125 36.09375 31.203125 39.203125 
C 34 42.0625 38.09375 43 40.40625 43 
C 40.796875 43 41.40625 43 41.90625 42.71875 
C 41.5 42.625 40.59375 42.234375 40.59375 40.703125 
C 40.59375 39.484375 41.5 38.609375 42.796875 38.609375 
C 44.296875 38.609375 45.09375 39.578125 45.09375 40.84375 
C 45.09375 42.671875 43.59375 44.59375 40.40625 44.59375 
C 36.40625 44.59375 32.90625 42.78125 30.09375 40.3125 
C 27.09375 43.015625 23.5 44 20.296875 44 
C 12.40625 44 5.59375 37.796875 5.59375 29.5 
C 5.59375 23.78125 8.90625 20.1875 9.90625 19.1875 
C 6.90625 15.6875 6.90625 11.609375 6.90625 11.109375 
C 6.90625 8.515625 7.90625 4.71875 11.296875 2.625 
C 6.09375 1.328125 2 -2.640625 2 -7.59375 
C 2 -14.734375 11.5 -20 22.90625 -20 
C 33.90625 -20 43.796875 -14.9375 43.796875 -7.484375 
C 43.796875 6 29 6 21.296875 6 
C 19 6 14.90625 6 14.40625 6.109375 
C 11.296875 6.609375 9.203125 9.40625 9.203125 12.90625 
C 9.203125 13.796875 9.203125 16 11.09375 18.1875 
z
M 20.296875 16.6875 
C 11.5 16.6875 11.5 27.5 11.5 29.515625 
C 11.5 31.5 11.5 42.3125 20.296875 42.3125 
C 29.09375 42.3125 29.09375 31.5 29.09375 29.515625 
C 29.09375 27.5 29.09375 16.6875 20.296875 16.6875 
z
M 22.90625 -18.296875 
C 12.90625 -18.296875 6 -13.046875 6 -7.59375 
C 6 -4.515625 7.703125 -1.640625 9.90625 -0.0625 
C 12.40625 1.625 13.40625 1.625 20.203125 1.625 
C 28.40625 1.625 39.796875 1.625 39.796875 -7.59375 
C 39.796875 -13.046875 32.90625 -18.296875 22.90625 -18.296875 
z
" id="CMR17-103"/>
     <path d="M 62.09375 67.015625 
C 62.09375 68.796875 62 68.90625 61.40625 68.90625 
C 61 68.90625 60.90625 68.796875 60.203125 67.609375 
L 55.796875 59.25 
C 50.90625 65.421875 44.90625 69 37.203125 69 
C 20.09375 69 4.59375 54 4.59375 33.5625 
C 4.59375 12.90625 20.09375 -2 37.296875 -2 
C 52.59375 -2 62.09375 11.40625 62.09375 22.828125 
C 62.09375 23.8125 62.09375 24.21875 61.203125 24.21875 
C 60.40625 24.21875 60.40625 23.921875 60.296875 23.03125 
C 59.5 9.140625 49.5 0.59375 38.703125 0.59375 
C 28.5 0.59375 12.203125 7.734375 12.203125 33.546875 
C 12.203125 59.453125 28.796875 66.40625 38.5 66.40625 
C 49.796875 66.40625 58 56.6875 59.90625 42.890625 
C 60.09375 41.6875 60.09375 41.484375 61 41.484375 
C 62.09375 41.484375 62.09375 41.6875 62.09375 43.484375 
z
" id="CMR17-67"/>
     <path d="M 15 23.390625 
C 15 33 19.09375 42 26.59375 42 
C 27.296875 42 28 41.90625 28.703125 41.59375 
C 28.703125 41.59375 26.5 40.890625 26.5 38.3125 
C 26.5 35.90625 28.40625 34.90625 29.90625 34.90625 
C 31.09375 34.90625 33.296875 35.609375 33.296875 38.40625 
C 33.296875 41.609375 30.09375 43.59375 26.703125 43.59375 
C 19.09375 43.59375 15.796875 36.203125 14.796875 32.703125 
L 14.703125 32.703125 
L 14.703125 43.59375 
L 3.09375 42.5 
L 3.09375 39.90625 
C 9 39.90625 9.90625 39.296875 9.90625 34.5 
L 9.90625 6.6875 
C 9.90625 2.875 9.5 2.390625 3.09375 2.390625 
L 3.09375 -0.203125 
C 5.5 0 10.09375 0 12.703125 0 
C 15.59375 0 20.703125 0 23.40625 -0.203125 
L 23.40625 2.390625 
C 16.203125 2.390625 15 2.390625 15 6.875 
z
" id="CMR17-114"/>
     <path d="M 15 68.6875 
L 3.09375 67.59375 
L 3.09375 65 
C 9 65 9.90625 64.40625 9.90625 59.640625 
L 9.90625 -0.203125 
L 11.703125 -0.203125 
L 14.59375 6.890625 
C 17.5 2.203125 21.796875 -1 27.59375 -1 
C 37.59375 -1 47.703125 7.8125 47.703125 21.40625 
C 47.703125 34.1875 38.703125 43.59375 28.59375 43.59375 
C 22.40625 43.59375 18 40.296875 15 36.40625 
z
M 15.203125 31.3125 
C 15.203125 33.09375 15.203125 33.40625 16.59375 35.5 
C 20.5 41.515625 26.09375 42 28 42 
C 31 42 41.296875 40.390625 41.296875 21.5 
C 41.296875 1.6875 29.5 0.59375 27.09375 0.59375 
C 24 0.59375 19.5 1.78125 16.296875 7.59375 
C 15.203125 9.5 15.203125 9.703125 15.203125 11.484375 
z
" id="CMR17-98"/>
     <path d="M 36.296875 68.40625 
C 35.796875 69.703125 35.59375 70 34.59375 70 
C 33.59375 70 33.40625 69.703125 32.90625 68.40625 
L 11.703125 8.84375 
C 9.796875 3.484375 5.796875 2.390625 2.296875 2.390625 
L 2.296875 -0.203125 
C 4.09375 0 8.09375 0 10 0 
C 12.5 0 16.5 0 18.90625 -0.203125 
L 18.90625 2.390625 
C 14.203125 2.390625 13.5 5.640625 13.5 6.859375 
C 13.5 7.765625 13.703125 8.28125 13.90625 8.890625 
L 19.203125 24 
L 45.40625 24 
L 51.40625 6.90625 
C 51.90625 5.703125 51.90625 5.5 51.90625 5.109375 
C 51.90625 2.390625 47.59375 2.390625 45.703125 2.390625 
L 45.703125 0 
C 48.59375 0 53.796875 0 56.90625 0 
C 59.5 0 64.5 0 66.90625 -0.203125 
L 66.90625 2.390625 
C 61.59375 2.390625 59.796875 2.390625 58.5 6.046875 
z
M 32.296875 60.828125 
L 44.5 26.59375 
L 20.09375 26.59375 
z
" id="CMR17-65"/>
     <path d="M 15.09375 40 
L 29.09375 40 
L 29.09375 42.578125 
L 15.09375 42.578125 
L 15.09375 61 
L 13.296875 61 
C 13.09375 50.703125 9.59375 41.6875 1.09375 41.6875 
L 1.09375 40 
L 9.796875 40 
L 9.796875 12.046875 
C 9.796875 10.15625 9.796875 -1 21.40625 -1 
C 27.296875 -1 30.703125 4.78125 30.703125 12.140625 
L 30.703125 17.8125 
L 28.90625 17.8125 
L 28.90625 12.234375 
C 28.90625 5.375 26.203125 0.796875 22 0.796875 
C 19.09375 0.796875 15.09375 2.78125 15.09375 11.84375 
z
" id="CMR17-116"/>
     <path d="M 30.90625 42.140625 
C 30.90625 43.953125 30.796875 44.046875 30.203125 44.046875 
C 29.796875 44.046875 29.703125 43.953125 28.5 42.453125 
C 28.203125 42.046875 27.296875 41.03125 27 40.640625 
C 23.796875 44.046875 19.296875 44.046875 17.59375 44.046875 
C 6.5 44.046875 2.5 38.234375 2.5 32.4375 
C 2.5 23.40625 12.703125 21.328125 15.59375 20.703125 
C 21.90625 19.421875 24.09375 19.015625 26.203125 17.203125 
C 27.5 16.015625 29.703125 13.8125 29.703125 10.21875 
C 29.703125 6 27.296875 0.59375 18.09375 0.59375 
C 9.40625 0.59375 6.296875 7.1875 4.5 15.953125 
C 4.203125 17.34375 4.203125 17.453125 3.40625 17.453125 
C 2.59375 17.453125 2.5 17.34375 2.5 15.359375 
L 2.5 0.984375 
C 2.5 -0.796875 2.59375 -0.90625 3.203125 -0.90625 
C 3.703125 -0.90625 3.796875 -0.796875 4.296875 0 
C 4.90625 0.890625 6.40625 3.296875 7 4.3125 
C 9 1.609375 12.5 -1 18.09375 -1 
C 28 -1 33.296875 4.421875 33.296875 12.25 
C 33.296875 17.375 30.59375 20.078125 29.296875 21.28125 
C 26.296875 24.390625 22.796875 25.09375 18.59375 25.890625 
C 13.09375 27.109375 6.09375 28.515625 6.09375 34.640625 
C 6.09375 37.234375 7.5 42.765625 17.59375 42.765625 
C 28.296875 42.765625 28.90625 32.71875 29.09375 29.5 
C 29.203125 29 29.703125 28.890625 30 28.890625 
C 30.90625 28.890625 30.90625 29.203125 30.90625 30.90625 
z
" id="CMR17-115"/>
    </defs>
    <g transform="translate(137.546897 38.247139)scale(0.192 -0.192)">
     <use transform="scale(0.996264)" xlink:href="#CMR17-68"/>
     <use transform="translate(70.393556 0)scale(0.996264)" xlink:href="#CMR17-121"/>
     <use transform="translate(118.686472 0)scale(0.996264)" xlink:href="#CMR17-110"/>
     <use transform="translate(169.581842 0)scale(0.996264)" xlink:href="#CMR17-97"/>
     <use transform="translate(215.272319 0)scale(0.996264)" xlink:href="#CMR17-109"/>
     <use transform="translate(292.191909 0)scale(0.996264)" xlink:href="#CMR17-105"/>
     <use transform="translate(317.062967 0)scale(0.996264)" xlink:href="#CMR17-99"/>
     <use transform="translate(357.548627 0)scale(0.996264)" xlink:href="#CMR17-97"/>
     <use transform="translate(403.239105 0)scale(0.996264)" xlink:href="#CMR17-108"/>
     <use transform="translate(458.186129 0)scale(0.996264)" xlink:href="#CMR17-68"/>
     <use transform="translate(528.579685 0)scale(0.996264)" xlink:href="#CMR17-101"/>
     <use transform="translate(569.065346 0)scale(0.996264)" xlink:href="#CMR17-99"/>
     <use transform="translate(609.551006 0)scale(0.996264)" xlink:href="#CMR17-111"/>
     <use transform="translate(655.241483 0)scale(0.996264)" xlink:href="#CMR17-117"/>
     <use transform="translate(706.136853 0)scale(0.996264)" xlink:href="#CMR17-112"/>
     <use transform="translate(757.032223 0)scale(0.996264)" xlink:href="#CMR17-108"/>
     <use transform="translate(781.903281 0)scale(0.996264)" xlink:href="#CMR17-105"/>
     <use transform="translate(806.77434 0)scale(0.996264)" xlink:href="#CMR17-110"/>
     <use transform="translate(857.66971 0)scale(0.996264)" xlink:href="#CMR17-103"/>
     <use transform="translate(933.436153 0)scale(0.996264)" xlink:href="#CMR17-111"/>
     <use transform="translate(979.12663 0)scale(0.996264)" xlink:href="#CMR17-110"/>
     <use transform="translate(1060.097966 0)scale(0.996264)" xlink:href="#CMR17-67"/>
     <use transform="translate(1126.607847 0)scale(0.996264)" xlink:href="#CMR17-97"/>
     <use transform="translate(1172.298324 0)scale(0.996264)" xlink:href="#CMR17-114"/>
     <use transform="translate(1207.579092 0)scale(0.996264)" xlink:href="#CMR17-98"/>
     <use transform="translate(1261.0769 0)scale(0.996264)" xlink:href="#CMR17-111"/>
     <use transform="translate(1306.767377 0)scale(0.996264)" xlink:href="#CMR17-110"/>
     <use transform="translate(1387.738714 0)scale(0.996264)" xlink:href="#CMR17-65"/>
     <use transform="translate(1454.208689 0)scale(0.996264)" xlink:href="#CMR17-116"/>
     <use transform="translate(1489.489457 0)scale(0.996264)" xlink:href="#CMR17-111"/>
     <use transform="translate(1535.179934 0)scale(0.996264)" xlink:href="#CMR17-109"/>
     <use transform="translate(1612.099524 0)scale(0.996264)" xlink:href="#CMR17-115"/>
    </g>
   </g>
   <g id="legend_1">
    <g id="patch_7">
     <path d="M 241.289273 249.170598 
L 350.201194 249.170598 
Q 353.001194 249.170598 353.001194 246.370598 
L 353.001194 169.722485 
Q 353.001194 166.922485 350.201194 166.922485 
L 241.289273 166.922485 
Q 238.489273 166.922485 238.489273 169.722485 
L 238.489273 246.370598 
Q 238.489273 249.170598 241.289273 249.170598 
z
" style="fill:#ffffff;opacity:0.8;stroke:#cccccc;stroke-linejoin:miter;"/>
    </g>
    <g id="line2d_16">
     <path d="M 244.089273 177.422485 
L 272.089273 177.422485 
" style="fill:none;stroke:#1f77b4;stroke-linecap:square;stroke-width:1.5;"/>
    </g>
    <g id="line2d_17"/>
    <g id="text_15">
     <!-- C1 Sim -->
     <defs>
      <path d="M 43.796875 67.03125 
C 43.796875 68.8125 43.703125 68.921875 43.09375 68.921875 
C 42.5 68.921875 42.296875 68.515625 41.90625 67.625 
L 38.90625 61.046875 
C 35.09375 66.515625 29.296875 69 23 69 
C 12.796875 69 4.59375 60.953125 4.59375 50.828125 
C 4.59375 47.75 5.296875 43.375 8.703125 39.21875 
C 12.40625 34.65625 15.90625 33.859375 23.90625 31.765625 
C 26.90625 30.96875 31.90625 29.671875 32.90625 29.28125 
C 38.59375 26.90625 41.59375 20.953125 41.59375 15.390625 
C 41.59375 8.234375 36.5 0.59375 27.796875 0.59375 
C 17.09375 0.59375 7.09375 6.546875 6.40625 20.484375 
C 6.296875 22.078125 6.203125 22.171875 5.5 22.171875 
C 4.703125 22.171875 4.59375 22.078125 4.59375 20.078125 
L 4.59375 -0.015625 
C 4.59375 -1.796875 4.703125 -1.90625 5.296875 -1.90625 
C 6 -1.90625 6.203125 -1.40625 7.59375 1.6875 
C 7.703125 1.984375 7.703125 2.1875 9.59375 5.953125 
C 14.59375 -0.609375 23 -2 27.796875 -2 
C 38.703125 -2 46.40625 7.046875 46.40625 17.5625 
C 46.40625 22.71875 44.5 26.6875 43.40625 28.484375 
C 39.203125 34.84375 34.703125 36.03125 29.90625 37.21875 
C 29.203125 37.53125 29 37.53125 23.40625 38.90625 
C 18 40.296875 15.703125 41 13.203125 43.6875 
C 10.40625 46.75 9.40625 49.9375 9.40625 53.109375 
C 9.40625 59.5625 14.59375 66.609375 23.09375 66.609375 
C 33.703125 66.609375 40.296875 59.15625 41.796875 46.765625 
C 42.09375 44.96875 42.203125 44.875 42.90625 44.875 
C 43.796875 44.875 43.796875 45.171875 43.796875 46.859375 
z
" id="CMR17-83"/>
     </defs>
     <g transform="translate(283.289273 182.322485)scale(0.14 -0.14)">
      <use transform="scale(0.996264)" xlink:href="#CMR17-67"/>
      <use transform="translate(66.509881 0)scale(0.996264)" xlink:href="#CMR17-49"/>
      <use transform="translate(142.276324 0)scale(0.996264)" xlink:href="#CMR17-83"/>
      <use transform="translate(193.171694 0)scale(0.996264)" xlink:href="#CMR17-105"/>
      <use transform="translate(218.042752 0)scale(0.996264)" xlink:href="#CMR17-109"/>
     </g>
    </g>
    <g id="line2d_18">
     <path d="M 244.089273 196.934513 
L 272.089273 196.934513 
" style="fill:none;stroke:#ff7f0e;stroke-linecap:square;stroke-width:1.5;"/>
    </g>
    <g id="line2d_19"/>
    <g id="text_16">
     <!-- C2 Sim -->
     <g transform="translate(283.289273 201.834513)scale(0.14 -0.14)">
      <use transform="scale(0.996264)" xlink:href="#CMR17-67"/>
      <use transform="translate(66.509881 0)scale(0.996264)" xlink:href="#CMR17-50"/>
      <use transform="translate(142.276324 0)scale(0.996264)" xlink:href="#CMR17-83"/>
      <use transform="translate(193.171694 0)scale(0.996264)" xlink:href="#CMR17-105"/>
      <use transform="translate(218.042752 0)scale(0.996264)" xlink:href="#CMR17-109"/>
     </g>
    </g>
    <g id="line2d_20">
     <path d="M 244.089273 216.446541 
L 272.089273 216.446541 
" style="fill:none;stroke:#0000ff;stroke-linecap:square;stroke-width:1.5;"/>
    </g>
    <g id="line2d_21"/>
    <g id="text_17">
     <!-- C1 Theory -->
     <defs>
      <path d="M 62.203125 67.59375 
L 4.5 67.59375 
L 2.796875 45.59375 
L 4.59375 45.59375 
C 5.90625 62.125 7.296875 65 22.703125 65 
C 24.5 65 27.40625 65 28.203125 64.90625 
C 30.09375 64.609375 30.09375 63.40625 30.09375 61.125 
L 30.09375 7.171875 
C 30.09375 3.59375 29.796875 2.5 21.5 2.5 
L 18.703125 2.5 
L 18.703125 0 
C 23.5 0 28.5 0 33.40625 0 
C 38.296875 0 43.296875 0 48.09375 0 
L 48.09375 2.5 
L 45.296875 2.5 
C 37 2.5 36.703125 3.59375 36.703125 7.171875 
L 36.703125 61.125 
C 36.703125 63.3125 36.703125 64.515625 38.5 64.90625 
C 39.296875 65 42.203125 65 44 65 
C 59.296875 65 60.796875 62.125 62.09375 45.59375 
L 63.90625 45.59375 
z
" id="CMR17-84"/>
      <path d="M 41.5 30.203125 
C 41.5 35.296875 40.5 43.59375 28.703125 43.59375 
C 20.5 43.59375 16.5 37 15.296875 33.703125 
L 15.203125 33.703125 
L 15.203125 68.6875 
L 3.296875 67.59375 
L 3.296875 65 
C 9.203125 65 10.09375 64.40625 10.09375 59.640625 
L 10.09375 6.65625 
C 10.09375 2.875 9.703125 2.390625 3.296875 2.390625 
L 3.296875 -0.203125 
C 5.703125 0 10.09375 0 12.703125 0 
C 15.296875 0 19.796875 0 22.203125 -0.203125 
L 22.203125 2.390625 
C 15.796875 2.390625 15.40625 2.78125 15.40625 6.6875 
L 15.40625 25.90625 
C 15.40625 35.109375 21 42 28 42 
C 35.40625 42 36.203125 35.40625 36.203125 30.59375 
L 36.203125 6.6875 
C 36.203125 2.875 35.796875 2.390625 29.40625 2.390625 
L 29.40625 -0.203125 
C 31.796875 0 36.203125 0 38.796875 0 
C 41.40625 0 45.90625 0 48.296875 -0.203125 
L 48.296875 2.390625 
C 41.90625 2.390625 41.5 2.78125 41.5 6.6875 
z
" id="CMR17-104"/>
     </defs>
     <g transform="translate(283.289273 221.346541)scale(0.14 -0.14)">
      <use transform="scale(0.996264)" xlink:href="#CMR17-67"/>
      <use transform="translate(66.509881 0)scale(0.996264)" xlink:href="#CMR17-49"/>
      <use transform="translate(142.276324 0)scale(0.996264)" xlink:href="#CMR17-84"/>
      <use transform="translate(208.786205 0)scale(0.996264)" xlink:href="#CMR17-104"/>
      <use transform="translate(259.681574 0)scale(0.996264)" xlink:href="#CMR17-101"/>
      <use transform="translate(300.167235 0)scale(0.996264)" xlink:href="#CMR17-111"/>
      <use transform="translate(345.857712 0)scale(0.996264)" xlink:href="#CMR17-114"/>
      <use transform="translate(381.13848 0)scale(0.996264)" xlink:href="#CMR17-121"/>
     </g>
    </g>
    <g id="line2d_22">
     <path d="M 244.089273 235.95857 
L 272.089273 235.95857 
" style="fill:none;stroke:#008000;stroke-linecap:square;stroke-width:1.5;"/>
    </g>
    <g id="line2d_23"/>
    <g id="text_18">
     <!-- C2 Theory -->
     <g transform="translate(283.289273 240.85857)scale(0.14 -0.14)">
      <use transform="scale(0.996264)" xlink:href="#CMR17-67"/>
      <use transform="translate(66.509881 0)scale(0.996264)" xlink:href="#CMR17-50"/>
      <use transform="translate(142.276324 0)scale(0.996264)" xlink:href="#CMR17-84"/>
      <use transform="translate(208.786205 0)scale(0.996264)" xlink:href="#CMR17-104"/>
      <use transform="translate(259.681574 0)scale(0.996264)" xlink:href="#CMR17-101"/>
      <use transform="translate(300.167235 0)scale(0.996264)" xlink:href="#CMR17-111"/>
      <use transform="translate(345.857712 0)scale(0.996264)" xlink:href="#CMR17-114"/>
      <use transform="translate(381.13848 0)scale(0.996264)" xlink:href="#CMR17-121"/>
     </g>
    </g>
   </g>
  </g>
 </g>
 <defs>
  <clipPath id="pd2cb468dfb">
   <rect height="211.923459" width="444.945849" x="73.27231" y="44.247139"/>
  </clipPath>
 </defs>
</svg>
