<?xml version="1.0" encoding="utf-8" standalone="no"?>
<!DOCTYPE svg PUBLIC "-//W3C//DTD SVG 1.1//EN"
  "http://www.w3.org/Graphics/SVG/1.1/DTD/svg11.dtd">
<!-- Created with matplotlib (https://matplotlib.org/) -->
<svg height="342pt" version="1.1" viewBox="0 0 596.16 342" width="596.16pt" xmlns="http://www.w3.org/2000/svg" xmlns:xlink="http://www.w3.org/1999/xlink">
 <defs>
  <style type="text/css">
*{stroke-linecap:butt;stroke-linejoin:round;}
  </style>
 </defs>
 <g id="figure_1">
  <g id="patch_1">
   <path d="M 0 342 
L 596.16 342 
L 596.16 0 
L 0 0 
z
" style="fill:#ffffff;"/>
  </g>
  <g id="axes_1">
   <g id="patch_2">
    <path d="M 74.52 304.38 
L 536.544 304.38 
L 536.544 41.04 
L 74.52 41.04 
z
" style="fill:#ffffff;"/>
   </g>
   <g id="matplotlib.axis_1">
    <g id="xtick_1">
     <g id="line2d_1">
      <defs>
       <path d="M 0 0 
L 0 3.5 
" id="m18bc64456e" style="stroke:#000000;stroke-width:0.8;"/>
      </defs>
      <g>
       <use style="stroke:#000000;stroke-width:0.8;" x="159.009947" xlink:href="#m18bc64456e" y="304.38"/>
      </g>
     </g>
     <g id="text_1">
      <!-- $10^{2}$ -->
      <defs>
       <path d="M 26.59375 63.40625 
C 26.59375 65.5 26.5 65.5 25.09375 65.5 
C 21.203125 61.1875 15.296875 59.796875 9.703125 59.796875 
C 9.40625 59.796875 8.90625 59.796875 8.796875 59.5 
C 8.703125 59.296875 8.703125 59.09375 8.703125 57 
C 11.796875 57 17 57.59375 21 59.984375 
L 21 7.203125 
C 21 3.6875 20.796875 2.5 12.203125 2.5 
L 9.203125 2.5 
L 9.203125 0 
C 14 0 19 0 23.796875 0 
C 28.59375 0 33.59375 0 38.40625 0 
L 38.40625 2.5 
L 35.40625 2.5 
C 26.796875 2.5 26.59375 3.59375 26.59375 7.15625 
z
" id="CMR17-49"/>
       <path d="M 42 31.640625 
C 42 37.75 41.90625 48.125 37.703125 56.109375 
C 34 63.109375 28.09375 65.59375 22.90625 65.59375 
C 18.09375 65.59375 12 63.40625 8.203125 56.203125 
C 4.203125 48.71875 3.796875 39.4375 3.796875 31.640625 
C 3.796875 25.953125 3.90625 17.28125 7 9.671875 
C 11.296875 -0.609375 19 -2 22.90625 -2 
C 27.5 -2 34.5 -0.109375 38.59375 9.375 
C 41.59375 16.28125 42 24.359375 42 31.640625 
z
M 22.90625 -0.40625 
C 16.5 -0.40625 12.703125 5.078125 11.296875 12.6875 
C 10.203125 18.5625 10.203125 27.15625 10.203125 32.75 
C 10.203125 40.4375 10.203125 46.828125 11.5 52.921875 
C 13.40625 61.390625 19 64 22.90625 64 
C 27 64 32.296875 61.296875 34.203125 53.125 
C 35.5 47.4375 35.59375 40.734375 35.59375 32.75 
C 35.59375 26.25 35.59375 18.265625 34.40625 12.375 
C 32.296875 1.484375 26.40625 -0.40625 22.90625 -0.40625 
z
" id="CMR17-48"/>
       <path d="M 41.703125 15.453125 
L 39.90625 15.453125 
C 38.90625 8.375 38.09375 7.171875 37.703125 6.5625 
C 37.203125 5.765625 30 5.765625 28.59375 5.765625 
L 9.40625 5.765625 
C 13 9.671875 20 16.75 28.5 24.953125 
C 34.59375 30.734375 41.703125 37.53125 41.703125 47.421875 
C 41.703125 59.21875 32.296875 66 21.796875 66 
C 10.796875 66 4.09375 56.3125 4.09375 47.34375 
C 4.09375 43.4375 7 42.9375 8.203125 42.9375 
C 9.203125 42.9375 12.203125 43.546875 12.203125 47.03125 
C 12.203125 50.109375 9.59375 51 8.203125 51 
C 7.59375 51 7 50.90625 6.59375 50.703125 
C 8.5 59.21875 14.296875 63.40625 20.40625 63.40625 
C 29.09375 63.40625 34.796875 56.515625 34.796875 47.421875 
C 34.796875 38.734375 29.703125 31.25 24 24.75 
L 4.09375 2.28125 
L 4.09375 0 
L 39.296875 0 
z
" id="CMR17-50"/>
      </defs>
      <g transform="translate(149.672845 321.065876)scale(0.14 -0.14)">
       <use transform="scale(0.996264)" xlink:href="#CMR17-49"/>
       <use transform="translate(45.690477 0)scale(0.996264)" xlink:href="#CMR17-48"/>
       <use transform="translate(91.380954 36.153639)scale(0.697382)" xlink:href="#CMR17-50"/>
      </g>
     </g>
    </g>
    <g id="xtick_2">
     <g id="line2d_2">
      <g>
       <use style="stroke:#000000;stroke-width:0.8;" x="371.328248" xlink:href="#m18bc64456e" y="304.38"/>
      </g>
     </g>
     <g id="text_2">
      <!-- $10^{3}$ -->
      <defs>
       <path d="M 22.09375 33.703125 
C 31 33.703125 34.90625 25.96875 34.90625 17.03125 
C 34.90625 5 28.5 0.390625 22.703125 0.390625 
C 17.40625 0.390625 8.796875 3.03125 6.09375 10.828125 
C 6.59375 10.625 7.09375 10.625 7.59375 10.625 
C 10 10.625 11.796875 12.21875 11.796875 14.8125 
C 11.796875 17.703125 9.59375 19 7.59375 19 
C 5.90625 19 3.296875 18.203125 3.296875 14.46875 
C 3.296875 5.234375 12.296875 -2 22.90625 -2 
C 34 -2 42.5 6.71875 42.5 16.953125 
C 42.5 26.671875 34.5 33.703125 25 34.796875 
C 32.59375 36.375 39.90625 43.0625 39.90625 52.015625 
C 39.90625 59.6875 32 65.296875 23 65.296875 
C 13.90625 65.296875 5.90625 59.828125 5.90625 52.015625 
C 5.90625 48.59375 8.5 48 9.796875 48 
C 11.90625 48 13.703125 49.296875 13.703125 51.890625 
C 13.703125 54.46875 11.90625 55.765625 9.796875 55.765625 
C 9.40625 55.765625 8.90625 55.765625 8.5 55.578125 
C 11.40625 61.859375 19.296875 63 22.796875 63 
C 26.296875 63 32.90625 61.328125 32.90625 51.875 
C 32.90625 49.109375 32.5 44.1875 29.09375 39.84375 
C 26.09375 36 22.703125 36 19.40625 35.6875 
C 18.90625 35.6875 16.59375 35.453125 16.203125 35.453125 
C 15.5 35.359375 15.09375 35.265625 15.09375 34.5 
C 15.09375 33.796875 15.203125 33.703125 17.203125 33.703125 
z
" id="CMR17-51"/>
      </defs>
      <g transform="translate(361.991146 321.065876)scale(0.14 -0.14)">
       <use transform="scale(0.996264)" xlink:href="#CMR17-49"/>
       <use transform="translate(45.690477 0)scale(0.996264)" xlink:href="#CMR17-48"/>
       <use transform="translate(91.380954 36.153639)scale(0.697382)" xlink:href="#CMR17-51"/>
      </g>
     </g>
    </g>
    <g id="xtick_3">
     <g id="line2d_3">
      <defs>
       <path d="M 0 0 
L 0 2 
" id="m5c7a13fab5" style="stroke:#000000;stroke-width:0.6;"/>
      </defs>
      <g>
       <use style="stroke:#000000;stroke-width:0.6;" x="74.52" xlink:href="#m5c7a13fab5" y="304.38"/>
      </g>
     </g>
    </g>
    <g id="xtick_4">
     <g id="line2d_4">
      <g>
       <use style="stroke:#000000;stroke-width:0.6;" x="95.095769" xlink:href="#m5c7a13fab5" y="304.38"/>
      </g>
     </g>
    </g>
    <g id="xtick_5">
     <g id="line2d_5">
      <g>
       <use style="stroke:#000000;stroke-width:0.6;" x="111.907397" xlink:href="#m5c7a13fab5" y="304.38"/>
      </g>
     </g>
    </g>
    <g id="xtick_6">
     <g id="line2d_6">
      <g>
       <use style="stroke:#000000;stroke-width:0.6;" x="126.121426" xlink:href="#m5c7a13fab5" y="304.38"/>
      </g>
     </g>
    </g>
    <g id="xtick_7">
     <g id="line2d_7">
      <g>
       <use style="stroke:#000000;stroke-width:0.6;" x="138.434177" xlink:href="#m5c7a13fab5" y="304.38"/>
      </g>
     </g>
    </g>
    <g id="xtick_8">
     <g id="line2d_8">
      <g>
       <use style="stroke:#000000;stroke-width:0.6;" x="149.294794" xlink:href="#m5c7a13fab5" y="304.38"/>
      </g>
     </g>
    </g>
    <g id="xtick_9">
     <g id="line2d_9">
      <g>
       <use style="stroke:#000000;stroke-width:0.6;" x="222.924124" xlink:href="#m5c7a13fab5" y="304.38"/>
      </g>
     </g>
    </g>
    <g id="xtick_10">
     <g id="line2d_10">
      <g>
       <use style="stroke:#000000;stroke-width:0.6;" x="260.311521" xlink:href="#m5c7a13fab5" y="304.38"/>
      </g>
     </g>
    </g>
    <g id="xtick_11">
     <g id="line2d_11">
      <g>
       <use style="stroke:#000000;stroke-width:0.6;" x="286.838301" xlink:href="#m5c7a13fab5" y="304.38"/>
      </g>
     </g>
    </g>
    <g id="xtick_12">
     <g id="line2d_12">
      <g>
       <use style="stroke:#000000;stroke-width:0.6;" x="307.414071" xlink:href="#m5c7a13fab5" y="304.38"/>
      </g>
     </g>
    </g>
    <g id="xtick_13">
     <g id="line2d_13">
      <g>
       <use style="stroke:#000000;stroke-width:0.6;" x="324.225699" xlink:href="#m5c7a13fab5" y="304.38"/>
      </g>
     </g>
    </g>
    <g id="xtick_14">
     <g id="line2d_14">
      <g>
       <use style="stroke:#000000;stroke-width:0.6;" x="338.439727" xlink:href="#m5c7a13fab5" y="304.38"/>
      </g>
     </g>
    </g>
    <g id="xtick_15">
     <g id="line2d_15">
      <g>
       <use style="stroke:#000000;stroke-width:0.6;" x="350.752479" xlink:href="#m5c7a13fab5" y="304.38"/>
      </g>
     </g>
    </g>
    <g id="xtick_16">
     <g id="line2d_16">
      <g>
       <use style="stroke:#000000;stroke-width:0.6;" x="361.613096" xlink:href="#m5c7a13fab5" y="304.38"/>
      </g>
     </g>
    </g>
    <g id="xtick_17">
     <g id="line2d_17">
      <g>
       <use style="stroke:#000000;stroke-width:0.6;" x="435.242426" xlink:href="#m5c7a13fab5" y="304.38"/>
      </g>
     </g>
    </g>
    <g id="xtick_18">
     <g id="line2d_18">
      <g>
       <use style="stroke:#000000;stroke-width:0.6;" x="472.629823" xlink:href="#m5c7a13fab5" y="304.38"/>
      </g>
     </g>
    </g>
    <g id="xtick_19">
     <g id="line2d_19">
      <g>
       <use style="stroke:#000000;stroke-width:0.6;" x="499.156603" xlink:href="#m5c7a13fab5" y="304.38"/>
      </g>
     </g>
    </g>
    <g id="xtick_20">
     <g id="line2d_20">
      <g>
       <use style="stroke:#000000;stroke-width:0.6;" x="519.732372" xlink:href="#m5c7a13fab5" y="304.38"/>
      </g>
     </g>
    </g>
    <g id="xtick_21">
     <g id="line2d_21">
      <g>
       <use style="stroke:#000000;stroke-width:0.6;" x="536.544" xlink:href="#m5c7a13fab5" y="304.38"/>
      </g>
     </g>
    </g>
    <g id="text_3">
     <!-- $\tau$ -->
     <defs>
      <path d="M 28.703125 37.625 
L 45.296875 37.625 
C 46.59375 37.625 49.90625 37.625 49.90625 40.8125 
C 49.90625 43 48 43 46.203125 43 
L 18.703125 43 
C 16.40625 43 13 43 8.40625 38.125 
C 5.796875 35.234375 2.59375 29.953125 2.59375 29.359375 
C 2.59375 28.765625 3.09375 28.5625 3.703125 28.5625 
C 4.40625 28.5625 4.5 28.859375 5 29.453125 
C 10.203125 37.625 15.40625 37.625 17.90625 37.625 
L 26.203125 37.625 
L 15.796875 3.484375 
C 15.296875 1.984375 15.296875 1.78125 15.296875 1.484375 
C 15.296875 0.390625 16 -1 18 -1 
C 21.09375 -1 21.59375 1.6875 21.90625 3.171875 
z
" id="CMMI12-28"/>
     </defs>
     <g transform="translate(302.566535 337.463781)scale(0.14 -0.14)">
      <use transform="scale(0.996264)" xlink:href="#CMMI12-28"/>
     </g>
    </g>
   </g>
   <g id="matplotlib.axis_2">
    <g id="ytick_1">
     <g id="line2d_22">
      <defs>
       <path d="M 0 0 
L -3.5 0 
" id="m46ab79ed8d" style="stroke:#000000;stroke-width:0.8;"/>
      </defs>
      <g>
       <use style="stroke:#000000;stroke-width:0.8;" x="74.52" xlink:href="#m46ab79ed8d" y="279.222052"/>
      </g>
     </g>
     <g id="text_4">
      <!-- $0.5$ -->
      <defs>
       <path d="M 18.40625 4.796875 
C 18.40625 7.6875 16 9.671875 13.59375 9.671875 
C 10.703125 9.671875 8.703125 7.28125 8.703125 4.890625 
C 8.703125 2 11.09375 0 13.5 0 
C 16.40625 0 18.40625 2.390625 18.40625 4.796875 
z
" id="CMMI12-58"/>
       <path d="M 11.40625 57.6875 
C 12.40625 57.28125 16.5 56 20.703125 56 
C 30 56 35.09375 61.109375 38 64.0625 
C 38 64.953125 38 65.5 37.40625 65.5 
C 37.296875 65.5 37.09375 65.5 36.296875 65.046875 
C 32.796875 63.40625 28.703125 62.078125 23.703125 62.078125 
C 20.703125 62.078125 16.203125 62.484375 11.296875 64.671875 
C 10.203125 65.171875 10 65.171875 9.90625 65.171875 
C 9.40625 65.171875 9.296875 65.0625 9.296875 63.078125 
L 9.296875 34.421875 
C 9.296875 32.640625 9.296875 32.140625 10.296875 32.140625 
C 10.796875 32.140625 11 32.34375 11.5 33.03125 
C 14.703125 37.515625 19.09375 39.40625 24.09375 39.40625 
C 27.59375 39.40625 35.09375 37.21875 35.09375 20.140625 
C 35.09375 16.953125 35.09375 11.171875 32.09375 6.578125 
C 29.59375 2.484375 25.703125 0.390625 21.40625 0.390625 
C 14.796875 0.390625 8.09375 5 6.296875 12.71875 
C 6.703125 12.609375 7.5 12.421875 7.90625 12.421875 
C 9.203125 12.421875 11.703125 13.125 11.703125 16.21875 
C 11.703125 18.90625 9.796875 20 7.90625 20 
C 5.59375 20 4.09375 18.59375 4.09375 15.796875 
C 4.09375 7.09375 11 -2 21.59375 -2 
C 31.90625 -2 41.703125 6.875 41.703125 19.75 
C 41.703125 31.71875 33.90625 41 24.203125 41 
C 19.09375 41 14.796875 39.109375 11.40625 35.53125 
z
" id="CMR17-53"/>
      </defs>
      <g transform="translate(50.069418 284.06499)scale(0.14 -0.14)">
       <use transform="scale(0.996264)" xlink:href="#CMR17-48"/>
       <use transform="translate(45.690477 0)scale(0.996264)" xlink:href="#CMMI12-58"/>
       <use transform="translate(72.787654 0)scale(0.996264)" xlink:href="#CMR17-53"/>
      </g>
     </g>
    </g>
    <g id="ytick_2">
     <g id="line2d_23">
      <g>
       <use style="stroke:#000000;stroke-width:0.8;" x="74.52" xlink:href="#m46ab79ed8d" y="232.725135"/>
      </g>
     </g>
     <g id="text_5">
      <!-- $0.6$ -->
      <defs>
       <path d="M 10.59375 34 
C 10.59375 57.65625 21.796875 63 28.296875 63 
C 30.40625 63 35.5 62.640625 37.5 59 
C 35.90625 59 32.90625 59 32.90625 55.515625 
C 32.90625 52.828125 35.09375 51.921875 36.5 51.921875 
C 37.40625 51.921875 40.09375 52.3125 40.09375 55.625 
C 40.09375 61.78125 35.09375 65.296875 28.203125 65.296875 
C 16.296875 65.296875 3.796875 52.96875 3.796875 31 
C 3.796875 3.953125 15.09375 -2 23.09375 -2 
C 32.796875 -2 42 6.671875 42 20.046875 
C 42 32.515625 33.90625 41.59375 23.703125 41.59375 
C 17.59375 41.59375 13.09375 37.609375 10.59375 30.625 
z
M 23.09375 0.390625 
C 10.796875 0.390625 10.796875 18.75 10.796875 22.4375 
C 10.796875 29.625 14.203125 40 23.5 40 
C 25.203125 40 30.09375 40 33.40625 33.125 
C 35.203125 29.21875 35.203125 25.140625 35.203125 20.140625 
C 35.203125 14.75 35.203125 10.78125 33.09375 6.78125 
C 30.90625 2.671875 27.703125 0.390625 23.09375 0.390625 
z
" id="CMR17-54"/>
      </defs>
      <g transform="translate(50.069418 237.568073)scale(0.14 -0.14)">
       <use transform="scale(0.996264)" xlink:href="#CMR17-48"/>
       <use transform="translate(45.690477 0)scale(0.996264)" xlink:href="#CMMI12-58"/>
       <use transform="translate(72.787654 0)scale(0.996264)" xlink:href="#CMR17-54"/>
      </g>
     </g>
    </g>
    <g id="ytick_3">
     <g id="line2d_24">
      <g>
       <use style="stroke:#000000;stroke-width:0.8;" x="74.52" xlink:href="#m46ab79ed8d" y="186.228218"/>
      </g>
     </g>
     <g id="text_6">
      <!-- $0.7$ -->
      <defs>
       <path d="M 45.09375 61.578125 
L 45.09375 63.765625 
L 21.59375 63.765625 
C 9.90625 63.765625 9.703125 65.078125 9.296875 67 
L 7.5 67 
L 4.59375 48.34375 
L 6.40625 48.34375 
C 6.703125 50.234375 7.40625 55.3125 8.59375 57.203125 
C 9.203125 58 16.59375 58 18.296875 58 
L 40.296875 58 
L 29.203125 41.578125 
C 21.796875 30.53125 16.703125 15.609375 16.703125 2.578125 
C 16.703125 1.390625 16.703125 -2 20.296875 -2 
C 23.90625 -2 23.90625 1.390625 23.90625 2.671875 
L 23.90625 7.265625 
C 23.90625 23.5625 26.703125 34.3125 31.296875 41.1875 
z
" id="CMR17-55"/>
      </defs>
      <g transform="translate(50.069418 191.071157)scale(0.14 -0.14)">
       <use transform="scale(0.996264)" xlink:href="#CMR17-48"/>
       <use transform="translate(45.690477 0)scale(0.996264)" xlink:href="#CMMI12-58"/>
       <use transform="translate(72.787654 0)scale(0.996264)" xlink:href="#CMR17-55"/>
      </g>
     </g>
    </g>
    <g id="ytick_4">
     <g id="line2d_25">
      <g>
       <use style="stroke:#000000;stroke-width:0.8;" x="74.52" xlink:href="#m46ab79ed8d" y="139.731302"/>
      </g>
     </g>
     <g id="text_7">
      <!-- $0.8$ -->
      <defs>
       <path d="M 27.203125 35.375 
C 33.5 38.546875 39.90625 43.328125 39.90625 50.984375 
C 39.90625 60.015625 31.09375 65.296875 23 65.296875 
C 13.90625 65.296875 5.90625 58.734375 5.90625 49.6875 
C 5.90625 47.203125 6.5 42.921875 10.40625 39.140625 
C 11.40625 38.15625 15.59375 35.171875 18.296875 33.28125 
C 13.796875 30.984375 3.296875 25.53125 3.296875 14.59375 
C 3.296875 4.359375 13.09375 -2 22.796875 -2 
C 33.5 -2 42.5 5.65625 42.5 15.78125 
C 42.5 24.84375 36.40625 29.015625 32.40625 31.703125 
z
M 14.09375 44.09375 
C 13.296875 44.59375 9.296875 47.671875 9.296875 52.359375 
C 9.296875 58.421875 15.59375 63 22.796875 63 
C 30.703125 63 36.5 57.4375 36.5 50.96875 
C 36.5 41.703125 26.09375 36.421875 25.59375 36.421875 
C 25.5 36.421875 25.40625 36.421875 24.59375 37.03125 
z
M 32.5 23.734375 
C 34 22.640625 38.796875 19.375 38.796875 13.296875 
C 38.796875 5.953125 31.40625 0.390625 23 0.390625 
C 13.90625 0.390625 7 6.84375 7 14.6875 
C 7 22.546875 13.09375 29.09375 20 32.1875 
z
" id="CMR17-56"/>
      </defs>
      <g transform="translate(50.069418 144.57424)scale(0.14 -0.14)">
       <use transform="scale(0.996264)" xlink:href="#CMR17-48"/>
       <use transform="translate(45.690477 0)scale(0.996264)" xlink:href="#CMMI12-58"/>
       <use transform="translate(72.787654 0)scale(0.996264)" xlink:href="#CMR17-56"/>
      </g>
     </g>
    </g>
    <g id="ytick_5">
     <g id="line2d_26">
      <g>
       <use style="stroke:#000000;stroke-width:0.8;" x="74.52" xlink:href="#m46ab79ed8d" y="93.234385"/>
      </g>
     </g>
     <g id="text_8">
      <!-- $0.9$ -->
      <defs>
       <path d="M 35.203125 29.125 
C 35.203125 7.25 26.09375 0.484375 18.59375 0.484375 
C 16.296875 0.484375 10.703125 0.484375 8.40625 4.59375 
C 11 4.1875 12.90625 5.578125 12.90625 8.09375 
C 12.90625 10.8125 10.703125 11.703125 9.296875 11.703125 
C 8.40625 11.703125 5.703125 11.296875 5.703125 7.90625 
C 5.703125 1.109375 11.59375 -2 18.796875 -2 
C 30.296875 -2 42 10.53125 42 32.390625 
C 42 59.640625 30.796875 65.296875 23.203125 65.296875 
C 13.296875 65.296875 3.796875 56.6875 3.796875 43.40625 
C 3.796875 31.109375 11.90625 22 22.09375 22 
C 30.5 22 34.203125 29.734375 35.203125 33 
z
M 22.296875 23.59375 
C 19.59375 23.59375 15.796875 24.09375 12.703125 30.03125 
C 10.59375 33.890625 10.59375 38.453125 10.59375 43.296875 
C 10.59375 49.15625 10.59375 53.203125 13.40625 57.5625 
C 14.796875 59.640625 17.40625 63 23.203125 63 
C 35 63 35 45.078125 35 41.125 
C 35 34.09375 31.796875 23.59375 22.296875 23.59375 
z
" id="CMR17-57"/>
      </defs>
      <g transform="translate(50.069418 98.077323)scale(0.14 -0.14)">
       <use transform="scale(0.996264)" xlink:href="#CMR17-48"/>
       <use transform="translate(45.690477 0)scale(0.996264)" xlink:href="#CMMI12-58"/>
       <use transform="translate(72.787654 0)scale(0.996264)" xlink:href="#CMR17-57"/>
      </g>
     </g>
    </g>
    <g id="ytick_6">
     <g id="line2d_27">
      <g>
       <use style="stroke:#000000;stroke-width:0.8;" x="74.52" xlink:href="#m46ab79ed8d" y="46.737469"/>
      </g>
     </g>
     <g id="text_9">
      <!-- $1.0$ -->
      <g transform="translate(50.069418 51.580407)scale(0.14 -0.14)">
       <use transform="scale(0.996264)" xlink:href="#CMR17-49"/>
       <use transform="translate(45.690477 0)scale(0.996264)" xlink:href="#CMMI12-58"/>
       <use transform="translate(72.787654 0)scale(0.996264)" xlink:href="#CMR17-48"/>
      </g>
     </g>
    </g>
    <g id="text_10">
     <!-- Projection on x-axis -->
     <defs>
      <path d="M 19.796875 31.90625 
L 35.796875 31.90625 
C 48.703125 31.90625 58.09375 40.28125 58.09375 49.75 
C 58.09375 59.234375 48.90625 68 35.796875 68 
L 5.203125 68 
L 5.203125 65.40625 
C 12.09375 65.40625 13.203125 65.40625 13.203125 60.921875 
L 13.203125 6.96875 
C 13.203125 2.5 12.09375 2.5 5.203125 2.5 
L 5.203125 0 
C 8.09375 0 13.40625 0 16.5 0 
C 19.59375 0 24.90625 0 27.796875 0 
L 27.796875 2.5 
C 20.90625 2.5 19.796875 2.5 19.796875 6.96875 
z
M 19.59375 34 
L 19.59375 61.53125 
C 19.59375 64.921875 19.796875 65.40625 23.796875 65.40625 
L 33.90625 65.40625 
C 46.796875 65.40625 50.5 58.03125 50.5 49.75 
C 50.5 40.6875 46.09375 34 33.90625 34 
z
" id="CMR17-80"/>
      <path d="M 15 23.390625 
C 15 33 19.09375 42 26.59375 42 
C 27.296875 42 28 41.90625 28.703125 41.59375 
C 28.703125 41.59375 26.5 40.890625 26.5 38.3125 
C 26.5 35.90625 28.40625 34.90625 29.90625 34.90625 
C 31.09375 34.90625 33.296875 35.609375 33.296875 38.40625 
C 33.296875 41.609375 30.09375 43.59375 26.703125 43.59375 
C 19.09375 43.59375 15.796875 36.203125 14.796875 32.703125 
L 14.703125 32.703125 
L 14.703125 43.59375 
L 3.09375 42.5 
L 3.09375 39.90625 
C 9 39.90625 9.90625 39.296875 9.90625 34.5 
L 9.90625 6.6875 
C 9.90625 2.875 9.5 2.390625 3.09375 2.390625 
L 3.09375 -0.203125 
C 5.5 0 10.09375 0 12.703125 0 
C 15.59375 0 20.703125 0 23.40625 -0.203125 
L 23.40625 2.390625 
C 16.203125 2.390625 15 2.390625 15 6.875 
z
" id="CMR17-114"/>
      <path d="M 43.09375 21.1875 
C 43.09375 34 33.796875 44 22.90625 44 
C 12 44 2.703125 34 2.703125 21.1875 
C 2.703125 8.609375 12 -1 22.90625 -1 
C 33.796875 -1 43.09375 8.609375 43.09375 21.1875 
z
M 22.90625 0.796875 
C 18.203125 0.796875 14.203125 3.59375 11.90625 7.5 
C 9.40625 11.984375 9.09375 17.59375 9.09375 22 
C 9.09375 26.203125 9.296875 31.40625 11.90625 35.90625 
C 13.90625 39.203125 17.796875 42.40625 22.90625 42.40625 
C 27.40625 42.40625 31.203125 39.90625 33.59375 36.40625 
C 36.703125 31.703125 36.703125 25.109375 36.703125 22 
C 36.703125 18.09375 36.5 12.109375 33.796875 7.296875 
C 31 2.703125 26.703125 0.796875 22.90625 0.796875 
z
" id="CMR17-111"/>
      <path d="M 18.203125 61.921875 
C 18.203125 64.109375 16.40625 66 14.09375 66 
C 11.90625 66 10 64.21875 10 61.921875 
C 10 59.734375 11.796875 57.84375 14.09375 57.84375 
C 16.296875 57.84375 18.203125 59.640625 18.203125 61.921875 
z
M 5.703125 43.03125 
L 5.703125 40.4375 
C 12.296875 40.4375 13.09375 39.734375 13.09375 34.921875 
L 13.09375 -5.609375 
C 13.09375 -10.59375 12.203125 -18.40625 6.296875 -18.40625 
C 5.59375 -18.40625 2.90625 -18.40625 0.703125 -16.90625 
C 1.40625 -16.796875 3.90625 -16.109375 3.90625 -13.296875 
C 3.90625 -11.390625 2.59375 -9.703125 0.296875 -9.703125 
C -1.90625 -9.703125 -3.296875 -11.203125 -3.296875 -13.40625 
C -3.296875 -17.40625 1.09375 -20 6.203125 -20 
C 13.09375 -20 18.203125 -13.703125 18.203125 -5.1875 
L 18.203125 44.140625 
z
" id="CMR17-106"/>
      <path d="M 38.09375 23 
C 38.5 23.40625 38.5 23.609375 38.5 24.625 
C 38.5 34.96875 33.09375 44 21.703125 44 
C 11.09375 44 2.703125 33.890625 2.703125 21.609375 
C 2.703125 8.609375 12.203125 -1 22.796875 -1 
C 34 -1 38.40625 9.484375 38.40625 11.5625 
C 38.40625 12.25 37.796875 12.25 37.59375 12.25 
C 36.90625 12.25 36.796875 12.046875 36.40625 10.875 
C 34.203125 4.140625 28.703125 0.796875 23.5 0.796875 
C 19.203125 0.796875 14.90625 3.171875 12.203125 7.5 
C 9.09375 12.546875 9.09375 18.375 9.09375 23 
z
M 9.203125 24.5 
C 9.90625 39.140625 17.59375 42.40625 21.59375 42.40625 
C 28.40625 42.40625 33 35.890625 33.09375 24.5 
z
" id="CMR17-101"/>
      <path d="M 34.90625 35 
C 33 35 30.203125 35 30.203125 31.515625 
C 30.203125 28.71875 32.5 27.921875 33.796875 27.921875 
C 34.5 27.921875 37.40625 28.234375 37.40625 31.625 
C 37.40625 38.546875 30.59375 43.796875 22.90625 43.796875 
C 12.296875 43.796875 3.296875 34.03125 3.296875 21.296875 
C 3.296875 8.0625 12.703125 -1 22.90625 -1 
C 35.296875 -1 38.40625 10.578125 38.40625 11.6875 
C 38.40625 12.09375 38.296875 12.390625 37.59375 12.390625 
C 36.90625 12.390625 36.796875 12.296875 36.40625 10.984375 
C 33.796875 2.8125 28.09375 0.796875 23.796875 0.796875 
C 17.40625 0.796875 9.703125 6.671875 9.703125 21.390625 
C 9.703125 36.53125 17.09375 42 23 42 
C 26.90625 42 32.703125 40.203125 34.90625 35 
z
" id="CMR17-99"/>
      <path d="M 15.09375 40 
L 29.09375 40 
L 29.09375 42.578125 
L 15.09375 42.578125 
L 15.09375 61 
L 13.296875 61 
C 13.09375 50.703125 9.59375 41.6875 1.09375 41.6875 
L 1.09375 40 
L 9.796875 40 
L 9.796875 12.046875 
C 9.796875 10.15625 9.796875 -1 21.40625 -1 
C 27.296875 -1 30.703125 4.78125 30.703125 12.140625 
L 30.703125 17.8125 
L 28.90625 17.8125 
L 28.90625 12.234375 
C 28.90625 5.375 26.203125 0.796875 22 0.796875 
C 19.09375 0.796875 15.09375 2.78125 15.09375 11.84375 
z
" id="CMR17-116"/>
      <path d="M 15.5 61.078125 
C 15.5 63.265625 13.703125 65.15625 11.40625 65.15625 
C 9.203125 65.15625 7.296875 63.375 7.296875 61.078125 
C 7.296875 58.890625 9.09375 57 11.40625 57 
C 13.59375 57 15.5 58.796875 15.5 61.078125 
z
M 3.796875 42.28125 
L 3.796875 39.703125 
C 9.40625 39.703125 10.203125 39.09375 10.203125 34.328125 
L 10.203125 6.671875 
C 10.203125 2.875 9.796875 2.390625 3.40625 2.390625 
L 3.40625 -0.203125 
C 5.796875 0 10.09375 0 12.59375 0 
C 15 0 19.09375 0 21.40625 -0.203125 
L 21.40625 2.390625 
C 15.5 2.390625 15.296875 2.984375 15.296875 6.5625 
L 15.296875 43.375 
z
" id="CMR17-105"/>
      <path d="M 41.5 30.203125 
C 41.5 35.296875 40.5 43.59375 28.703125 43.59375 
C 20.796875 43.59375 16.703125 37.5 15.203125 33.5 
L 15.09375 33.5 
L 15.09375 43.59375 
L 3.296875 42.5 
L 3.296875 39.90625 
C 9.203125 39.90625 10.09375 39.296875 10.09375 34.5 
L 10.09375 6.6875 
C 10.09375 2.875 9.703125 2.390625 3.296875 2.390625 
L 3.296875 -0.203125 
C 5.703125 0 10.09375 0 12.703125 0 
C 15.296875 0 19.796875 0 22.203125 -0.203125 
L 22.203125 2.390625 
C 15.796875 2.390625 15.40625 2.78125 15.40625 6.6875 
L 15.40625 25.90625 
C 15.40625 35.109375 21 42 28 42 
C 35.40625 42 36.203125 35.40625 36.203125 30.59375 
L 36.203125 6.6875 
C 36.203125 2.875 35.796875 2.390625 29.40625 2.390625 
L 29.40625 -0.203125 
C 31.796875 0 36.203125 0 38.796875 0 
C 41.40625 0 45.90625 0 48.296875 -0.203125 
L 48.296875 2.390625 
C 41.90625 2.390625 41.5 2.78125 41.5 6.6875 
z
" id="CMR17-110"/>
      <path d="M 26 23.078125 
C 29 26.96875 32.40625 31.34375 35.203125 34.625 
C 38.5 38.40625 42.296875 40 46.703125 40 
L 46.703125 42.59375 
C 45 42.59375 41.5 42.59375 39.703125 42.59375 
C 37 42.59375 33.90625 42.59375 31.59375 42.6875 
L 31.59375 40.09375 
C 33 39.890625 33.796875 38.890625 33.796875 37.5 
C 33.796875 35.703125 32.796875 34.609375 32.296875 33.921875 
L 24.90625 24.578125 
L 16.09375 36.03125 
C 15.203125 37.125 15.203125 37.3125 15.203125 37.8125 
C 15.203125 39.015625 16.203125 40 17.90625 40 
L 17.90625 42.6875 
C 15.5 42.59375 11.203125 42.59375 8.703125 42.59375 
C 6 42.59375 2.796875 42.59375 0.59375 42.6875 
L 0.59375 40 
C 6 40 7.203125 39.59375 9.59375 36.609375 
L 21.09375 21.796875 
C 21.296875 21.59375 21.796875 21 21.796875 20.703125 
C 21.796875 20.296875 13.09375 9.671875 12 8.28125 
C 7.5 2.890625 2.796875 2.5 0.09375 2.5 
L 0.09375 0 
C 1.796875 0 5.296875 0 7.09375 0 
C 9.09375 0 13.5 0 15.296875 -0.09375 
L 15.296875 2.5 
C 14.703125 2.59375 13.09375 2.796875 13.09375 5.078125 
C 13.09375 6.875 13.90625 7.96875 14.796875 9.15625 
L 23.09375 19.3125 
L 31.796875 8 
C 32.59375 6.90625 33.796875 5.40625 33.796875 4.703125 
C 33.796875 3.296875 32.59375 2.5 31 2.5 
L 31 -0.09375 
C 33.40625 0 37.703125 0 40.203125 0 
C 42.90625 0 46.09375 0 48.296875 -0.09375 
L 48.296875 2.5 
C 43.296875 2.5 41.796875 2.6875 39.40625 5.78125 
z
" id="CMR17-120"/>
      <path d="M 25.5 19 
L 25.5 23.375 
L 0.40625 23.375 
L 0.40625 19 
z
" id="CMR17-45"/>
      <path d="M 36 25.828125 
C 36 32.375 36 35.84375 31.796875 39.734375 
C 28.09375 43 23.796875 44 20.40625 44 
C 12.5 44 6.796875 37.609375 6.796875 30.796875 
C 6.796875 27 9.796875 27 10.40625 27 
C 11.703125 27 14 27.78125 14 30.53125 
C 14 33 12.09375 34.078125 10.40625 34.078125 
C 10 34.078125 9.5 33.96875 9.203125 33.875 
C 11.296875 40.5 16.703125 42.40625 20.203125 42.40625 
C 25.203125 42.40625 30.703125 37.953125 30.703125 29.453125 
L 30.703125 25 
C 24.796875 25 17.703125 24.203125 12.09375 21.203125 
C 5.796875 17.703125 4 12.703125 4 8.90625 
C 4 1.203125 13 -1 18.296875 -1 
C 23.796875 -1 28.90625 2.171875 31.09375 7.984375 
C 31.296875 3.640625 34.09375 -0.28125 38.5 -0.28125 
C 40.59375 -0.28125 45.90625 1.09375 45.90625 8.859375 
L 45.90625 14.375 
L 44.09375 14.375 
L 44.09375 8.78125 
C 44.09375 2.78125 41.40625 2 40.09375 2 
C 36 2 36 7.15625 36 11.53125 
z
M 30.703125 13.59375 
C 30.703125 4.953125 24.5 0.59375 19 0.59375 
C 14 0.59375 10.09375 4.296875 10.09375 8.90625 
C 10.09375 11.890625 11.40625 17.1875 17.203125 20.390625 
C 22 23.09375 27.5 23.5 30.703125 23.5 
z
" id="CMR17-97"/>
      <path d="M 30.90625 42.140625 
C 30.90625 43.953125 30.796875 44.046875 30.203125 44.046875 
C 29.796875 44.046875 29.703125 43.953125 28.5 42.453125 
C 28.203125 42.046875 27.296875 41.03125 27 40.640625 
C 23.796875 44.046875 19.296875 44.046875 17.59375 44.046875 
C 6.5 44.046875 2.5 38.234375 2.5 32.4375 
C 2.5 23.40625 12.703125 21.328125 15.59375 20.703125 
C 21.90625 19.421875 24.09375 19.015625 26.203125 17.203125 
C 27.5 16.015625 29.703125 13.8125 29.703125 10.21875 
C 29.703125 6 27.296875 0.59375 18.09375 0.59375 
C 9.40625 0.59375 6.296875 7.1875 4.5 15.953125 
C 4.203125 17.34375 4.203125 17.453125 3.40625 17.453125 
C 2.59375 17.453125 2.5 17.34375 2.5 15.359375 
L 2.5 0.984375 
C 2.5 -0.796875 2.59375 -0.90625 3.203125 -0.90625 
C 3.703125 -0.90625 3.796875 -0.796875 4.296875 0 
C 4.90625 0.890625 6.40625 3.296875 7 4.3125 
C 9 1.609375 12.5 -1 18.09375 -1 
C 28 -1 33.296875 4.421875 33.296875 12.25 
C 33.296875 17.375 30.59375 20.078125 29.296875 21.28125 
C 26.296875 24.390625 22.796875 25.09375 18.59375 25.890625 
C 13.09375 27.109375 6.09375 28.515625 6.09375 34.640625 
C 6.09375 37.234375 7.5 42.765625 17.59375 42.765625 
C 28.296875 42.765625 28.90625 32.71875 29.09375 29.5 
C 29.203125 29 29.703125 28.890625 30 28.890625 
C 30.90625 28.890625 30.90625 29.203125 30.90625 30.90625 
z
" id="CMR17-115"/>
     </defs>
     <g transform="translate(43.35739 232.970207)rotate(-90)scale(0.14 -0.14)">
      <use transform="scale(0.996264)" xlink:href="#CMR17-80"/>
      <use transform="translate(62.586301 0)scale(0.996264)" xlink:href="#CMR17-114"/>
      <use transform="translate(97.867068 0)scale(0.996264)" xlink:href="#CMR17-111"/>
      <use transform="translate(148.762347 0)scale(0.996264)" xlink:href="#CMR17-106"/>
      <use transform="translate(176.235859 0)scale(0.996264)" xlink:href="#CMR17-101"/>
      <use transform="translate(216.72152 0)scale(0.996264)" xlink:href="#CMR17-99"/>
      <use transform="translate(257.20718 0)scale(0.996264)" xlink:href="#CMR17-116"/>
      <use transform="translate(292.487948 0)scale(0.996264)" xlink:href="#CMR17-105"/>
      <use transform="translate(317.359007 0)scale(0.996264)" xlink:href="#CMR17-111"/>
      <use transform="translate(363.049484 0)scale(0.996264)" xlink:href="#CMR17-110"/>
      <use transform="translate(444.02082 0)scale(0.996264)" xlink:href="#CMR17-111"/>
      <use transform="translate(489.711297 0)scale(0.996264)" xlink:href="#CMR17-110"/>
      <use transform="translate(570.682633 0)scale(0.996264)" xlink:href="#CMR17-120"/>
      <use transform="translate(618.975549 0)scale(0.996264)" xlink:href="#CMR17-45"/>
      <use transform="translate(649.051515 0)scale(0.996264)" xlink:href="#CMR17-97"/>
      <use transform="translate(694.741992 0)scale(0.996264)" xlink:href="#CMR17-120"/>
      <use transform="translate(743.034908 0)scale(0.996264)" xlink:href="#CMR17-105"/>
      <use transform="translate(767.905967 0)scale(0.996264)" xlink:href="#CMR17-115"/>
     </g>
    </g>
   </g>
   <g id="LineCollection_1">
    <path clip-path="url(#pec6aedff4c)" d="M 77.096146 55.348982 
L 77.096146 54.064433 
" style="fill:none;stroke:#ffa500;stroke-width:1.5;"/>
    <path clip-path="url(#pec6aedff4c)" d="M 167.537104 53.890373 
L 167.537104 53.01 
" style="fill:none;stroke:#ffa500;stroke-width:1.5;"/>
    <path clip-path="url(#pec6aedff4c)" d="M 212.305132 57.2751 
L 212.305132 56.069843 
" style="fill:none;stroke:#ffa500;stroke-width:1.5;"/>
    <path clip-path="url(#pec6aedff4c)" d="M 242.311898 60.147116 
L 242.311898 59.101069 
" style="fill:none;stroke:#ffa500;stroke-width:1.5;"/>
    <path clip-path="url(#pec6aedff4c)" d="M 264.914313 68.188498 
L 264.914313 66.593345 
" style="fill:none;stroke:#ffa500;stroke-width:1.5;"/>
    <path clip-path="url(#pec6aedff4c)" d="M 283.052707 79.789519 
L 283.052707 77.607019 
" style="fill:none;stroke:#ffa500;stroke-width:1.5;"/>
    <path clip-path="url(#pec6aedff4c)" d="M 298.202872 96.021212 
L 298.202872 92.686663 
" style="fill:none;stroke:#ffa500;stroke-width:1.5;"/>
    <path clip-path="url(#pec6aedff4c)" d="M 311.211542 116.141698 
L 311.211542 111.764471 
" style="fill:none;stroke:#ffa500;stroke-width:1.5;"/>
    <path clip-path="url(#pec6aedff4c)" d="M 322.60982 138.809362 
L 322.60982 133.221133 
" style="fill:none;stroke:#ffa500;stroke-width:1.5;"/>
    <path clip-path="url(#pec6aedff4c)" d="M 332.752856 164.390496 
L 332.752856 157.520748 
" style="fill:none;stroke:#ffa500;stroke-width:1.5;"/>
    <path clip-path="url(#pec6aedff4c)" d="M 341.889896 190.883019 
L 341.889896 182.861526 
" style="fill:none;stroke:#ffa500;stroke-width:1.5;"/>
    <path clip-path="url(#pec6aedff4c)" d="M 350.202608 212.617191 
L 350.202608 203.934823 
" style="fill:none;stroke:#ffa500;stroke-width:1.5;"/>
    <path clip-path="url(#pec6aedff4c)" d="M 357.827501 229.219047 
L 357.827501 220.231124 
" style="fill:none;stroke:#ffa500;stroke-width:1.5;"/>
    <path clip-path="url(#pec6aedff4c)" d="M 364.869752 246.146574 
L 364.869752 236.795757 
" style="fill:none;stroke:#ffa500;stroke-width:1.5;"/>
    <path clip-path="url(#pec6aedff4c)" d="M 371.412117 258.526143 
L 371.412117 249.030344 
" style="fill:none;stroke:#ffa500;stroke-width:1.5;"/>
    <path clip-path="url(#pec6aedff4c)" d="M 377.520884 262.367728 
L 377.520884 252.847836 
" style="fill:none;stroke:#ffa500;stroke-width:1.5;"/>
    <path clip-path="url(#pec6aedff4c)" d="M 383.249973 267.00506 
L 383.249973 257.488289 
" style="fill:none;stroke:#ffa500;stroke-width:1.5;"/>
    <path clip-path="url(#pec6aedff4c)" d="M 388.64383 270.931731 
L 388.64383 261.290272 
" style="fill:none;stroke:#ffa500;stroke-width:1.5;"/>
    <path clip-path="url(#pec6aedff4c)" d="M 393.739528 279.30438 
L 393.739528 269.663015 
" style="fill:none;stroke:#ffa500;stroke-width:1.5;"/>
    <path clip-path="url(#pec6aedff4c)" d="M 398.56831 284.15563 
L 398.56831 274.564231 
" style="fill:none;stroke:#ffa500;stroke-width:1.5;"/>
    <path clip-path="url(#pec6aedff4c)" d="M 403.156753 282.337376 
L 403.156753 272.72356 
" style="fill:none;stroke:#ffa500;stroke-width:1.5;"/>
    <path clip-path="url(#pec6aedff4c)" d="M 407.52765 281.976569 
L 407.52765 272.299881 
" style="fill:none;stroke:#ffa500;stroke-width:1.5;"/>
    <path clip-path="url(#pec6aedff4c)" d="M 411.7007 283.613746 
L 411.7007 274.189118 
" style="fill:none;stroke:#ffa500;stroke-width:1.5;"/>
    <path clip-path="url(#pec6aedff4c)" d="M 415.693041 281.257323 
L 415.693041 271.850558 
" style="fill:none;stroke:#ffa500;stroke-width:1.5;"/>
    <path clip-path="url(#pec6aedff4c)" d="M 419.519675 282.874397 
L 419.519675 273.48358 
" style="fill:none;stroke:#ffa500;stroke-width:1.5;"/>
    <path clip-path="url(#pec6aedff4c)" d="M 423.193813 282.140748 
L 423.193813 272.605727 
" style="fill:none;stroke:#ffa500;stroke-width:1.5;"/>
    <path clip-path="url(#pec6aedff4c)" d="M 426.727145 279.665517 
L 426.727145 270.092613 
" style="fill:none;stroke:#ffa500;stroke-width:1.5;"/>
    <path clip-path="url(#pec6aedff4c)" d="M 430.130065 277.414825 
L 430.130065 268.004823 
" style="fill:none;stroke:#ffa500;stroke-width:1.5;"/>
    <path clip-path="url(#pec6aedff4c)" d="M 433.411858 280.045523 
L 433.411858 270.346308 
" style="fill:none;stroke:#ffa500;stroke-width:1.5;"/>
    <path clip-path="url(#pec6aedff4c)" d="M 436.580853 288.234543 
L 436.580853 278.801396 
" style="fill:none;stroke:#ffa500;stroke-width:1.5;"/>
    <path clip-path="url(#pec6aedff4c)" d="M 439.644546 292.41 
L 439.644546 282.852784 
" style="fill:none;stroke:#ffa500;stroke-width:1.5;"/>
    <path clip-path="url(#pec6aedff4c)" d="M 442.60971 286.437575 
L 442.60971 277.000831 
" style="fill:none;stroke:#ffa500;stroke-width:1.5;"/>
    <path clip-path="url(#pec6aedff4c)" d="M 445.482487 277.871746 
L 445.482487 268.40343 
" style="fill:none;stroke:#ffa500;stroke-width:1.5;"/>
    <path clip-path="url(#pec6aedff4c)" d="M 448.268459 277.745514 
L 448.268459 268.252224 
" style="fill:none;stroke:#ffa500;stroke-width:1.5;"/>
    <path clip-path="url(#pec6aedff4c)" d="M 450.972719 281.041922 
L 450.972719 271.633049 
" style="fill:none;stroke:#ffa500;stroke-width:1.5;"/>
    <path clip-path="url(#pec6aedff4c)" d="M 453.599924 283.277581 
L 453.599924 273.702219 
" style="fill:none;stroke:#ffa500;stroke-width:1.5;"/>
    <path clip-path="url(#pec6aedff4c)" d="M 456.154344 283.157849 
L 456.154344 273.77831 
" style="fill:none;stroke:#ffa500;stroke-width:1.5;"/>
    <path clip-path="url(#pec6aedff4c)" d="M 458.639904 281.266998 
L 458.639904 271.729528 
" style="fill:none;stroke:#ffa500;stroke-width:1.5;"/>
    <path clip-path="url(#pec6aedff4c)" d="M 461.060218 279.196135 
L 461.060218 269.876976 
" style="fill:none;stroke:#ffa500;stroke-width:1.5;"/>
    <path clip-path="url(#pec6aedff4c)" d="M 463.418624 280.973899 
L 463.418624 271.5159 
" style="fill:none;stroke:#ffa500;stroke-width:1.5;"/>
   </g>
   <g id="LineCollection_2">
    <path clip-path="url(#pec6aedff4c)" d="M 141.010324 57.294839 
L 141.010324 56.147291 
" style="fill:none;stroke:#0000ff;stroke-width:1.5;"/>
    <path clip-path="url(#pec6aedff4c)" d="M 199.654 63.052061 
L 199.654 61.27172 
" style="fill:none;stroke:#0000ff;stroke-width:1.5;"/>
    <path clip-path="url(#pec6aedff4c)" d="M 235.215423 61.445075 
L 235.215423 60.240934 
" style="fill:none;stroke:#0000ff;stroke-width:1.5;"/>
    <path clip-path="url(#pec6aedff4c)" d="M 260.815475 63.857952 
L 260.815475 62.296577 
" style="fill:none;stroke:#0000ff;stroke-width:1.5;"/>
    <path clip-path="url(#pec6aedff4c)" d="M 280.830704 66.491078 
L 280.830704 64.926573 
" style="fill:none;stroke:#0000ff;stroke-width:1.5;"/>
    <path clip-path="url(#pec6aedff4c)" d="M 297.266736 70.567057 
L 297.266736 68.813958 
" style="fill:none;stroke:#0000ff;stroke-width:1.5;"/>
    <path clip-path="url(#pec6aedff4c)" d="M 311.211542 75.454777 
L 311.211542 73.617684 
" style="fill:none;stroke:#0000ff;stroke-width:1.5;"/>
    <path clip-path="url(#pec6aedff4c)" d="M 323.321859 85.305679 
L 323.321859 82.79067 
" style="fill:none;stroke:#0000ff;stroke-width:1.5;"/>
    <path clip-path="url(#pec6aedff4c)" d="M 334.02472 94.709126 
L 334.02472 91.599851 
" style="fill:none;stroke:#0000ff;stroke-width:1.5;"/>
    <path clip-path="url(#pec6aedff4c)" d="M 343.613472 104.327793 
L 343.613472 100.648378 
" style="fill:none;stroke:#0000ff;stroke-width:1.5;"/>
    <path clip-path="url(#pec6aedff4c)" d="M 352.29835 120.582775 
L 352.29835 116.142508 
" style="fill:none;stroke:#0000ff;stroke-width:1.5;"/>
    <path clip-path="url(#pec6aedff4c)" d="M 360.235175 137.965486 
L 360.235175 132.672059 
" style="fill:none;stroke:#0000ff;stroke-width:1.5;"/>
    <path clip-path="url(#pec6aedff4c)" d="M 367.542654 146.059012 
L 367.542654 140.486892 
" style="fill:none;stroke:#0000ff;stroke-width:1.5;"/>
    <path clip-path="url(#pec6aedff4c)" d="M 374.313303 163.833475 
L 374.313303 157.39974 
" style="fill:none;stroke:#0000ff;stroke-width:1.5;"/>
    <path clip-path="url(#pec6aedff4c)" d="M 380.620627 177.871492 
L 380.620627 170.821924 
" style="fill:none;stroke:#0000ff;stroke-width:1.5;"/>
    <path clip-path="url(#pec6aedff4c)" d="M 386.523997 196.500435 
L 386.523997 188.655133 
" style="fill:none;stroke:#0000ff;stroke-width:1.5;"/>
    <path clip-path="url(#pec6aedff4c)" d="M 392.072056 211.802915 
L 392.072056 203.368982 
" style="fill:none;stroke:#0000ff;stroke-width:1.5;"/>
    <path clip-path="url(#pec6aedff4c)" d="M 397.305158 226.770011 
L 397.305158 218.001138 
" style="fill:none;stroke:#0000ff;stroke-width:1.5;"/>
    <path clip-path="url(#pec6aedff4c)" d="M 402.257149 240.926751 
L 402.257149 232.105686 
" style="fill:none;stroke:#0000ff;stroke-width:1.5;"/>
    <path clip-path="url(#pec6aedff4c)" d="M 406.956697 246.170248 
L 406.956697 237.163842 
" style="fill:none;stroke:#0000ff;stroke-width:1.5;"/>
    <path clip-path="url(#pec6aedff4c)" d="M 411.428296 256.433275 
L 411.428296 247.334574 
" style="fill:none;stroke:#0000ff;stroke-width:1.5;"/>
    <path clip-path="url(#pec6aedff4c)" d="M 415.693041 263.393375 
L 415.693041 254.208507 
" style="fill:none;stroke:#0000ff;stroke-width:1.5;"/>
    <path clip-path="url(#pec6aedff4c)" d="M 419.769225 269.676622 
L 419.769225 260.539467 
" style="fill:none;stroke:#0000ff;stroke-width:1.5;"/>
    <path clip-path="url(#pec6aedff4c)" d="M 423.672821 276.414909 
L 423.672821 267.228698 
" style="fill:none;stroke:#0000ff;stroke-width:1.5;"/>
    <path clip-path="url(#pec6aedff4c)" d="M 427.41785 271.394016 
L 427.41785 262.166491 
" style="fill:none;stroke:#0000ff;stroke-width:1.5;"/>
    <path clip-path="url(#pec6aedff4c)" d="M 431.016693 274.915975 
L 431.016693 265.507841 
" style="fill:none;stroke:#0000ff;stroke-width:1.5;"/>
    <path clip-path="url(#pec6aedff4c)" d="M 434.480337 283.715297 
L 434.480337 274.368792 
" style="fill:none;stroke:#0000ff;stroke-width:1.5;"/>
    <path clip-path="url(#pec6aedff4c)" d="M 437.818572 275.819839 
L 437.818572 266.621002 
" style="fill:none;stroke:#0000ff;stroke-width:1.5;"/>
    <path clip-path="url(#pec6aedff4c)" d="M 441.040163 277.987046 
L 441.040163 268.798881 
" style="fill:none;stroke:#0000ff;stroke-width:1.5;"/>
    <path clip-path="url(#pec6aedff4c)" d="M 444.152987 280.971701 
L 444.152987 271.688479 
" style="fill:none;stroke:#0000ff;stroke-width:1.5;"/>
    <path clip-path="url(#pec6aedff4c)" d="M 447.16415 283.315512 
L 447.16415 274.022409 
" style="fill:none;stroke:#0000ff;stroke-width:1.5;"/>
    <path clip-path="url(#pec6aedff4c)" d="M 450.080082 283.638359 
L 450.080082 274.555409 
" style="fill:none;stroke:#0000ff;stroke-width:1.5;"/>
    <path clip-path="url(#pec6aedff4c)" d="M 452.906623 281.02945 
L 452.906623 271.969124 
" style="fill:none;stroke:#0000ff;stroke-width:1.5;"/>
    <path clip-path="url(#pec6aedff4c)" d="M 455.64909 273.815847 
L 455.64909 264.66847 
" style="fill:none;stroke:#0000ff;stroke-width:1.5;"/>
    <path clip-path="url(#pec6aedff4c)" d="M 458.312342 274.435204 
L 458.312342 265.207212 
" style="fill:none;stroke:#0000ff;stroke-width:1.5;"/>
    <path clip-path="url(#pec6aedff4c)" d="M 460.900825 278.476114 
L 460.900825 269.367408 
" style="fill:none;stroke:#0000ff;stroke-width:1.5;"/>
    <path clip-path="url(#pec6aedff4c)" d="M 463.418624 282.354155 
L 463.418624 273.249612 
" style="fill:none;stroke:#0000ff;stroke-width:1.5;"/>
    <path clip-path="url(#pec6aedff4c)" d="M 465.869497 283.456879 
L 465.869497 274.308028 
" style="fill:none;stroke:#0000ff;stroke-width:1.5;"/>
   </g>
   <g id="LineCollection_3">
    <path clip-path="url(#pec6aedff4c)" d="M 204.924501 58.566097 
L 204.924501 57.285532 
" style="fill:none;stroke:#008000;stroke-width:1.5;"/>
    <path clip-path="url(#pec6aedff4c)" d="M 238.831913 67.94349 
L 238.831913 66.848813 
" style="fill:none;stroke:#008000;stroke-width:1.5;"/>
    <path clip-path="url(#pec6aedff4c)" d="M 263.568177 69.429414 
L 263.568177 67.667933 
" style="fill:none;stroke:#008000;stroke-width:1.5;"/>
    <path clip-path="url(#pec6aedff4c)" d="M 283.052707 63.540158 
L 283.052707 62.162517 
" style="fill:none;stroke:#008000;stroke-width:1.5;"/>
    <path clip-path="url(#pec6aedff4c)" d="M 299.1296 70.606011 
L 299.1296 68.909507 
" style="fill:none;stroke:#008000;stroke-width:1.5;"/>
    <path clip-path="url(#pec6aedff4c)" d="M 312.815211 71.719864 
L 312.815211 69.857927 
" style="fill:none;stroke:#008000;stroke-width:1.5;"/>
    <path clip-path="url(#pec6aedff4c)" d="M 324.729653 72.620804 
L 324.729653 70.738043 
" style="fill:none;stroke:#008000;stroke-width:1.5;"/>
    <path clip-path="url(#pec6aedff4c)" d="M 335.279279 75.241335 
L 335.279279 73.372015 
" style="fill:none;stroke:#008000;stroke-width:1.5;"/>
    <path clip-path="url(#pec6aedff4c)" d="M 344.744881 78.788342 
L 344.744881 76.850672 
" style="fill:none;stroke:#008000;stroke-width:1.5;"/>
    <path clip-path="url(#pec6aedff4c)" d="M 353.328625 80.134377 
L 353.328625 78.094085 
" style="fill:none;stroke:#008000;stroke-width:1.5;"/>
    <path clip-path="url(#pec6aedff4c)" d="M 361.180913 87.082818 
L 361.180913 84.823865 
" style="fill:none;stroke:#008000;stroke-width:1.5;"/>
    <path clip-path="url(#pec6aedff4c)" d="M 368.416676 90.041341 
L 368.416676 87.493351 
" style="fill:none;stroke:#008000;stroke-width:1.5;"/>
    <path clip-path="url(#pec6aedff4c)" d="M 375.125719 97.110445 
L 375.125719 94.425355 
" style="fill:none;stroke:#008000;stroke-width:1.5;"/>
    <path clip-path="url(#pec6aedff4c)" d="M 381.37955 103.611696 
L 381.37955 100.344735 
" style="fill:none;stroke:#008000;stroke-width:1.5;"/>
    <path clip-path="url(#pec6aedff4c)" d="M 387.236037 113.869534 
L 387.236037 110.205834 
" style="fill:none;stroke:#008000;stroke-width:1.5;"/>
    <path clip-path="url(#pec6aedff4c)" d="M 392.742668 118.192442 
L 392.742668 114.241416 
" style="fill:none;stroke:#008000;stroke-width:1.5;"/>
    <path clip-path="url(#pec6aedff4c)" d="M 397.938897 126.582239 
L 397.938897 122.151142 
" style="fill:none;stroke:#008000;stroke-width:1.5;"/>
    <path clip-path="url(#pec6aedff4c)" d="M 402.857859 130.579522 
L 402.857859 126.009744 
" style="fill:none;stroke:#008000;stroke-width:1.5;"/>
    <path clip-path="url(#pec6aedff4c)" d="M 407.52765 140.839078 
L 407.52765 135.551811 
" style="fill:none;stroke:#008000;stroke-width:1.5;"/>
    <path clip-path="url(#pec6aedff4c)" d="M 411.972301 158.101536 
L 411.972301 152.421338 
" style="fill:none;stroke:#008000;stroke-width:1.5;"/>
    <path clip-path="url(#pec6aedff4c)" d="M 416.212527 168.618895 
L 416.212527 162.282895 
" style="fill:none;stroke:#008000;stroke-width:1.5;"/>
    <path clip-path="url(#pec6aedff4c)" d="M 420.266308 173.454707 
L 420.266308 166.99688 
" style="fill:none;stroke:#008000;stroke-width:1.5;"/>
    <path clip-path="url(#pec6aedff4c)" d="M 424.149352 182.73488 
L 424.149352 175.942365 
" style="fill:none;stroke:#008000;stroke-width:1.5;"/>
    <path clip-path="url(#pec6aedff4c)" d="M 427.875462 194.381083 
L 427.875462 187.151709 
" style="fill:none;stroke:#008000;stroke-width:1.5;"/>
    <path clip-path="url(#pec6aedff4c)" d="M 431.456831 197.669174 
L 431.456831 190.010271 
" style="fill:none;stroke:#008000;stroke-width:1.5;"/>
    <path clip-path="url(#pec6aedff4c)" d="M 434.904286 215.664622 
L 434.904286 207.744462 
" style="fill:none;stroke:#008000;stroke-width:1.5;"/>
    <path clip-path="url(#pec6aedff4c)" d="M 438.22748 222.297222 
L 438.22748 214.31606 
" style="fill:none;stroke:#008000;stroke-width:1.5;"/>
    <path clip-path="url(#pec6aedff4c)" d="M 441.435062 237.932006 
L 441.435062 229.618857 
" style="fill:none;stroke:#008000;stroke-width:1.5;"/>
    <path clip-path="url(#pec6aedff4c)" d="M 444.534804 242.357273 
L 444.534804 233.958352 
" style="fill:none;stroke:#008000;stroke-width:1.5;"/>
    <path clip-path="url(#pec6aedff4c)" d="M 447.533725 251.216335 
L 447.533725 242.798161 
" style="fill:none;stroke:#008000;stroke-width:1.5;"/>
    <path clip-path="url(#pec6aedff4c)" d="M 450.438175 254.386117 
L 450.438175 245.761575 
" style="fill:none;stroke:#008000;stroke-width:1.5;"/>
    <path clip-path="url(#pec6aedff4c)" d="M 453.253925 252.750518 
L 453.253925 244.122632 
" style="fill:none;stroke:#008000;stroke-width:1.5;"/>
    <path clip-path="url(#pec6aedff4c)" d="M 455.986234 255.715931 
L 455.986234 247.185305 
" style="fill:none;stroke:#008000;stroke-width:1.5;"/>
    <path clip-path="url(#pec6aedff4c)" d="M 458.639904 260.597018 
L 458.639904 251.923286 
" style="fill:none;stroke:#008000;stroke-width:1.5;"/>
    <path clip-path="url(#pec6aedff4c)" d="M 461.219335 266.579827 
L 461.219335 257.972262 
" style="fill:none;stroke:#008000;stroke-width:1.5;"/>
    <path clip-path="url(#pec6aedff4c)" d="M 463.72857 269.554908 
L 463.72857 260.808953 
" style="fill:none;stroke:#008000;stroke-width:1.5;"/>
    <path clip-path="url(#pec6aedff4c)" d="M 466.171326 272.488054 
L 466.171326 263.686288 
" style="fill:none;stroke:#008000;stroke-width:1.5;"/>
    <path clip-path="url(#pec6aedff4c)" d="M 468.551037 274.052208 
L 468.551037 265.364187 
" style="fill:none;stroke:#008000;stroke-width:1.5;"/>
    <path clip-path="url(#pec6aedff4c)" d="M 470.870874 280.959404 
L 470.870874 272.08723 
" style="fill:none;stroke:#008000;stroke-width:1.5;"/>
    <path clip-path="url(#pec6aedff4c)" d="M 473.133777 277.558899 
L 473.133777 268.885369 
" style="fill:none;stroke:#008000;stroke-width:1.5;"/>
    <path clip-path="url(#pec6aedff4c)" d="M 475.342473 279.891497 
L 475.342473 271.089737 
" style="fill:none;stroke:#008000;stroke-width:1.5;"/>
    <path clip-path="url(#pec6aedff4c)" d="M 477.499499 278.94948 
L 477.499499 270.140666 
" style="fill:none;stroke:#008000;stroke-width:1.5;"/>
    <path clip-path="url(#pec6aedff4c)" d="M 479.607218 283.638971 
L 479.607218 274.834138 
" style="fill:none;stroke:#008000;stroke-width:1.5;"/>
    <path clip-path="url(#pec6aedff4c)" d="M 481.667833 277.503436 
L 481.667833 268.801969 
" style="fill:none;stroke:#008000;stroke-width:1.5;"/>
    <path clip-path="url(#pec6aedff4c)" d="M 483.683403 275.98721 
L 483.683403 267.153452 
" style="fill:none;stroke:#008000;stroke-width:1.5;"/>
    <path clip-path="url(#pec6aedff4c)" d="M 485.655856 280.626523 
L 485.655856 271.722575 
" style="fill:none;stroke:#008000;stroke-width:1.5;"/>
    <path clip-path="url(#pec6aedff4c)" d="M 487.586998 282.917778 
L 487.586998 273.889156 
" style="fill:none;stroke:#008000;stroke-width:1.5;"/>
    <path clip-path="url(#pec6aedff4c)" d="M 489.478524 276.542485 
L 489.478524 267.615609 
" style="fill:none;stroke:#008000;stroke-width:1.5;"/>
    <path clip-path="url(#pec6aedff4c)" d="M 491.332027 276.350579 
L 491.332027 267.609762 
" style="fill:none;stroke:#008000;stroke-width:1.5;"/>
    <path clip-path="url(#pec6aedff4c)" d="M 493.149005 277.257256 
L 493.149005 268.486545 
" style="fill:none;stroke:#008000;stroke-width:1.5;"/>
   </g>
   <g id="LineCollection_4">
    <path clip-path="url(#pec6aedff4c)" d="M 268.838678 64.069229 
L 268.838678 62.80152 
" style="fill:none;stroke:#ff0000;stroke-width:1.5;"/>
    <path clip-path="url(#pec6aedff4c)" d="M 287.342256 76.568557 
L 287.342256 75.1091 
" style="fill:none;stroke:#ff0000;stroke-width:1.5;"/>
    <path clip-path="url(#pec6aedff4c)" d="M 302.74609 76.325031 
L 302.74609 75.084987 
" style="fill:none;stroke:#ff0000;stroke-width:1.5;"/>
    <path clip-path="url(#pec6aedff4c)" d="M 315.941228 74.627628 
L 315.941228 72.827481 
" style="fill:none;stroke:#ff0000;stroke-width:1.5;"/>
    <path clip-path="url(#pec6aedff4c)" d="M 327.482355 80.435444 
L 327.482355 78.330139 
" style="fill:none;stroke:#ff0000;stroke-width:1.5;"/>
    <path clip-path="url(#pec6aedff4c)" d="M 337.738322 72.730364 
L 337.738322 71.678731 
" style="fill:none;stroke:#ff0000;stroke-width:1.5;"/>
    <path clip-path="url(#pec6aedff4c)" d="M 346.966884 72.85257 
L 346.966884 71.48947 
" style="fill:none;stroke:#ff0000;stroke-width:1.5;"/>
    <path clip-path="url(#pec6aedff4c)" d="M 355.355271 79.208876 
L 355.355271 77.300056 
" style="fill:none;stroke:#ff0000;stroke-width:1.5;"/>
    <path clip-path="url(#pec6aedff4c)" d="M 363.043778 78.003897 
L 363.043778 76.471065 
" style="fill:none;stroke:#ff0000;stroke-width:1.5;"/>
    <path clip-path="url(#pec6aedff4c)" d="M 370.140253 75.773987 
L 370.140253 74.24474 
" style="fill:none;stroke:#ff0000;stroke-width:1.5;"/>
    <path clip-path="url(#pec6aedff4c)" d="M 376.729389 80.131927 
L 376.729389 78.492162 
" style="fill:none;stroke:#ff0000;stroke-width:1.5;"/>
    <path clip-path="url(#pec6aedff4c)" d="M 382.878911 86.245533 
L 382.878911 84.448156 
" style="fill:none;stroke:#ff0000;stroke-width:1.5;"/>
    <path clip-path="url(#pec6aedff4c)" d="M 388.64383 85.092369 
L 388.64383 83.095411 
" style="fill:none;stroke:#ff0000;stroke-width:1.5;"/>
    <path clip-path="url(#pec6aedff4c)" d="M 394.069434 86.551609 
L 394.069434 84.661789 
" style="fill:none;stroke:#ff0000;stroke-width:1.5;"/>
    <path clip-path="url(#pec6aedff4c)" d="M 399.193456 90.049533 
L 399.193456 87.927592 
" style="fill:none;stroke:#ff0000;stroke-width:1.5;"/>
    <path clip-path="url(#pec6aedff4c)" d="M 404.047665 91.756674 
L 404.047665 89.668805 
" style="fill:none;stroke:#ff0000;stroke-width:1.5;"/>
    <path clip-path="url(#pec6aedff4c)" d="M 408.659059 95.494834 
L 408.659059 93.182393 
" style="fill:none;stroke:#ff0000;stroke-width:1.5;"/>
    <path clip-path="url(#pec6aedff4c)" d="M 413.050778 97.416561 
L 413.050778 95.037272 
" style="fill:none;stroke:#ff0000;stroke-width:1.5;"/>
    <path clip-path="url(#pec6aedff4c)" d="M 417.242803 102.193022 
L 417.242803 99.485157 
" style="fill:none;stroke:#ff0000;stroke-width:1.5;"/>
    <path clip-path="url(#pec6aedff4c)" d="M 421.252507 106.704088 
L 421.252507 103.795186 
" style="fill:none;stroke:#ff0000;stroke-width:1.5;"/>
    <path clip-path="url(#pec6aedff4c)" d="M 425.09509 111.877642 
L 425.09509 108.724133 
" style="fill:none;stroke:#ff0000;stroke-width:1.5;"/>
    <path clip-path="url(#pec6aedff4c)" d="M 428.783929 113.949684 
L 428.783929 110.918069 
" style="fill:none;stroke:#ff0000;stroke-width:1.5;"/>
    <path clip-path="url(#pec6aedff4c)" d="M 432.330854 117.090627 
L 432.330854 113.68223 
" style="fill:none;stroke:#ff0000;stroke-width:1.5;"/>
    <path clip-path="url(#pec6aedff4c)" d="M 435.74638 123.510753 
L 435.74638 119.795533 
" style="fill:none;stroke:#ff0000;stroke-width:1.5;"/>
    <path clip-path="url(#pec6aedff4c)" d="M 439.039897 130.776151 
L 439.039897 126.803998 
" style="fill:none;stroke:#ff0000;stroke-width:1.5;"/>
    <path clip-path="url(#pec6aedff4c)" d="M 442.219821 135.071072 
L 442.219821 130.837036 
" style="fill:none;stroke:#ff0000;stroke-width:1.5;"/>
    <path clip-path="url(#pec6aedff4c)" d="M 445.293728 138.864137 
L 445.293728 134.357822 
" style="fill:none;stroke:#ff0000;stroke-width:1.5;"/>
    <path clip-path="url(#pec6aedff4c)" d="M 448.268459 147.632363 
L 448.268459 142.767584 
" style="fill:none;stroke:#ff0000;stroke-width:1.5;"/>
    <path clip-path="url(#pec6aedff4c)" d="M 451.150214 152.998062 
L 451.150214 148.13211 
" style="fill:none;stroke:#ff0000;stroke-width:1.5;"/>
    <path clip-path="url(#pec6aedff4c)" d="M 453.94463 155.845354 
L 453.94463 150.687271 
" style="fill:none;stroke:#ff0000;stroke-width:1.5;"/>
    <path clip-path="url(#pec6aedff4c)" d="M 456.656845 163.548784 
L 456.656845 157.928129 
" style="fill:none;stroke:#ff0000;stroke-width:1.5;"/>
    <path clip-path="url(#pec6aedff4c)" d="M 459.291558 174.403851 
L 459.291558 168.638226 
" style="fill:none;stroke:#ff0000;stroke-width:1.5;"/>
    <path clip-path="url(#pec6aedff4c)" d="M 461.853074 174.174329 
L 461.853074 168.238651 
" style="fill:none;stroke:#ff0000;stroke-width:1.5;"/>
    <path clip-path="url(#pec6aedff4c)" d="M 464.345352 176.311804 
L 464.345352 170.186743 
" style="fill:none;stroke:#ff0000;stroke-width:1.5;"/>
    <path clip-path="url(#pec6aedff4c)" d="M 466.772036 185.376667 
L 466.772036 178.803879 
" style="fill:none;stroke:#ff0000;stroke-width:1.5;"/>
    <path clip-path="url(#pec6aedff4c)" d="M 469.13649 191.020326 
L 469.13649 184.520251 
" style="fill:none;stroke:#ff0000;stroke-width:1.5;"/>
    <path clip-path="url(#pec6aedff4c)" d="M 471.441827 195.388771 
L 471.441827 188.712699 
" style="fill:none;stroke:#ff0000;stroke-width:1.5;"/>
    <path clip-path="url(#pec6aedff4c)" d="M 473.690931 204.375732 
L 473.690931 197.320021 
" style="fill:none;stroke:#ff0000;stroke-width:1.5;"/>
    <path clip-path="url(#pec6aedff4c)" d="M 475.886479 214.698518 
L 475.886479 207.62668 
" style="fill:none;stroke:#ff0000;stroke-width:1.5;"/>
    <path clip-path="url(#pec6aedff4c)" d="M 478.030963 219.390359 
L 478.030963 212.388581 
" style="fill:none;stroke:#ff0000;stroke-width:1.5;"/>
    <path clip-path="url(#pec6aedff4c)" d="M 480.126705 221.491276 
L 480.126705 214.092258 
" style="fill:none;stroke:#ff0000;stroke-width:1.5;"/>
    <path clip-path="url(#pec6aedff4c)" d="M 482.175871 232.38918 
L 482.175871 224.487259 
" style="fill:none;stroke:#ff0000;stroke-width:1.5;"/>
    <path clip-path="url(#pec6aedff4c)" d="M 484.180486 231.715043 
L 484.180486 224.013303 
" style="fill:none;stroke:#ff0000;stroke-width:1.5;"/>
    <path clip-path="url(#pec6aedff4c)" d="M 486.142446 239.252546 
L 486.142446 231.713916 
" style="fill:none;stroke:#ff0000;stroke-width:1.5;"/>
    <path clip-path="url(#pec6aedff4c)" d="M 488.06353 242.743976 
L 488.06353 234.840822 
" style="fill:none;stroke:#ff0000;stroke-width:1.5;"/>
    <path clip-path="url(#pec6aedff4c)" d="M 489.945404 248.710928 
L 489.945404 240.63778 
" style="fill:none;stroke:#ff0000;stroke-width:1.5;"/>
    <path clip-path="url(#pec6aedff4c)" d="M 491.789639 251.970302 
L 491.789639 243.968639 
" style="fill:none;stroke:#ff0000;stroke-width:1.5;"/>
    <path clip-path="url(#pec6aedff4c)" d="M 493.59771 247.2942 
L 493.59771 239.489815 
" style="fill:none;stroke:#ff0000;stroke-width:1.5;"/>
    <path clip-path="url(#pec6aedff4c)" d="M 495.371009 246.126087 
L 495.371009 238.075106 
" style="fill:none;stroke:#ff0000;stroke-width:1.5;"/>
    <path clip-path="url(#pec6aedff4c)" d="M 497.110846 251.750135 
L 497.110846 243.696468 
" style="fill:none;stroke:#ff0000;stroke-width:1.5;"/>
    <path clip-path="url(#pec6aedff4c)" d="M 497.968608 254.571635 
L 497.968608 246.358512 
" style="fill:none;stroke:#ff0000;stroke-width:1.5;"/>
    <path clip-path="url(#pec6aedff4c)" d="M 499.660557 264.839235 
L 499.660557 256.624032 
" style="fill:none;stroke:#ff0000;stroke-width:1.5;"/>
    <path clip-path="url(#pec6aedff4c)" d="M 501.32202 271.142636 
L 501.32202 263.133858 
" style="fill:none;stroke:#ff0000;stroke-width:1.5;"/>
    <path clip-path="url(#pec6aedff4c)" d="M 502.954074 267.799923 
L 502.954074 259.656008 
" style="fill:none;stroke:#ff0000;stroke-width:1.5;"/>
    <path clip-path="url(#pec6aedff4c)" d="M 504.557743 274.810063 
L 504.557743 266.715634 
" style="fill:none;stroke:#ff0000;stroke-width:1.5;"/>
    <path clip-path="url(#pec6aedff4c)" d="M 506.133998 279.282907 
L 506.133998 271.187282 
" style="fill:none;stroke:#ff0000;stroke-width:1.5;"/>
    <path clip-path="url(#pec6aedff4c)" d="M 507.68376 278.287827 
L 507.68376 270.26772 
" style="fill:none;stroke:#ff0000;stroke-width:1.5;"/>
    <path clip-path="url(#pec6aedff4c)" d="M 509.207905 282.830325 
L 509.207905 274.737198 
" style="fill:none;stroke:#ff0000;stroke-width:1.5;"/>
    <path clip-path="url(#pec6aedff4c)" d="M 510.707266 276.919687 
L 510.707266 268.62105 
" style="fill:none;stroke:#ff0000;stroke-width:1.5;"/>
    <path clip-path="url(#pec6aedff4c)" d="M 512.182636 274.037369 
L 512.182636 266.025551 
" style="fill:none;stroke:#ff0000;stroke-width:1.5;"/>
   </g>
   <g id="line2d_28">
    <path clip-path="url(#pec6aedff4c)" d="M 74.519157 53.3875 
L 133.629163 53.551067 
L 161.247804 53.836623 
L 179.762145 54.239979 
L 193.783786 54.759728 
L 205.104711 55.395258 
L 214.616666 56.146272 
L 222.837713 57.013516 
L 230.090579 57.997965 
L 236.596076 59.101832 
L 242.498584 60.325597 
L 247.917001 61.673023 
L 252.944749 63.150189 
L 257.641277 64.760034 
L 262.057542 66.507149 
L 266.2445 68.401423 
L 270.236124 70.450565 
L 274.066385 72.666665 
L 277.752267 75.055766 
L 281.327743 77.638503 
L 284.809798 80.428914 
L 288.215418 83.444267 
L 291.561588 86.705646 
L 294.865294 90.238542 
L 298.135028 94.06306 
L 301.387777 98.212457 
L 304.640526 102.725734 
L 307.901768 107.63471 
L 311.188488 112.987572 
L 314.526165 118.853851 
L 317.923292 125.279641 
L 321.41384 132.363767 
L 325.040272 140.234829 
L 328.853547 149.052492 
L 332.955578 159.110662 
L 337.550192 170.984133 
L 343.274351 186.432056 
L 356.828886 223.261988 
L 360.82051 233.303053 
L 364.183666 241.181423 
L 367.173138 247.634808 
L 369.907825 253.022215 
L 372.447177 257.545564 
L 374.842151 261.368109 
L 377.126719 264.604588 
L 379.326359 267.343153 
L 381.466548 269.659651 
L 383.572767 271.61737 
L 385.670493 273.267716 
L 387.785204 274.651533 
L 389.959365 275.808938 
L 392.226948 276.763035 
L 394.6474 277.537577 
L 397.297159 278.148569 
L 400.320602 278.611875 
L 403.972514 278.937395 
L 408.855883 279.134177 
L 417.238294 279.214982 
L 465.834192 279.222052 
L 536.545387 279.222052 
L 536.545387 279.222052 
" style="fill:none;stroke:#ffa500;stroke-dasharray:5.55,2.4;stroke-dashoffset:0;stroke-width:1.5;"/>
   </g>
   <g id="line2d_29">
    <path clip-path="url(#pec6aedff4c)" d="M 74.519157 58.69276 
L 161.986679 58.827855 
L 193.902685 59.087138 
L 214.378867 59.464842 
L 229.581009 59.959139 
L 241.717245 60.56938 
L 251.840683 61.295338 
L 260.537327 62.136825 
L 268.180863 63.095404 
L 275.009088 64.171905 
L 281.200351 65.369952 
L 286.86506 66.689625 
L 292.105128 68.136065 
L 296.996991 69.715198 
L 301.591605 71.430546 
L 305.931434 73.286428 
L 310.067436 75.295881 
L 314.025089 77.465093 
L 317.838364 79.808571 
L 321.524246 82.334675 
L 325.108215 85.060664 
L 328.607256 88.001721 
L 332.046846 91.184658 
L 335.43548 94.625328 
L 338.790143 98.350858 
L 342.119327 102.382636 
L 345.440019 106.755452 
L 348.769203 111.509599 
L 352.123866 116.69103 
L 355.520993 122.351236 
L 358.986062 128.562423 
L 362.536059 135.388026 
L 366.213449 142.946864 
L 370.077681 151.406581 
L 374.222176 161.026773 
L 378.833775 172.309968 
L 384.473006 186.729365 
L 399.794048 226.248298 
L 403.734715 235.584683 
L 407.09787 242.99764 
L 410.104327 249.099961 
L 412.856 254.19514 
L 415.429324 258.502495 
L 417.858269 262.144142 
L 420.185301 265.239604 
L 422.427405 267.859253 
L 424.618552 270.083202 
L 426.78422 271.968127 
L 428.941395 273.554278 
L 431.132542 274.890598 
L 433.383139 276.002823 
L 435.744142 276.92021 
L 438.275001 277.662295 
L 441.069138 278.245575 
L 444.279423 278.682397 
L 448.211597 278.983298 
L 453.621522 279.157356 
L 463.795916 279.219334 
L 536.545387 279.222052 
L 536.545387 279.222052 
" style="fill:none;stroke:#0000ff;stroke-dasharray:5.55,2.4;stroke-dashoffset:0;stroke-width:1.5;"/>
   </g>
   <g id="line2d_30">
    <path clip-path="url(#pec6aedff4c)" d="M 74.519157 64.049368 
L 200.18737 64.169006 
L 234.387944 64.414545 
L 255.747379 64.778889 
L 271.425119 65.259953 
L 283.858603 65.856842 
L 294.185868 66.569218 
L 303.043876 67.398177 
L 310.806311 68.343584 
L 317.727957 69.406585 
L 323.995656 70.590886 
L 329.728307 71.897579 
L 335.027825 73.331352 
L 339.962152 74.894596 
L 344.59923 76.595424 
L 348.981524 78.438498 
L 353.151497 80.432752 
L 357.134628 82.583084 
L 360.973381 84.907822 
L 364.684742 87.415421 
L 368.294189 90.123102 
L 371.818708 93.046034 
L 375.275285 96.202717 
L 378.680905 99.615516 
L 382.052553 103.311178 
L 385.398723 107.310728 
L 388.744893 111.659831 
L 392.099555 116.388389 
L 395.479697 121.541452 
L 398.902302 127.169298 
L 402.39285 133.342309 
L 405.976818 140.138361 
L 409.696672 147.675868 
L 413.611861 156.120058 
L 417.832791 165.763947 
L 422.580276 177.183277 
L 428.59319 192.266369 
L 441.434329 224.645639 
L 445.612795 234.460484 
L 449.103343 242.110027 
L 452.194728 248.364944 
L 455.014344 253.5817 
L 457.638624 257.980406 
L 460.110034 261.698865 
L 462.471037 264.857499 
L 464.747112 267.537671 
L 466.963737 269.809895 
L 469.146391 271.733422 
L 471.320552 273.356733 
L 473.520192 274.723441 
L 475.779281 275.86534 
L 478.140284 276.808186 
L 480.662651 277.573269 
L 483.431309 278.176788 
L 486.590637 278.632343 
L 490.420898 278.950927 
L 495.58453 279.141362 
L 504.646366 279.216535 
L 536.545387 279.222052 
L 536.545387 279.222052 
" style="fill:none;stroke:#008000;stroke-dasharray:5.55,2.4;stroke-dashoffset:0;stroke-width:1.5;"/>
   </g>
   <g id="line2d_31">
    <path clip-path="url(#pec6aedff4c)" d="M 74.519157 71.179857 
L 245.640926 71.293256 
L 280.17272 71.533569 
L 301.489691 71.892719 
L 317.065517 72.368584 
L 329.388595 72.96029 
L 339.613946 73.667922 
L 348.370041 74.491748 
L 356.039054 75.432222 
L 362.875772 76.490704 
L 369.058543 77.669495 
L 374.714759 78.971266 
L 379.937841 80.398778 
L 384.804226 81.956833 
L 389.373361 83.651015 
L 393.696205 85.489385 
L 397.806728 87.4776 
L 401.747395 89.629972 
L 405.535192 91.951528 
L 409.204089 94.460869 
L 412.771072 97.17013 
L 416.26162 100.101722 
L 419.684225 103.267876 
L 423.055873 106.69079 
L 426.402043 110.406848 
L 429.731227 114.439283 
L 433.060412 118.824738 
L 436.398089 123.592649 
L 439.769737 128.801076 
L 443.192342 134.502382 
L 446.691383 140.768737 
L 450.30083 147.69571 
L 454.071641 155.422426 
L 458.071758 164.136077 
L 462.454051 174.229353 
L 467.57522 186.607845 
L 475.482033 206.39481 
L 482.76887 224.414188 
L 487.091713 234.518862 
L 490.641711 242.270392 
L 493.767068 248.575275 
L 496.603668 253.809243 
L 499.227949 258.196718 
L 501.699359 261.905735 
L 504.051869 265.044485 
L 506.319451 267.706714 
L 508.527583 269.962221 
L 510.701745 271.869789 
L 512.867413 273.477599 
L 515.05856 274.829053 
L 517.309156 275.955834 
L 519.661667 276.883658 
L 522.17554 277.633837 
L 524.944199 278.224195 
L 528.120512 278.66781 
L 531.993237 278.974312 
L 536.545387 279.138542 
L 536.545387 279.138542 
" style="fill:none;stroke:#ff0000;stroke-dasharray:5.55,2.4;stroke-dashoffset:0;stroke-width:1.5;"/>
   </g>
   <g id="line2d_32">
    <path clip-path="url(#pec6aedff4c)" d="M 77.096146 54.706707 
L 167.537104 53.450187 
L 212.305132 56.672471 
L 242.311898 59.624093 
L 264.914313 67.390921 
L 283.052707 78.698269 
L 298.202872 94.353938 
L 311.211542 113.953085 
L 322.60982 136.015247 
L 332.752856 160.955622 
L 341.889896 186.872273 
L 350.202608 208.276007 
L 357.827501 224.725086 
L 364.869752 241.471166 
L 371.412117 253.778243 
L 377.520884 257.607782 
L 383.249973 262.246674 
L 388.64383 266.111002 
L 393.739528 274.483697 
L 398.56831 279.35993 
L 403.156753 277.530468 
L 407.52765 277.138225 
L 411.7007 278.901432 
L 415.693041 276.553941 
L 419.519675 278.178989 
L 423.193813 277.373238 
L 426.727145 274.879065 
L 430.130065 272.709824 
L 433.411858 275.195915 
L 436.580853 283.51797 
L 439.644546 287.631392 
L 442.60971 281.719203 
L 445.482487 273.137588 
L 448.268459 272.998869 
L 450.972719 276.337485 
L 453.599924 278.4899 
L 456.154344 278.46808 
L 458.639904 276.498263 
L 461.060218 274.536555 
L 463.418624 276.2449 
" style="fill:none;stroke:#ffa500;stroke-linecap:square;stroke-width:1.5;"/>
   </g>
   <g id="line2d_33">
    <path clip-path="url(#pec6aedff4c)" d="M 141.010324 56.721065 
L 199.654 62.161891 
L 235.215423 60.843004 
L 260.815475 63.077265 
L 280.830704 65.708826 
L 297.266736 69.690508 
L 311.211542 74.53623 
L 323.321859 84.048174 
L 334.02472 93.154489 
L 343.613472 102.488085 
L 352.29835 118.362642 
L 360.235175 135.318772 
L 367.542654 143.272952 
L 374.313303 160.616607 
L 380.620627 174.346708 
L 386.523997 192.577784 
L 392.072056 207.585948 
L 397.305158 222.385574 
L 402.257149 236.516219 
L 406.956697 241.667045 
L 411.428296 251.883925 
L 415.693041 258.800941 
L 419.769225 265.108045 
L 423.672821 271.821804 
L 427.41785 266.780253 
L 431.016693 270.211908 
L 434.480337 279.042044 
L 437.818572 271.220421 
L 441.040163 273.392964 
L 444.152987 276.33009 
L 447.16415 278.66896 
L 450.080082 279.096884 
L 452.906623 276.499287 
L 455.64909 269.242158 
L 458.312342 269.821208 
L 460.900825 273.921761 
L 463.418624 277.801884 
L 465.869497 278.882454 
" style="fill:none;stroke:#0000ff;stroke-linecap:square;stroke-width:1.5;"/>
   </g>
   <g id="line2d_34">
    <path clip-path="url(#pec6aedff4c)" d="M 204.924501 57.925814 
L 238.831913 67.396152 
L 263.568177 68.548673 
L 283.052707 62.851337 
L 299.1296 69.757759 
L 312.815211 70.788896 
L 324.729653 71.679423 
L 335.279279 74.306675 
L 344.744881 77.819507 
L 353.328625 79.114231 
L 361.180913 85.953341 
L 368.416676 88.767346 
L 375.125719 95.7679 
L 381.37955 101.978216 
L 387.236037 112.037684 
L 392.742668 116.216929 
L 397.938897 124.36669 
L 402.857859 128.294633 
L 407.52765 138.195444 
L 411.972301 155.261437 
L 416.212527 165.450895 
L 420.266308 170.225794 
L 424.149352 179.338623 
L 427.875462 190.766396 
L 431.456831 193.839722 
L 434.904286 211.704542 
L 438.22748 218.306641 
L 441.435062 233.775431 
L 444.534804 238.157812 
L 447.533725 247.007248 
L 450.438175 250.073846 
L 453.253925 248.436575 
L 455.986234 251.450618 
L 458.639904 256.260152 
L 461.219335 262.276045 
L 463.72857 265.181931 
L 466.171326 268.087171 
L 468.551037 269.708197 
L 470.870874 276.523317 
L 473.133777 273.222134 
L 475.342473 275.490617 
L 477.499499 274.545073 
L 479.607218 279.236555 
L 481.667833 273.152703 
L 483.683403 271.570331 
L 485.655856 276.174549 
L 487.586998 278.403467 
L 489.478524 272.079047 
L 491.332027 271.980171 
L 493.149005 272.871901 
" style="fill:none;stroke:#008000;stroke-linecap:square;stroke-width:1.5;"/>
   </g>
   <g id="line2d_35">
    <path clip-path="url(#pec6aedff4c)" d="M 268.838678 63.435374 
L 287.342256 75.838829 
L 302.74609 75.705009 
L 315.941228 73.727555 
L 327.482355 79.382791 
L 337.738322 72.204548 
L 346.966884 72.17102 
L 355.355271 78.254466 
L 363.043778 77.237481 
L 370.140253 75.009363 
L 376.729389 79.312044 
L 382.878911 85.346845 
L 388.64383 84.09389 
L 394.069434 85.606699 
L 399.193456 88.988563 
L 404.047665 90.712739 
L 408.659059 94.338614 
L 413.050778 96.226917 
L 417.242803 100.83909 
L 421.252507 105.249637 
L 425.09509 110.300887 
L 428.783929 112.433876 
L 432.330854 115.386429 
L 435.74638 121.653143 
L 439.039897 128.790075 
L 442.219821 132.954054 
L 445.293728 136.610979 
L 448.268459 145.199974 
L 451.150214 150.565086 
L 453.94463 153.266313 
L 456.656845 160.738456 
L 459.291558 171.521039 
L 461.853074 171.20649 
L 464.345352 173.249273 
L 466.772036 182.090273 
L 469.13649 187.770289 
L 471.441827 192.050735 
L 473.690931 200.847876 
L 475.886479 211.162599 
L 478.030963 215.88947 
L 480.126705 217.791767 
L 482.175871 228.438219 
L 484.180486 227.864173 
L 486.142446 235.483231 
L 488.06353 238.792399 
L 489.945404 244.674354 
L 491.789639 247.96947 
L 493.59771 243.392008 
L 495.371009 242.100596 
L 497.110846 247.723302 
L 497.968608 250.465074 
L 499.660557 260.731633 
L 501.32202 267.138247 
L 502.954074 263.727966 
L 504.557743 270.762848 
L 506.133998 275.235094 
L 507.68376 274.277774 
L 509.207905 278.783762 
L 510.707266 272.770369 
L 512.182636 270.03146 
" style="fill:none;stroke:#ff0000;stroke-linecap:square;stroke-width:1.5;"/>
   </g>
   <g id="patch_3">
    <path d="M 74.52 304.38 
L 74.52 41.04 
" style="fill:none;stroke:#000000;stroke-linecap:square;stroke-linejoin:miter;stroke-width:0.8;"/>
   </g>
   <g id="patch_4">
    <path d="M 536.544 304.38 
L 536.544 41.04 
" style="fill:none;stroke:#000000;stroke-linecap:square;stroke-linejoin:miter;stroke-width:0.8;"/>
   </g>
   <g id="patch_5">
    <path d="M 74.52 304.38 
L 536.544 304.38 
" style="fill:none;stroke:#000000;stroke-linecap:square;stroke-linejoin:miter;stroke-width:0.8;"/>
   </g>
   <g id="patch_6">
    <path d="M 74.52 41.04 
L 536.544 41.04 
" style="fill:none;stroke:#000000;stroke-linecap:square;stroke-linejoin:miter;stroke-width:0.8;"/>
   </g>
   <g id="text_11">
    <!-- Dynamical Decoupling of Carbon atoms -->
    <defs>
     <path d="M 5.203125 68 
L 5.203125 65.40625 
C 12.09375 65.40625 13.203125 65.40625 13.203125 60.9375 
L 13.203125 7.0625 
C 13.203125 2.59375 12.09375 2.59375 5.203125 2.59375 
L 5.203125 0 
L 37 0 
C 53.09375 0 66 14.734375 66 33.453125 
C 66 52.28125 53.296875 68 37 68 
z
M 23.796875 2.59375 
C 19.796875 2.59375 19.59375 3.078125 19.59375 6.46875 
L 19.59375 61.53125 
C 19.59375 64.921875 19.796875 65.40625 23.796875 65.40625 
L 35 65.40625 
C 43.296875 65.40625 58.59375 60.53125 58.59375 33.453125 
C 58.59375 19.40625 54.5 13.734375 52.59375 11.046875 
C 50.203125 7.96875 44.5 2.59375 35 2.59375 
z
" id="CMR17-68"/>
     <path d="M 39 34.328125 
C 41.5 40.40625 46 40.40625 47.40625 40.40625 
L 47.40625 43 
C 45.5 43 43 43 41.09375 43 
C 39 43 35.703125 43 33.703125 43.09375 
L 33.703125 40.5 
C 37.5 40.203125 37.59375 37.40625 37.59375 36.609375 
C 37.59375 35.625 37.40625 35.125 36.90625 33.921875 
L 26 7.015625 
L 14.09375 36.03125 
C 13.59375 37.21875 13.59375 37.90625 13.59375 38.015625 
C 13.59375 40.203125 15.90625 40.40625 18.296875 40.40625 
L 18.296875 43.09375 
C 15.90625 43 11.59375 43 9.09375 43 
C 6.40625 43 3.203125 43 1 43.09375 
L 1 40.40625 
C 6.40625 40.40625 7 39.90625 8.296875 36.71875 
L 23.203125 0.234375 
C 18.703125 -11.53125 16.09375 -18.40625 9.796875 -18.40625 
C 8.703125 -18.40625 6.203125 -18.109375 4.40625 -16.3125 
C 6.703125 -16.109375 7.703125 -14.71875 7.703125 -13.015625 
C 7.703125 -11.328125 6.5 -9.828125 4.5 -9.828125 
C 2.296875 -9.828125 1.203125 -11.328125 1.203125 -13.125 
C 1.203125 -17.109375 5.296875 -20 9.796875 -20 
C 15.59375 -20 19.203125 -14.40625 21.203125 -9.4375 
z
" id="CMR17-121"/>
     <path d="M 67.59375 30.203125 
C 67.59375 35.1875 66.703125 43.59375 54.796875 43.59375 
C 48 43.59375 43.296875 39 41.5 33.609375 
L 41.40625 33.609375 
C 40.203125 41.8125 34.296875 43.59375 28.703125 43.59375 
C 20.796875 43.59375 16.703125 37.5 15.203125 33.5 
L 15.09375 33.5 
L 15.09375 43.59375 
L 3.296875 42.5 
L 3.296875 39.90625 
C 9.203125 39.90625 10.09375 39.296875 10.09375 34.5 
L 10.09375 6.6875 
C 10.09375 2.875 9.703125 2.390625 3.296875 2.390625 
L 3.296875 -0.203125 
C 5.703125 0 10.09375 0 12.703125 0 
C 15.296875 0 19.796875 0 22.203125 -0.203125 
L 22.203125 2.390625 
C 15.796875 2.390625 15.40625 2.78125 15.40625 6.6875 
L 15.40625 25.90625 
C 15.40625 35.109375 21 42 28 42 
C 35.40625 42 36.203125 35.40625 36.203125 30.59375 
L 36.203125 6.6875 
C 36.203125 2.875 35.796875 2.390625 29.40625 2.390625 
L 29.40625 -0.203125 
C 31.796875 0 36.203125 0 38.796875 0 
C 41.40625 0 45.90625 0 48.296875 -0.203125 
L 48.296875 2.390625 
C 41.90625 2.390625 41.5 2.78125 41.5 6.6875 
L 41.5 25.90625 
C 41.5 35.109375 47.09375 42 54.09375 42 
C 61.5 42 62.296875 35.40625 62.296875 30.59375 
L 62.296875 6.6875 
C 62.296875 2.875 61.90625 2.390625 55.5 2.390625 
L 55.5 -0.203125 
C 57.90625 0 62.296875 0 64.90625 0 
C 67.5 0 72 0 74.40625 -0.203125 
L 74.40625 2.390625 
C 68 2.390625 67.59375 2.78125 67.59375 6.6875 
z
" id="CMR17-109"/>
     <path d="M 15.296875 68.6875 
L 3.40625 67.59375 
L 3.40625 65 
C 9.296875 65 10.203125 64.40625 10.203125 59.640625 
L 10.203125 6.65625 
C 10.203125 2.875 9.796875 2.390625 3.40625 2.390625 
L 3.40625 -0.203125 
C 5.796875 0 10.203125 0 12.703125 0 
C 15.296875 0 19.703125 0 22.09375 -0.203125 
L 22.09375 2.390625 
C 15.703125 2.390625 15.296875 2.78125 15.296875 6.65625 
z
" id="CMR17-108"/>
     <path d="M 29.40625 42.078125 
L 29.40625 39.5 
C 35.296875 39.5 36.203125 38.890625 36.203125 34.15625 
L 36.203125 16.125 
C 36.203125 7.8125 31.703125 0.59375 24.296875 0.59375 
C 16.09375 0.59375 15.40625 5.4375 15.40625 10.59375 
L 15.40625 43.171875 
L 3.296875 42.078125 
L 3.296875 39.5 
C 7.296875 39.5 10 39.5 10.09375 35.53125 
L 10.09375 16.53125 
C 10.09375 9.890625 10.09375 5.640625 12.703125 2.859375 
C 14 1.578125 16.5 -1 23.703125 -1 
C 32.203125 -1 35.5 5.890625 36.296875 7.90625 
L 36.40625 7.90625 
L 36.40625 -0.984375 
L 48.296875 -0.984375 
L 48.296875 2 
C 42.40625 2 41.5 2.59375 41.5 7.390625 
L 41.5 43.171875 
z
" id="CMR17-117"/>
     <path d="M 22 -16.609375 
C 15.59375 -16.609375 15.203125 -16.203125 15.203125 -12.328125 
L 15.203125 6.28125 
C 18.09375 2.09375 22.296875 -0.59375 27.59375 -0.59375 
C 37.59375 -0.59375 47.703125 8.171875 47.703125 21.6875 
C 47.703125 34.234375 39 43.78125 28.703125 43.78125 
C 22.703125 43.78125 17.796875 40.5 15 36.53125 
L 15 43.78125 
L 3.09375 42.6875 
L 3.09375 40.109375 
C 9 40.109375 9.90625 39.5 9.90625 34.734375 
L 9.90625 -12.328125 
C 9.90625 -16.109375 9.5 -16.609375 3.09375 -16.609375 
L 3.09375 -19.1875 
C 5.5 -19 9.90625 -19 12.5 -19 
C 15.09375 -19 19.59375 -19 22 -19.1875 
z
M 15.203125 31.4375 
C 15.203125 32.84375 15.203125 34.921875 19.09375 38.609375 
C 19.59375 39.015625 23 42 28 42 
C 35.296875 42 41.296875 32.9375 41.296875 21.59375 
C 41.296875 10.25 34.90625 1 27 1 
C 23.40625 1 19.5 2.6875 16.5 7.375 
C 15.203125 9.5625 15.203125 10.15625 15.203125 11.75 
z
" id="CMR17-112"/>
     <path d="M 11.09375 18.1875 
C 13 16.6875 16.296875 15 20.296875 15 
C 28.203125 15 35 21.203125 35 29.5 
C 35 32.09375 34.203125 36.09375 31.203125 39.203125 
C 34 42.0625 38.09375 43 40.40625 43 
C 40.796875 43 41.40625 43 41.90625 42.71875 
C 41.5 42.625 40.59375 42.234375 40.59375 40.703125 
C 40.59375 39.484375 41.5 38.609375 42.796875 38.609375 
C 44.296875 38.609375 45.09375 39.578125 45.09375 40.84375 
C 45.09375 42.671875 43.59375 44.59375 40.40625 44.59375 
C 36.40625 44.59375 32.90625 42.78125 30.09375 40.3125 
C 27.09375 43.015625 23.5 44 20.296875 44 
C 12.40625 44 5.59375 37.796875 5.59375 29.5 
C 5.59375 23.78125 8.90625 20.1875 9.90625 19.1875 
C 6.90625 15.6875 6.90625 11.609375 6.90625 11.109375 
C 6.90625 8.515625 7.90625 4.71875 11.296875 2.625 
C 6.09375 1.328125 2 -2.640625 2 -7.59375 
C 2 -14.734375 11.5 -20 22.90625 -20 
C 33.90625 -20 43.796875 -14.9375 43.796875 -7.484375 
C 43.796875 6 29 6 21.296875 6 
C 19 6 14.90625 6 14.40625 6.109375 
C 11.296875 6.609375 9.203125 9.40625 9.203125 12.90625 
C 9.203125 13.796875 9.203125 16 11.09375 18.1875 
z
M 20.296875 16.6875 
C 11.5 16.6875 11.5 27.5 11.5 29.515625 
C 11.5 31.5 11.5 42.3125 20.296875 42.3125 
C 29.09375 42.3125 29.09375 31.5 29.09375 29.515625 
C 29.09375 27.5 29.09375 16.6875 20.296875 16.6875 
z
M 22.90625 -18.296875 
C 12.90625 -18.296875 6 -13.046875 6 -7.59375 
C 6 -4.515625 7.703125 -1.640625 9.90625 -0.0625 
C 12.40625 1.625 13.40625 1.625 20.203125 1.625 
C 28.40625 1.625 39.796875 1.625 39.796875 -7.59375 
C 39.796875 -13.046875 32.90625 -18.296875 22.90625 -18.296875 
z
" id="CMR17-103"/>
     <path d="M 15.296875 40 
L 26.703125 40 
L 26.703125 42.578125 
L 15.09375 42.578125 
L 15.09375 54.59375 
C 15.09375 62.84375 19.296875 68 23.59375 68 
C 24.90625 68 26.40625 67.609375 27.40625 66.90625 
C 26.59375 66.703125 24.5 66.015625 24.5 63.546875 
C 24.5 60.953125 26.5 60.15625 27.90625 60.15625 
C 29.296875 60.15625 31.296875 60.953125 31.296875 63.546875 
C 31.296875 67.3125 27.703125 69.59375 23.703125 69.59375 
C 18 69.59375 10.203125 64.9375 10.203125 54.390625 
L 10.203125 42.578125 
L 2.203125 42.578125 
L 2.203125 40 
L 10.203125 40 
L 10.203125 6.671875 
C 10.203125 2.875 9.796875 2.390625 3.40625 2.390625 
L 3.40625 -0.203125 
C 5.796875 0 10.40625 0 13 0 
C 15.90625 0 21 0 23.703125 -0.203125 
L 23.703125 2.390625 
C 16.5 2.390625 15.296875 2.390625 15.296875 6.859375 
z
" id="CMR17-102"/>
     <path d="M 62.09375 67.015625 
C 62.09375 68.796875 62 68.90625 61.40625 68.90625 
C 61 68.90625 60.90625 68.796875 60.203125 67.609375 
L 55.796875 59.25 
C 50.90625 65.421875 44.90625 69 37.203125 69 
C 20.09375 69 4.59375 54 4.59375 33.5625 
C 4.59375 12.90625 20.09375 -2 37.296875 -2 
C 52.59375 -2 62.09375 11.40625 62.09375 22.828125 
C 62.09375 23.8125 62.09375 24.21875 61.203125 24.21875 
C 60.40625 24.21875 60.40625 23.921875 60.296875 23.03125 
C 59.5 9.140625 49.5 0.59375 38.703125 0.59375 
C 28.5 0.59375 12.203125 7.734375 12.203125 33.546875 
C 12.203125 59.453125 28.796875 66.40625 38.5 66.40625 
C 49.796875 66.40625 58 56.6875 59.90625 42.890625 
C 60.09375 41.6875 60.09375 41.484375 61 41.484375 
C 62.09375 41.484375 62.09375 41.6875 62.09375 43.484375 
z
" id="CMR17-67"/>
     <path d="M 15 68.6875 
L 3.09375 67.59375 
L 3.09375 65 
C 9 65 9.90625 64.40625 9.90625 59.640625 
L 9.90625 -0.203125 
L 11.703125 -0.203125 
L 14.59375 6.890625 
C 17.5 2.203125 21.796875 -1 27.59375 -1 
C 37.59375 -1 47.703125 7.8125 47.703125 21.40625 
C 47.703125 34.1875 38.703125 43.59375 28.59375 43.59375 
C 22.40625 43.59375 18 40.296875 15 36.40625 
z
M 15.203125 31.3125 
C 15.203125 33.09375 15.203125 33.40625 16.59375 35.5 
C 20.5 41.515625 26.09375 42 28 42 
C 31 42 41.296875 40.390625 41.296875 21.5 
C 41.296875 1.6875 29.5 0.59375 27.09375 0.59375 
C 24 0.59375 19.5 1.78125 16.296875 7.59375 
C 15.203125 9.5 15.203125 9.703125 15.203125 11.484375 
z
" id="CMR17-98"/>
    </defs>
    <g transform="translate(151.576983 35.04)scale(0.192 -0.192)">
     <use transform="scale(0.996264)" xlink:href="#CMR17-68"/>
     <use transform="translate(70.393556 0)scale(0.996264)" xlink:href="#CMR17-121"/>
     <use transform="translate(118.686472 0)scale(0.996264)" xlink:href="#CMR17-110"/>
     <use transform="translate(169.581842 0)scale(0.996264)" xlink:href="#CMR17-97"/>
     <use transform="translate(215.272319 0)scale(0.996264)" xlink:href="#CMR17-109"/>
     <use transform="translate(292.191909 0)scale(0.996264)" xlink:href="#CMR17-105"/>
     <use transform="translate(317.062967 0)scale(0.996264)" xlink:href="#CMR17-99"/>
     <use transform="translate(357.548627 0)scale(0.996264)" xlink:href="#CMR17-97"/>
     <use transform="translate(403.239105 0)scale(0.996264)" xlink:href="#CMR17-108"/>
     <use transform="translate(458.186129 0)scale(0.996264)" xlink:href="#CMR17-68"/>
     <use transform="translate(528.579685 0)scale(0.996264)" xlink:href="#CMR17-101"/>
     <use transform="translate(569.065346 0)scale(0.996264)" xlink:href="#CMR17-99"/>
     <use transform="translate(609.551006 0)scale(0.996264)" xlink:href="#CMR17-111"/>
     <use transform="translate(655.241483 0)scale(0.996264)" xlink:href="#CMR17-117"/>
     <use transform="translate(706.136853 0)scale(0.996264)" xlink:href="#CMR17-112"/>
     <use transform="translate(757.032223 0)scale(0.996264)" xlink:href="#CMR17-108"/>
     <use transform="translate(781.903281 0)scale(0.996264)" xlink:href="#CMR17-105"/>
     <use transform="translate(806.77434 0)scale(0.996264)" xlink:href="#CMR17-110"/>
     <use transform="translate(857.66971 0)scale(0.996264)" xlink:href="#CMR17-103"/>
     <use transform="translate(933.436153 0)scale(0.996264)" xlink:href="#CMR17-111"/>
     <use transform="translate(979.12663 0)scale(0.996264)" xlink:href="#CMR17-102"/>
     <use transform="translate(1036.676109 0)scale(0.996264)" xlink:href="#CMR17-67"/>
     <use transform="translate(1103.18599 0)scale(0.996264)" xlink:href="#CMR17-97"/>
     <use transform="translate(1148.876467 0)scale(0.996264)" xlink:href="#CMR17-114"/>
     <use transform="translate(1184.157234 0)scale(0.996264)" xlink:href="#CMR17-98"/>
     <use transform="translate(1237.655043 0)scale(0.996264)" xlink:href="#CMR17-111"/>
     <use transform="translate(1283.34552 0)scale(0.996264)" xlink:href="#CMR17-110"/>
     <use transform="translate(1364.316856 0)scale(0.996264)" xlink:href="#CMR17-97"/>
     <use transform="translate(1410.007333 0)scale(0.996264)" xlink:href="#CMR17-116"/>
     <use transform="translate(1445.288101 0)scale(0.996264)" xlink:href="#CMR17-111"/>
     <use transform="translate(1490.978578 0)scale(0.996264)" xlink:href="#CMR17-109"/>
     <use transform="translate(1567.898168 0)scale(0.996264)" xlink:href="#CMR17-115"/>
    </g>
   </g>
   <g id="legend_1">
    <g id="patch_7">
     <path d="M 447.427031 130.288114 
L 526.744 130.288114 
Q 529.544 130.288114 529.544 127.488114 
L 529.544 50.84 
Q 529.544 48.04 526.744 48.04 
L 447.427031 48.04 
Q 444.627031 48.04 444.627031 50.84 
L 444.627031 127.488114 
Q 444.627031 130.288114 447.427031 130.288114 
z
" style="fill:#ffffff;opacity:0.8;stroke:#cccccc;stroke-linejoin:miter;"/>
    </g>
    <g id="LineCollection_5">
     <path d="M 464.227031 65.54 
L 464.227031 51.54 
" style="fill:none;stroke:#ffa500;stroke-width:1.5;"/>
    </g>
    <g id="line2d_36">
     <path d="M 450.227031 58.54 
L 478.227031 58.54 
" style="fill:none;stroke:#ffa500;stroke-linecap:square;stroke-width:1.5;"/>
    </g>
    <g id="line2d_37"/>
    <g id="text_12">
     <!-- N=2 -->
     <defs>
      <path d="M 20.5 66.40625 
C 19.796875 67.5 19.703125 67.5 17.796875 67.5 
L 5.09375 67.5 
L 5.09375 65 
L 7 65 
C 11 65 12.796875 64.515625 13.09375 64.40625 
L 13.09375 9.53125 
C 13.09375 7.046875 13.09375 2.390625 5.09375 2.390625 
L 5.09375 -0.203125 
C 7.40625 0 11.59375 0 14.09375 0 
C 16.59375 0 20.796875 0 23.09375 -0.203125 
L 23.09375 2.390625 
C 15.09375 2.390625 15.09375 7.046875 15.09375 9.53125 
L 15.09375 63.015625 
C 15.796875 62.421875 15.796875 62.21875 16.5 61.234375 
L 53.59375 1.1875 
C 54.296875 0 54.59375 0 55.09375 0 
C 56.09375 0 56.09375 0.296875 56.09375 2.171875 
L 56.09375 57.890625 
C 56.09375 60.359375 56.09375 65 64.09375 65 
L 64.09375 67.59375 
C 61.796875 67.5 57.59375 67.5 55.09375 67.5 
C 52.59375 67.5 48.40625 67.5 46.09375 67.59375 
L 46.09375 65 
C 54.09375 65 54.09375 60.34375 54.09375 57.859375 
L 54.09375 11.921875 
z
" id="CMR17-78"/>
      <path d="M 64.296875 31.515625 
C 65.796875 31.515625 67.296875 31.515625 67.296875 33.203125 
C 67.296875 35 65.59375 35 63.90625 35 
L 8 35 
C 6.296875 35 4.59375 35 4.59375 33.203125 
C 4.59375 31.515625 6.09375 31.515625 7.59375 31.515625 
z
M 63.90625 14 
C 65.59375 14 67.296875 14 67.296875 15.796875 
C 67.296875 17.484375 65.796875 17.484375 64.296875 17.484375 
L 7.59375 17.484375 
C 6.09375 17.484375 4.59375 17.484375 4.59375 15.796875 
C 4.59375 14 6.296875 14 8 14 
z
" id="CMR17-61"/>
     </defs>
     <g transform="translate(489.427031 63.44)scale(0.14 -0.14)">
      <use transform="scale(0.996264)" xlink:href="#CMR17-78"/>
      <use transform="translate(69.07243 0)scale(0.996264)" xlink:href="#CMR17-61"/>
      <use transform="translate(140.787218 0)scale(0.996264)" xlink:href="#CMR17-50"/>
     </g>
    </g>
    <g id="LineCollection_6">
     <path d="M 464.227031 85.052028 
L 464.227031 71.052028 
" style="fill:none;stroke:#0000ff;stroke-width:1.5;"/>
    </g>
    <g id="line2d_38">
     <path d="M 450.227031 78.052028 
L 478.227031 78.052028 
" style="fill:none;stroke:#0000ff;stroke-linecap:square;stroke-width:1.5;"/>
    </g>
    <g id="line2d_39"/>
    <g id="text_13">
     <!-- N=4 -->
     <defs>
      <path d="M 33.59375 64.40625 
C 33.59375 66.5 33.5 66.5 31.703125 66.5 
L 2 19.59375 
L 2 17 
L 27.796875 17 
L 27.796875 7.140625 
C 27.796875 3.5 27.59375 2.5 20.59375 2.5 
L 18.703125 2.5 
L 18.703125 0 
C 21.90625 0 27.296875 0 30.703125 0 
C 34.09375 0 39.5 0 42.703125 0 
L 42.703125 2.5 
L 40.796875 2.5 
C 33.796875 2.5 33.59375 3.5 33.59375 7.140625 
L 33.59375 17 
L 43.796875 17 
L 43.796875 19.59375 
L 33.59375 19.59375 
z
M 28.09375 57.859375 
L 28.09375 19.59375 
L 4 19.59375 
z
" id="CMR17-52"/>
     </defs>
     <g transform="translate(489.427031 82.952028)scale(0.14 -0.14)">
      <use transform="scale(0.996264)" xlink:href="#CMR17-78"/>
      <use transform="translate(69.07243 0)scale(0.996264)" xlink:href="#CMR17-61"/>
      <use transform="translate(140.787218 0)scale(0.996264)" xlink:href="#CMR17-52"/>
     </g>
    </g>
    <g id="LineCollection_7">
     <path d="M 464.227031 104.564057 
L 464.227031 90.564057 
" style="fill:none;stroke:#008000;stroke-width:1.5;"/>
    </g>
    <g id="line2d_40">
     <path d="M 450.227031 97.564057 
L 478.227031 97.564057 
" style="fill:none;stroke:#008000;stroke-linecap:square;stroke-width:1.5;"/>
    </g>
    <g id="line2d_41"/>
    <g id="text_14">
     <!-- N=8 -->
     <g transform="translate(489.427031 102.464057)scale(0.14 -0.14)">
      <use transform="scale(0.996264)" xlink:href="#CMR17-78"/>
      <use transform="translate(69.07243 0)scale(0.996264)" xlink:href="#CMR17-61"/>
      <use transform="translate(140.787218 0)scale(0.996264)" xlink:href="#CMR17-56"/>
     </g>
    </g>
    <g id="LineCollection_8">
     <path d="M 464.227031 124.076085 
L 464.227031 110.076085 
" style="fill:none;stroke:#ff0000;stroke-width:1.5;"/>
    </g>
    <g id="line2d_42">
     <path d="M 450.227031 117.076085 
L 478.227031 117.076085 
" style="fill:none;stroke:#ff0000;stroke-linecap:square;stroke-width:1.5;"/>
    </g>
    <g id="line2d_43"/>
    <g id="text_15">
     <!-- N=16 -->
     <g transform="translate(489.427031 121.976085)scale(0.14 -0.14)">
      <use transform="scale(0.996264)" xlink:href="#CMR17-78"/>
      <use transform="translate(69.07243 0)scale(0.996264)" xlink:href="#CMR17-61"/>
      <use transform="translate(140.787218 0)scale(0.996264)" xlink:href="#CMR17-49"/>
      <use transform="translate(186.477695 0)scale(0.996264)" xlink:href="#CMR17-54"/>
     </g>
    </g>
   </g>
  </g>
 </g>
 <defs>
  <clipPath id="pec6aedff4c">
   <rect height="263.34" width="462.024" x="74.52" y="41.04"/>
  </clipPath>
 </defs>
</svg>
