<?xml version="1.0" encoding="utf-8" standalone="no"?>
<!DOCTYPE svg PUBLIC "-//W3C//DTD SVG 1.1//EN"
  "http://www.w3.org/Graphics/SVG/1.1/DTD/svg11.dtd">
<!-- Created with matplotlib (https://matplotlib.org/) -->
<svg height="216pt" version="1.1" viewBox="0 0 432 216" width="432pt" xmlns="http://www.w3.org/2000/svg" xmlns:xlink="http://www.w3.org/1999/xlink">
 <defs>
  <style type="text/css">
*{stroke-linecap:butt;stroke-linejoin:round;}
  </style>
 </defs>
 <g id="figure_1">
  <g id="patch_1">
   <path d="M 0 216 
L 432 216 
L 432 0 
L 0 0 
z
" style="fill:#ffffff;"/>
  </g>
  <g id="axes_1">
   <g id="patch_2">
    <path d="M 71.785464 162.92419 
L 407.572002 162.92419 
L 407.572002 36.563515 
L 71.785464 36.563515 
z
" style="fill:#ffffff;"/>
   </g>
   <g id="matplotlib.axis_1">
    <g id="xtick_1">
     <g id="line2d_1">
      <defs>
       <path d="M 0 0 
L 0 3.5 
" id="ma3acba5d01" style="stroke:#000000;stroke-width:0.8;"/>
      </defs>
      <g>
       <use style="stroke:#000000;stroke-width:0.8;" x="87.048489" xlink:href="#ma3acba5d01" y="162.92419"/>
      </g>
     </g>
     <g id="text_1">
      <!-- $0$ -->
      <defs>
       <path d="M 42 31.640625 
C 42 37.75 41.90625 48.125 37.703125 56.109375 
C 34 63.109375 28.09375 65.59375 22.90625 65.59375 
C 18.09375 65.59375 12 63.40625 8.203125 56.203125 
C 4.203125 48.71875 3.796875 39.4375 3.796875 31.640625 
C 3.796875 25.953125 3.90625 17.28125 7 9.671875 
C 11.296875 -0.609375 19 -2 22.90625 -2 
C 27.5 -2 34.5 -0.109375 38.59375 9.375 
C 41.59375 16.28125 42 24.359375 42 31.640625 
z
M 22.90625 -0.40625 
C 16.5 -0.40625 12.703125 5.078125 11.296875 12.6875 
C 10.203125 18.5625 10.203125 27.15625 10.203125 32.75 
C 10.203125 40.4375 10.203125 46.828125 11.5 52.921875 
C 13.40625 61.390625 19 64 22.90625 64 
C 27 64 32.296875 61.296875 34.203125 53.125 
C 35.5 47.4375 35.59375 40.734375 35.59375 32.75 
C 35.59375 26.25 35.59375 18.265625 34.40625 12.375 
C 32.296875 1.484375 26.40625 -0.40625 22.90625 -0.40625 
z
" id="CMR17-48"/>
      </defs>
      <g transform="translate(83.634244 179.610067)scale(0.14 -0.14)">
       <use transform="scale(0.996264)" xlink:href="#CMR17-48"/>
      </g>
     </g>
    </g>
    <g id="xtick_2">
     <g id="line2d_2">
      <g>
       <use style="stroke:#000000;stroke-width:0.8;" x="148.107914" xlink:href="#ma3acba5d01" y="162.92419"/>
      </g>
     </g>
     <g id="text_2">
      <!-- $200$ -->
      <defs>
       <path d="M 41.703125 15.453125 
L 39.90625 15.453125 
C 38.90625 8.375 38.09375 7.171875 37.703125 6.5625 
C 37.203125 5.765625 30 5.765625 28.59375 5.765625 
L 9.40625 5.765625 
C 13 9.671875 20 16.75 28.5 24.953125 
C 34.59375 30.734375 41.703125 37.53125 41.703125 47.421875 
C 41.703125 59.21875 32.296875 66 21.796875 66 
C 10.796875 66 4.09375 56.3125 4.09375 47.34375 
C 4.09375 43.4375 7 42.9375 8.203125 42.9375 
C 9.203125 42.9375 12.203125 43.546875 12.203125 47.03125 
C 12.203125 50.109375 9.59375 51 8.203125 51 
C 7.59375 51 7 50.90625 6.59375 50.703125 
C 8.5 59.21875 14.296875 63.40625 20.40625 63.40625 
C 29.09375 63.40625 34.796875 56.515625 34.796875 47.421875 
C 34.796875 38.734375 29.703125 31.25 24 24.75 
L 4.09375 2.28125 
L 4.09375 0 
L 39.296875 0 
z
" id="CMR17-50"/>
      </defs>
      <g transform="translate(137.865181 179.610067)scale(0.14 -0.14)">
       <use transform="scale(0.996264)" xlink:href="#CMR17-50"/>
       <use transform="translate(45.690477 0)scale(0.996264)" xlink:href="#CMR17-48"/>
       <use transform="translate(91.380954 0)scale(0.996264)" xlink:href="#CMR17-48"/>
      </g>
     </g>
    </g>
    <g id="xtick_3">
     <g id="line2d_3">
      <g>
       <use style="stroke:#000000;stroke-width:0.8;" x="209.167339" xlink:href="#ma3acba5d01" y="162.92419"/>
      </g>
     </g>
     <g id="text_3">
      <!-- $400$ -->
      <defs>
       <path d="M 33.59375 64.40625 
C 33.59375 66.5 33.5 66.5 31.703125 66.5 
L 2 19.59375 
L 2 17 
L 27.796875 17 
L 27.796875 7.140625 
C 27.796875 3.5 27.59375 2.5 20.59375 2.5 
L 18.703125 2.5 
L 18.703125 0 
C 21.90625 0 27.296875 0 30.703125 0 
C 34.09375 0 39.5 0 42.703125 0 
L 42.703125 2.5 
L 40.796875 2.5 
C 33.796875 2.5 33.59375 3.5 33.59375 7.140625 
L 33.59375 17 
L 43.796875 17 
L 43.796875 19.59375 
L 33.59375 19.59375 
z
M 28.09375 57.859375 
L 28.09375 19.59375 
L 4 19.59375 
z
" id="CMR17-52"/>
      </defs>
      <g transform="translate(198.924606 179.610067)scale(0.14 -0.14)">
       <use transform="scale(0.996264)" xlink:href="#CMR17-52"/>
       <use transform="translate(45.690477 0)scale(0.996264)" xlink:href="#CMR17-48"/>
       <use transform="translate(91.380954 0)scale(0.996264)" xlink:href="#CMR17-48"/>
      </g>
     </g>
    </g>
    <g id="xtick_4">
     <g id="line2d_4">
      <g>
       <use style="stroke:#000000;stroke-width:0.8;" x="270.226763" xlink:href="#ma3acba5d01" y="162.92419"/>
      </g>
     </g>
     <g id="text_4">
      <!-- $600$ -->
      <defs>
       <path d="M 10.59375 34 
C 10.59375 57.65625 21.796875 63 28.296875 63 
C 30.40625 63 35.5 62.640625 37.5 59 
C 35.90625 59 32.90625 59 32.90625 55.515625 
C 32.90625 52.828125 35.09375 51.921875 36.5 51.921875 
C 37.40625 51.921875 40.09375 52.3125 40.09375 55.625 
C 40.09375 61.78125 35.09375 65.296875 28.203125 65.296875 
C 16.296875 65.296875 3.796875 52.96875 3.796875 31 
C 3.796875 3.953125 15.09375 -2 23.09375 -2 
C 32.796875 -2 42 6.671875 42 20.046875 
C 42 32.515625 33.90625 41.59375 23.703125 41.59375 
C 17.59375 41.59375 13.09375 37.609375 10.59375 30.625 
z
M 23.09375 0.390625 
C 10.796875 0.390625 10.796875 18.75 10.796875 22.4375 
C 10.796875 29.625 14.203125 40 23.5 40 
C 25.203125 40 30.09375 40 33.40625 33.125 
C 35.203125 29.21875 35.203125 25.140625 35.203125 20.140625 
C 35.203125 14.75 35.203125 10.78125 33.09375 6.78125 
C 30.90625 2.671875 27.703125 0.390625 23.09375 0.390625 
z
" id="CMR17-54"/>
      </defs>
      <g transform="translate(259.984031 179.610067)scale(0.14 -0.14)">
       <use transform="scale(0.996264)" xlink:href="#CMR17-54"/>
       <use transform="translate(45.690477 0)scale(0.996264)" xlink:href="#CMR17-48"/>
       <use transform="translate(91.380954 0)scale(0.996264)" xlink:href="#CMR17-48"/>
      </g>
     </g>
    </g>
    <g id="xtick_5">
     <g id="line2d_5">
      <g>
       <use style="stroke:#000000;stroke-width:0.8;" x="331.286188" xlink:href="#ma3acba5d01" y="162.92419"/>
      </g>
     </g>
     <g id="text_5">
      <!-- $800$ -->
      <defs>
       <path d="M 27.203125 35.375 
C 33.5 38.546875 39.90625 43.328125 39.90625 50.984375 
C 39.90625 60.015625 31.09375 65.296875 23 65.296875 
C 13.90625 65.296875 5.90625 58.734375 5.90625 49.6875 
C 5.90625 47.203125 6.5 42.921875 10.40625 39.140625 
C 11.40625 38.15625 15.59375 35.171875 18.296875 33.28125 
C 13.796875 30.984375 3.296875 25.53125 3.296875 14.59375 
C 3.296875 4.359375 13.09375 -2 22.796875 -2 
C 33.5 -2 42.5 5.65625 42.5 15.78125 
C 42.5 24.84375 36.40625 29.015625 32.40625 31.703125 
z
M 14.09375 44.09375 
C 13.296875 44.59375 9.296875 47.671875 9.296875 52.359375 
C 9.296875 58.421875 15.59375 63 22.796875 63 
C 30.703125 63 36.5 57.4375 36.5 50.96875 
C 36.5 41.703125 26.09375 36.421875 25.59375 36.421875 
C 25.5 36.421875 25.40625 36.421875 24.59375 37.03125 
z
M 32.5 23.734375 
C 34 22.640625 38.796875 19.375 38.796875 13.296875 
C 38.796875 5.953125 31.40625 0.390625 23 0.390625 
C 13.90625 0.390625 7 6.84375 7 14.6875 
C 7 22.546875 13.09375 29.09375 20 32.1875 
z
" id="CMR17-56"/>
      </defs>
      <g transform="translate(321.043455 179.610067)scale(0.14 -0.14)">
       <use transform="scale(0.996264)" xlink:href="#CMR17-56"/>
       <use transform="translate(45.690477 0)scale(0.996264)" xlink:href="#CMR17-48"/>
       <use transform="translate(91.380954 0)scale(0.996264)" xlink:href="#CMR17-48"/>
      </g>
     </g>
    </g>
    <g id="xtick_6">
     <g id="line2d_6">
      <g>
       <use style="stroke:#000000;stroke-width:0.8;" x="392.345613" xlink:href="#ma3acba5d01" y="162.92419"/>
      </g>
     </g>
     <g id="text_6">
      <!-- $1000$ -->
      <defs>
       <path d="M 26.59375 63.40625 
C 26.59375 65.5 26.5 65.5 25.09375 65.5 
C 21.203125 61.1875 15.296875 59.796875 9.703125 59.796875 
C 9.40625 59.796875 8.90625 59.796875 8.796875 59.5 
C 8.703125 59.296875 8.703125 59.09375 8.703125 57 
C 11.796875 57 17 57.59375 21 59.984375 
L 21 7.203125 
C 21 3.6875 20.796875 2.5 12.203125 2.5 
L 9.203125 2.5 
L 9.203125 0 
C 14 0 19 0 23.796875 0 
C 28.59375 0 33.59375 0 38.40625 0 
L 38.40625 2.5 
L 35.40625 2.5 
C 26.796875 2.5 26.59375 3.59375 26.59375 7.15625 
z
" id="CMR17-49"/>
      </defs>
      <g transform="translate(378.688636 179.610067)scale(0.14 -0.14)">
       <use transform="scale(0.996264)" xlink:href="#CMR17-49"/>
       <use transform="translate(45.690477 0)scale(0.996264)" xlink:href="#CMR17-48"/>
       <use transform="translate(91.380954 0)scale(0.996264)" xlink:href="#CMR17-48"/>
       <use transform="translate(137.071431 0)scale(0.996264)" xlink:href="#CMR17-48"/>
      </g>
     </g>
    </g>
    <g id="text_7">
     <!-- t -->
     <defs>
      <path d="M 15.09375 40 
L 29.09375 40 
L 29.09375 42.578125 
L 15.09375 42.578125 
L 15.09375 61 
L 13.296875 61 
C 13.09375 50.703125 9.59375 41.6875 1.09375 41.6875 
L 1.09375 40 
L 9.796875 40 
L 9.796875 12.046875 
C 9.796875 10.15625 9.796875 -1 21.40625 -1 
C 27.296875 -1 30.703125 4.78125 30.703125 12.140625 
L 30.703125 17.8125 
L 28.90625 17.8125 
L 28.90625 12.234375 
C 28.90625 5.375 26.203125 0.796875 22 0.796875 
C 19.09375 0.796875 15.09375 2.78125 15.09375 11.84375 
z
" id="CMR17-116"/>
     </defs>
     <g transform="translate(237.02321 196.007972)scale(0.14 -0.14)">
      <use transform="scale(0.996264)" xlink:href="#CMR17-116"/>
     </g>
    </g>
   </g>
   <g id="matplotlib.axis_2">
    <g id="ytick_1">
     <g id="line2d_7">
      <defs>
       <path d="M 0 0 
L -3.5 0 
" id="mfd6559392e" style="stroke:#000000;stroke-width:0.8;"/>
      </defs>
      <g>
       <use style="stroke:#000000;stroke-width:0.8;" x="71.785464" xlink:href="#mfd6559392e" y="162.92419"/>
      </g>
     </g>
     <g id="text_8">
      <!-- $0.000$ -->
      <defs>
       <path d="M 18.40625 4.796875 
C 18.40625 7.6875 16 9.671875 13.59375 9.671875 
C 10.703125 9.671875 8.703125 7.28125 8.703125 4.890625 
C 8.703125 2 11.09375 0 13.5 0 
C 16.40625 0 18.40625 2.390625 18.40625 4.796875 
z
" id="CMMI12-58"/>
      </defs>
      <g transform="translate(33.677905 167.767129)scale(0.14 -0.14)">
       <use transform="scale(0.996264)" xlink:href="#CMR17-48"/>
       <use transform="translate(45.690477 0)scale(0.996264)" xlink:href="#CMMI12-58"/>
       <use transform="translate(72.787654 0)scale(0.996264)" xlink:href="#CMR17-48"/>
       <use transform="translate(118.478131 0)scale(0.996264)" xlink:href="#CMR17-48"/>
       <use transform="translate(164.168608 0)scale(0.996264)" xlink:href="#CMR17-48"/>
      </g>
     </g>
    </g>
    <g id="ytick_2">
     <g id="line2d_8">
      <g>
       <use style="stroke:#000000;stroke-width:0.8;" x="71.785464" xlink:href="#mfd6559392e" y="131.334022"/>
      </g>
     </g>
     <g id="text_9">
      <!-- $0.005$ -->
      <defs>
       <path d="M 11.40625 57.6875 
C 12.40625 57.28125 16.5 56 20.703125 56 
C 30 56 35.09375 61.109375 38 64.0625 
C 38 64.953125 38 65.5 37.40625 65.5 
C 37.296875 65.5 37.09375 65.5 36.296875 65.046875 
C 32.796875 63.40625 28.703125 62.078125 23.703125 62.078125 
C 20.703125 62.078125 16.203125 62.484375 11.296875 64.671875 
C 10.203125 65.171875 10 65.171875 9.90625 65.171875 
C 9.40625 65.171875 9.296875 65.0625 9.296875 63.078125 
L 9.296875 34.421875 
C 9.296875 32.640625 9.296875 32.140625 10.296875 32.140625 
C 10.796875 32.140625 11 32.34375 11.5 33.03125 
C 14.703125 37.515625 19.09375 39.40625 24.09375 39.40625 
C 27.59375 39.40625 35.09375 37.21875 35.09375 20.140625 
C 35.09375 16.953125 35.09375 11.171875 32.09375 6.578125 
C 29.59375 2.484375 25.703125 0.390625 21.40625 0.390625 
C 14.796875 0.390625 8.09375 5 6.296875 12.71875 
C 6.703125 12.609375 7.5 12.421875 7.90625 12.421875 
C 9.203125 12.421875 11.703125 13.125 11.703125 16.21875 
C 11.703125 18.90625 9.796875 20 7.90625 20 
C 5.59375 20 4.09375 18.59375 4.09375 15.796875 
C 4.09375 7.09375 11 -2 21.59375 -2 
C 31.90625 -2 41.703125 6.875 41.703125 19.75 
C 41.703125 31.71875 33.90625 41 24.203125 41 
C 19.09375 41 14.796875 39.109375 11.40625 35.53125 
z
" id="CMR17-53"/>
      </defs>
      <g transform="translate(33.677905 136.17696)scale(0.14 -0.14)">
       <use transform="scale(0.996264)" xlink:href="#CMR17-48"/>
       <use transform="translate(45.690477 0)scale(0.996264)" xlink:href="#CMMI12-58"/>
       <use transform="translate(72.787654 0)scale(0.996264)" xlink:href="#CMR17-48"/>
       <use transform="translate(118.478131 0)scale(0.996264)" xlink:href="#CMR17-48"/>
       <use transform="translate(164.168608 0)scale(0.996264)" xlink:href="#CMR17-53"/>
      </g>
     </g>
    </g>
    <g id="ytick_3">
     <g id="line2d_9">
      <g>
       <use style="stroke:#000000;stroke-width:0.8;" x="71.785464" xlink:href="#mfd6559392e" y="99.743853"/>
      </g>
     </g>
     <g id="text_10">
      <!-- $0.010$ -->
      <g transform="translate(33.677905 104.586791)scale(0.14 -0.14)">
       <use transform="scale(0.996264)" xlink:href="#CMR17-48"/>
       <use transform="translate(45.690477 0)scale(0.996264)" xlink:href="#CMMI12-58"/>
       <use transform="translate(72.787654 0)scale(0.996264)" xlink:href="#CMR17-48"/>
       <use transform="translate(118.478131 0)scale(0.996264)" xlink:href="#CMR17-49"/>
       <use transform="translate(164.168608 0)scale(0.996264)" xlink:href="#CMR17-48"/>
      </g>
     </g>
    </g>
    <g id="ytick_4">
     <g id="line2d_10">
      <g>
       <use style="stroke:#000000;stroke-width:0.8;" x="71.785464" xlink:href="#mfd6559392e" y="68.153684"/>
      </g>
     </g>
     <g id="text_11">
      <!-- $0.015$ -->
      <g transform="translate(33.677905 72.996622)scale(0.14 -0.14)">
       <use transform="scale(0.996264)" xlink:href="#CMR17-48"/>
       <use transform="translate(45.690477 0)scale(0.996264)" xlink:href="#CMMI12-58"/>
       <use transform="translate(72.787654 0)scale(0.996264)" xlink:href="#CMR17-48"/>
       <use transform="translate(118.478131 0)scale(0.996264)" xlink:href="#CMR17-49"/>
       <use transform="translate(164.168608 0)scale(0.996264)" xlink:href="#CMR17-53"/>
      </g>
     </g>
    </g>
    <g id="ytick_5">
     <g id="line2d_11">
      <g>
       <use style="stroke:#000000;stroke-width:0.8;" x="71.785464" xlink:href="#mfd6559392e" y="36.563515"/>
      </g>
     </g>
     <g id="text_12">
      <!-- $0.020$ -->
      <g transform="translate(33.677905 41.406453)scale(0.14 -0.14)">
       <use transform="scale(0.996264)" xlink:href="#CMR17-48"/>
       <use transform="translate(45.690477 0)scale(0.996264)" xlink:href="#CMMI12-58"/>
       <use transform="translate(72.787654 0)scale(0.996264)" xlink:href="#CMR17-48"/>
       <use transform="translate(118.478131 0)scale(0.996264)" xlink:href="#CMR17-50"/>
       <use transform="translate(164.168608 0)scale(0.996264)" xlink:href="#CMR17-48"/>
      </g>
     </g>
    </g>
    <g id="text_13">
     <!-- $\delta \omega$ -->
     <defs>
      <path d="M 26 43.671875 
C 13.203125 40.578125 4 27.3125 4 15.640625 
C 4 4.984375 11.203125 -1 19.203125 -1 
C 31 -1 39 15.15625 39 28.40625 
C 39 37.375 34.796875 42.875 32.296875 46.15625 
C 28.59375 50.84375 22.59375 58.53125 22.59375 63.3125 
C 22.59375 65.015625 23.90625 68 28.296875 68 
C 31.40625 68 33.296875 66.90625 36.296875 65.203125 
C 37.203125 64.59375 39.5 63.3125 40.796875 63.3125 
C 42.90625 63.3125 44.40625 65.390625 44.40625 66.984375 
C 44.40625 68.890625 42.90625 69.1875 39.40625 69.984375 
C 34.703125 70.984375 33.296875 70.984375 31.59375 70.984375 
C 29.90625 70.984375 20.09375 70.984375 20.09375 60.8125 
C 20.09375 55.921875 22.59375 50.25 26 43.671875 
z
M 27.09375 41.703125 
C 30.90625 33.828125 32.40625 30.84375 32.40625 24.375 
C 32.40625 16.609375 28.203125 0.984375 19.296875 0.984375 
C 15.40625 0.984375 9.796875 3.578125 9.796875 12.828125 
C 9.796875 19.296875 13.5 38.109375 27.09375 41.703125 
z
" id="CMMI12-14"/>
      <path d="M 59.40625 37.421875 
C 59.40625 40.3125 58.59375 44 55.09375 44 
C 53.09375 44 50.796875 41.515625 50.796875 39.515625 
C 50.796875 38.625 51.203125 38.03125 52 37.125 
C 53.5 35.4375 55.40625 32.75 55.40625 28.078125 
C 55.40625 24.484375 53.203125 18.8125 51.59375 15.734375 
C 48.796875 10.25 44.203125 5.578125 39 5.578125 
C 32.703125 5.578125 30.296875 9.609375 29.203125 15.234375 
C 30.296875 17.859375 32.59375 24.375 32.59375 27 
C 32.59375 28.09375 32.203125 29 30.90625 29 
C 30.203125 29 29.40625 28.609375 28.90625 27.796875 
C 27.5 25.59375 26.203125 17.640625 26.296875 15.53125 
C 24.40625 11.8125 19 5.578125 12.59375 5.578125 
C 5.90625 5.578125 4.09375 11.453125 4.09375 17.125 
C 4.09375 27.46875 10.59375 36.53125 12.40625 39.015625 
C 13.40625 40.515625 14.09375 41.515625 14.09375 41.703125 
C 14.09375 42.40625 13.703125 43.5 12.796875 43.5 
C 11.203125 43.5 10.703125 42.203125 9.90625 41.015625 
C 4.796875 33.140625 1.203125 22.09375 1.203125 12.546875 
C 1.203125 6.375 3.5 -1 11 -1 
C 19.296875 -1 24.5 6.109375 26.59375 9.90625 
C 27.40625 4.296875 30.40625 -1 37.703125 -1 
C 45.296875 -1 50.09375 5.671875 53.703125 13.734375 
C 56.296875 19.515625 59.40625 31.953125 59.40625 37.421875 
z
" id="CMMI12-33"/>
     </defs>
     <g transform="translate(26.965876 107.281801)rotate(-90)scale(0.14 -0.14)">
      <use transform="scale(0.996264)" xlink:href="#CMMI12-14"/>
      <use transform="translate(46.941386 0)scale(0.996264)" xlink:href="#CMMI12-33"/>
     </g>
    </g>
   </g>
   <g id="line2d_12">
    <path clip-path="url(#pc534519d80)" d="M 87.048489 53.139658 
L 87.133972 52.892945 
L 87.219455 53.867439 
L 87.390421 52.857554 
L 87.475905 53.259266 
L 87.732354 52.33335 
L 87.817837 52.312413 
L 87.903321 51.904022 
L 88.15977 52.937691 
L 88.330737 52.460941 
L 88.41622 52.679879 
L 88.587186 53.457284 
L 88.672669 53.451503 
L 88.758152 53.657839 
L 88.929119 51.938479 
L 89.185568 55.508951 
L 89.271052 55.824864 
L 89.442018 55.503292 
L 89.527501 53.920384 
L 89.698468 55.034575 
L 89.869434 53.024643 
L 89.954917 52.529272 
L 90.0404 52.913831 
L 90.125884 54.146172 
L 90.211367 54.021287 
L 90.29685 53.940097 
L 90.467816 55.368975 
L 90.5533 55.423133 
L 90.724266 56.203453 
L 90.895232 56.106069 
L 90.980716 56.484851 
L 91.237165 55.135835 
L 91.322648 55.747812 
L 91.408132 55.201159 
L 91.493615 55.576316 
L 91.579098 54.919393 
L 91.664581 55.720919 
L 91.750064 55.037601 
L 91.835548 55.052902 
L 92.006514 56.221675 
L 92.091997 56.181529 
L 92.17748 55.977901 
L 92.348447 57.540567 
L 92.43393 57.391661 
L 92.519413 57.740879 
L 92.604896 57.56512 
L 92.690379 56.997629 
L 92.775863 58.230491 
L 92.861346 58.040614 
L 92.946829 57.125412 
L 93.032312 57.348127 
L 93.117795 57.954555 
L 93.374245 56.533902 
L 93.459728 56.792269 
L 93.630695 57.982846 
L 93.716178 58.316423 
L 93.887144 57.592658 
L 94.058111 59.705855 
L 94.229077 58.537586 
L 94.400043 59.017573 
L 94.741976 57.48871 
L 94.827459 57.559895 
L 94.912943 57.753695 
L 94.998426 56.964759 
L 95.169392 58.751647 
L 95.254875 58.727269 
L 95.340358 59.793093 
L 95.425842 59.544584 
L 95.511325 60.031744 
L 95.596808 59.387304 
L 95.682291 59.481481 
L 95.938741 57.784705 
L 96.109707 59.571987 
L 96.19519 58.261519 
L 96.280674 58.345009 
L 96.366157 58.860045 
L 96.45164 58.752495 
L 96.537123 58.895878 
L 96.70809 58.234073 
L 96.793573 58.224087 
L 96.879056 58.758571 
L 96.964539 58.407833 
L 97.050022 59.181002 
L 97.220989 57.54456 
L 97.391955 60.52859 
L 97.477438 60.067724 
L 97.562922 58.163308 
L 97.733888 59.847112 
L 97.819371 59.407112 
L 98.075821 60.674987 
L 98.161304 60.277571 
L 98.246787 60.580846 
L 98.33227 60.373398 
L 98.417754 60.505655 
L 98.674203 62.087521 
L 98.759686 62.082933 
L 98.930653 63.740654 
L 99.016136 62.651767 
L 99.101619 62.691806 
L 99.187102 62.732382 
L 99.272585 62.350259 
L 99.443552 62.83628 
L 99.614518 62.307895 
L 99.700001 63.174819 
L 99.785485 62.552126 
L 100.127417 64.74922 
L 100.212901 63.532992 
L 100.46935 65.891088 
L 100.554833 65.892531 
L 100.640317 65.220324 
L 100.7258 65.397517 
L 100.811283 65.86827 
L 100.896766 65.695474 
L 101.067733 64.676492 
L 101.238699 63.046141 
L 101.409665 63.583737 
L 101.495149 63.638212 
L 101.751598 63.450157 
L 101.837081 64.699494 
L 101.922565 64.079573 
L 102.093531 65.386782 
L 102.179014 64.910298 
L 102.34998 63.557504 
L 102.435464 63.437306 
L 102.520947 64.134474 
L 102.691913 61.330323 
L 102.86288 62.765404 
L 102.948363 62.700662 
L 103.033846 63.863196 
L 103.119329 63.737412 
L 103.204812 64.080873 
L 103.375779 62.445452 
L 103.461262 64.472579 
L 103.546745 64.44168 
L 103.632228 65.651107 
L 103.803195 64.696466 
L 103.888678 64.286775 
L 103.974161 65.083295 
L 104.145128 62.206864 
L 104.230611 63.003125 
L 104.316094 62.724704 
L 104.572544 64.192634 
L 104.658027 62.797109 
L 104.828993 63.743526 
L 104.914476 63.368916 
L 105.170926 64.454093 
L 105.256409 64.554138 
L 105.427375 65.757158 
L 105.769308 66.33912 
L 105.854791 65.776321 
L 106.196724 67.01173 
L 106.282207 67.957282 
L 106.367691 67.569725 
L 106.538657 68.981928 
L 106.709623 68.412951 
L 106.795107 68.712325 
L 106.88059 70.222108 
L 106.966073 69.90801 
L 107.051556 69.714231 
L 107.137039 70.77033 
L 107.222523 70.194727 
L 107.564455 71.623615 
L 107.649939 71.472397 
L 107.735422 72.673044 
L 107.820905 71.318548 
L 107.906388 71.769327 
L 107.991871 72.920569 
L 108.077355 72.4582 
L 108.162838 72.72369 
L 108.248321 72.481092 
L 108.419287 72.780134 
L 108.504771 72.596657 
L 108.590254 73.155077 
L 108.675737 72.64793 
L 108.846703 73.649855 
L 108.932186 73.592519 
L 109.01767 73.260074 
L 109.103153 73.431576 
L 109.188636 74.076611 
L 109.274119 73.613533 
L 109.445086 75.70061 
L 109.530569 75.671309 
L 109.616052 76.689025 
L 109.701535 76.668339 
L 109.787018 76.709594 
L 109.872502 76.037975 
L 110.043468 77.190221 
L 110.128951 76.941388 
L 110.214434 78.778802 
L 110.299918 76.461574 
L 110.385401 76.984098 
L 110.470884 77.529934 
L 110.556367 76.886429 
L 110.64185 76.916447 
L 110.727334 78.246915 
L 110.8983 77.13928 
L 111.069266 77.686634 
L 111.15475 77.323571 
L 111.240233 78.003177 
L 111.411199 77.526945 
L 111.753132 79.896204 
L 112.009582 78.455926 
L 112.180548 78.159228 
L 112.266031 78.744803 
L 112.351514 78.245634 
L 112.436997 76.911704 
L 112.522481 77.143454 
L 112.864413 78.589718 
L 112.949897 78.486646 
L 113.03538 78.704361 
L 113.206346 77.629042 
L 113.291829 77.387138 
L 113.377313 76.675685 
L 113.462796 76.900759 
L 113.548279 75.826955 
L 114.146661 79.585796 
L 114.232145 78.545324 
L 114.317628 78.60611 
L 115.001493 82.218723 
L 115.343426 80.300875 
L 115.428909 81.299239 
L 115.770842 79.287835 
L 115.856325 80.993145 
L 115.941808 80.7983 
L 116.027292 81.620186 
L 116.112775 81.177712 
L 116.283741 82.530286 
L 116.369224 82.378956 
L 116.540191 81.864861 
L 116.711157 82.871799 
L 116.882124 82.215142 
L 116.967607 83.474118 
L 117.224056 81.880003 
L 117.30954 82.131879 
L 117.395023 81.513009 
L 117.480506 82.306446 
L 117.565989 81.880563 
L 117.651472 82.247378 
L 117.822439 80.991936 
L 117.993405 81.580886 
L 118.078888 81.551993 
L 118.249855 80.131923 
L 118.335338 81.043636 
L 118.506304 80.145008 
L 118.591788 78.55757 
L 118.762754 80.214257 
L 118.848237 79.217715 
L 119.019203 81.127843 
L 119.19017 79.980433 
L 119.361136 80.076997 
L 119.446619 79.989798 
L 119.617586 78.856046 
L 119.703069 78.116014 
L 119.874035 78.929828 
L 119.959519 79.002356 
L 120.130485 77.717983 
L 120.215968 78.280201 
L 120.386935 77.194774 
L 120.472418 77.278475 
L 120.643384 77.616451 
L 120.728867 78.883797 
L 120.814351 78.742936 
L 120.899834 78.567811 
L 120.985317 79.21508 
L 121.0708 78.660292 
L 121.32725 80.455133 
L 121.412733 78.969584 
L 121.498216 80.165303 
L 121.754666 78.758739 
L 121.840149 77.875504 
L 122.353048 81.777105 
L 122.524014 80.344123 
L 122.609498 80.882645 
L 122.780464 80.117031 
L 123.036914 80.330572 
L 123.20788 79.63928 
L 123.293363 79.90076 
L 123.378846 79.148758 
L 123.46433 79.606106 
L 123.635296 79.076488 
L 123.720779 77.971227 
L 123.806262 78.349312 
L 123.977229 76.915039 
L 124.062712 77.060289 
L 124.148195 77.563242 
L 124.319162 77.088851 
L 124.661094 79.678612 
L 125.003027 76.91937 
L 125.08851 77.239744 
L 125.173994 77.199255 
L 125.259477 76.538124 
L 125.430443 74.26314 
L 125.857859 75.528925 
L 125.943342 75.382936 
L 126.285275 71.636583 
L 126.370758 71.577925 
L 126.541725 69.842059 
L 126.627208 70.154452 
L 126.798174 69.939632 
L 126.969141 70.26244 
L 127.054624 70.154894 
L 127.140107 69.830578 
L 127.396557 71.637925 
L 127.738489 70.641557 
L 127.823973 70.200799 
L 127.994939 70.877221 
L 128.251389 69.451859 
L 128.336872 67.543708 
L 128.422355 67.612273 
L 128.593321 65.91855 
L 128.678805 66.018823 
L 128.849771 67.516811 
L 128.935254 67.395766 
L 129.10622 66.363207 
L 129.191704 66.234257 
L 129.277187 66.518013 
L 129.36267 66.09888 
L 129.448153 67.69581 
L 129.533636 67.522364 
L 129.61912 67.501605 
L 129.704603 68.526282 
L 129.790086 66.900159 
L 130.046536 69.641356 
L 130.132019 68.811552 
L 130.217502 69.475712 
L 130.473952 68.343323 
L 130.644918 69.778928 
L 130.730401 68.528437 
L 130.986851 70.237137 
L 131.2433 68.890315 
L 131.328784 69.688444 
L 131.49975 68.557309 
L 131.585233 69.749604 
L 131.7562 66.885249 
L 131.841683 67.460075 
L 131.927166 67.418738 
L 132.012649 66.37435 
L 132.440065 70.796399 
L 132.611031 70.142142 
L 132.696515 71.073918 
L 132.781998 70.650025 
L 133.038447 67.614045 
L 133.123931 67.599228 
L 133.209414 66.864173 
L 133.294897 67.586683 
L 133.63683 65.897764 
L 133.722313 66.712785 
L 133.807796 66.617372 
L 133.893279 65.70695 
L 134.235212 68.662898 
L 134.577145 66.185899 
L 134.662628 66.225067 
L 134.748111 66.046387 
L 134.833595 66.593539 
L 135.090044 64.447454 
L 135.175527 64.844645 
L 135.261011 64.786307 
L 135.346494 64.910513 
L 135.51746 63.439667 
L 135.602943 64.846905 
L 135.688427 64.549273 
L 135.944876 61.973332 
L 136.030359 61.946657 
L 136.286809 65.705916 
L 136.372292 65.801002 
L 136.714225 64.594126 
L 136.799708 64.80353 
L 136.885191 65.330452 
L 136.970674 64.694073 
L 137.056158 65.37795 
L 137.227124 68.211021 
L 137.312607 68.140897 
L 137.483574 70.711017 
L 137.569057 70.959532 
L 137.91099 73.889871 
L 138.081956 72.668277 
L 138.252922 74.489464 
L 138.338406 73.962577 
L 138.509372 72.256794 
L 138.594855 72.024772 
L 138.680338 70.634004 
L 138.765822 70.651211 
L 138.851305 70.88254 
L 139.022271 72.323049 
L 139.107754 70.694587 
L 139.364204 72.802632 
L 139.449687 72.706841 
L 139.53517 72.043525 
L 139.620653 72.225922 
L 140.048069 68.942957 
L 140.133553 69.171195 
L 140.304519 70.312591 
L 140.390002 69.957111 
L 140.475485 70.199372 
L 140.646452 66.782347 
L 140.817418 67.189299 
L 140.902901 65.926061 
L 141.073868 67.672083 
L 141.159351 66.961603 
L 141.415801 68.263208 
L 141.757733 66.921877 
L 141.843217 66.899766 
L 141.9287 66.069821 
L 142.099666 67.688887 
L 142.356116 70.641335 
L 142.527082 69.741633 
L 142.954498 72.109734 
L 143.125464 73.536845 
L 143.210948 72.776727 
L 143.467397 76.168824 
L 143.55288 76.032228 
L 143.638364 76.591264 
L 143.723847 78.15068 
L 143.80933 78.075636 
L 144.06578 75.767829 
L 144.151263 75.821527 
L 144.236746 77.434697 
L 144.322229 77.068271 
L 144.407712 77.3812 
L 144.493196 78.474434 
L 144.664162 77.673754 
L 144.749645 78.066767 
L 144.835128 77.418072 
L 144.920612 78.070236 
L 145.006095 77.58947 
L 145.091578 78.292759 
L 145.177061 77.893833 
L 145.262544 78.716945 
L 145.518994 76.343135 
L 145.68996 77.314359 
L 145.775444 76.6869 
L 145.94641 79.535956 
L 146.202859 77.684917 
L 146.288343 77.91672 
L 146.373826 77.495336 
L 146.544792 79.067783 
L 146.715759 80.747643 
L 146.886725 81.628965 
L 147.143175 86.174817 
L 147.228658 85.96047 
L 147.399624 87.049113 
L 147.485107 88.775045 
L 147.570591 87.264063 
L 147.656074 88.087421 
L 147.912523 85.458139 
L 148.168973 86.649975 
L 148.425423 86.055821 
L 148.767355 83.561083 
L 149.109288 86.018632 
L 149.365738 83.645174 
L 149.451221 83.664309 
L 149.536704 83.459415 
L 149.70767 84.752678 
L 149.793154 84.418725 
L 149.878637 84.21832 
L 149.96412 85.046098 
L 150.049603 84.608745 
L 150.22057 86.045036 
L 150.477019 87.722488 
L 150.818952 85.605985 
L 151.075402 87.751055 
L 151.160885 87.41726 
L 151.331851 86.285286 
L 151.502818 87.030169 
L 151.588301 86.888009 
L 151.673784 87.979925 
L 151.759267 87.879512 
L 151.84475 87.742547 
L 152.015717 88.486248 
L 152.1012 88.371448 
L 152.272166 89.62683 
L 152.528616 87.667346 
L 152.699582 89.767616 
L 152.785065 89.080979 
L 152.870549 88.382858 
L 153.126998 90.12322 
L 153.383448 93.381522 
L 153.468931 93.582022 
L 153.639897 95.39164 
L 153.725381 94.282069 
L 153.810864 94.507049 
L 153.896347 93.957606 
L 154.067313 95.158242 
L 154.152797 96.305993 
L 154.409246 94.446894 
L 154.580213 95.557333 
L 154.665696 95.53047 
L 154.836662 93.179698 
L 154.922145 93.699143 
L 155.093112 95.915389 
L 155.178595 94.95218 
L 155.264078 95.054034 
L 155.435045 95.65165 
L 155.606011 98.930472 
L 155.776977 98.012953 
L 155.862461 97.939815 
L 155.947944 98.72769 
L 156.033427 98.327667 
L 156.11891 97.037633 
L 156.289876 98.021361 
L 156.37536 98.386489 
L 156.546326 98.186366 
L 156.631809 98.336522 
L 156.888259 99.588244 
L 157.059225 99.826255 
L 157.144708 99.377675 
L 157.315675 100.135858 
L 157.401158 99.375044 
L 157.486641 99.578802 
L 157.572124 99.815181 
L 157.743091 99.046451 
L 157.914057 98.894727 
L 157.99954 99.861515 
L 158.085024 99.556535 
L 158.25599 98.20851 
L 158.341473 99.409403 
L 158.426956 99.23371 
L 158.597923 100.15062 
L 158.683406 100.088068 
L 158.768889 101.012997 
L 158.854372 100.047246 
L 158.939856 100.130895 
L 159.281788 97.291624 
L 159.623721 100.405578 
L 159.880171 98.30506 
L 160.051137 98.399474 
L 160.13662 98.352055 
L 160.478553 93.755986 
L 160.564036 93.783122 
L 160.649519 94.081509 
L 160.905969 92.728526 
L 160.991452 93.236821 
L 161.333385 89.988232 
L 161.589835 92.476265 
L 161.846284 92.09802 
L 161.931767 92.720719 
L 162.017251 92.416549 
L 162.102734 91.381299 
L 162.2737 92.553413 
L 162.359183 92.38092 
L 162.53015 92.651316 
L 162.786599 89.771777 
L 162.872083 90.352984 
L 163.043049 88.431041 
L 163.299498 89.515386 
L 163.470465 87.798118 
L 163.555948 87.761459 
L 163.641431 89.381339 
L 163.726914 88.840454 
L 163.897881 90.4963 
L 163.983364 90.048298 
L 164.068847 90.703669 
L 164.239814 89.259995 
L 164.496263 91.905711 
L 164.581746 91.961927 
L 164.66723 91.289922 
L 164.752713 92.319382 
L 164.838196 90.982078 
L 164.923679 91.224968 
L 165.094646 92.224767 
L 165.180129 91.64428 
L 165.436578 93.735804 
L 165.607545 92.745365 
L 165.693028 93.076494 
L 165.778511 92.316059 
L 165.949478 93.600981 
L 166.034961 92.234997 
L 166.120444 92.342146 
L 166.29141 91.211265 
L 166.462377 91.948643 
L 166.54786 91.906281 
L 166.718826 92.859602 
L 166.889793 94.584506 
L 166.975276 94.518087 
L 167.146242 93.696619 
L 167.231725 95.063041 
L 167.317209 94.477244 
L 167.402692 94.50667 
L 167.488175 95.591282 
L 167.573658 95.53478 
L 168.001074 92.699773 
L 168.086557 92.742917 
L 168.257524 94.900358 
L 168.343007 94.650418 
L 168.42849 95.017566 
L 168.770423 92.53065 
L 168.855906 93.275067 
L 168.941389 92.594192 
L 169.112356 93.561218 
L 169.197839 93.136189 
L 169.283322 93.611543 
L 169.368805 92.984319 
L 169.625255 94.505167 
L 169.796221 94.98839 
L 169.881704 95.846755 
L 169.967188 95.371286 
L 170.138154 97.063636 
L 170.56557 93.282488 
L 170.82202 95.525497 
L 171.163952 93.132415 
L 171.249436 93.31324 
L 171.420402 94.692011 
L 171.591368 92.339459 
L 171.676852 91.907917 
L 172.018784 92.854824 
L 172.189751 94.720145 
L 172.275234 95.017217 
L 172.4462 94.666397 
L 172.70265 93.475739 
L 172.873616 96.235452 
L 172.9591 94.956234 
L 173.130066 96.098003 
L 173.215549 95.580428 
L 173.301032 96.250967 
L 173.386515 95.721602 
L 173.813931 100.516561 
L 173.899415 100.76488 
L 173.984898 100.530113 
L 174.070381 101.315145 
L 174.155864 99.424923 
L 174.241347 99.507049 
L 174.326831 99.552018 
L 174.412314 99.222029 
L 174.497797 99.414778 
L 174.58328 99.897521 
L 174.668763 99.844024 
L 174.925213 97.987161 
L 175.096179 99.008751 
L 175.181663 97.520415 
L 175.267146 97.708901 
L 175.438112 96.818464 
L 175.523595 95.765711 
L 175.694562 97.153028 
L 175.865528 97.720325 
L 176.121978 101.785342 
L 176.292944 101.177217 
L 176.378427 100.738257 
L 176.46391 101.646776 
L 176.549394 100.940469 
L 176.891326 103.89969 
L 176.97681 103.777622 
L 177.062293 103.167772 
L 177.233259 105.15611 
L 177.489709 103.966531 
L 177.575192 105.091526 
L 177.660675 104.382451 
L 177.746158 105.555493 
L 177.831642 105.413564 
L 178.173574 101.950701 
L 178.344541 102.764217 
L 178.515507 101.889143 
L 178.60099 101.984488 
L 178.686474 103.039134 
L 178.771957 102.926726 
L 178.85744 102.444073 
L 179.028406 103.417171 
L 179.199373 102.102759 
L 179.284856 102.31867 
L 179.541306 103.819193 
L 179.626789 102.795855 
L 179.712272 103.252404 
L 179.797755 101.911199 
L 179.968721 102.873105 
L 180.054205 102.242675 
L 180.139688 102.422404 
L 180.310654 103.141972 
L 180.396137 102.8067 
L 180.567104 104.275441 
L 180.652587 104.357341 
L 180.73807 104.65933 
L 180.823553 104.109771 
L 180.99452 104.807622 
L 181.080003 104.779645 
L 181.336453 103.266864 
L 181.421936 103.945604 
L 181.507419 102.984024 
L 181.678385 103.747532 
L 181.763869 103.475552 
L 181.934835 101.270093 
L 182.020318 101.573672 
L 182.105801 100.602675 
L 182.191285 100.762607 
L 182.276768 101.354433 
L 182.533217 100.23599 
L 182.618701 100.647127 
L 182.960633 99.702083 
L 183.046117 100.223771 
L 183.302566 99.075094 
L 183.559016 100.103518 
L 183.644499 100.039759 
L 183.900948 98.756286 
L 183.986432 98.522547 
L 184.071915 97.503164 
L 184.157398 97.645421 
L 184.242881 98.870576 
L 184.328364 98.547445 
L 184.413848 98.671114 
L 184.499331 99.399635 
L 184.75578 98.382795 
L 184.841264 98.631446 
L 185.01223 98.294369 
L 185.097713 96.967891 
L 185.26868 97.487404 
L 185.354163 97.21558 
L 185.525129 99.703638 
L 185.610612 98.084738 
L 185.696096 99.405945 
L 185.781579 98.976329 
L 186.294478 102.789186 
L 186.465444 102.110199 
L 186.550928 100.60157 
L 186.636411 100.956486 
L 186.807377 99.347877 
L 186.89286 99.562357 
L 186.978343 100.805692 
L 187.063827 99.67747 
L 187.234793 101.051689 
L 187.405759 99.557568 
L 187.576726 100.213866 
L 187.662209 100.407344 
L 187.833175 97.652051 
L 187.918659 99.020182 
L 188.004142 98.335281 
L 188.089625 100.472116 
L 188.175108 100.461775 
L 188.260591 101.290832 
L 188.431558 99.677809 
L 188.688007 101.03245 
L 188.773491 100.891849 
L 188.858974 101.010248 
L 188.944457 100.520108 
L 189.115423 98.844678 
L 189.371873 101.540329 
L 189.457356 100.753161 
L 189.628323 101.503026 
L 189.713806 101.399824 
L 189.884772 103.310069 
L 189.970255 102.928737 
L 190.141222 103.494518 
L 190.226705 103.257234 
L 190.483154 104.551735 
L 190.654121 104.05685 
L 190.825087 105.176762 
L 190.91057 104.692338 
L 190.996054 103.294004 
L 191.081537 104.148148 
L 191.16702 103.895237 
L 191.252503 104.088832 
L 191.594436 101.647449 
L 191.765402 102.457926 
L 191.936369 101.859849 
L 192.107335 98.81444 
L 192.449268 101.663363 
L 192.620234 100.695399 
L 192.705718 101.471964 
L 192.791201 100.243384 
L 192.962167 101.847469 
L 193.133134 101.194777 
L 193.3041 101.365248 
L 193.389583 101.198116 
L 193.560549 101.431763 
L 193.731516 103.852637 
L 193.816999 103.396082 
L 193.902482 103.922755 
L 194.073449 102.591941 
L 194.244415 102.646088 
L 194.586348 98.051768 
L 194.671831 97.488769 
L 194.757314 97.572599 
L 194.928281 99.033463 
L 195.013764 98.670082 
L 195.099247 98.320268 
L 195.18473 98.450989 
L 195.270213 97.816891 
L 195.355697 98.269 
L 195.526663 97.409503 
L 195.783113 97.511116 
L 195.868596 95.651176 
L 195.954079 96.85607 
L 196.039562 96.723771 
L 196.210529 95.257718 
L 196.296012 95.483732 
L 196.381495 94.183078 
L 196.552461 95.958755 
L 196.637945 95.534276 
L 196.808911 98.399609 
L 196.894394 97.73978 
L 197.06536 96.623566 
L 197.150844 96.988164 
L 197.236327 96.851586 
L 197.32181 97.573409 
L 197.57826 95.131221 
L 197.663743 96.589139 
L 197.834709 94.869174 
L 198.005676 93.370409 
L 198.091159 93.371319 
L 198.176642 93.627054 
L 198.433092 92.715031 
L 198.518575 92.946391 
L 198.604058 91.689749 
L 198.775024 92.580096 
L 198.860508 93.014012 
L 199.20244 89.679188 
L 199.287924 90.72792 
L 199.45889 88.786224 
L 199.71534 89.105667 
L 199.886306 88.557337 
L 199.971789 88.826741 
L 200.142755 90.774551 
L 200.570171 89.03288 
L 200.655655 89.384627 
L 200.741138 88.288703 
L 201.168554 93.945431 
L 201.510487 90.725538 
L 201.59597 90.546707 
L 201.681453 90.919054 
L 201.766936 90.738622 
L 201.852419 90.841349 
L 201.937903 90.291398 
L 202.023386 91.41522 
L 202.108869 90.668298 
L 202.194352 91.012024 
L 202.279835 90.372821 
L 202.450802 91.838663 
L 202.536285 91.780505 
L 202.621768 91.106815 
L 202.707251 92.017193 
L 202.878218 90.410261 
L 202.963701 90.803512 
L 203.391117 86.64065 
L 203.562083 87.353042 
L 203.73305 86.702746 
L 203.904016 87.825361 
L 203.989499 87.32786 
L 204.074982 85.573777 
L 204.160466 87.540348 
L 204.245949 86.999389 
L 204.331432 87.157372 
L 204.587882 85.88722 
L 204.844331 89.092797 
L 204.929814 88.179229 
L 205.015298 88.336203 
L 205.271747 89.949656 
L 205.35723 89.722143 
L 205.528197 87.885683 
L 205.61368 89.05642 
L 205.699163 88.037321 
L 205.784646 88.608843 
L 206.041096 91.68113 
L 206.126579 91.686523 
L 206.383029 93.785299 
L 206.468512 92.347261 
L 206.553995 92.872507 
L 206.724962 92.466079 
L 206.810445 90.479214 
L 206.895928 91.898476 
L 206.981411 91.079813 
L 207.152377 92.480989 
L 207.237861 92.553461 
L 207.323344 90.171871 
L 207.408827 90.742466 
L 207.49431 92.15472 
L 207.579793 91.185063 
L 207.75076 91.994461 
L 208.007209 92.067713 
L 208.178176 91.578373 
L 208.263659 90.940215 
L 208.434625 91.819719 
L 208.520109 92.614985 
L 209.118491 89.414168 
L 209.460424 92.264185 
L 209.545907 91.748871 
L 209.973323 95.612167 
L 210.058806 95.806003 
L 210.144289 97.145551 
L 210.229773 97.064499 
L 210.400739 95.851504 
L 210.657188 97.670261 
L 210.742672 97.19964 
L 210.828155 96.122099 
L 210.913638 96.515469 
L 210.999121 97.784874 
L 211.084604 97.635541 
L 211.170088 97.106625 
L 211.255571 99.141757 
L 211.341054 99.038506 
L 211.51202 96.80738 
L 211.76847 95.301997 
L 211.939436 96.637891 
L 212.02492 96.333395 
L 212.110403 96.845905 
L 212.195886 96.652695 
L 212.281369 98.082633 
L 212.537819 96.850754 
L 212.623302 96.728024 
L 212.708785 95.516677 
L 213.136201 98.901005 
L 213.221684 98.873488 
L 213.392651 100.443634 
L 213.478134 101.602658 
L 213.563617 100.697044 
L 213.6491 100.74871 
L 213.820067 100.899143 
L 213.90555 100.960888 
L 214.076516 99.975676 
L 214.332966 101.845064 
L 214.418449 102.780529 
L 214.503932 101.732511 
L 215.016831 105.563669 
L 215.273281 103.926918 
L 215.529731 99.167922 
L 215.700697 100.337384 
L 215.78618 100.152429 
L 216.04263 97.201515 
L 216.128113 97.331738 
L 216.299079 96.353943 
L 216.384563 96.695247 
L 216.982945 93.390502 
L 217.495844 95.088675 
L 217.66681 96.937983 
L 217.752294 96.692222 
L 217.92326 98.061455 
L 218.094226 95.992074 
L 218.17971 96.51063 
L 218.265193 96.059755 
L 218.350676 96.546069 
L 218.436159 95.329536 
L 218.521642 95.767566 
L 218.607126 95.706666 
L 218.692609 94.671628 
L 218.778092 95.290706 
L 218.863575 94.315679 
L 218.949058 94.926964 
L 219.034542 94.749089 
L 219.205508 95.036622 
L 219.376474 94.972903 
L 219.461958 95.73361 
L 219.80389 92.54835 
L 219.889374 93.553242 
L 220.06034 91.622505 
L 220.145823 92.020587 
L 220.31679 90.147877 
L 220.402273 90.550892 
L 220.573239 91.850772 
L 220.744205 89.586845 
L 221.000655 91.427354 
L 221.086138 91.72604 
L 221.171621 91.655113 
L 221.257105 93.570257 
L 221.342588 93.30103 
L 221.428071 92.243677 
L 221.513554 92.391419 
L 221.599037 92.677704 
L 221.684521 91.860377 
L 222.026453 94.896577 
L 222.453869 93.267437 
L 222.624836 94.072753 
L 222.710319 93.139808 
L 222.881285 94.112105 
L 223.137735 95.36337 
L 223.223218 96.372265 
L 223.394185 93.754793 
L 223.565151 94.331982 
L 223.650634 93.826295 
L 223.736117 94.083395 
L 223.821601 93.6227 
L 224.07805 94.414632 
L 224.163533 94.756829 
L 224.249016 96.590648 
L 224.3345 96.575022 
L 224.505466 96.023831 
L 224.590949 96.767081 
L 224.761916 96.348858 
L 224.932882 99.317598 
L 225.018365 98.961587 
L 225.103848 99.675076 
L 225.274815 97.32617 
L 225.360298 97.761977 
L 225.531264 98.286447 
L 225.616748 97.782215 
L 225.702231 98.631474 
L 225.95868 96.465746 
L 226.044164 96.869495 
L 226.21513 95.54406 
L 226.300613 96.442045 
L 226.386096 94.879695 
L 226.47158 95.104548 
L 226.557063 94.828749 
L 226.642546 95.220777 
L 226.728029 94.933234 
L 226.813512 94.066194 
L 227.411895 97.930914 
L 227.497378 96.9662 
L 227.582861 97.725006 
L 227.668344 97.461519 
L 227.753827 97.841138 
L 228.09576 93.453428 
L 228.181243 93.849983 
L 228.523176 97.890279 
L 228.608659 98.070039 
L 228.865109 96.340944 
L 229.036075 97.197755 
L 229.121559 97.173072 
L 229.292525 96.878993 
L 229.378008 96.601424 
L 229.463491 96.689533 
L 229.719941 99.579775 
L 229.805424 98.311545 
L 229.890907 98.631137 
L 230.147357 96.783242 
L 230.23284 97.077062 
L 230.318323 97.296446 
L 230.403807 98.060929 
L 230.48929 97.831955 
L 230.916706 93.952379 
L 231.002189 94.426385 
L 231.087672 94.308818 
L 231.258638 92.849414 
L 231.429605 95.055088 
L 231.515088 95.211139 
L 231.600571 95.980881 
L 231.771538 95.184267 
L 231.857021 95.480826 
L 232.11347 98.429178 
L 232.198954 98.08936 
L 232.540886 102.076923 
L 232.882819 98.610682 
L 233.053786 96.603287 
L 233.139269 96.690777 
L 233.395718 99.421685 
L 233.481202 99.243469 
L 233.566685 98.662425 
L 233.737651 100.11664 
L 233.823134 99.898263 
L 234.079584 97.335258 
L 234.25055 98.12436 
L 234.336033 97.224262 
L 234.507 97.709162 
L 234.677966 96.447134 
L 234.848933 97.696005 
L 235.190865 95.534567 
L 235.532798 97.374719 
L 235.618281 97.092462 
L 235.703765 97.227376 
L 235.789248 96.640574 
L 235.960214 97.747234 
L 236.045697 96.373566 
L 236.473113 98.929718 
L 236.558597 98.963527 
L 236.729563 99.802459 
L 236.986013 98.658204 
L 237.071496 99.208637 
L 237.156979 98.911912 
L 237.242462 99.002144 
L 237.327945 99.081807 
L 237.413428 100.369558 
L 237.755361 98.218731 
L 237.926328 100.079549 
L 238.011811 99.219301 
L 238.097294 99.873497 
L 238.182777 99.361976 
L 238.26826 99.586998 
L 238.52471 96.82172 
L 238.610193 95.824552 
L 238.78116 96.413336 
L 238.952126 95.294922 
L 239.037609 95.93852 
L 239.550508 91.129358 
L 239.635992 91.287645 
L 239.806958 89.836668 
L 239.892441 89.946656 
L 239.977924 89.740631 
L 240.148891 90.924653 
L 240.40534 92.440225 
L 240.66179 91.237653 
L 240.747273 91.564496 
L 240.832756 91.476221 
L 240.918239 91.448344 
L 241.003723 90.411415 
L 241.174689 91.204626 
L 241.345655 91.386279 
L 241.516622 92.315335 
L 241.602105 91.504344 
L 241.687588 91.930104 
L 241.858555 89.618215 
L 241.944038 88.609777 
L 242.029521 89.909201 
L 242.285971 88.407316 
L 242.371454 89.570764 
L 242.456937 88.950332 
L 242.54242 89.712392 
L 242.79887 85.882084 
L 242.884353 86.120946 
L 242.969836 87.211683 
L 243.140803 85.677064 
L 243.226286 85.91546 
L 243.397252 84.288 
L 243.568219 85.420355 
L 243.739185 85.743108 
L 243.824668 85.553312 
L 243.995635 86.129218 
L 244.166601 85.651991 
L 244.42305 86.020798 
L 244.508534 87.407826 
L 244.594017 87.242796 
L 244.850466 88.898161 
L 245.021433 87.941595 
L 245.106916 88.906858 
L 245.192399 88.684499 
L 245.277882 89.207439 
L 245.448849 87.40322 
L 245.534332 87.953463 
L 245.705298 87.717827 
L 245.961748 86.030187 
L 246.047231 86.818437 
L 246.132714 86.177557 
L 246.303681 84.037541 
L 246.389164 84.01755 
L 246.474647 83.845291 
L 246.731097 85.089647 
L 246.81658 85.006304 
L 246.902063 85.245975 
L 246.987546 85.816479 
L 247.07303 85.331777 
L 247.329479 87.313173 
L 247.756895 81.716057 
L 247.842378 81.259118 
L 248.269794 82.624157 
L 248.355277 82.028666 
L 248.440761 82.073799 
L 248.611727 83.302811 
L 248.868177 84.767358 
L 249.039143 82.350615 
L 249.124626 83.133329 
L 249.295593 82.10525 
L 249.381076 82.860585 
L 249.466559 82.737236 
L 249.723009 79.696823 
L 249.893975 81.037573 
L 250.150425 80.402824 
L 250.406874 81.325752 
L 250.492357 80.9475 
L 250.577841 82.970113 
L 250.663324 81.734371 
L 250.748807 82.089725 
L 250.83429 83.12053 
L 250.919773 82.675647 
L 251.005256 83.68898 
L 251.09074 83.363841 
L 251.176223 83.628409 
L 251.347189 82.527454 
L 251.432672 81.526095 
L 251.603639 82.04937 
L 251.689122 82.027272 
L 251.774605 83.054226 
L 251.945572 82.454882 
L 252.031055 83.427922 
L 252.202021 81.444852 
L 252.287504 82.401414 
L 252.458471 80.983599 
L 252.543954 80.328599 
L 252.885887 82.459644 
L 253.056853 82.493041 
L 253.142336 82.074629 
L 253.313303 82.567653 
L 253.398786 80.325902 
L 253.484269 80.400464 
L 253.740719 79.406667 
L 253.826202 80.067844 
L 254.082652 79.042093 
L 254.253618 77.333065 
L 254.339101 76.745497 
L 254.424584 77.492531 
L 254.510067 77.3873 
L 254.595551 76.209849 
L 254.681034 76.237212 
L 254.766517 76.696168 
L 254.852 76.524767 
L 255.10845 77.070788 
L 255.193933 75.569059 
L 255.450383 76.906049 
L 255.706832 75.16402 
L 255.877799 75.025111 
L 255.963282 76.101254 
L 256.219731 74.441285 
L 256.305215 74.51343 
L 256.390698 74.809313 
L 256.476181 75.741682 
L 256.647147 74.802454 
L 256.818114 75.510975 
L 256.903597 75.408629 
L 256.98908 75.46095 
L 257.160047 73.622978 
L 257.501979 75.689792 
L 257.587463 75.616968 
L 258.014878 74.136829 
L 258.185845 74.82289 
L 258.356811 73.96121 
L 258.613261 76.920715 
L 258.698744 75.550636 
L 258.86971 76.768328 
L 259.12616 73.536339 
L 259.211643 73.885664 
L 259.297126 73.309205 
L 259.468093 71.011153 
L 259.553576 70.677396 
L 259.724542 70.872879 
L 259.810026 70.568113 
L 259.895509 69.50581 
L 260.066475 71.194964 
L 260.151958 71.149548 
L 260.237442 70.969621 
L 260.408408 69.324769 
L 260.493891 69.764675 
L 260.921307 67.90569 
L 261.00679 68.144044 
L 261.092273 69.513111 
L 261.177757 68.491625 
L 261.348723 69.654059 
L 261.605173 70.279289 
L 261.690656 71.332089 
L 261.861622 70.872329 
L 261.947105 70.8206 
L 262.374521 66.368086 
L 262.460005 67.497332 
L 262.545488 67.31764 
L 262.716454 67.215252 
L 262.887421 68.287383 
L 263.058387 66.925728 
L 263.14387 67.740752 
L 263.229353 67.316777 
L 263.314837 67.422518 
L 263.40032 67.691837 
L 263.485803 67.15977 
L 263.571286 67.177688 
L 263.656769 67.571842 
L 263.742253 67.510315 
L 263.913219 69.407499 
L 263.998702 69.718018 
L 264.084185 70.745704 
L 264.169669 70.596709 
L 264.255152 70.379966 
L 264.426118 70.929273 
L 264.597084 69.609101 
L 264.682568 70.165997 
L 264.768051 69.901938 
L 264.853534 69.116689 
L 264.939017 69.130112 
L 265.28095 71.26465 
L 265.366433 69.754788 
L 265.451916 70.176369 
L 265.708366 69.270596 
L 265.793849 69.556514 
L 265.879332 70.525971 
L 265.964816 69.300444 
L 266.050299 69.358656 
L 266.221265 69.121936 
L 266.563198 66.1121 
L 266.734164 65.806804 
L 266.819648 66.361589 
L 266.990614 67.98801 
L 267.076097 68.789159 
L 267.332547 64.812019 
L 267.41803 65.22284 
L 267.503513 63.682905 
L 267.845446 67.156633 
L 268.016412 66.910865 
L 268.272862 63.822072 
L 268.358345 63.508354 
L 268.443828 63.617521 
L 268.614795 65.257007 
L 268.785761 66.190071 
L 268.871244 65.618906 
L 269.042211 67.899187 
L 269.127694 67.734195 
L 269.213177 68.517442 
L 269.29866 68.265815 
L 269.469627 69.133857 
L 269.640593 70.198938 
L 269.897043 71.675902 
L 270.068009 71.424554 
L 270.238975 72.825548 
L 270.324459 72.527724 
L 270.580908 71.009239 
L 270.751875 72.439374 
L 270.837358 71.755949 
L 270.922841 72.281114 
L 271.093807 70.562065 
L 271.179291 71.356363 
L 271.264774 71.027234 
L 271.350257 71.111273 
L 271.521223 68.969475 
L 271.606706 69.351336 
L 271.69219 69.047111 
L 271.863156 69.8469 
L 272.119606 69.352702 
L 272.547022 72.879235 
L 272.717988 70.412632 
L 272.803471 70.543303 
L 272.974438 72.585873 
L 273.059921 72.31611 
L 273.145404 71.516963 
L 273.230887 71.732901 
L 273.401854 71.441935 
L 273.487337 70.645149 
L 273.57282 72.05117 
L 273.658303 71.934841 
L 273.914753 70.626064 
L 274.171202 73.023084 
L 274.256686 72.878905 
L 274.342169 72.735357 
L 274.427652 72.352985 
L 274.598618 73.930916 
L 274.855068 71.349764 
L 274.940551 71.02151 
L 275.026034 72.114479 
L 275.197001 70.58956 
L 275.282484 70.926761 
L 275.367967 72.365814 
L 275.45345 71.868761 
L 275.538933 71.973938 
L 275.624417 71.766675 
L 275.880866 75.490201 
L 275.966349 76.138883 
L 276.051833 75.476862 
L 276.308282 78.571028 
L 276.479249 76.132733 
L 276.564732 76.587703 
L 276.821181 75.213359 
L 276.906665 74.948678 
L 276.992148 75.491734 
L 277.163114 74.101756 
L 277.334081 71.399754 
L 277.505047 74.137689 
L 277.676013 73.842771 
L 277.84698 75.344645 
L 278.017946 75.656863 
L 278.103429 75.752246 
L 278.359879 73.470048 
L 278.616328 75.452136 
L 278.701812 75.497941 
L 278.958261 76.778854 
L 279.214711 74.7294 
L 279.300194 74.792712 
L 279.385677 74.455901 
L 279.642127 76.309289 
L 279.72761 75.875062 
L 279.813093 75.98924 
L 279.898576 76.845781 
L 279.98406 76.77876 
L 280.155026 76.345524 
L 280.240509 76.845913 
L 280.325992 76.799743 
L 280.582442 77.430939 
L 280.667925 76.869484 
L 280.924375 73.874917 
L 281.180824 74.607246 
L 281.266308 73.747022 
L 281.351791 75.814511 
L 281.437274 75.622033 
L 281.60824 77.114914 
L 281.693723 76.124979 
L 281.779207 76.806204 
L 281.86469 78.513023 
L 282.206623 75.107516 
L 282.292106 75.70767 
L 282.805005 71.067041 
L 282.890488 71.62709 
L 283.061455 70.054258 
L 283.146938 69.935884 
L 283.403387 67.712606 
L 283.488871 68.092519 
L 283.574354 67.469713 
L 283.916287 70.933924 
L 284.00177 70.602971 
L 284.172736 70.601434 
L 284.343703 69.897802 
L 284.429186 70.560687 
L 284.514669 70.506051 
L 284.600152 70.556448 
L 285.027568 72.047846 
L 285.113051 71.872437 
L 285.198534 70.33031 
L 285.284018 70.941311 
L 285.369501 70.551405 
L 285.454984 71.644093 
L 285.540467 70.455711 
L 285.62595 70.705188 
L 285.711434 70.601628 
L 285.8824 68.908855 
L 285.967883 70.024371 
L 286.053366 69.609592 
L 286.13885 69.779842 
L 286.480782 68.435658 
L 286.566266 68.540471 
L 286.651749 67.660875 
L 286.908198 69.854037 
L 286.993682 69.961851 
L 287.335614 71.112653 
L 287.506581 72.370349 
L 287.592064 72.140126 
L 287.848514 73.559652 
L 288.01948 72.16442 
L 288.104963 71.874816 
L 288.275929 72.473635 
L 288.361413 73.130678 
L 288.446896 71.978098 
L 288.532379 73.249524 
L 288.617862 73.02553 
L 288.703345 73.043754 
L 288.788829 73.235098 
L 288.959795 75.329833 
L 289.045278 74.596226 
L 289.130761 75.11508 
L 289.472694 72.955851 
L 289.643661 74.215485 
L 289.729144 73.70844 
L 289.814627 74.652379 
L 289.90011 73.40824 
L 290.15656 74.64177 
L 290.242043 74.368554 
L 290.498493 75.950406 
L 290.583976 75.059741 
L 290.669459 76.280471 
L 290.754942 75.943476 
L 290.925909 75.439459 
L 291.011392 76.202702 
L 291.267841 74.590422 
L 291.353325 74.356936 
L 291.438808 74.474819 
L 291.524291 73.994349 
L 291.609774 74.608493 
L 291.78074 73.890448 
L 292.122673 77.115548 
L 292.29364 76.162409 
L 292.379123 76.534785 
L 292.550089 77.617778 
L 292.806539 78.969309 
L 292.977505 78.110276 
L 293.062988 78.894749 
L 293.148472 78.650329 
L 293.319438 80.651075 
L 293.404921 80.281822 
L 293.490404 80.693473 
L 293.661371 79.628968 
L 293.746854 80.232048 
L 293.832337 80.068336 
L 293.91782 79.100094 
L 294.003304 79.241403 
L 294.43072 82.987169 
L 294.516203 82.671639 
L 294.601686 81.842481 
L 294.687169 82.113237 
L 294.943619 79.588114 
L 295.029102 79.727653 
L 295.114585 79.989096 
L 295.456518 78.407133 
L 295.542001 78.728275 
L 295.627484 78.566636 
L 295.883934 79.923401 
L 296.140383 80.988476 
L 296.31135 80.110247 
L 296.396833 81.226107 
L 296.482316 80.476266 
L 296.567799 82.14083 
L 296.653283 81.956071 
L 296.738766 81.425311 
L 296.995215 82.668125 
L 297.080699 81.999471 
L 297.337148 86.545566 
L 297.422631 86.404943 
L 297.679081 84.044095 
L 297.764564 83.858752 
L 297.850047 84.431649 
L 298.021014 83.055292 
L 298.277463 85.113647 
L 298.533913 82.162595 
L 298.619396 82.742495 
L 298.704879 83.011734 
L 298.961329 81.242954 
L 299.132295 82.507037 
L 299.217778 82.519065 
L 299.388745 83.093376 
L 299.474228 84.313869 
L 299.645194 82.983592 
L 299.730678 84.070247 
L 299.987127 82.667739 
L 300.07261 82.805636 
L 300.243577 83.942608 
L 300.414543 83.087677 
L 300.58551 82.217271 
L 300.927442 79.467818 
L 301.012926 79.231357 
L 301.098409 79.268972 
L 301.183892 79.573382 
L 301.354858 81.592034 
L 301.525825 80.570909 
L 301.611308 80.95477 
L 301.782274 78.993898 
L 301.867757 78.920085 
L 301.953241 78.138027 
L 302.038724 78.248785 
L 302.124207 77.947291 
L 302.295173 75.724768 
L 302.380657 75.892717 
L 302.551623 74.413953 
L 302.637106 74.461474 
L 302.722589 74.731814 
L 302.808073 73.28596 
L 302.893556 73.461361 
L 302.979039 74.399598 
L 303.064522 74.241269 
L 303.320972 71.164526 
L 303.491938 73.055757 
L 303.748388 71.224292 
L 303.919354 70.39162 
L 304.004837 69.042087 
L 304.090321 69.323762 
L 304.175804 69.577621 
L 304.34677 69.138119 
L 304.432253 70.307859 
L 304.60322 69.018029 
L 304.688703 69.041672 
L 304.774186 68.47652 
L 304.859669 68.671579 
L 305.116119 66.876025 
L 305.287085 67.542717 
L 305.372568 67.163562 
L 305.543535 68.16348 
L 305.629018 68.103785 
L 306.141917 63.394106 
L 306.312884 62.753364 
L 306.398367 62.222821 
L 306.48385 63.625541 
L 306.569333 63.607005 
L 306.911266 61.877019 
L 307.082232 62.309033 
L 307.167716 60.963185 
L 307.253199 61.885808 
L 307.338682 61.859508 
L 307.509648 61.87167 
L 307.595132 62.189937 
L 307.680615 61.625481 
L 307.851581 63.259118 
L 307.937064 62.826043 
L 308.022548 63.64428 
L 308.193514 63.207853 
L 308.36448 63.843138 
L 308.449963 63.851927 
L 308.535447 63.452984 
L 308.877379 65.120056 
L 308.962863 66.498319 
L 309.048346 66.479798 
L 309.133829 66.769149 
L 309.304795 64.149931 
L 309.390279 64.216692 
L 309.561245 63.21086 
L 309.732211 65.800372 
L 309.817695 64.935359 
L 309.903178 64.60915 
L 309.988661 66.036027 
L 310.159627 64.814154 
L 310.245111 65.294606 
L 310.330594 64.675368 
L 310.50156 66.068625 
L 310.587043 66.015836 
L 310.843493 64.892222 
L 310.928976 64.453068 
L 311.014459 64.918323 
L 311.099943 63.790658 
L 311.185426 64.022633 
L 311.356392 63.388722 
L 311.441875 63.55155 
L 311.698325 61.715249 
L 311.783808 60.892534 
L 311.869291 61.296685 
L 312.040258 60.805927 
L 312.467674 63.370582 
L 312.553157 63.422364 
L 312.724123 63.145675 
L 312.89509 64.443349 
L 312.980573 63.403031 
L 313.151539 64.188879 
L 313.322506 62.174084 
L 313.407989 62.534152 
L 313.493472 63.972787 
L 313.578955 63.728307 
L 313.749922 64.760004 
L 313.920888 66.636032 
L 314.006371 65.390653 
L 314.091854 65.460723 
L 314.262821 64.204808 
L 314.348304 64.743412 
L 314.433787 64.670177 
L 314.51927 64.930724 
L 314.690237 63.877088 
L 314.77572 64.137146 
L 314.946686 62.500905 
L 315.03217 62.151798 
L 315.117653 62.733342 
L 315.203136 62.42544 
L 315.288619 63.517119 
L 315.374102 63.168714 
L 315.459585 63.865029 
L 315.545069 63.725309 
L 315.630552 63.930227 
L 315.887001 63.529571 
L 315.972485 63.570414 
L 316.143451 66.101243 
L 316.314417 64.729589 
L 316.399901 65.835615 
L 316.485384 64.408645 
L 316.570867 64.942974 
L 316.9128 63.708198 
L 317.083766 64.762854 
L 317.425699 65.573357 
L 317.511182 66.120219 
L 317.596665 65.459143 
L 317.682149 66.093347 
L 318.109565 64.91364 
L 318.195048 65.311732 
L 318.280531 65.060702 
L 318.366014 63.636463 
L 318.622464 65.237253 
L 318.707947 63.753614 
L 318.878913 64.797537 
L 318.964396 64.103225 
L 319.306329 66.38932 
L 319.391812 66.442698 
L 319.477296 66.074276 
L 319.562779 66.372387 
L 319.648262 66.250716 
L 319.819228 64.849822 
L 319.904712 65.773003 
L 319.990195 65.316327 
L 320.075678 65.781023 
L 320.246644 67.771618 
L 320.417611 67.064827 
L 320.503094 67.884856 
L 320.67406 66.385673 
L 320.759544 66.437633 
L 320.845027 66.843049 
L 320.93051 66.531969 
L 321.015993 66.82211 
L 321.272443 65.283987 
L 321.357926 65.512858 
L 321.443409 66.615768 
L 321.528892 66.22283 
L 321.699859 67.055686 
L 321.785342 67.066546 
L 321.870825 67.649219 
L 321.956308 66.986679 
L 322.041791 68.051834 
L 322.127275 66.940809 
L 322.212758 67.381384 
L 322.383724 65.700866 
L 322.554691 66.891943 
L 322.725657 66.05361 
L 322.81114 65.992556 
L 322.982107 68.577759 
L 323.06759 68.178246 
L 323.153073 67.110822 
L 323.324039 68.282592 
L 323.409523 68.127212 
L 323.580489 67.364098 
L 323.665972 67.691782 
L 323.751455 69.138519 
L 323.836939 68.054612 
L 323.922422 68.424026 
L 324.007905 67.490241 
L 324.093388 68.969805 
L 324.178871 68.69416 
L 324.349838 69.872505 
L 324.520804 68.192429 
L 324.606287 68.628058 
L 324.691771 68.147801 
L 324.94822 69.5879 
L 325.033703 69.846076 
L 325.119187 69.372178 
L 325.20467 70.26826 
L 325.375636 68.832409 
L 325.461119 68.99424 
L 325.803052 72.216832 
L 325.888535 72.141087 
L 326.059502 72.92253 
L 326.230468 72.960337 
L 326.401434 72.532698 
L 326.486918 71.813865 
L 326.572401 72.394409 
L 326.743367 71.741907 
L 326.82885 72.051161 
L 326.914334 72.788387 
L 327.0853 71.530121 
L 327.170783 71.911541 
L 327.256266 71.85663 
L 327.34175 71.851834 
L 327.427233 72.23742 
L 327.512716 73.25637 
L 327.598199 73.141551 
L 327.769166 73.467229 
L 327.854649 72.737019 
L 328.025615 74.409204 
L 328.111098 74.288246 
L 328.367548 72.675261 
L 328.453031 74.298669 
L 328.538514 73.929213 
L 328.709481 73.110553 
L 328.794964 73.61578 
L 328.96593 72.49168 
L 329.136897 71.110475 
L 329.22238 72.088616 
L 329.307863 72.043502 
L 329.478829 71.178248 
L 329.564313 69.758731 
L 329.649796 69.901565 
L 329.820762 71.112219 
L 329.906245 70.621135 
L 330.162695 72.582135 
L 330.333661 71.50061 
L 330.419145 71.742402 
L 330.590111 70.593641 
L 330.675594 71.306437 
L 330.846561 70.497914 
L 331.017527 72.881623 
L 331.188493 72.313463 
L 331.273977 72.516981 
L 331.530426 74.395405 
L 331.615909 73.97463 
L 331.701393 74.076121 
L 331.786876 74.085934 
L 331.872359 74.556474 
L 331.957842 73.932753 
L 332.128808 76.271632 
L 332.214292 75.831939 
L 332.299775 76.338933 
L 332.470741 74.918047 
L 332.556224 75.467616 
L 332.641708 74.632887 
L 332.727191 74.68327 
L 332.812674 74.234319 
L 332.98364 75.091247 
L 333.154607 74.445968 
L 333.325573 75.60331 
L 333.411056 75.096819 
L 333.49654 73.76898 
L 333.582023 74.359309 
L 333.667506 73.827598 
L 333.838472 76.936662 
L 334.351372 73.677787 
L 334.436855 74.442753 
L 334.522338 73.937593 
L 334.693304 74.436432 
L 334.778788 74.403645 
L 334.864271 74.518857 
L 335.12072 75.862842 
L 335.291687 74.178275 
L 335.37717 74.446133 
L 335.633619 71.848733 
L 335.719103 72.205306 
L 335.890069 71.515552 
L 335.975552 70.450685 
L 336.061035 70.545048 
L 336.146519 70.924562 
L 336.402968 67.858953 
L 336.488451 68.499512 
L 336.659418 67.235601 
L 337.001351 65.040501 
L 337.343283 66.503431 
L 337.428767 65.024616 
L 337.51425 66.239139 
L 337.599733 66.027134 
L 338.027149 68.648338 
L 338.112632 66.917267 
L 338.198115 66.966418 
L 338.283599 66.595042 
L 338.369082 67.191609 
L 338.454565 66.802917 
L 338.540048 67.875885 
L 338.625531 67.704456 
L 338.711015 67.769896 
L 338.796498 66.135575 
L 338.881981 66.175443 
L 339.052947 66.816206 
L 339.13843 67.686062 
L 339.480363 65.722583 
L 339.565846 65.971058 
L 339.736813 65.304108 
L 339.907779 66.915986 
L 339.993262 66.208754 
L 340.078746 67.613941 
L 340.164229 67.597916 
L 340.249712 67.843305 
L 340.335195 68.523854 
L 340.420678 68.477308 
L 340.591645 67.829257 
L 340.677128 69.778662 
L 340.762611 68.520254 
L 340.848094 68.867577 
L 340.933578 68.083595 
L 341.019061 68.166725 
L 341.190027 68.633875 
L 341.360994 65.090062 
L 341.446477 65.342757 
L 341.53196 65.167673 
L 341.702926 63.88649 
L 341.78841 63.818633 
L 341.873893 63.954167 
L 341.959376 64.752962 
L 342.130342 63.361145 
L 342.215826 61.691557 
L 342.301309 62.095639 
L 342.557758 60.685461 
L 342.643241 60.756093 
L 342.728725 61.237026 
L 342.814208 62.496588 
L 343.070657 60.994671 
L 343.156141 61.40337 
L 343.241624 59.462828 
L 343.327107 59.989262 
L 343.583557 58.462845 
L 343.66904 58.583772 
L 343.840006 60.002657 
L 344.010973 59.31204 
L 344.096456 59.053534 
L 344.181939 59.661377 
L 344.267422 59.556113 
L 344.352905 59.39262 
L 344.438389 58.931916 
L 344.609355 60.598663 
L 344.694838 59.306269 
L 344.780321 59.600313 
L 344.865805 59.663342 
L 344.951288 59.961447 
L 345.122254 61.885071 
L 345.207737 61.608231 
L 345.293221 62.110937 
L 345.378704 60.595816 
L 345.720636 64.366175 
L 345.80612 63.334325 
L 345.891603 63.65323 
L 345.977086 63.267503 
L 346.062569 64.328232 
L 346.660952 61.095965 
L 346.746435 61.410794 
L 346.831918 61.010231 
L 346.917401 61.442511 
L 347.002884 60.921329 
L 347.173851 61.628676 
L 347.259334 62.143411 
L 347.344817 61.051315 
L 347.515784 63.339972 
L 347.601267 62.871603 
L 347.857716 64.357447 
L 347.9432 62.661272 
L 348.028683 63.172362 
L 348.199649 64.018911 
L 348.370616 63.486244 
L 348.456099 64.592925 
L 348.541582 64.265374 
L 348.627065 62.810754 
L 348.712548 64.152166 
L 348.968998 63.045213 
L 349.054481 63.196162 
L 349.139964 64.961315 
L 349.225447 64.068776 
L 349.310931 64.315747 
L 349.396414 64.474348 
L 349.481897 63.56121 
L 349.652863 65.370748 
L 349.909313 63.944787 
L 350.080279 62.2162 
L 350.251246 60.884519 
L 350.422212 62.571492 
L 350.507695 61.01643 
L 350.593179 61.221539 
L 350.678662 61.2728 
L 351.020595 63.955451 
L 351.106078 63.542553 
L 351.277044 64.625241 
L 351.533494 62.890189 
L 351.618977 62.147568 
L 351.789943 62.853148 
L 351.875427 64.3929 
L 351.96091 63.845434 
L 352.046393 64.001133 
L 352.131876 64.0052 
L 352.217359 64.820896 
L 352.473809 63.755908 
L 352.644775 65.575218 
L 352.730258 65.601745 
L 352.815742 66.228266 
L 352.901225 65.940376 
L 352.986708 65.189014 
L 353.243158 66.403311 
L 353.414124 64.962989 
L 353.58509 62.968516 
L 353.670574 63.667028 
L 353.756057 63.36109 
L 353.84154 63.535095 
L 353.927023 63.392417 
L 354.012506 62.462702 
L 354.09799 62.675717 
L 354.183473 62.135294 
L 354.268956 63.717409 
L 354.439922 62.82466 
L 354.610889 63.375025 
L 354.696372 62.314266 
L 354.781855 62.690731 
L 354.867338 61.740252 
L 354.952822 62.116294 
L 355.038305 62.078343 
L 355.123788 61.808741 
L 355.294754 60.099144 
L 355.380238 59.916503 
L 355.465721 59.960268 
L 355.636687 60.624875 
L 355.807653 58.158469 
L 356.064103 59.405477 
L 356.320553 58.074526 
L 356.406036 58.667526 
L 356.577002 57.61228 
L 356.662485 57.735334 
L 356.747969 57.173098 
L 357.004418 59.303536 
L 357.089901 59.207579 
L 357.346351 57.04291 
L 357.431834 57.056317 
L 357.517317 57.350136 
L 357.85925 54.362003 
L 357.944733 54.961233 
L 358.030217 56.857928 
L 358.1157 56.747824 
L 358.543116 60.384053 
L 358.628599 60.374344 
L 358.714082 58.840369 
L 359.056015 61.408531 
L 359.141498 61.354168 
L 359.226981 61.036957 
L 359.312464 61.993759 
L 359.397948 61.134583 
L 359.483431 61.82608 
L 359.73988 60.460736 
L 359.825364 60.033861 
L 359.910847 60.244904 
L 359.99633 59.884489 
L 360.25278 62.118126 
L 360.338263 61.089614 
L 360.509229 62.090928 
L 360.680196 60.809757 
L 360.765679 60.807247 
L 360.851162 61.590307 
L 360.936645 61.543143 
L 361.791477 56.778375 
L 361.87696 57.689413 
L 361.962444 57.54523 
L 362.047927 57.692955 
L 362.218893 55.189882 
L 362.38986 56.158494 
L 362.475343 55.066873 
L 362.646309 56.307099 
L 362.731792 56.30925 
L 362.817275 56.423897 
L 363.415658 59.199078 
L 363.501141 59.210874 
L 363.672107 59.805194 
L 363.757591 59.547404 
L 363.928557 58.18172 
L 364.01404 59.056814 
L 364.099523 58.886225 
L 364.185007 58.342432 
L 364.27049 58.556659 
L 364.355973 58.222514 
L 364.441456 58.402237 
L 364.526939 58.136211 
L 364.612423 59.290442 
L 364.697906 58.961802 
L 364.954355 60.145468 
L 365.296288 57.941275 
L 365.381771 58.263448 
L 365.638221 60.667048 
L 365.809187 60.787761 
L 365.894671 60.756679 
L 365.980154 59.865572 
L 366.15112 61.17156 
L 366.322086 59.204384 
L 366.40757 59.450263 
L 366.578536 61.651206 
L 366.749502 62.026583 
L 366.834986 61.907142 
L 366.920469 62.099942 
L 367.005952 61.266073 
L 367.262402 62.945085 
L 367.518851 61.720857 
L 367.604334 61.688897 
L 367.775301 58.397138 
L 367.946267 59.015573 
L 368.03175 59.34127 
L 368.2882 57.837706 
L 368.373683 57.995284 
L 368.459166 58.516695 
L 368.630133 56.523585 
L 368.715616 58.732318 
L 368.801099 58.699952 
L 368.972066 59.642156 
L 369.057549 58.39218 
L 369.228515 60.046618 
L 369.313998 58.225332 
L 369.399481 58.592848 
L 369.484965 58.779939 
L 369.570448 57.934636 
L 369.655931 58.323929 
L 369.741414 58.304118 
L 369.826897 58.126426 
L 369.912381 57.078449 
L 370.083347 58.917456 
L 370.16883 59.01629 
L 370.254313 58.337802 
L 370.339797 58.819587 
L 370.42528 58.474981 
L 370.596246 59.155228 
L 371.109145 54.501994 
L 371.280112 56.817201 
L 371.365595 56.453305 
L 371.622045 57.941838 
L 371.707528 58.627605 
L 371.963977 57.030882 
L 372.049461 56.611635 
L 372.134944 57.289838 
L 372.220427 56.636451 
L 372.30591 57.272649 
L 372.391393 56.106032 
L 372.56236 57.02066 
L 372.733326 55.665208 
L 372.818809 56.379316 
L 372.989776 55.929006 
L 373.075259 55.915577 
L 373.673641 52.573894 
L 373.759124 53.15467 
L 374.272024 46.125551 
L 374.357507 45.319471 
L 374.528473 42.698996 
L 374.613956 42.26489 
L 374.784923 44.853644 
L 374.870406 44.630793 
L 375.126856 43.531984 
L 375.212339 45.013531 
L 375.297822 44.725507 
L 375.468788 42.694887 
L 375.981688 46.757667 
L 376.067171 45.569414 
L 376.409103 48.339324 
L 376.494587 47.830709 
L 376.836519 49.882395 
L 377.007486 49.517741 
L 377.092969 49.560338 
L 377.178452 49.175179 
L 377.263935 49.796115 
L 377.349419 49.784328 
L 377.434902 49.634172 
L 377.520385 48.752204 
L 377.691351 50.43964 
L 377.776835 50.107479 
L 377.862318 50.544117 
L 377.947801 50.480056 
L 378.118767 49.615936 
L 378.375217 53.939024 
L 378.4607 53.454703 
L 378.546183 53.301428 
L 378.71715 52.263764 
L 378.802633 53.125568 
L 378.888116 52.326988 
L 379.059083 53.328205 
L 379.144566 53.488609 
L 379.315532 52.234229 
L 379.657465 53.592111 
L 379.913914 51.564097 
L 379.999398 49.6108 
L 380.170364 50.720613 
L 380.34133 50.068372 
L 380.426814 50.33224 
L 380.512297 51.624422 
L 380.683263 49.660563 
L 380.85423 52.349572 
L 380.939713 51.301078 
L 381.110679 51.058938 
L 381.281646 51.926233 
L 381.367129 52.223529 
L 381.452612 54.10619 
L 381.623578 51.773174 
L 381.709062 52.036204 
L 381.880028 53.229495 
L 382.050994 51.119264 
L 382.136478 52.129858 
L 382.392927 50.706313 
L 382.563894 50.946236 
L 382.649377 50.791476 
L 382.73486 50.956688 
L 383.076793 54.003795 
L 383.247759 54.361001 
L 383.418725 53.702624 
L 383.589692 54.167098 
L 383.760658 53.150674 
L 384.188074 58.055387 
L 384.273557 57.435841 
L 384.61549 55.403341 
L 384.786457 56.260594 
L 384.87194 56.051917 
L 385.042906 55.058567 
L 385.128389 56.597714 
L 385.213873 56.233513 
L 385.299356 56.240874 
L 385.384839 56.697504 
L 385.470322 56.601556 
L 385.641289 55.839404 
L 385.726772 56.397543 
L 385.812255 53.880679 
L 385.897738 54.369899 
L 385.983221 54.032518 
L 386.068705 53.095044 
L 386.154188 53.758418 
L 386.239671 53.357122 
L 386.49612 54.812182 
L 386.581604 53.498345 
L 386.667087 54.550816 
L 386.838053 54.163465 
L 386.923536 55.673331 
L 387.00902 54.380381 
L 387.179986 55.03671 
L 387.265469 54.888165 
L 387.607402 56.909342 
L 387.692885 56.850802 
L 387.778368 55.911001 
L 388.034818 58.017117 
L 388.205784 57.241418 
L 388.376751 59.875487 
L 388.462234 59.229455 
L 388.6332 57.586189 
L 388.718684 58.329624 
L 388.88965 57.179866 
L 388.975133 58.580621 
L 389.402549 55.391681 
L 389.488032 55.604406 
L 389.744482 57.566718 
L 389.829965 58.222058 
L 389.915448 57.468344 
L 390.086415 57.894973 
L 390.171898 59.242888 
L 390.257381 58.962612 
L 390.342864 59.509411 
L 390.428347 58.392973 
L 390.513831 59.70438 
L 390.599314 59.478435 
L 390.77028 60.090505 
L 390.941247 58.12792 
L 391.02673 58.784744 
L 391.112213 57.75535 
L 391.197696 58.262278 
L 391.283179 57.6824 
L 391.454146 59.262463 
L 391.625112 59.761913 
L 391.881562 62.441547 
L 392.052528 61.995235 
L 392.138011 62.267807 
L 392.308978 63.632803 
L 392.308978 63.632803 
" style="fill:none;stroke:#1f77b4;stroke-linecap:square;stroke-width:1.5;"/>
   </g>
   <g id="patch_3">
    <path d="M 71.785464 162.92419 
L 71.785464 36.563515 
" style="fill:none;stroke:#000000;stroke-linecap:square;stroke-linejoin:miter;stroke-width:0.8;"/>
   </g>
   <g id="patch_4">
    <path d="M 407.572002 162.92419 
L 407.572002 36.563515 
" style="fill:none;stroke:#000000;stroke-linecap:square;stroke-linejoin:miter;stroke-width:0.8;"/>
   </g>
   <g id="patch_5">
    <path d="M 71.785464 162.92419 
L 407.572002 162.92419 
" style="fill:none;stroke:#000000;stroke-linecap:square;stroke-linejoin:miter;stroke-width:0.8;"/>
   </g>
   <g id="patch_6">
    <path d="M 71.785464 36.563515 
L 407.572002 36.563515 
" style="fill:none;stroke:#000000;stroke-linecap:square;stroke-linejoin:miter;stroke-width:0.8;"/>
   </g>
   <g id="text_14">
    <!-- Correlated noise employed in the simulations. -->
    <defs>
     <path d="M 62.09375 67.015625 
C 62.09375 68.796875 62 68.90625 61.40625 68.90625 
C 61 68.90625 60.90625 68.796875 60.203125 67.609375 
L 55.796875 59.25 
C 50.90625 65.421875 44.90625 69 37.203125 69 
C 20.09375 69 4.59375 54 4.59375 33.5625 
C 4.59375 12.90625 20.09375 -2 37.296875 -2 
C 52.59375 -2 62.09375 11.40625 62.09375 22.828125 
C 62.09375 23.8125 62.09375 24.21875 61.203125 24.21875 
C 60.40625 24.21875 60.40625 23.921875 60.296875 23.03125 
C 59.5 9.140625 49.5 0.59375 38.703125 0.59375 
C 28.5 0.59375 12.203125 7.734375 12.203125 33.546875 
C 12.203125 59.453125 28.796875 66.40625 38.5 66.40625 
C 49.796875 66.40625 58 56.6875 59.90625 42.890625 
C 60.09375 41.6875 60.09375 41.484375 61 41.484375 
C 62.09375 41.484375 62.09375 41.6875 62.09375 43.484375 
z
" id="CMR17-67"/>
     <path d="M 43.09375 21.1875 
C 43.09375 34 33.796875 44 22.90625 44 
C 12 44 2.703125 34 2.703125 21.1875 
C 2.703125 8.609375 12 -1 22.90625 -1 
C 33.796875 -1 43.09375 8.609375 43.09375 21.1875 
z
M 22.90625 0.796875 
C 18.203125 0.796875 14.203125 3.59375 11.90625 7.5 
C 9.40625 11.984375 9.09375 17.59375 9.09375 22 
C 9.09375 26.203125 9.296875 31.40625 11.90625 35.90625 
C 13.90625 39.203125 17.796875 42.40625 22.90625 42.40625 
C 27.40625 42.40625 31.203125 39.90625 33.59375 36.40625 
C 36.703125 31.703125 36.703125 25.109375 36.703125 22 
C 36.703125 18.09375 36.5 12.109375 33.796875 7.296875 
C 31 2.703125 26.703125 0.796875 22.90625 0.796875 
z
" id="CMR17-111"/>
     <path d="M 15 23.390625 
C 15 33 19.09375 42 26.59375 42 
C 27.296875 42 28 41.90625 28.703125 41.59375 
C 28.703125 41.59375 26.5 40.890625 26.5 38.3125 
C 26.5 35.90625 28.40625 34.90625 29.90625 34.90625 
C 31.09375 34.90625 33.296875 35.609375 33.296875 38.40625 
C 33.296875 41.609375 30.09375 43.59375 26.703125 43.59375 
C 19.09375 43.59375 15.796875 36.203125 14.796875 32.703125 
L 14.703125 32.703125 
L 14.703125 43.59375 
L 3.09375 42.5 
L 3.09375 39.90625 
C 9 39.90625 9.90625 39.296875 9.90625 34.5 
L 9.90625 6.6875 
C 9.90625 2.875 9.5 2.390625 3.09375 2.390625 
L 3.09375 -0.203125 
C 5.5 0 10.09375 0 12.703125 0 
C 15.59375 0 20.703125 0 23.40625 -0.203125 
L 23.40625 2.390625 
C 16.203125 2.390625 15 2.390625 15 6.875 
z
" id="CMR17-114"/>
     <path d="M 38.09375 23 
C 38.5 23.40625 38.5 23.609375 38.5 24.625 
C 38.5 34.96875 33.09375 44 21.703125 44 
C 11.09375 44 2.703125 33.890625 2.703125 21.609375 
C 2.703125 8.609375 12.203125 -1 22.796875 -1 
C 34 -1 38.40625 9.484375 38.40625 11.5625 
C 38.40625 12.25 37.796875 12.25 37.59375 12.25 
C 36.90625 12.25 36.796875 12.046875 36.40625 10.875 
C 34.203125 4.140625 28.703125 0.796875 23.5 0.796875 
C 19.203125 0.796875 14.90625 3.171875 12.203125 7.5 
C 9.09375 12.546875 9.09375 18.375 9.09375 23 
z
M 9.203125 24.5 
C 9.90625 39.140625 17.59375 42.40625 21.59375 42.40625 
C 28.40625 42.40625 33 35.890625 33.09375 24.5 
z
" id="CMR17-101"/>
     <path d="M 15.296875 68.6875 
L 3.40625 67.59375 
L 3.40625 65 
C 9.296875 65 10.203125 64.40625 10.203125 59.640625 
L 10.203125 6.65625 
C 10.203125 2.875 9.796875 2.390625 3.40625 2.390625 
L 3.40625 -0.203125 
C 5.796875 0 10.203125 0 12.703125 0 
C 15.296875 0 19.703125 0 22.09375 -0.203125 
L 22.09375 2.390625 
C 15.703125 2.390625 15.296875 2.78125 15.296875 6.65625 
z
" id="CMR17-108"/>
     <path d="M 36 25.828125 
C 36 32.375 36 35.84375 31.796875 39.734375 
C 28.09375 43 23.796875 44 20.40625 44 
C 12.5 44 6.796875 37.609375 6.796875 30.796875 
C 6.796875 27 9.796875 27 10.40625 27 
C 11.703125 27 14 27.78125 14 30.53125 
C 14 33 12.09375 34.078125 10.40625 34.078125 
C 10 34.078125 9.5 33.96875 9.203125 33.875 
C 11.296875 40.5 16.703125 42.40625 20.203125 42.40625 
C 25.203125 42.40625 30.703125 37.953125 30.703125 29.453125 
L 30.703125 25 
C 24.796875 25 17.703125 24.203125 12.09375 21.203125 
C 5.796875 17.703125 4 12.703125 4 8.90625 
C 4 1.203125 13 -1 18.296875 -1 
C 23.796875 -1 28.90625 2.171875 31.09375 7.984375 
C 31.296875 3.640625 34.09375 -0.28125 38.5 -0.28125 
C 40.59375 -0.28125 45.90625 1.09375 45.90625 8.859375 
L 45.90625 14.375 
L 44.09375 14.375 
L 44.09375 8.78125 
C 44.09375 2.78125 41.40625 2 40.09375 2 
C 36 2 36 7.15625 36 11.53125 
z
M 30.703125 13.59375 
C 30.703125 4.953125 24.5 0.59375 19 0.59375 
C 14 0.59375 10.09375 4.296875 10.09375 8.90625 
C 10.09375 11.890625 11.40625 17.1875 17.203125 20.390625 
C 22 23.09375 27.5 23.5 30.703125 23.5 
z
" id="CMR17-97"/>
     <path d="M 29.203125 67.59375 
L 29.203125 65 
C 35.09375 65 36 64.40625 36 59.6875 
L 36 36.640625 
C 35.59375 37.140625 31.5 43.59375 23.40625 43.59375 
C 13.203125 43.59375 3.296875 34.5 3.296875 21.3125 
C 3.296875 8.203125 12.59375 -1 22.40625 -1 
C 30.90625 -1 35.296875 5.265625 35.796875 5.9375 
L 35.796875 -0.984375 
L 47.90625 -0.984375 
L 47.90625 2 
C 42 2 41.09375 2.59375 41.09375 7.390625 
L 41.09375 68.6875 
z
M 35.796875 11.796875 
C 35.796875 8.796875 34 6.09375 31.703125 4.09375 
C 28.296875 1.09375 24.90625 0.59375 23 0.59375 
C 20.09375 0.59375 9.703125 2.09375 9.703125 21.1875 
C 9.703125 40.8125 21.296875 42 23.90625 42 
C 28.5 42 32.203125 39.40625 34.5 35.796875 
C 35.796875 33.703125 35.796875 33.40625 35.796875 31.609375 
z
" id="CMR17-100"/>
     <path d="M 41.5 30.203125 
C 41.5 35.296875 40.5 43.59375 28.703125 43.59375 
C 20.796875 43.59375 16.703125 37.5 15.203125 33.5 
L 15.09375 33.5 
L 15.09375 43.59375 
L 3.296875 42.5 
L 3.296875 39.90625 
C 9.203125 39.90625 10.09375 39.296875 10.09375 34.5 
L 10.09375 6.6875 
C 10.09375 2.875 9.703125 2.390625 3.296875 2.390625 
L 3.296875 -0.203125 
C 5.703125 0 10.09375 0 12.703125 0 
C 15.296875 0 19.796875 0 22.203125 -0.203125 
L 22.203125 2.390625 
C 15.796875 2.390625 15.40625 2.78125 15.40625 6.6875 
L 15.40625 25.90625 
C 15.40625 35.109375 21 42 28 42 
C 35.40625 42 36.203125 35.40625 36.203125 30.59375 
L 36.203125 6.6875 
C 36.203125 2.875 35.796875 2.390625 29.40625 2.390625 
L 29.40625 -0.203125 
C 31.796875 0 36.203125 0 38.796875 0 
C 41.40625 0 45.90625 0 48.296875 -0.203125 
L 48.296875 2.390625 
C 41.90625 2.390625 41.5 2.78125 41.5 6.6875 
z
" id="CMR17-110"/>
     <path d="M 15.5 61.078125 
C 15.5 63.265625 13.703125 65.15625 11.40625 65.15625 
C 9.203125 65.15625 7.296875 63.375 7.296875 61.078125 
C 7.296875 58.890625 9.09375 57 11.40625 57 
C 13.59375 57 15.5 58.796875 15.5 61.078125 
z
M 3.796875 42.28125 
L 3.796875 39.703125 
C 9.40625 39.703125 10.203125 39.09375 10.203125 34.328125 
L 10.203125 6.671875 
C 10.203125 2.875 9.796875 2.390625 3.40625 2.390625 
L 3.40625 -0.203125 
C 5.796875 0 10.09375 0 12.59375 0 
C 15 0 19.09375 0 21.40625 -0.203125 
L 21.40625 2.390625 
C 15.5 2.390625 15.296875 2.984375 15.296875 6.5625 
L 15.296875 43.375 
z
" id="CMR17-105"/>
     <path d="M 30.90625 42.140625 
C 30.90625 43.953125 30.796875 44.046875 30.203125 44.046875 
C 29.796875 44.046875 29.703125 43.953125 28.5 42.453125 
C 28.203125 42.046875 27.296875 41.03125 27 40.640625 
C 23.796875 44.046875 19.296875 44.046875 17.59375 44.046875 
C 6.5 44.046875 2.5 38.234375 2.5 32.4375 
C 2.5 23.40625 12.703125 21.328125 15.59375 20.703125 
C 21.90625 19.421875 24.09375 19.015625 26.203125 17.203125 
C 27.5 16.015625 29.703125 13.8125 29.703125 10.21875 
C 29.703125 6 27.296875 0.59375 18.09375 0.59375 
C 9.40625 0.59375 6.296875 7.1875 4.5 15.953125 
C 4.203125 17.34375 4.203125 17.453125 3.40625 17.453125 
C 2.59375 17.453125 2.5 17.34375 2.5 15.359375 
L 2.5 0.984375 
C 2.5 -0.796875 2.59375 -0.90625 3.203125 -0.90625 
C 3.703125 -0.90625 3.796875 -0.796875 4.296875 0 
C 4.90625 0.890625 6.40625 3.296875 7 4.3125 
C 9 1.609375 12.5 -1 18.09375 -1 
C 28 -1 33.296875 4.421875 33.296875 12.25 
C 33.296875 17.375 30.59375 20.078125 29.296875 21.28125 
C 26.296875 24.390625 22.796875 25.09375 18.59375 25.890625 
C 13.09375 27.109375 6.09375 28.515625 6.09375 34.640625 
C 6.09375 37.234375 7.5 42.765625 17.59375 42.765625 
C 28.296875 42.765625 28.90625 32.71875 29.09375 29.5 
C 29.203125 29 29.703125 28.890625 30 28.890625 
C 30.90625 28.890625 30.90625 29.203125 30.90625 30.90625 
z
" id="CMR17-115"/>
     <path d="M 67.59375 30.203125 
C 67.59375 35.1875 66.703125 43.59375 54.796875 43.59375 
C 48 43.59375 43.296875 39 41.5 33.609375 
L 41.40625 33.609375 
C 40.203125 41.8125 34.296875 43.59375 28.703125 43.59375 
C 20.796875 43.59375 16.703125 37.5 15.203125 33.5 
L 15.09375 33.5 
L 15.09375 43.59375 
L 3.296875 42.5 
L 3.296875 39.90625 
C 9.203125 39.90625 10.09375 39.296875 10.09375 34.5 
L 10.09375 6.6875 
C 10.09375 2.875 9.703125 2.390625 3.296875 2.390625 
L 3.296875 -0.203125 
C 5.703125 0 10.09375 0 12.703125 0 
C 15.296875 0 19.796875 0 22.203125 -0.203125 
L 22.203125 2.390625 
C 15.796875 2.390625 15.40625 2.78125 15.40625 6.6875 
L 15.40625 25.90625 
C 15.40625 35.109375 21 42 28 42 
C 35.40625 42 36.203125 35.40625 36.203125 30.59375 
L 36.203125 6.6875 
C 36.203125 2.875 35.796875 2.390625 29.40625 2.390625 
L 29.40625 -0.203125 
C 31.796875 0 36.203125 0 38.796875 0 
C 41.40625 0 45.90625 0 48.296875 -0.203125 
L 48.296875 2.390625 
C 41.90625 2.390625 41.5 2.78125 41.5 6.6875 
L 41.5 25.90625 
C 41.5 35.109375 47.09375 42 54.09375 42 
C 61.5 42 62.296875 35.40625 62.296875 30.59375 
L 62.296875 6.6875 
C 62.296875 2.875 61.90625 2.390625 55.5 2.390625 
L 55.5 -0.203125 
C 57.90625 0 62.296875 0 64.90625 0 
C 67.5 0 72 0 74.40625 -0.203125 
L 74.40625 2.390625 
C 68 2.390625 67.59375 2.78125 67.59375 6.6875 
z
" id="CMR17-109"/>
     <path d="M 22 -16.609375 
C 15.59375 -16.609375 15.203125 -16.203125 15.203125 -12.328125 
L 15.203125 6.28125 
C 18.09375 2.09375 22.296875 -0.59375 27.59375 -0.59375 
C 37.59375 -0.59375 47.703125 8.171875 47.703125 21.6875 
C 47.703125 34.234375 39 43.78125 28.703125 43.78125 
C 22.703125 43.78125 17.796875 40.5 15 36.53125 
L 15 43.78125 
L 3.09375 42.6875 
L 3.09375 40.109375 
C 9 40.109375 9.90625 39.5 9.90625 34.734375 
L 9.90625 -12.328125 
C 9.90625 -16.109375 9.5 -16.609375 3.09375 -16.609375 
L 3.09375 -19.1875 
C 5.5 -19 9.90625 -19 12.5 -19 
C 15.09375 -19 19.59375 -19 22 -19.1875 
z
M 15.203125 31.4375 
C 15.203125 32.84375 15.203125 34.921875 19.09375 38.609375 
C 19.59375 39.015625 23 42 28 42 
C 35.296875 42 41.296875 32.9375 41.296875 21.59375 
C 41.296875 10.25 34.90625 1 27 1 
C 23.40625 1 19.5 2.6875 16.5 7.375 
C 15.203125 9.5625 15.203125 10.15625 15.203125 11.75 
z
" id="CMR17-112"/>
     <path d="M 39 34.328125 
C 41.5 40.40625 46 40.40625 47.40625 40.40625 
L 47.40625 43 
C 45.5 43 43 43 41.09375 43 
C 39 43 35.703125 43 33.703125 43.09375 
L 33.703125 40.5 
C 37.5 40.203125 37.59375 37.40625 37.59375 36.609375 
C 37.59375 35.625 37.40625 35.125 36.90625 33.921875 
L 26 7.015625 
L 14.09375 36.03125 
C 13.59375 37.21875 13.59375 37.90625 13.59375 38.015625 
C 13.59375 40.203125 15.90625 40.40625 18.296875 40.40625 
L 18.296875 43.09375 
C 15.90625 43 11.59375 43 9.09375 43 
C 6.40625 43 3.203125 43 1 43.09375 
L 1 40.40625 
C 6.40625 40.40625 7 39.90625 8.296875 36.71875 
L 23.203125 0.234375 
C 18.703125 -11.53125 16.09375 -18.40625 9.796875 -18.40625 
C 8.703125 -18.40625 6.203125 -18.109375 4.40625 -16.3125 
C 6.703125 -16.109375 7.703125 -14.71875 7.703125 -13.015625 
C 7.703125 -11.328125 6.5 -9.828125 4.5 -9.828125 
C 2.296875 -9.828125 1.203125 -11.328125 1.203125 -13.125 
C 1.203125 -17.109375 5.296875 -20 9.796875 -20 
C 15.59375 -20 19.203125 -14.40625 21.203125 -9.4375 
z
" id="CMR17-121"/>
     <path d="M 41.5 30.203125 
C 41.5 35.296875 40.5 43.59375 28.703125 43.59375 
C 20.5 43.59375 16.5 37 15.296875 33.703125 
L 15.203125 33.703125 
L 15.203125 68.6875 
L 3.296875 67.59375 
L 3.296875 65 
C 9.203125 65 10.09375 64.40625 10.09375 59.640625 
L 10.09375 6.65625 
C 10.09375 2.875 9.703125 2.390625 3.296875 2.390625 
L 3.296875 -0.203125 
C 5.703125 0 10.09375 0 12.703125 0 
C 15.296875 0 19.796875 0 22.203125 -0.203125 
L 22.203125 2.390625 
C 15.796875 2.390625 15.40625 2.78125 15.40625 6.6875 
L 15.40625 25.90625 
C 15.40625 35.109375 21 42 28 42 
C 35.40625 42 36.203125 35.40625 36.203125 30.59375 
L 36.203125 6.6875 
C 36.203125 2.875 35.796875 2.390625 29.40625 2.390625 
L 29.40625 -0.203125 
C 31.796875 0 36.203125 0 38.796875 0 
C 41.40625 0 45.90625 0 48.296875 -0.203125 
L 48.296875 2.390625 
C 41.90625 2.390625 41.5 2.78125 41.5 6.6875 
z
" id="CMR17-104"/>
     <path d="M 29.40625 42.078125 
L 29.40625 39.5 
C 35.296875 39.5 36.203125 38.890625 36.203125 34.15625 
L 36.203125 16.125 
C 36.203125 7.8125 31.703125 0.59375 24.296875 0.59375 
C 16.09375 0.59375 15.40625 5.4375 15.40625 10.59375 
L 15.40625 43.171875 
L 3.296875 42.078125 
L 3.296875 39.5 
C 7.296875 39.5 10 39.5 10.09375 35.53125 
L 10.09375 16.53125 
C 10.09375 9.890625 10.09375 5.640625 12.703125 2.859375 
C 14 1.578125 16.5 -1 23.703125 -1 
C 32.203125 -1 35.5 5.890625 36.296875 7.90625 
L 36.40625 7.90625 
L 36.40625 -0.984375 
L 48.296875 -0.984375 
L 48.296875 2 
C 42.40625 2 41.5 2.59375 41.5 7.390625 
L 41.5 43.171875 
z
" id="CMR17-117"/>
     <path d="M 16.59375 4.078125 
C 16.59375 6.5625 14.59375 8.15625 12.5 8.15625 
C 10.5 8.15625 8.40625 6.5625 8.40625 4.078125 
C 8.40625 1.59375 10.40625 0 12.5 0 
C 14.5 0 16.59375 1.59375 16.59375 4.078125 
z
" id="CMR17-46"/>
    </defs>
    <g transform="translate(65.130735 30.563515)scale(0.192 -0.192)">
     <use transform="scale(0.996264)" xlink:href="#CMR17-67"/>
     <use transform="translate(66.509881 0)scale(0.996264)" xlink:href="#CMR17-111"/>
     <use transform="translate(112.200358 0)scale(0.996264)" xlink:href="#CMR17-114"/>
     <use transform="translate(147.481125 0)scale(0.996264)" xlink:href="#CMR17-114"/>
     <use transform="translate(182.761893 0)scale(0.996264)" xlink:href="#CMR17-101"/>
     <use transform="translate(223.247554 0)scale(0.996264)" xlink:href="#CMR17-108"/>
     <use transform="translate(248.118612 0)scale(0.996264)" xlink:href="#CMR17-97"/>
     <use transform="translate(293.809089 0)scale(0.996264)" xlink:href="#CMR17-116"/>
     <use transform="translate(329.089857 0)scale(0.996264)" xlink:href="#CMR17-101"/>
     <use transform="translate(369.575518 0)scale(0.996264)" xlink:href="#CMR17-100"/>
     <use transform="translate(450.546854 0)scale(0.996264)" xlink:href="#CMR17-110"/>
     <use transform="translate(501.442223 0)scale(0.996264)" xlink:href="#CMR17-111"/>
     <use transform="translate(547.132701 0)scale(0.996264)" xlink:href="#CMR17-105"/>
     <use transform="translate(572.003759 0)scale(0.996264)" xlink:href="#CMR17-115"/>
     <use transform="translate(607.805097 0)scale(0.996264)" xlink:href="#CMR17-101"/>
     <use transform="translate(678.366724 0)scale(0.996264)" xlink:href="#CMR17-101"/>
     <use transform="translate(718.852384 0)scale(0.996264)" xlink:href="#CMR17-109"/>
     <use transform="translate(795.771974 0)scale(0.996264)" xlink:href="#CMR17-112"/>
     <use transform="translate(846.667344 0)scale(0.996264)" xlink:href="#CMR17-108"/>
     <use transform="translate(871.538402 0)scale(0.996264)" xlink:href="#CMR17-111"/>
     <use transform="translate(914.626425 0)scale(0.996264)" xlink:href="#CMR17-121"/>
     <use transform="translate(960.316887 0)scale(0.996264)" xlink:href="#CMR17-101"/>
     <use transform="translate(1000.802548 0)scale(0.996264)" xlink:href="#CMR17-100"/>
     <use transform="translate(1081.773884 0)scale(0.996264)" xlink:href="#CMR17-105"/>
     <use transform="translate(1106.644942 0)scale(0.996264)" xlink:href="#CMR17-110"/>
     <use transform="translate(1187.616278 0)scale(0.996264)" xlink:href="#CMR17-116"/>
     <use transform="translate(1222.897046 0)scale(0.996264)" xlink:href="#CMR17-104"/>
     <use transform="translate(1273.792416 0)scale(0.996264)" xlink:href="#CMR17-101"/>
     <use transform="translate(1344.354043 0)scale(0.996264)" xlink:href="#CMR17-115"/>
     <use transform="translate(1380.15538 0)scale(0.996264)" xlink:href="#CMR17-105"/>
     <use transform="translate(1405.026439 0)scale(0.996264)" xlink:href="#CMR17-109"/>
     <use transform="translate(1479.343575 0)scale(0.996264)" xlink:href="#CMR17-117"/>
     <use transform="translate(1530.238945 0)scale(0.996264)" xlink:href="#CMR17-108"/>
     <use transform="translate(1555.110003 0)scale(0.996264)" xlink:href="#CMR17-97"/>
     <use transform="translate(1600.80048 0)scale(0.996264)" xlink:href="#CMR17-116"/>
     <use transform="translate(1636.081248 0)scale(0.996264)" xlink:href="#CMR17-105"/>
     <use transform="translate(1660.952307 0)scale(0.996264)" xlink:href="#CMR17-111"/>
     <use transform="translate(1706.642784 0)scale(0.996264)" xlink:href="#CMR17-110"/>
     <use transform="translate(1757.538153 0)scale(0.996264)" xlink:href="#CMR17-115"/>
     <use transform="translate(1793.339491 0)scale(0.996264)" xlink:href="#CMR17-46"/>
    </g>
   </g>
  </g>
 </g>
 <defs>
  <clipPath id="pc534519d80">
   <rect height="126.360675" width="335.786538" x="71.785464" y="36.563515"/>
  </clipPath>
 </defs>
</svg>
