<?xml version="1.0" encoding="utf-8" standalone="no"?>
<!DOCTYPE svg PUBLIC "-//W3C//DTD SVG 1.1//EN"
  "http://www.w3.org/Graphics/SVG/1.1/DTD/svg11.dtd">
<!-- Created with matplotlib (https://matplotlib.org/) -->
<svg height="216pt" version="1.1" viewBox="0 0 432 216" width="432pt" xmlns="http://www.w3.org/2000/svg" xmlns:xlink="http://www.w3.org/1999/xlink">
 <defs>
  <style type="text/css">
*{stroke-linecap:butt;stroke-linejoin:round;}
  </style>
 </defs>
 <g id="figure_1">
  <g id="patch_1">
   <path d="M 0 216 
L 432 216 
L 432 0 
L 0 0 
z
" style="fill:#ffffff;"/>
  </g>
  <g id="axes_1">
   <g id="patch_2">
    <path d="M 41.476366 178.259776 
L 421.2 178.259776 
L 421.2 25.10218 
L 41.476366 25.10218 
z
" style="fill:#ffffff;"/>
   </g>
   <g id="matplotlib.axis_1">
    <g id="xtick_1">
     <g id="line2d_1">
      <defs>
       <path d="M 0 0 
L 0 3.5 
" id="md9061492db" style="stroke:#000000;stroke-width:0.8;"/>
      </defs>
      <g>
       <use style="stroke:#000000;stroke-width:0.8;" x="58.736531" xlink:href="#md9061492db" y="178.259776"/>
      </g>
     </g>
     <g id="text_1">
      <!-- $10^{1}$ -->
      <defs>
       <path d="M 26.59375 63.40625 
C 26.59375 65.5 26.5 65.5 25.09375 65.5 
C 21.203125 61.1875 15.296875 59.796875 9.703125 59.796875 
C 9.40625 59.796875 8.90625 59.796875 8.796875 59.5 
C 8.703125 59.296875 8.703125 59.09375 8.703125 57 
C 11.796875 57 17 57.59375 21 59.984375 
L 21 7.203125 
C 21 3.6875 20.796875 2.5 12.203125 2.5 
L 9.203125 2.5 
L 9.203125 0 
C 14 0 19 0 23.796875 0 
C 28.59375 0 33.59375 0 38.40625 0 
L 38.40625 2.5 
L 35.40625 2.5 
C 26.796875 2.5 26.59375 3.59375 26.59375 7.15625 
z
" id="CMR17-49"/>
       <path d="M 42 31.640625 
C 42 37.75 41.90625 48.125 37.703125 56.109375 
C 34 63.109375 28.09375 65.59375 22.90625 65.59375 
C 18.09375 65.59375 12 63.40625 8.203125 56.203125 
C 4.203125 48.71875 3.796875 39.4375 3.796875 31.640625 
C 3.796875 25.953125 3.90625 17.28125 7 9.671875 
C 11.296875 -0.609375 19 -2 22.90625 -2 
C 27.5 -2 34.5 -0.109375 38.59375 9.375 
C 41.59375 16.28125 42 24.359375 42 31.640625 
z
M 22.90625 -0.40625 
C 16.5 -0.40625 12.703125 5.078125 11.296875 12.6875 
C 10.203125 18.5625 10.203125 27.15625 10.203125 32.75 
C 10.203125 40.4375 10.203125 46.828125 11.5 52.921875 
C 13.40625 61.390625 19 64 22.90625 64 
C 27 64 32.296875 61.296875 34.203125 53.125 
C 35.5 47.4375 35.59375 40.734375 35.59375 32.75 
C 35.59375 26.25 35.59375 18.265625 34.40625 12.375 
C 32.296875 1.484375 26.40625 -0.40625 22.90625 -0.40625 
z
" id="CMR17-48"/>
      </defs>
      <g transform="translate(52.675892 190.794578)scale(0.08 -0.08)">
       <use transform="scale(0.996264)" xlink:href="#CMR17-49"/>
       <use transform="translate(45.690477 0)scale(0.996264)" xlink:href="#CMR17-48"/>
       <use transform="translate(91.380954 36.153639)scale(0.697382)" xlink:href="#CMR17-49"/>
      </g>
     </g>
    </g>
    <g id="xtick_2">
     <g id="line2d_2">
      <g>
       <use style="stroke:#000000;stroke-width:0.8;" x="157.366047" xlink:href="#md9061492db" y="178.259776"/>
      </g>
     </g>
     <g id="text_2">
      <!-- $10^{2}$ -->
      <defs>
       <path d="M 41.703125 15.453125 
L 39.90625 15.453125 
C 38.90625 8.375 38.09375 7.171875 37.703125 6.5625 
C 37.203125 5.765625 30 5.765625 28.59375 5.765625 
L 9.40625 5.765625 
C 13 9.671875 20 16.75 28.5 24.953125 
C 34.59375 30.734375 41.703125 37.53125 41.703125 47.421875 
C 41.703125 59.21875 32.296875 66 21.796875 66 
C 10.796875 66 4.09375 56.3125 4.09375 47.34375 
C 4.09375 43.4375 7 42.9375 8.203125 42.9375 
C 9.203125 42.9375 12.203125 43.546875 12.203125 47.03125 
C 12.203125 50.109375 9.59375 51 8.203125 51 
C 7.59375 51 7 50.90625 6.59375 50.703125 
C 8.5 59.21875 14.296875 63.40625 20.40625 63.40625 
C 29.09375 63.40625 34.796875 56.515625 34.796875 47.421875 
C 34.796875 38.734375 29.703125 31.25 24 24.75 
L 4.09375 2.28125 
L 4.09375 0 
L 39.296875 0 
z
" id="CMR17-50"/>
      </defs>
      <g transform="translate(151.305408 190.794578)scale(0.08 -0.08)">
       <use transform="scale(0.996264)" xlink:href="#CMR17-49"/>
       <use transform="translate(45.690477 0)scale(0.996264)" xlink:href="#CMR17-48"/>
       <use transform="translate(91.380954 36.153639)scale(0.697382)" xlink:href="#CMR17-50"/>
      </g>
     </g>
    </g>
    <g id="xtick_3">
     <g id="line2d_3">
      <g>
       <use style="stroke:#000000;stroke-width:0.8;" x="255.995562" xlink:href="#md9061492db" y="178.259776"/>
      </g>
     </g>
     <g id="text_3">
      <!-- $10^{3}$ -->
      <defs>
       <path d="M 22.09375 33.703125 
C 31 33.703125 34.90625 25.96875 34.90625 17.03125 
C 34.90625 5 28.5 0.390625 22.703125 0.390625 
C 17.40625 0.390625 8.796875 3.03125 6.09375 10.828125 
C 6.59375 10.625 7.09375 10.625 7.59375 10.625 
C 10 10.625 11.796875 12.21875 11.796875 14.8125 
C 11.796875 17.703125 9.59375 19 7.59375 19 
C 5.90625 19 3.296875 18.203125 3.296875 14.46875 
C 3.296875 5.234375 12.296875 -2 22.90625 -2 
C 34 -2 42.5 6.71875 42.5 16.953125 
C 42.5 26.671875 34.5 33.703125 25 34.796875 
C 32.59375 36.375 39.90625 43.0625 39.90625 52.015625 
C 39.90625 59.6875 32 65.296875 23 65.296875 
C 13.90625 65.296875 5.90625 59.828125 5.90625 52.015625 
C 5.90625 48.59375 8.5 48 9.796875 48 
C 11.90625 48 13.703125 49.296875 13.703125 51.890625 
C 13.703125 54.46875 11.90625 55.765625 9.796875 55.765625 
C 9.40625 55.765625 8.90625 55.765625 8.5 55.578125 
C 11.40625 61.859375 19.296875 63 22.796875 63 
C 26.296875 63 32.90625 61.328125 32.90625 51.875 
C 32.90625 49.109375 32.5 44.1875 29.09375 39.84375 
C 26.09375 36 22.703125 36 19.40625 35.6875 
C 18.90625 35.6875 16.59375 35.453125 16.203125 35.453125 
C 15.5 35.359375 15.09375 35.265625 15.09375 34.5 
C 15.09375 33.796875 15.203125 33.703125 17.203125 33.703125 
z
" id="CMR17-51"/>
      </defs>
      <g transform="translate(249.934923 190.794578)scale(0.08 -0.08)">
       <use transform="scale(0.996264)" xlink:href="#CMR17-49"/>
       <use transform="translate(45.690477 0)scale(0.996264)" xlink:href="#CMR17-48"/>
       <use transform="translate(91.380954 36.153639)scale(0.697382)" xlink:href="#CMR17-51"/>
      </g>
     </g>
    </g>
    <g id="xtick_4">
     <g id="line2d_4">
      <g>
       <use style="stroke:#000000;stroke-width:0.8;" x="354.625077" xlink:href="#md9061492db" y="178.259776"/>
      </g>
     </g>
     <g id="text_4">
      <!-- $10^{4}$ -->
      <defs>
       <path d="M 33.59375 64.40625 
C 33.59375 66.5 33.5 66.5 31.703125 66.5 
L 2 19.59375 
L 2 17 
L 27.796875 17 
L 27.796875 7.140625 
C 27.796875 3.5 27.59375 2.5 20.59375 2.5 
L 18.703125 2.5 
L 18.703125 0 
C 21.90625 0 27.296875 0 30.703125 0 
C 34.09375 0 39.5 0 42.703125 0 
L 42.703125 2.5 
L 40.796875 2.5 
C 33.796875 2.5 33.59375 3.5 33.59375 7.140625 
L 33.59375 17 
L 43.796875 17 
L 43.796875 19.59375 
L 33.59375 19.59375 
z
M 28.09375 57.859375 
L 28.09375 19.59375 
L 4 19.59375 
z
" id="CMR17-52"/>
      </defs>
      <g transform="translate(348.564438 190.794578)scale(0.08 -0.08)">
       <use transform="scale(0.996264)" xlink:href="#CMR17-49"/>
       <use transform="translate(45.690477 0)scale(0.996264)" xlink:href="#CMR17-48"/>
       <use transform="translate(91.380954 36.153639)scale(0.697382)" xlink:href="#CMR17-52"/>
      </g>
     </g>
    </g>
    <g id="xtick_5">
     <g id="line2d_5">
      <defs>
       <path d="M 0 0 
L 0 2 
" id="m759db6a104" style="stroke:#000000;stroke-width:0.6;"/>
      </defs>
      <g>
       <use style="stroke:#000000;stroke-width:0.6;" x="43.458626" xlink:href="#m759db6a104" y="178.259776"/>
      </g>
     </g>
    </g>
    <g id="xtick_6">
     <g id="line2d_6">
      <g>
       <use style="stroke:#000000;stroke-width:0.6;" x="49.178344" xlink:href="#m759db6a104" y="178.259776"/>
      </g>
     </g>
    </g>
    <g id="xtick_7">
     <g id="line2d_7">
      <g>
       <use style="stroke:#000000;stroke-width:0.6;" x="54.223492" xlink:href="#m759db6a104" y="178.259776"/>
      </g>
     </g>
    </g>
    <g id="xtick_8">
     <g id="line2d_8">
      <g>
       <use style="stroke:#000000;stroke-width:0.6;" x="88.426974" xlink:href="#m759db6a104" y="178.259776"/>
      </g>
     </g>
    </g>
    <g id="xtick_9">
     <g id="line2d_9">
      <g>
       <use style="stroke:#000000;stroke-width:0.6;" x="105.794769" xlink:href="#m759db6a104" y="178.259776"/>
      </g>
     </g>
    </g>
    <g id="xtick_10">
     <g id="line2d_10">
      <g>
       <use style="stroke:#000000;stroke-width:0.6;" x="118.117416" xlink:href="#m759db6a104" y="178.259776"/>
      </g>
     </g>
    </g>
    <g id="xtick_11">
     <g id="line2d_11">
      <g>
       <use style="stroke:#000000;stroke-width:0.6;" x="127.675604" xlink:href="#m759db6a104" y="178.259776"/>
      </g>
     </g>
    </g>
    <g id="xtick_12">
     <g id="line2d_12">
      <g>
       <use style="stroke:#000000;stroke-width:0.6;" x="135.485212" xlink:href="#m759db6a104" y="178.259776"/>
      </g>
     </g>
    </g>
    <g id="xtick_13">
     <g id="line2d_13">
      <g>
       <use style="stroke:#000000;stroke-width:0.6;" x="142.088141" xlink:href="#m759db6a104" y="178.259776"/>
      </g>
     </g>
    </g>
    <g id="xtick_14">
     <g id="line2d_14">
      <g>
       <use style="stroke:#000000;stroke-width:0.6;" x="147.807859" xlink:href="#m759db6a104" y="178.259776"/>
      </g>
     </g>
    </g>
    <g id="xtick_15">
     <g id="line2d_15">
      <g>
       <use style="stroke:#000000;stroke-width:0.6;" x="152.853008" xlink:href="#m759db6a104" y="178.259776"/>
      </g>
     </g>
    </g>
    <g id="xtick_16">
     <g id="line2d_16">
      <g>
       <use style="stroke:#000000;stroke-width:0.6;" x="187.056489" xlink:href="#m759db6a104" y="178.259776"/>
      </g>
     </g>
    </g>
    <g id="xtick_17">
     <g id="line2d_17">
      <g>
       <use style="stroke:#000000;stroke-width:0.6;" x="204.424285" xlink:href="#m759db6a104" y="178.259776"/>
      </g>
     </g>
    </g>
    <g id="xtick_18">
     <g id="line2d_18">
      <g>
       <use style="stroke:#000000;stroke-width:0.6;" x="216.746932" xlink:href="#m759db6a104" y="178.259776"/>
      </g>
     </g>
    </g>
    <g id="xtick_19">
     <g id="line2d_19">
      <g>
       <use style="stroke:#000000;stroke-width:0.6;" x="226.305119" xlink:href="#m759db6a104" y="178.259776"/>
      </g>
     </g>
    </g>
    <g id="xtick_20">
     <g id="line2d_20">
      <g>
       <use style="stroke:#000000;stroke-width:0.6;" x="234.114727" xlink:href="#m759db6a104" y="178.259776"/>
      </g>
     </g>
    </g>
    <g id="xtick_21">
     <g id="line2d_21">
      <g>
       <use style="stroke:#000000;stroke-width:0.6;" x="240.717657" xlink:href="#m759db6a104" y="178.259776"/>
      </g>
     </g>
    </g>
    <g id="xtick_22">
     <g id="line2d_22">
      <g>
       <use style="stroke:#000000;stroke-width:0.6;" x="246.437374" xlink:href="#m759db6a104" y="178.259776"/>
      </g>
     </g>
    </g>
    <g id="xtick_23">
     <g id="line2d_23">
      <g>
       <use style="stroke:#000000;stroke-width:0.6;" x="251.482523" xlink:href="#m759db6a104" y="178.259776"/>
      </g>
     </g>
    </g>
    <g id="xtick_24">
     <g id="line2d_24">
      <g>
       <use style="stroke:#000000;stroke-width:0.6;" x="285.686004" xlink:href="#m759db6a104" y="178.259776"/>
      </g>
     </g>
    </g>
    <g id="xtick_25">
     <g id="line2d_25">
      <g>
       <use style="stroke:#000000;stroke-width:0.6;" x="303.0538" xlink:href="#m759db6a104" y="178.259776"/>
      </g>
     </g>
    </g>
    <g id="xtick_26">
     <g id="line2d_26">
      <g>
       <use style="stroke:#000000;stroke-width:0.6;" x="315.376447" xlink:href="#m759db6a104" y="178.259776"/>
      </g>
     </g>
    </g>
    <g id="xtick_27">
     <g id="line2d_27">
      <g>
       <use style="stroke:#000000;stroke-width:0.6;" x="324.934635" xlink:href="#m759db6a104" y="178.259776"/>
      </g>
     </g>
    </g>
    <g id="xtick_28">
     <g id="line2d_28">
      <g>
       <use style="stroke:#000000;stroke-width:0.6;" x="332.744243" xlink:href="#m759db6a104" y="178.259776"/>
      </g>
     </g>
    </g>
    <g id="xtick_29">
     <g id="line2d_29">
      <g>
       <use style="stroke:#000000;stroke-width:0.6;" x="339.347172" xlink:href="#m759db6a104" y="178.259776"/>
      </g>
     </g>
    </g>
    <g id="xtick_30">
     <g id="line2d_30">
      <g>
       <use style="stroke:#000000;stroke-width:0.6;" x="345.06689" xlink:href="#m759db6a104" y="178.259776"/>
      </g>
     </g>
    </g>
    <g id="xtick_31">
     <g id="line2d_31">
      <g>
       <use style="stroke:#000000;stroke-width:0.6;" x="350.112038" xlink:href="#m759db6a104" y="178.259776"/>
      </g>
     </g>
    </g>
    <g id="xtick_32">
     <g id="line2d_32">
      <g>
       <use style="stroke:#000000;stroke-width:0.6;" x="384.31552" xlink:href="#m759db6a104" y="178.259776"/>
      </g>
     </g>
    </g>
    <g id="xtick_33">
     <g id="line2d_33">
      <g>
       <use style="stroke:#000000;stroke-width:0.6;" x="401.683315" xlink:href="#m759db6a104" y="178.259776"/>
      </g>
     </g>
    </g>
    <g id="xtick_34">
     <g id="line2d_34">
      <g>
       <use style="stroke:#000000;stroke-width:0.6;" x="414.005962" xlink:href="#m759db6a104" y="178.259776"/>
      </g>
     </g>
    </g>
    <g id="text_5">
     <!-- $\tau$ -->
     <defs>
      <path d="M 28.703125 37.625 
L 45.296875 37.625 
C 46.59375 37.625 49.90625 37.625 49.90625 40.8125 
C 49.90625 43 48 43 46.203125 43 
L 18.703125 43 
C 16.40625 43 13 43 8.40625 38.125 
C 5.796875 35.234375 2.59375 29.953125 2.59375 29.359375 
C 2.59375 28.765625 3.09375 28.5625 3.703125 28.5625 
C 4.40625 28.5625 4.5 28.859375 5 29.453125 
C 10.203125 37.625 15.40625 37.625 17.90625 37.625 
L 26.203125 37.625 
L 15.796875 3.484375 
C 15.296875 1.984375 15.296875 1.78125 15.296875 1.484375 
C 15.296875 0.390625 16 -1 18 -1 
C 21.09375 -1 21.59375 1.6875 21.90625 3.171875 
z
" id="CMMI12-28"/>
     </defs>
     <g transform="translate(229.160581 203.262822)scale(0.1 -0.1)">
      <use transform="scale(0.996264)" xlink:href="#CMMI12-28"/>
     </g>
    </g>
   </g>
   <g id="matplotlib.axis_2">
    <g id="ytick_1">
     <g id="line2d_35">
      <defs>
       <path d="M 0 0 
L -3.5 0 
" id="m6c8d142b95" style="stroke:#000000;stroke-width:0.8;"/>
      </defs>
      <g>
       <use style="stroke:#000000;stroke-width:0.8;" x="41.476366" xlink:href="#m6c8d142b95" y="162.786859"/>
      </g>
     </g>
     <g id="text_6">
      <!-- $0.5$ -->
      <defs>
       <path d="M 18.40625 4.796875 
C 18.40625 7.6875 16 9.671875 13.59375 9.671875 
C 10.703125 9.671875 8.703125 7.28125 8.703125 4.890625 
C 8.703125 2 11.09375 0 13.5 0 
C 16.40625 0 18.40625 2.390625 18.40625 4.796875 
z
" id="CMMI12-58"/>
       <path d="M 11.40625 57.6875 
C 12.40625 57.28125 16.5 56 20.703125 56 
C 30 56 35.09375 61.109375 38 64.0625 
C 38 64.953125 38 65.5 37.40625 65.5 
C 37.296875 65.5 37.09375 65.5 36.296875 65.046875 
C 32.796875 63.40625 28.703125 62.078125 23.703125 62.078125 
C 20.703125 62.078125 16.203125 62.484375 11.296875 64.671875 
C 10.203125 65.171875 10 65.171875 9.90625 65.171875 
C 9.40625 65.171875 9.296875 65.0625 9.296875 63.078125 
L 9.296875 34.421875 
C 9.296875 32.640625 9.296875 32.140625 10.296875 32.140625 
C 10.796875 32.140625 11 32.34375 11.5 33.03125 
C 14.703125 37.515625 19.09375 39.40625 24.09375 39.40625 
C 27.59375 39.40625 35.09375 37.21875 35.09375 20.140625 
C 35.09375 16.953125 35.09375 11.171875 32.09375 6.578125 
C 29.59375 2.484375 25.703125 0.390625 21.40625 0.390625 
C 14.796875 0.390625 8.09375 5 6.296875 12.71875 
C 6.703125 12.609375 7.5 12.421875 7.90625 12.421875 
C 9.203125 12.421875 11.703125 13.125 11.703125 16.21875 
C 11.703125 18.90625 9.796875 20 7.90625 20 
C 5.59375 20 4.09375 18.59375 4.09375 15.796875 
C 4.09375 7.09375 11 -2 21.59375 -2 
C 31.90625 -2 41.703125 6.875 41.703125 19.75 
C 41.703125 31.71875 33.90625 41 24.203125 41 
C 19.09375 41 14.796875 39.109375 11.40625 35.53125 
z
" id="CMR17-53"/>
      </defs>
      <g transform="translate(23.655677 165.55426)scale(0.08 -0.08)">
       <use transform="scale(0.996264)" xlink:href="#CMR17-48"/>
       <use transform="translate(45.690477 0)scale(0.996264)" xlink:href="#CMMI12-58"/>
       <use transform="translate(72.787654 0)scale(0.996264)" xlink:href="#CMR17-53"/>
      </g>
     </g>
    </g>
    <g id="ytick_2">
     <g id="line2d_36">
      <g>
       <use style="stroke:#000000;stroke-width:0.8;" x="41.476366" xlink:href="#m6c8d142b95" y="136.642262"/>
      </g>
     </g>
     <g id="text_7">
      <!-- $0.6$ -->
      <defs>
       <path d="M 10.59375 34 
C 10.59375 57.65625 21.796875 63 28.296875 63 
C 30.40625 63 35.5 62.640625 37.5 59 
C 35.90625 59 32.90625 59 32.90625 55.515625 
C 32.90625 52.828125 35.09375 51.921875 36.5 51.921875 
C 37.40625 51.921875 40.09375 52.3125 40.09375 55.625 
C 40.09375 61.78125 35.09375 65.296875 28.203125 65.296875 
C 16.296875 65.296875 3.796875 52.96875 3.796875 31 
C 3.796875 3.953125 15.09375 -2 23.09375 -2 
C 32.796875 -2 42 6.671875 42 20.046875 
C 42 32.515625 33.90625 41.59375 23.703125 41.59375 
C 17.59375 41.59375 13.09375 37.609375 10.59375 30.625 
z
M 23.09375 0.390625 
C 10.796875 0.390625 10.796875 18.75 10.796875 22.4375 
C 10.796875 29.625 14.203125 40 23.5 40 
C 25.203125 40 30.09375 40 33.40625 33.125 
C 35.203125 29.21875 35.203125 25.140625 35.203125 20.140625 
C 35.203125 14.75 35.203125 10.78125 33.09375 6.78125 
C 30.90625 2.671875 27.703125 0.390625 23.09375 0.390625 
z
" id="CMR17-54"/>
      </defs>
      <g transform="translate(23.655677 139.409662)scale(0.08 -0.08)">
       <use transform="scale(0.996264)" xlink:href="#CMR17-48"/>
       <use transform="translate(45.690477 0)scale(0.996264)" xlink:href="#CMMI12-58"/>
       <use transform="translate(72.787654 0)scale(0.996264)" xlink:href="#CMR17-54"/>
      </g>
     </g>
    </g>
    <g id="ytick_3">
     <g id="line2d_37">
      <g>
       <use style="stroke:#000000;stroke-width:0.8;" x="41.476366" xlink:href="#m6c8d142b95" y="110.497664"/>
      </g>
     </g>
     <g id="text_8">
      <!-- $0.7$ -->
      <defs>
       <path d="M 45.09375 61.578125 
L 45.09375 63.765625 
L 21.59375 63.765625 
C 9.90625 63.765625 9.703125 65.078125 9.296875 67 
L 7.5 67 
L 4.59375 48.34375 
L 6.40625 48.34375 
C 6.703125 50.234375 7.40625 55.3125 8.59375 57.203125 
C 9.203125 58 16.59375 58 18.296875 58 
L 40.296875 58 
L 29.203125 41.578125 
C 21.796875 30.53125 16.703125 15.609375 16.703125 2.578125 
C 16.703125 1.390625 16.703125 -2 20.296875 -2 
C 23.90625 -2 23.90625 1.390625 23.90625 2.671875 
L 23.90625 7.265625 
C 23.90625 23.5625 26.703125 34.3125 31.296875 41.1875 
z
" id="CMR17-55"/>
      </defs>
      <g transform="translate(23.655677 113.265065)scale(0.08 -0.08)">
       <use transform="scale(0.996264)" xlink:href="#CMR17-48"/>
       <use transform="translate(45.690477 0)scale(0.996264)" xlink:href="#CMMI12-58"/>
       <use transform="translate(72.787654 0)scale(0.996264)" xlink:href="#CMR17-55"/>
      </g>
     </g>
    </g>
    <g id="ytick_4">
     <g id="line2d_38">
      <g>
       <use style="stroke:#000000;stroke-width:0.8;" x="41.476366" xlink:href="#m6c8d142b95" y="84.353067"/>
      </g>
     </g>
     <g id="text_9">
      <!-- $0.8$ -->
      <defs>
       <path d="M 27.203125 35.375 
C 33.5 38.546875 39.90625 43.328125 39.90625 50.984375 
C 39.90625 60.015625 31.09375 65.296875 23 65.296875 
C 13.90625 65.296875 5.90625 58.734375 5.90625 49.6875 
C 5.90625 47.203125 6.5 42.921875 10.40625 39.140625 
C 11.40625 38.15625 15.59375 35.171875 18.296875 33.28125 
C 13.796875 30.984375 3.296875 25.53125 3.296875 14.59375 
C 3.296875 4.359375 13.09375 -2 22.796875 -2 
C 33.5 -2 42.5 5.65625 42.5 15.78125 
C 42.5 24.84375 36.40625 29.015625 32.40625 31.703125 
z
M 14.09375 44.09375 
C 13.296875 44.59375 9.296875 47.671875 9.296875 52.359375 
C 9.296875 58.421875 15.59375 63 22.796875 63 
C 30.703125 63 36.5 57.4375 36.5 50.96875 
C 36.5 41.703125 26.09375 36.421875 25.59375 36.421875 
C 25.5 36.421875 25.40625 36.421875 24.59375 37.03125 
z
M 32.5 23.734375 
C 34 22.640625 38.796875 19.375 38.796875 13.296875 
C 38.796875 5.953125 31.40625 0.390625 23 0.390625 
C 13.90625 0.390625 7 6.84375 7 14.6875 
C 7 22.546875 13.09375 29.09375 20 32.1875 
z
" id="CMR17-56"/>
      </defs>
      <g transform="translate(23.655677 87.120468)scale(0.08 -0.08)">
       <use transform="scale(0.996264)" xlink:href="#CMR17-48"/>
       <use transform="translate(45.690477 0)scale(0.996264)" xlink:href="#CMMI12-58"/>
       <use transform="translate(72.787654 0)scale(0.996264)" xlink:href="#CMR17-56"/>
      </g>
     </g>
    </g>
    <g id="ytick_5">
     <g id="line2d_39">
      <g>
       <use style="stroke:#000000;stroke-width:0.8;" x="41.476366" xlink:href="#m6c8d142b95" y="58.20847"/>
      </g>
     </g>
     <g id="text_10">
      <!-- $0.9$ -->
      <defs>
       <path d="M 35.203125 29.125 
C 35.203125 7.25 26.09375 0.484375 18.59375 0.484375 
C 16.296875 0.484375 10.703125 0.484375 8.40625 4.59375 
C 11 4.1875 12.90625 5.578125 12.90625 8.09375 
C 12.90625 10.8125 10.703125 11.703125 9.296875 11.703125 
C 8.40625 11.703125 5.703125 11.296875 5.703125 7.90625 
C 5.703125 1.109375 11.59375 -2 18.796875 -2 
C 30.296875 -2 42 10.53125 42 32.390625 
C 42 59.640625 30.796875 65.296875 23.203125 65.296875 
C 13.296875 65.296875 3.796875 56.6875 3.796875 43.40625 
C 3.796875 31.109375 11.90625 22 22.09375 22 
C 30.5 22 34.203125 29.734375 35.203125 33 
z
M 22.296875 23.59375 
C 19.59375 23.59375 15.796875 24.09375 12.703125 30.03125 
C 10.59375 33.890625 10.59375 38.453125 10.59375 43.296875 
C 10.59375 49.15625 10.59375 53.203125 13.40625 57.5625 
C 14.796875 59.640625 17.40625 63 23.203125 63 
C 35 63 35 45.078125 35 41.125 
C 35 34.09375 31.796875 23.59375 22.296875 23.59375 
z
" id="CMR17-57"/>
      </defs>
      <g transform="translate(23.655677 60.975871)scale(0.08 -0.08)">
       <use transform="scale(0.996264)" xlink:href="#CMR17-48"/>
       <use transform="translate(45.690477 0)scale(0.996264)" xlink:href="#CMMI12-58"/>
       <use transform="translate(72.787654 0)scale(0.996264)" xlink:href="#CMR17-57"/>
      </g>
     </g>
    </g>
    <g id="ytick_6">
     <g id="line2d_40">
      <g>
       <use style="stroke:#000000;stroke-width:0.8;" x="41.476366" xlink:href="#m6c8d142b95" y="32.063873"/>
      </g>
     </g>
     <g id="text_11">
      <!-- $1.0$ -->
      <g transform="translate(23.655677 34.831274)scale(0.08 -0.08)">
       <use transform="scale(0.996264)" xlink:href="#CMR17-49"/>
       <use transform="translate(45.690477 0)scale(0.996264)" xlink:href="#CMMI12-58"/>
       <use transform="translate(72.787654 0)scale(0.996264)" xlink:href="#CMR17-48"/>
      </g>
     </g>
    </g>
    <g id="text_12">
     <!-- $P_x$ -->
     <defs>
      <path d="M 29.59375 31.609375 
L 46.40625 31.609375 
C 60.203125 31.609375 74 41.765625 74 53.140625 
C 74 60.90625 67.40625 68 54.796875 68 
L 23.90625 68 
C 22 68 21.09375 68 21.09375 66.109375 
C 21.09375 65.109375 22 65.109375 23.5 65.109375 
C 29.59375 65.109375 29.59375 64.3125 29.59375 63.21875 
C 29.59375 63.03125 29.59375 62.421875 29.203125 60.921875 
L 15.703125 7.375 
C 14.796875 3.890625 14.59375 2.890625 7.59375 2.890625 
C 5.703125 2.890625 4.703125 2.890625 4.703125 1.09375 
C 4.703125 0 5.59375 0 6.203125 0 
C 8.09375 0 10.09375 0 12 0 
L 23.703125 0 
C 25.59375 0 27.703125 0 29.59375 0 
C 30.40625 0 31.5 0 31.5 1.890625 
C 31.5 2.890625 30.59375 2.890625 29.09375 2.890625 
C 23.09375 2.890625 23 3.59375 23 4.578125 
C 23 5.078125 23.09375 5.765625 23.203125 6.265625 
z
M 36.796875 61.40625 
C 37.703125 65.109375 38.09375 65.109375 42 65.109375 
L 51.90625 65.109375 
C 59.40625 65.109375 65.59375 62.703125 65.59375 55.234375 
C 65.59375 52.640625 64.296875 44.171875 59.703125 39.59375 
C 58 37.796875 53.203125 34 44.09375 34 
L 30 34 
z
" id="CMMI12-80"/>
      <path d="M 47.40625 40.71875 
C 44.203125 40.109375 43 37.71875 43 35.828125 
C 43 33.421875 44.90625 32.625 46.296875 32.625 
C 49.296875 32.625 51.40625 35.21875 51.40625 37.921875 
C 51.40625 42.109375 46.59375 44 42.40625 44 
C 36.296875 44 32.90625 38.015625 32 36.125 
C 29.703125 44 23.5 44 21.703125 44 
C 11.5 44 6.09375 30.9375 6.09375 28.734375 
C 6.09375 28.34375 6.5 27.84375 7.203125 27.84375 
C 8 27.84375 8.203125 28.4375 8.40625 28.84375 
C 11.796875 39.921875 18.5 42.015625 21.40625 42.015625 
C 25.90625 42.015625 26.796875 37.8125 26.796875 35.421875 
C 26.796875 33.234375 26.203125 30.9375 25 26.140625 
L 21.59375 12.46875 
C 20.09375 6.484375 17.203125 1 11.90625 1 
C 11.40625 1 8.90625 1 6.796875 2.296875 
C 10.40625 3 11.203125 5.984375 11.203125 7.1875 
C 11.203125 9.1875 9.703125 10.375 7.796875 10.375 
C 5.40625 10.375 2.796875 8.28125 2.796875 5.09375 
C 2.796875 0.890625 7.5 -1 11.796875 -1 
C 16.59375 -1 20 2.796875 22.09375 6.890625 
C 23.703125 1 28.703125 -1 32.40625 -1 
C 42.59375 -1 48 12.078125 48 14.265625 
C 48 14.765625 47.59375 15.171875 47 15.171875 
C 46.09375 15.171875 46 14.671875 45.703125 13.875 
C 43 5.09375 37.203125 1 32.703125 1 
C 29.203125 1 27.296875 3.59375 27.296875 7.6875 
C 27.296875 9.875 27.703125 11.46875 29.296875 18.0625 
L 32.796875 31.625 
C 34.296875 37.625 37.703125 42.015625 42.296875 42.015625 
C 42.5 42.015625 45.296875 42.015625 47.40625 40.71875 
z
" id="CMMI12-120"/>
     </defs>
     <g transform="translate(17.718498 107.137946)rotate(-90)scale(0.1 -0.1)">
      <use transform="translate(0 14.943915)scale(0.996264)" xlink:href="#CMMI12-80"/>
      <use transform="translate(62.877232 0)scale(0.697382)" xlink:href="#CMMI12-120"/>
     </g>
    </g>
   </g>
   <g id="LineCollection_1">
    <path clip-path="url(#pfe3776943e)" d="M 58.736531 32.068516 
L 58.736531 32.068008 
" style="fill:none;stroke:#800080;stroke-width:1.5;"/>
    <path clip-path="url(#pfe3776943e)" d="M 65.781497 32.072182 
L 65.781497 32.071026 
" style="fill:none;stroke:#800080;stroke-width:1.5;"/>
    <path clip-path="url(#pfe3776943e)" d="M 72.826462 32.079377 
L 72.826462 32.076551 
" style="fill:none;stroke:#800080;stroke-width:1.5;"/>
    <path clip-path="url(#pfe3776943e)" d="M 79.871428 32.094232 
L 79.871428 32.08712 
" style="fill:none;stroke:#800080;stroke-width:1.5;"/>
    <path clip-path="url(#pfe3776943e)" d="M 86.916393 32.126229 
L 86.916393 32.1084 
" style="fill:none;stroke:#800080;stroke-width:1.5;"/>
    <path clip-path="url(#pfe3776943e)" d="M 93.961358 32.196727 
L 93.961358 32.153489 
" style="fill:none;stroke:#800080;stroke-width:1.5;"/>
    <path clip-path="url(#pfe3776943e)" d="M 101.006324 32.350389 
L 101.006324 32.253039 
" style="fill:none;stroke:#800080;stroke-width:1.5;"/>
    <path clip-path="url(#pfe3776943e)" d="M 108.051289 32.381041 
L 108.051289 32.291812 
" style="fill:none;stroke:#800080;stroke-width:1.5;"/>
    <path clip-path="url(#pfe3776943e)" d="M 115.096254 32.487157 
L 115.096254 32.390587 
" style="fill:none;stroke:#800080;stroke-width:1.5;"/>
    <path clip-path="url(#pfe3776943e)" d="M 122.14122 32.680239 
L 122.14122 32.563018 
" style="fill:none;stroke:#800080;stroke-width:1.5;"/>
    <path clip-path="url(#pfe3776943e)" d="M 129.186185 32.996825 
L 129.186185 32.84417 
" style="fill:none;stroke:#800080;stroke-width:1.5;"/>
    <path clip-path="url(#pfe3776943e)" d="M 136.231151 33.337018 
L 136.231151 33.177376 
" style="fill:none;stroke:#800080;stroke-width:1.5;"/>
    <path clip-path="url(#pfe3776943e)" d="M 143.276116 34.11193 
L 143.276116 33.877126 
" style="fill:none;stroke:#800080;stroke-width:1.5;"/>
    <path clip-path="url(#pfe3776943e)" d="M 150.321081 35.106434 
L 150.321081 34.821372 
" style="fill:none;stroke:#800080;stroke-width:1.5;"/>
    <path clip-path="url(#pfe3776943e)" d="M 157.366047 36.919686 
L 157.366047 36.500202 
" style="fill:none;stroke:#800080;stroke-width:1.5;"/>
    <path clip-path="url(#pfe3776943e)" d="M 164.411012 39.781669 
L 164.411012 39.143167 
" style="fill:none;stroke:#800080;stroke-width:1.5;"/>
    <path clip-path="url(#pfe3776943e)" d="M 171.455977 44.182813 
L 171.455977 43.190263 
" style="fill:none;stroke:#800080;stroke-width:1.5;"/>
    <path clip-path="url(#pfe3776943e)" d="M 178.500943 51.184653 
L 178.500943 49.649068 
" style="fill:none;stroke:#800080;stroke-width:1.5;"/>
    <path clip-path="url(#pfe3776943e)" d="M 185.545908 62.001432 
L 185.545908 59.716622 
" style="fill:none;stroke:#800080;stroke-width:1.5;"/>
    <path clip-path="url(#pfe3776943e)" d="M 192.590874 76.960696 
L 192.590874 73.786517 
" style="fill:none;stroke:#800080;stroke-width:1.5;"/>
    <path clip-path="url(#pfe3776943e)" d="M 199.635839 96.60394 
L 199.635839 92.423917 
" style="fill:none;stroke:#800080;stroke-width:1.5;"/>
    <path clip-path="url(#pfe3776943e)" d="M 206.680804 119.637665 
L 206.680804 114.573142 
" style="fill:none;stroke:#800080;stroke-width:1.5;"/>
    <path clip-path="url(#pfe3776943e)" d="M 213.72577 141.950966 
L 213.72577 136.319147 
" style="fill:none;stroke:#800080;stroke-width:1.5;"/>
    <path clip-path="url(#pfe3776943e)" d="M 220.770735 157.73031 
L 220.770735 151.908508 
" style="fill:none;stroke:#800080;stroke-width:1.5;"/>
    <path clip-path="url(#pfe3776943e)" d="M 227.8157 170.082128 
L 227.8157 164.241058 
" style="fill:none;stroke:#800080;stroke-width:1.5;"/>
    <path clip-path="url(#pfe3776943e)" d="M 234.860666 168.570288 
L 234.860666 162.865053 
" style="fill:none;stroke:#800080;stroke-width:1.5;"/>
    <path clip-path="url(#pfe3776943e)" d="M 241.905631 167.930483 
L 241.905631 162.190516 
" style="fill:none;stroke:#800080;stroke-width:1.5;"/>
    <path clip-path="url(#pfe3776943e)" d="M 248.950597 165.869215 
L 248.950597 160.183122 
" style="fill:none;stroke:#800080;stroke-width:1.5;"/>
    <path clip-path="url(#pfe3776943e)" d="M 255.995562 165.762751 
L 255.995562 160.067921 
" style="fill:none;stroke:#800080;stroke-width:1.5;"/>
    <path clip-path="url(#pfe3776943e)" d="M 263.040527 163.344875 
L 263.040527 157.611615 
" style="fill:none;stroke:#800080;stroke-width:1.5;"/>
    <path clip-path="url(#pfe3776943e)" d="M 270.085493 165.905714 
L 270.085493 160.201884 
" style="fill:none;stroke:#800080;stroke-width:1.5;"/>
    <path clip-path="url(#pfe3776943e)" d="M 277.130458 163.66062 
L 277.130458 157.874363 
" style="fill:none;stroke:#800080;stroke-width:1.5;"/>
    <path clip-path="url(#pfe3776943e)" d="M 284.175423 169.310101 
L 284.175423 163.621124 
" style="fill:none;stroke:#800080;stroke-width:1.5;"/>
    <path clip-path="url(#pfe3776943e)" d="M 291.220389 170.392687 
L 291.220389 164.621802 
" style="fill:none;stroke:#800080;stroke-width:1.5;"/>
    <path clip-path="url(#pfe3776943e)" d="M 298.265354 162.636601 
L 298.265354 156.946452 
" style="fill:none;stroke:#800080;stroke-width:1.5;"/>
    <path clip-path="url(#pfe3776943e)" d="M 305.31032 166.113738 
L 305.31032 160.529367 
" style="fill:none;stroke:#800080;stroke-width:1.5;"/>
    <path clip-path="url(#pfe3776943e)" d="M 312.355285 168.443888 
L 312.355285 162.719009 
" style="fill:none;stroke:#800080;stroke-width:1.5;"/>
    <path clip-path="url(#pfe3776943e)" d="M 319.40025 163.200558 
L 319.40025 157.644718 
" style="fill:none;stroke:#800080;stroke-width:1.5;"/>
    <path clip-path="url(#pfe3776943e)" d="M 326.445216 165.832428 
L 326.445216 160.38927 
" style="fill:none;stroke:#800080;stroke-width:1.5;"/>
    <path clip-path="url(#pfe3776943e)" d="M 333.490181 169.347377 
L 333.490181 163.878775 
" style="fill:none;stroke:#800080;stroke-width:1.5;"/>
    <path clip-path="url(#pfe3776943e)" d="M 340.535146 163.020692 
L 340.535146 157.298171 
" style="fill:none;stroke:#800080;stroke-width:1.5;"/>
    <path clip-path="url(#pfe3776943e)" d="M 347.580112 162.282364 
L 347.580112 156.802858 
" style="fill:none;stroke:#800080;stroke-width:1.5;"/>
    <path clip-path="url(#pfe3776943e)" d="M 354.625077 162.818077 
L 354.625077 157.38643 
" style="fill:none;stroke:#800080;stroke-width:1.5;"/>
    <path clip-path="url(#pfe3776943e)" d="M 361.670043 165.927812 
L 361.670043 160.627711 
" style="fill:none;stroke:#800080;stroke-width:1.5;"/>
    <path clip-path="url(#pfe3776943e)" d="M 368.715008 168.331761 
L 368.715008 163.043358 
" style="fill:none;stroke:#800080;stroke-width:1.5;"/>
    <path clip-path="url(#pfe3776943e)" d="M 375.759973 167.054446 
L 375.759973 161.703771 
" style="fill:none;stroke:#800080;stroke-width:1.5;"/>
    <path clip-path="url(#pfe3776943e)" d="M 382.804939 159.954316 
L 382.804939 154.805414 
" style="fill:none;stroke:#800080;stroke-width:1.5;"/>
    <path clip-path="url(#pfe3776943e)" d="M 389.849904 160.949155 
L 389.849904 155.79878 
" style="fill:none;stroke:#800080;stroke-width:1.5;"/>
    <path clip-path="url(#pfe3776943e)" d="M 396.894869 168.686754 
L 396.894869 163.708687 
" style="fill:none;stroke:#800080;stroke-width:1.5;"/>
    <path clip-path="url(#pfe3776943e)" d="M 403.939835 160.373238 
L 403.939835 155.53581 
" style="fill:none;stroke:#800080;stroke-width:1.5;"/>
   </g>
   <g id="LineCollection_2">
    <path clip-path="url(#pfe3776943e)" d="M 58.736531 32.064904 
L 58.736531 32.064814 
" style="fill:none;stroke:#ffa500;stroke-width:1.5;"/>
    <path clip-path="url(#pfe3776943e)" d="M 65.781497 32.065581 
L 65.781497 32.065431 
" style="fill:none;stroke:#ffa500;stroke-width:1.5;"/>
    <path clip-path="url(#pfe3776943e)" d="M 72.826462 32.066721 
L 72.826462 32.066467 
" style="fill:none;stroke:#ffa500;stroke-width:1.5;"/>
    <path clip-path="url(#pfe3776943e)" d="M 79.871428 32.068682 
L 79.871428 32.068226 
" style="fill:none;stroke:#ffa500;stroke-width:1.5;"/>
    <path clip-path="url(#pfe3776943e)" d="M 86.916393 32.072155 
L 86.916393 32.07126 
" style="fill:none;stroke:#ffa500;stroke-width:1.5;"/>
    <path clip-path="url(#pfe3776943e)" d="M 93.961358 32.078562 
L 93.961358 32.076602 
" style="fill:none;stroke:#ffa500;stroke-width:1.5;"/>
    <path clip-path="url(#pfe3776943e)" d="M 101.006324 32.090974 
L 101.006324 32.086297 
" style="fill:none;stroke:#ffa500;stroke-width:1.5;"/>
    <path clip-path="url(#pfe3776943e)" d="M 108.051289 32.116233 
L 108.051289 32.104634 
" style="fill:none;stroke:#ffa500;stroke-width:1.5;"/>
    <path clip-path="url(#pfe3776943e)" d="M 115.096254 32.169722 
L 115.096254 32.141071 
" style="fill:none;stroke:#ffa500;stroke-width:1.5;"/>
    <path clip-path="url(#pfe3776943e)" d="M 122.14122 32.28473 
L 122.14122 32.217186 
" style="fill:none;stroke:#ffa500;stroke-width:1.5;"/>
    <path clip-path="url(#pfe3776943e)" d="M 129.186185 32.525633 
L 129.186185 32.382553 
" style="fill:none;stroke:#ffa500;stroke-width:1.5;"/>
    <path clip-path="url(#pfe3776943e)" d="M 136.231151 32.59151 
L 136.231151 32.457878 
" style="fill:none;stroke:#ffa500;stroke-width:1.5;"/>
    <path clip-path="url(#pfe3776943e)" d="M 143.276116 33.095686 
L 143.276116 32.85395 
" style="fill:none;stroke:#ffa500;stroke-width:1.5;"/>
    <path clip-path="url(#pfe3776943e)" d="M 150.321081 33.087443 
L 150.321081 32.914682 
" style="fill:none;stroke:#ffa500;stroke-width:1.5;"/>
    <path clip-path="url(#pfe3776943e)" d="M 157.366047 33.598967 
L 157.366047 33.381392 
" style="fill:none;stroke:#ffa500;stroke-width:1.5;"/>
    <path clip-path="url(#pfe3776943e)" d="M 164.411012 34.436967 
L 164.411012 34.150904 
" style="fill:none;stroke:#ffa500;stroke-width:1.5;"/>
    <path clip-path="url(#pfe3776943e)" d="M 171.455977 35.51073 
L 171.455977 35.174855 
" style="fill:none;stroke:#ffa500;stroke-width:1.5;"/>
    <path clip-path="url(#pfe3776943e)" d="M 178.500943 37.40869 
L 178.500943 36.949632 
" style="fill:none;stroke:#ffa500;stroke-width:1.5;"/>
    <path clip-path="url(#pfe3776943e)" d="M 185.545908 40.290693 
L 185.545908 39.637326 
" style="fill:none;stroke:#ffa500;stroke-width:1.5;"/>
    <path clip-path="url(#pfe3776943e)" d="M 192.590874 45.255726 
L 192.590874 44.241532 
" style="fill:none;stroke:#ffa500;stroke-width:1.5;"/>
    <path clip-path="url(#pfe3776943e)" d="M 199.635839 53.714917 
L 199.635839 52.092358 
" style="fill:none;stroke:#ffa500;stroke-width:1.5;"/>
    <path clip-path="url(#pfe3776943e)" d="M 206.680804 64.989821 
L 206.680804 62.57879 
" style="fill:none;stroke:#ffa500;stroke-width:1.5;"/>
    <path clip-path="url(#pfe3776943e)" d="M 213.72577 79.067493 
L 213.72577 75.721472 
" style="fill:none;stroke:#ffa500;stroke-width:1.5;"/>
    <path clip-path="url(#pfe3776943e)" d="M 220.770735 98.869304 
L 220.770735 94.545917 
" style="fill:none;stroke:#ffa500;stroke-width:1.5;"/>
    <path clip-path="url(#pfe3776943e)" d="M 227.8157 125.546563 
L 227.8157 120.270633 
" style="fill:none;stroke:#ffa500;stroke-width:1.5;"/>
    <path clip-path="url(#pfe3776943e)" d="M 234.860666 146.278813 
L 234.860666 140.584281 
" style="fill:none;stroke:#ffa500;stroke-width:1.5;"/>
    <path clip-path="url(#pfe3776943e)" d="M 241.905631 159.586264 
L 241.905631 153.867943 
" style="fill:none;stroke:#ffa500;stroke-width:1.5;"/>
    <path clip-path="url(#pfe3776943e)" d="M 248.950597 169.15929 
L 248.950597 163.475417 
" style="fill:none;stroke:#ffa500;stroke-width:1.5;"/>
    <path clip-path="url(#pfe3776943e)" d="M 255.995562 165.612781 
L 255.995562 159.852943 
" style="fill:none;stroke:#ffa500;stroke-width:1.5;"/>
    <path clip-path="url(#pfe3776943e)" d="M 263.040527 166.537999 
L 263.040527 160.729013 
" style="fill:none;stroke:#ffa500;stroke-width:1.5;"/>
    <path clip-path="url(#pfe3776943e)" d="M 270.085493 168.789534 
L 270.085493 163.072398 
" style="fill:none;stroke:#ffa500;stroke-width:1.5;"/>
    <path clip-path="url(#pfe3776943e)" d="M 277.130458 165.60393 
L 277.130458 159.937391 
" style="fill:none;stroke:#ffa500;stroke-width:1.5;"/>
    <path clip-path="url(#pfe3776943e)" d="M 284.175423 166.821992 
L 284.175423 161.178764 
" style="fill:none;stroke:#ffa500;stroke-width:1.5;"/>
    <path clip-path="url(#pfe3776943e)" d="M 291.220389 164.069139 
L 291.220389 158.369037 
" style="fill:none;stroke:#ffa500;stroke-width:1.5;"/>
    <path clip-path="url(#pfe3776943e)" d="M 298.265354 168.268635 
L 298.265354 162.598603 
" style="fill:none;stroke:#ffa500;stroke-width:1.5;"/>
    <path clip-path="url(#pfe3776943e)" d="M 305.31032 167.372177 
L 305.31032 161.729902 
" style="fill:none;stroke:#ffa500;stroke-width:1.5;"/>
    <path clip-path="url(#pfe3776943e)" d="M 312.355285 165.526492 
L 312.355285 159.977589 
" style="fill:none;stroke:#ffa500;stroke-width:1.5;"/>
    <path clip-path="url(#pfe3776943e)" d="M 319.40025 162.285098 
L 319.40025 156.706383 
" style="fill:none;stroke:#ffa500;stroke-width:1.5;"/>
    <path clip-path="url(#pfe3776943e)" d="M 326.445216 167.679236 
L 326.445216 161.986272 
" style="fill:none;stroke:#ffa500;stroke-width:1.5;"/>
    <path clip-path="url(#pfe3776943e)" d="M 333.490181 164.077677 
L 333.490181 158.537467 
" style="fill:none;stroke:#ffa500;stroke-width:1.5;"/>
    <path clip-path="url(#pfe3776943e)" d="M 340.535146 161.576272 
L 340.535146 156.08598 
" style="fill:none;stroke:#ffa500;stroke-width:1.5;"/>
    <path clip-path="url(#pfe3776943e)" d="M 347.580112 156.248066 
L 347.580112 150.793742 
" style="fill:none;stroke:#ffa500;stroke-width:1.5;"/>
    <path clip-path="url(#pfe3776943e)" d="M 354.625077 167.132809 
L 354.625077 161.757687 
" style="fill:none;stroke:#ffa500;stroke-width:1.5;"/>
    <path clip-path="url(#pfe3776943e)" d="M 361.670043 169.565532 
L 361.670043 164.158785 
" style="fill:none;stroke:#ffa500;stroke-width:1.5;"/>
    <path clip-path="url(#pfe3776943e)" d="M 368.715008 165.086361 
L 368.715008 159.735525 
" style="fill:none;stroke:#ffa500;stroke-width:1.5;"/>
    <path clip-path="url(#pfe3776943e)" d="M 375.759973 163.175062 
L 375.759973 157.869742 
" style="fill:none;stroke:#ffa500;stroke-width:1.5;"/>
    <path clip-path="url(#pfe3776943e)" d="M 382.804939 163.044758 
L 382.804939 157.814484 
" style="fill:none;stroke:#ffa500;stroke-width:1.5;"/>
    <path clip-path="url(#pfe3776943e)" d="M 389.849904 168.492896 
L 389.849904 163.534252 
" style="fill:none;stroke:#ffa500;stroke-width:1.5;"/>
    <path clip-path="url(#pfe3776943e)" d="M 396.894869 168.108619 
L 396.894869 163.177339 
" style="fill:none;stroke:#ffa500;stroke-width:1.5;"/>
    <path clip-path="url(#pfe3776943e)" d="M 403.939835 166.2728 
L 403.939835 161.4348 
" style="fill:none;stroke:#ffa500;stroke-width:1.5;"/>
   </g>
   <g id="LineCollection_3">
    <path clip-path="url(#pfe3776943e)" d="M 58.736531 32.064132 
L 58.736531 32.064108 
" style="fill:none;stroke:#008000;stroke-width:1.5;"/>
    <path clip-path="url(#pfe3776943e)" d="M 65.781497 32.064298 
L 65.781497 32.064259 
" style="fill:none;stroke:#008000;stroke-width:1.5;"/>
    <path clip-path="url(#pfe3776943e)" d="M 72.826462 32.06457 
L 72.826462 32.064507 
" style="fill:none;stroke:#008000;stroke-width:1.5;"/>
    <path clip-path="url(#pfe3776943e)" d="M 79.871428 32.065019 
L 79.871428 32.064915 
" style="fill:none;stroke:#008000;stroke-width:1.5;"/>
    <path clip-path="url(#pfe3776943e)" d="M 86.916393 32.065761 
L 86.916393 32.065591 
" style="fill:none;stroke:#008000;stroke-width:1.5;"/>
    <path clip-path="url(#pfe3776943e)" d="M 93.961358 32.066995 
L 93.961358 32.066713 
" style="fill:none;stroke:#008000;stroke-width:1.5;"/>
    <path clip-path="url(#pfe3776943e)" d="M 101.006324 32.069069 
L 101.006324 32.068594 
" style="fill:none;stroke:#008000;stroke-width:1.5;"/>
    <path clip-path="url(#pfe3776943e)" d="M 108.051289 32.072615 
L 108.051289 32.071779 
" style="fill:none;stroke:#008000;stroke-width:1.5;"/>
    <path clip-path="url(#pfe3776943e)" d="M 115.096254 32.078843 
L 115.096254 32.077249 
" style="fill:none;stroke:#008000;stroke-width:1.5;"/>
    <path clip-path="url(#pfe3776943e)" d="M 122.14122 32.090207 
L 122.14122 32.086826 
" style="fill:none;stroke:#008000;stroke-width:1.5;"/>
    <path clip-path="url(#pfe3776943e)" d="M 129.186185 32.111927 
L 129.186185 32.104059 
" style="fill:none;stroke:#008000;stroke-width:1.5;"/>
    <path clip-path="url(#pfe3776943e)" d="M 136.231151 32.155439 
L 136.231151 32.136276 
" style="fill:none;stroke:#008000;stroke-width:1.5;"/>
    <path clip-path="url(#pfe3776943e)" d="M 143.276116 32.245667 
L 143.276116 32.1994 
" style="fill:none;stroke:#008000;stroke-width:1.5;"/>
    <path clip-path="url(#pfe3776943e)" d="M 150.321081 32.433293 
L 150.321081 32.329128 
" style="fill:none;stroke:#008000;stroke-width:1.5;"/>
    <path clip-path="url(#pfe3776943e)" d="M 157.366047 32.806833 
L 157.366047 32.605108 
" style="fill:none;stroke:#008000;stroke-width:1.5;"/>
    <path clip-path="url(#pfe3776943e)" d="M 164.411012 33.51833 
L 164.411012 33.192545 
" style="fill:none;stroke:#008000;stroke-width:1.5;"/>
    <path clip-path="url(#pfe3776943e)" d="M 171.455977 33.729185 
L 171.455977 33.414698 
" style="fill:none;stroke:#008000;stroke-width:1.5;"/>
    <path clip-path="url(#pfe3776943e)" d="M 178.500943 34.19084 
L 178.500943 33.858169 
" style="fill:none;stroke:#008000;stroke-width:1.5;"/>
    <path clip-path="url(#pfe3776943e)" d="M 185.545908 34.71839 
L 185.545908 34.404441 
" style="fill:none;stroke:#008000;stroke-width:1.5;"/>
    <path clip-path="url(#pfe3776943e)" d="M 192.590874 36.030448 
L 192.590874 35.63268 
" style="fill:none;stroke:#008000;stroke-width:1.5;"/>
    <path clip-path="url(#pfe3776943e)" d="M 199.635839 38.318728 
L 199.635839 37.785198 
" style="fill:none;stroke:#008000;stroke-width:1.5;"/>
    <path clip-path="url(#pfe3776943e)" d="M 206.680804 42.289913 
L 206.680804 41.488732 
" style="fill:none;stroke:#008000;stroke-width:1.5;"/>
    <path clip-path="url(#pfe3776943e)" d="M 213.72577 46.617782 
L 213.72577 45.457808 
" style="fill:none;stroke:#008000;stroke-width:1.5;"/>
    <path clip-path="url(#pfe3776943e)" d="M 220.770735 55.801241 
L 220.770735 54.040476 
" style="fill:none;stroke:#008000;stroke-width:1.5;"/>
    <path clip-path="url(#pfe3776943e)" d="M 227.8157 68.617964 
L 227.8157 65.971139 
" style="fill:none;stroke:#008000;stroke-width:1.5;"/>
    <path clip-path="url(#pfe3776943e)" d="M 234.860666 83.879138 
L 234.860666 80.479095 
" style="fill:none;stroke:#008000;stroke-width:1.5;"/>
    <path clip-path="url(#pfe3776943e)" d="M 241.905631 103.972773 
L 241.905631 99.459784 
" style="fill:none;stroke:#008000;stroke-width:1.5;"/>
    <path clip-path="url(#pfe3776943e)" d="M 248.950597 126.832912 
L 248.950597 121.502912 
" style="fill:none;stroke:#008000;stroke-width:1.5;"/>
    <path clip-path="url(#pfe3776943e)" d="M 255.995562 151.093259 
L 255.995562 145.304556 
" style="fill:none;stroke:#008000;stroke-width:1.5;"/>
    <path clip-path="url(#pfe3776943e)" d="M 263.040527 162.026087 
L 263.040527 156.154522 
" style="fill:none;stroke:#008000;stroke-width:1.5;"/>
    <path clip-path="url(#pfe3776943e)" d="M 270.085493 163.266298 
L 270.085493 157.593034 
" style="fill:none;stroke:#008000;stroke-width:1.5;"/>
    <path clip-path="url(#pfe3776943e)" d="M 277.130458 170.39323 
L 277.130458 164.609789 
" style="fill:none;stroke:#008000;stroke-width:1.5;"/>
    <path clip-path="url(#pfe3776943e)" d="M 284.175423 168.945597 
L 284.175423 163.333216 
" style="fill:none;stroke:#008000;stroke-width:1.5;"/>
    <path clip-path="url(#pfe3776943e)" d="M 291.220389 169.408812 
L 291.220389 163.712176 
" style="fill:none;stroke:#008000;stroke-width:1.5;"/>
    <path clip-path="url(#pfe3776943e)" d="M 298.265354 164.607782 
L 298.265354 158.864333 
" style="fill:none;stroke:#008000;stroke-width:1.5;"/>
    <path clip-path="url(#pfe3776943e)" d="M 305.31032 166.440525 
L 305.31032 160.720649 
" style="fill:none;stroke:#008000;stroke-width:1.5;"/>
    <path clip-path="url(#pfe3776943e)" d="M 312.355285 166.00602 
L 312.355285 160.385283 
" style="fill:none;stroke:#008000;stroke-width:1.5;"/>
    <path clip-path="url(#pfe3776943e)" d="M 319.40025 163.935978 
L 319.40025 158.333829 
" style="fill:none;stroke:#008000;stroke-width:1.5;"/>
    <path clip-path="url(#pfe3776943e)" d="M 326.445216 169.263888 
L 326.445216 163.706946 
" style="fill:none;stroke:#008000;stroke-width:1.5;"/>
    <path clip-path="url(#pfe3776943e)" d="M 333.490181 164.924066 
L 333.490181 159.268492 
" style="fill:none;stroke:#008000;stroke-width:1.5;"/>
    <path clip-path="url(#pfe3776943e)" d="M 340.535146 165.115708 
L 340.535146 159.662144 
" style="fill:none;stroke:#008000;stroke-width:1.5;"/>
    <path clip-path="url(#pfe3776943e)" d="M 347.580112 162.97684 
L 347.580112 157.544107 
" style="fill:none;stroke:#008000;stroke-width:1.5;"/>
    <path clip-path="url(#pfe3776943e)" d="M 354.625077 164.797959 
L 354.625077 159.361021 
" style="fill:none;stroke:#008000;stroke-width:1.5;"/>
    <path clip-path="url(#pfe3776943e)" d="M 361.670043 162.444469 
L 361.670043 157.10507 
" style="fill:none;stroke:#008000;stroke-width:1.5;"/>
    <path clip-path="url(#pfe3776943e)" d="M 368.715008 168.468772 
L 368.715008 163.147491 
" style="fill:none;stroke:#008000;stroke-width:1.5;"/>
    <path clip-path="url(#pfe3776943e)" d="M 375.759973 162.057787 
L 375.759973 156.784231 
" style="fill:none;stroke:#008000;stroke-width:1.5;"/>
    <path clip-path="url(#pfe3776943e)" d="M 382.804939 163.74974 
L 382.804939 158.629373 
" style="fill:none;stroke:#008000;stroke-width:1.5;"/>
    <path clip-path="url(#pfe3776943e)" d="M 389.849904 164.256087 
L 389.849904 159.300418 
" style="fill:none;stroke:#008000;stroke-width:1.5;"/>
    <path clip-path="url(#pfe3776943e)" d="M 396.894869 158.216548 
L 396.894869 153.261444 
" style="fill:none;stroke:#008000;stroke-width:1.5;"/>
    <path clip-path="url(#pfe3776943e)" d="M 403.939835 171.298067 
L 403.939835 166.433419 
" style="fill:none;stroke:#008000;stroke-width:1.5;"/>
   </g>
   <g id="LineCollection_4">
    <path clip-path="url(#pfe3776943e)" d="M 58.736531 32.06394 
L 58.736531 32.063934 
" style="fill:none;stroke:#0000ff;stroke-width:1.5;"/>
    <path clip-path="url(#pfe3776943e)" d="M 65.781497 32.063983 
L 65.781497 32.063973 
" style="fill:none;stroke:#0000ff;stroke-width:1.5;"/>
    <path clip-path="url(#pfe3776943e)" d="M 72.826462 32.064052 
L 72.826462 32.064037 
" style="fill:none;stroke:#0000ff;stroke-width:1.5;"/>
    <path clip-path="url(#pfe3776943e)" d="M 79.871428 32.064167 
L 79.871428 32.064142 
" style="fill:none;stroke:#0000ff;stroke-width:1.5;"/>
    <path clip-path="url(#pfe3776943e)" d="M 86.916393 32.064355 
L 86.916393 32.064313 
" style="fill:none;stroke:#0000ff;stroke-width:1.5;"/>
    <path clip-path="url(#pfe3776943e)" d="M 93.961358 32.064663 
L 93.961358 32.064595 
" style="fill:none;stroke:#0000ff;stroke-width:1.5;"/>
    <path clip-path="url(#pfe3776943e)" d="M 101.006324 32.065169 
L 101.006324 32.065057 
" style="fill:none;stroke:#0000ff;stroke-width:1.5;"/>
    <path clip-path="url(#pfe3776943e)" d="M 108.051289 32.066002 
L 108.051289 32.065819 
" style="fill:none;stroke:#0000ff;stroke-width:1.5;"/>
    <path clip-path="url(#pfe3776943e)" d="M 115.096254 32.067379 
L 115.096254 32.067077 
" style="fill:none;stroke:#0000ff;stroke-width:1.5;"/>
    <path clip-path="url(#pfe3776943e)" d="M 122.14122 32.069665 
L 122.14122 32.069165 
" style="fill:none;stroke:#0000ff;stroke-width:1.5;"/>
    <path clip-path="url(#pfe3776943e)" d="M 129.186185 32.073495 
L 129.186185 32.072653 
" style="fill:none;stroke:#0000ff;stroke-width:1.5;"/>
    <path clip-path="url(#pfe3776943e)" d="M 136.231151 32.080013 
L 136.231151 32.078537 
" style="fill:none;stroke:#0000ff;stroke-width:1.5;"/>
    <path clip-path="url(#pfe3776943e)" d="M 143.276116 32.091374 
L 143.276116 32.088591 
" style="fill:none;stroke:#0000ff;stroke-width:1.5;"/>
    <path clip-path="url(#pfe3776943e)" d="M 150.321081 32.111885 
L 150.321081 32.106066 
" style="fill:none;stroke:#0000ff;stroke-width:1.5;"/>
    <path clip-path="url(#pfe3776943e)" d="M 157.366047 32.150541 
L 157.366047 32.137199 
" style="fill:none;stroke:#0000ff;stroke-width:1.5;"/>
    <path clip-path="url(#pfe3776943e)" d="M 164.411012 32.226534 
L 164.411012 32.194646 
" style="fill:none;stroke:#0000ff;stroke-width:1.5;"/>
    <path clip-path="url(#pfe3776943e)" d="M 171.455977 32.379686 
L 171.455977 32.305372 
" style="fill:none;stroke:#0000ff;stroke-width:1.5;"/>
    <path clip-path="url(#pfe3776943e)" d="M 178.500943 32.683527 
L 178.500943 32.528389 
" style="fill:none;stroke:#0000ff;stroke-width:1.5;"/>
    <path clip-path="url(#pfe3776943e)" d="M 185.545908 33.256005 
L 185.545908 32.989871 
" style="fill:none;stroke:#0000ff;stroke-width:1.5;"/>
    <path clip-path="url(#pfe3776943e)" d="M 192.590874 34.345423 
L 192.590874 33.93384 
" style="fill:none;stroke:#0000ff;stroke-width:1.5;"/>
    <path clip-path="url(#pfe3776943e)" d="M 199.635839 34.684162 
L 199.635839 34.285898 
" style="fill:none;stroke:#0000ff;stroke-width:1.5;"/>
    <path clip-path="url(#pfe3776943e)" d="M 206.680804 35.545728 
L 206.680804 35.111202 
" style="fill:none;stroke:#0000ff;stroke-width:1.5;"/>
    <path clip-path="url(#pfe3776943e)" d="M 213.72577 37.25057 
L 213.72577 36.710063 
" style="fill:none;stroke:#0000ff;stroke-width:1.5;"/>
    <path clip-path="url(#pfe3776943e)" d="M 220.770735 39.082732 
L 220.770735 38.46651 
" style="fill:none;stroke:#0000ff;stroke-width:1.5;"/>
    <path clip-path="url(#pfe3776943e)" d="M 227.8157 43.121278 
L 227.8157 42.212886 
" style="fill:none;stroke:#0000ff;stroke-width:1.5;"/>
    <path clip-path="url(#pfe3776943e)" d="M 234.860666 49.015178 
L 234.860666 47.730119 
" style="fill:none;stroke:#0000ff;stroke-width:1.5;"/>
    <path clip-path="url(#pfe3776943e)" d="M 241.905631 59.047123 
L 241.905631 57.072996 
" style="fill:none;stroke:#0000ff;stroke-width:1.5;"/>
    <path clip-path="url(#pfe3776943e)" d="M 248.950597 70.886469 
L 248.950597 68.196349 
" style="fill:none;stroke:#0000ff;stroke-width:1.5;"/>
    <path clip-path="url(#pfe3776943e)" d="M 255.995562 90.986561 
L 255.995562 87.199291 
" style="fill:none;stroke:#0000ff;stroke-width:1.5;"/>
    <path clip-path="url(#pfe3776943e)" d="M 263.040527 108.829066 
L 263.040527 104.189514 
" style="fill:none;stroke:#0000ff;stroke-width:1.5;"/>
    <path clip-path="url(#pfe3776943e)" d="M 270.085493 135.255781 
L 270.085493 129.936501 
" style="fill:none;stroke:#0000ff;stroke-width:1.5;"/>
    <path clip-path="url(#pfe3776943e)" d="M 277.130458 149.976228 
L 277.130458 144.383202 
" style="fill:none;stroke:#0000ff;stroke-width:1.5;"/>
    <path clip-path="url(#pfe3776943e)" d="M 284.175423 161.569312 
L 284.175423 155.931564 
" style="fill:none;stroke:#0000ff;stroke-width:1.5;"/>
    <path clip-path="url(#pfe3776943e)" d="M 291.220389 165.211531 
L 291.220389 159.482856 
" style="fill:none;stroke:#0000ff;stroke-width:1.5;"/>
    <path clip-path="url(#pfe3776943e)" d="M 298.265354 164.275354 
L 298.265354 158.630754 
" style="fill:none;stroke:#0000ff;stroke-width:1.5;"/>
    <path clip-path="url(#pfe3776943e)" d="M 305.31032 166.122393 
L 305.31032 160.474802 
" style="fill:none;stroke:#0000ff;stroke-width:1.5;"/>
    <path clip-path="url(#pfe3776943e)" d="M 312.355285 164.078674 
L 312.355285 158.47801 
" style="fill:none;stroke:#0000ff;stroke-width:1.5;"/>
    <path clip-path="url(#pfe3776943e)" d="M 319.40025 161.377076 
L 319.40025 155.769896 
" style="fill:none;stroke:#0000ff;stroke-width:1.5;"/>
    <path clip-path="url(#pfe3776943e)" d="M 326.445216 162.766471 
L 326.445216 157.215792 
" style="fill:none;stroke:#0000ff;stroke-width:1.5;"/>
    <path clip-path="url(#pfe3776943e)" d="M 333.490181 160.353679 
L 333.490181 154.845115 
" style="fill:none;stroke:#0000ff;stroke-width:1.5;"/>
    <path clip-path="url(#pfe3776943e)" d="M 340.535146 165.714836 
L 340.535146 160.201953 
" style="fill:none;stroke:#0000ff;stroke-width:1.5;"/>
    <path clip-path="url(#pfe3776943e)" d="M 347.580112 163.953062 
L 347.580112 158.449142 
" style="fill:none;stroke:#0000ff;stroke-width:1.5;"/>
    <path clip-path="url(#pfe3776943e)" d="M 354.625077 163.724436 
L 354.625077 158.292223 
" style="fill:none;stroke:#0000ff;stroke-width:1.5;"/>
    <path clip-path="url(#pfe3776943e)" d="M 361.670043 160.754023 
L 361.670043 155.393914 
" style="fill:none;stroke:#0000ff;stroke-width:1.5;"/>
    <path clip-path="url(#pfe3776943e)" d="M 368.715008 164.157683 
L 368.715008 158.966851 
" style="fill:none;stroke:#0000ff;stroke-width:1.5;"/>
    <path clip-path="url(#pfe3776943e)" d="M 375.759973 167.932649 
L 375.759973 162.703037 
" style="fill:none;stroke:#0000ff;stroke-width:1.5;"/>
    <path clip-path="url(#pfe3776943e)" d="M 382.804939 162.94686 
L 382.804939 157.817346 
" style="fill:none;stroke:#0000ff;stroke-width:1.5;"/>
    <path clip-path="url(#pfe3776943e)" d="M 389.849904 162.787538 
L 389.849904 157.785257 
" style="fill:none;stroke:#0000ff;stroke-width:1.5;"/>
    <path clip-path="url(#pfe3776943e)" d="M 396.894869 161.894319 
L 396.894869 156.902528 
" style="fill:none;stroke:#0000ff;stroke-width:1.5;"/>
    <path clip-path="url(#pfe3776943e)" d="M 403.939835 164.750716 
L 403.939835 159.915191 
" style="fill:none;stroke:#0000ff;stroke-width:1.5;"/>
   </g>
   <g id="LineCollection_5">
    <path clip-path="url(#pfe3776943e)" d="M 58.736531 32.06389 
L 58.736531 32.063889 
" style="fill:none;stroke:#ff0000;stroke-width:1.5;"/>
    <path clip-path="url(#pfe3776943e)" d="M 65.781497 32.063901 
L 65.781497 32.063899 
" style="fill:none;stroke:#ff0000;stroke-width:1.5;"/>
    <path clip-path="url(#pfe3776943e)" d="M 72.826462 32.063919 
L 72.826462 32.063915 
" style="fill:none;stroke:#ff0000;stroke-width:1.5;"/>
    <path clip-path="url(#pfe3776943e)" d="M 79.871428 32.063949 
L 79.871428 32.063942 
" style="fill:none;stroke:#ff0000;stroke-width:1.5;"/>
    <path clip-path="url(#pfe3776943e)" d="M 86.916393 32.063997 
L 86.916393 32.063986 
" style="fill:none;stroke:#ff0000;stroke-width:1.5;"/>
    <path clip-path="url(#pfe3776943e)" d="M 93.961358 32.064076 
L 93.961358 32.064058 
" style="fill:none;stroke:#ff0000;stroke-width:1.5;"/>
    <path clip-path="url(#pfe3776943e)" d="M 101.006324 32.064205 
L 101.006324 32.064176 
" style="fill:none;stroke:#ff0000;stroke-width:1.5;"/>
    <path clip-path="url(#pfe3776943e)" d="M 108.051289 32.064417 
L 108.051289 32.064369 
" style="fill:none;stroke:#ff0000;stroke-width:1.5;"/>
    <path clip-path="url(#pfe3776943e)" d="M 115.096254 32.064765 
L 115.096254 32.064686 
" style="fill:none;stroke:#ff0000;stroke-width:1.5;"/>
    <path clip-path="url(#pfe3776943e)" d="M 122.14122 32.065335 
L 122.14122 32.065206 
" style="fill:none;stroke:#ff0000;stroke-width:1.5;"/>
    <path clip-path="url(#pfe3776943e)" d="M 129.186185 32.066272 
L 129.186185 32.066061 
" style="fill:none;stroke:#ff0000;stroke-width:1.5;"/>
    <path clip-path="url(#pfe3776943e)" d="M 136.231151 32.067813 
L 136.231151 32.067467 
" style="fill:none;stroke:#ff0000;stroke-width:1.5;"/>
    <path clip-path="url(#pfe3776943e)" d="M 143.276116 32.070355 
L 143.276116 32.069787 
" style="fill:none;stroke:#ff0000;stroke-width:1.5;"/>
    <path clip-path="url(#pfe3776943e)" d="M 150.321081 32.074568 
L 150.321081 32.073632 
" style="fill:none;stroke:#ff0000;stroke-width:1.5;"/>
    <path clip-path="url(#pfe3776943e)" d="M 157.366047 32.081606 
L 157.366047 32.080045 
" style="fill:none;stroke:#ff0000;stroke-width:1.5;"/>
    <path clip-path="url(#pfe3776943e)" d="M 164.411012 32.093519 
L 164.411012 32.09084 
" style="fill:none;stroke:#ff0000;stroke-width:1.5;"/>
    <path clip-path="url(#pfe3776943e)" d="M 171.455977 32.114116 
L 171.455977 32.10923 
" style="fill:none;stroke:#ff0000;stroke-width:1.5;"/>
    <path clip-path="url(#pfe3776943e)" d="M 178.500943 32.150871 
L 178.500943 32.141058 
" style="fill:none;stroke:#ff0000;stroke-width:1.5;"/>
    <path clip-path="url(#pfe3776943e)" d="M 185.545908 32.219093 
L 185.545908 32.197378 
" style="fill:none;stroke:#ff0000;stroke-width:1.5;"/>
    <path clip-path="url(#pfe3776943e)" d="M 192.590874 32.350474 
L 192.590874 32.300237 
" style="fill:none;stroke:#ff0000;stroke-width:1.5;"/>
    <path clip-path="url(#pfe3776943e)" d="M 199.635839 32.607124 
L 199.635839 32.495685 
" style="fill:none;stroke:#ff0000;stroke-width:1.5;"/>
    <path clip-path="url(#pfe3776943e)" d="M 206.680804 33.094524 
L 206.680804 32.881222 
" style="fill:none;stroke:#ff0000;stroke-width:1.5;"/>
    <path clip-path="url(#pfe3776943e)" d="M 213.72577 33.992576 
L 213.72577 33.652293 
" style="fill:none;stroke:#ff0000;stroke-width:1.5;"/>
    <path clip-path="url(#pfe3776943e)" d="M 220.770735 35.713547 
L 220.770735 35.160508 
" style="fill:none;stroke:#ff0000;stroke-width:1.5;"/>
    <path clip-path="url(#pfe3776943e)" d="M 227.8157 36.366806 
L 227.8157 35.826628 
" style="fill:none;stroke:#ff0000;stroke-width:1.5;"/>
    <path clip-path="url(#pfe3776943e)" d="M 234.860666 38.107818 
L 234.860666 37.495709 
" style="fill:none;stroke:#ff0000;stroke-width:1.5;"/>
    <path clip-path="url(#pfe3776943e)" d="M 241.905631 40.990313 
L 241.905631 40.187336 
" style="fill:none;stroke:#ff0000;stroke-width:1.5;"/>
    <path clip-path="url(#pfe3776943e)" d="M 248.950597 44.709747 
L 248.950597 43.6825 
" style="fill:none;stroke:#ff0000;stroke-width:1.5;"/>
    <path clip-path="url(#pfe3776943e)" d="M 255.995562 51.14581 
L 255.995562 49.715649 
" style="fill:none;stroke:#ff0000;stroke-width:1.5;"/>
    <path clip-path="url(#pfe3776943e)" d="M 263.040527 61.2742 
L 263.040527 59.14613 
" style="fill:none;stroke:#ff0000;stroke-width:1.5;"/>
    <path clip-path="url(#pfe3776943e)" d="M 270.085493 74.442568 
L 270.085493 71.504059 
" style="fill:none;stroke:#ff0000;stroke-width:1.5;"/>
    <path clip-path="url(#pfe3776943e)" d="M 277.130458 92.977686 
L 277.130458 89.03524 
" style="fill:none;stroke:#ff0000;stroke-width:1.5;"/>
    <path clip-path="url(#pfe3776943e)" d="M 284.175423 113.200709 
L 284.175423 108.408191 
" style="fill:none;stroke:#ff0000;stroke-width:1.5;"/>
    <path clip-path="url(#pfe3776943e)" d="M 291.220389 137.988148 
L 291.220389 132.603715 
" style="fill:none;stroke:#ff0000;stroke-width:1.5;"/>
    <path clip-path="url(#pfe3776943e)" d="M 298.265354 156.025122 
L 298.265354 150.389365 
" style="fill:none;stroke:#ff0000;stroke-width:1.5;"/>
    <path clip-path="url(#pfe3776943e)" d="M 305.31032 169.392191 
L 305.31032 163.8291 
" style="fill:none;stroke:#ff0000;stroke-width:1.5;"/>
    <path clip-path="url(#pfe3776943e)" d="M 312.355285 171.282844 
L 312.355285 165.663439 
" style="fill:none;stroke:#ff0000;stroke-width:1.5;"/>
    <path clip-path="url(#pfe3776943e)" d="M 319.40025 165.195855 
L 319.40025 159.78198 
" style="fill:none;stroke:#ff0000;stroke-width:1.5;"/>
    <path clip-path="url(#pfe3776943e)" d="M 326.445216 166.789016 
L 326.445216 161.133814 
" style="fill:none;stroke:#ff0000;stroke-width:1.5;"/>
    <path clip-path="url(#pfe3776943e)" d="M 333.490181 165.932229 
L 333.490181 160.405574 
" style="fill:none;stroke:#ff0000;stroke-width:1.5;"/>
    <path clip-path="url(#pfe3776943e)" d="M 340.535146 160.845416 
L 340.535146 155.363037 
" style="fill:none;stroke:#ff0000;stroke-width:1.5;"/>
    <path clip-path="url(#pfe3776943e)" d="M 347.580112 166.546809 
L 347.580112 161.134897 
" style="fill:none;stroke:#ff0000;stroke-width:1.5;"/>
    <path clip-path="url(#pfe3776943e)" d="M 354.625077 167.945325 
L 354.625077 162.573116 
" style="fill:none;stroke:#ff0000;stroke-width:1.5;"/>
    <path clip-path="url(#pfe3776943e)" d="M 361.670043 164.609366 
L 361.670043 159.309083 
" style="fill:none;stroke:#ff0000;stroke-width:1.5;"/>
    <path clip-path="url(#pfe3776943e)" d="M 368.715008 168.017856 
L 368.715008 162.699786 
" style="fill:none;stroke:#ff0000;stroke-width:1.5;"/>
    <path clip-path="url(#pfe3776943e)" d="M 375.759973 165.797338 
L 375.759973 160.593341 
" style="fill:none;stroke:#ff0000;stroke-width:1.5;"/>
    <path clip-path="url(#pfe3776943e)" d="M 382.804939 167.467151 
L 382.804939 162.390715 
" style="fill:none;stroke:#ff0000;stroke-width:1.5;"/>
    <path clip-path="url(#pfe3776943e)" d="M 389.849904 166.615376 
L 389.849904 161.67869 
" style="fill:none;stroke:#ff0000;stroke-width:1.5;"/>
    <path clip-path="url(#pfe3776943e)" d="M 396.894869 166.894197 
L 396.894869 161.839088 
" style="fill:none;stroke:#ff0000;stroke-width:1.5;"/>
    <path clip-path="url(#pfe3776943e)" d="M 403.939835 163.263445 
L 403.939835 158.385741 
" style="fill:none;stroke:#ff0000;stroke-width:1.5;"/>
   </g>
   <g id="line2d_41">
    <path clip-path="url(#pfe3776943e)" d="M 58.736531 32.22253 
L 65.781497 32.22547 
L 72.826462 32.230271 
L 79.871428 32.238114 
L 86.916393 32.250923 
L 93.961358 32.271844 
L 101.006324 32.306011 
L 108.051289 32.361801 
L 115.096254 32.45288 
L 122.14122 32.601517 
L 129.186185 32.843945 
L 136.231151 33.238968 
L 143.276116 33.88164 
L 150.321081 34.924566 
L 157.366047 36.610021 
L 164.411012 39.315482 
L 171.455977 43.610529 
L 178.500943 50.307315 
L 185.545908 60.446498 
L 192.590874 75.080347 
L 199.635839 94.62119 
L 206.680804 117.626466 
L 213.72577 139.736221 
L 220.770735 155.102776 
L 227.8157 161.50958 
L 234.860666 162.718731 
L 241.905631 162.786291 
L 248.950597 162.786859 
L 255.995562 162.786859 
L 263.040527 162.786859 
L 270.085493 162.786859 
L 277.130458 162.786859 
L 284.175423 162.786859 
L 291.220389 162.786859 
L 298.265354 162.786859 
L 305.31032 162.786859 
L 312.355285 162.786859 
L 319.40025 162.786859 
L 326.445216 162.786859 
L 333.490181 162.786859 
L 340.535146 162.786859 
L 347.580112 162.786859 
L 354.625077 162.786859 
L 361.670043 162.786859 
L 368.715008 162.786859 
L 375.759973 162.786859 
L 382.804939 162.786859 
L 389.849904 162.786859 
L 396.894869 162.786859 
L 403.939835 162.786859 
" style="fill:none;stroke:#800080;stroke-dasharray:5.55,2.4;stroke-dashoffset:0;stroke-width:1.5;"/>
   </g>
   <g id="line2d_42">
    <path clip-path="url(#pfe3776943e)" d="M 58.736531 32.270979 
L 65.781497 32.271689 
L 72.826462 32.272849 
L 79.871428 32.274748 
L 86.916393 32.277856 
L 93.961358 32.282942 
L 101.006324 32.291265 
L 108.051289 32.304884 
L 115.096254 32.327167 
L 122.14122 32.363627 
L 129.186185 32.42327 
L 136.231151 32.520816 
L 143.276116 32.680292 
L 150.321081 32.940851 
L 157.366047 33.366129 
L 164.411012 34.059088 
L 171.455977 35.185114 
L 178.500943 37.006633 
L 185.545908 39.931606 
L 192.590874 44.57228 
L 199.635839 51.791572 
L 206.680804 62.667157 
L 213.72577 78.214314 
L 220.770735 98.622943 
L 227.8157 121.953723 
L 234.860666 143.297134 
L 241.905631 156.977157 
L 248.950597 161.985309 
L 255.995562 162.755513 
L 263.040527 162.786703 
L 270.085493 162.786859 
L 277.130458 162.786859 
L 284.175423 162.786859 
L 291.220389 162.786859 
L 298.265354 162.786859 
L 305.31032 162.786859 
L 312.355285 162.786859 
L 319.40025 162.786859 
L 326.445216 162.786859 
L 333.490181 162.786859 
L 340.535146 162.786859 
L 347.580112 162.786859 
L 354.625077 162.786859 
L 361.670043 162.786859 
L 368.715008 162.786859 
L 375.759973 162.786859 
L 382.804939 162.786859 
L 389.849904 162.786859 
L 396.894869 162.786859 
L 403.939835 162.786859 
" style="fill:none;stroke:#ffa500;stroke-dasharray:5.55,2.4;stroke-dashoffset:0;stroke-width:1.5;"/>
   </g>
   <g id="line2d_43">
    <path clip-path="url(#pfe3776943e)" d="M 58.736531 32.264104 
L 65.781497 32.264347 
L 72.826462 32.264739 
L 79.871428 32.265373 
L 86.916393 32.266396 
L 93.961358 32.268048 
L 101.006324 32.270716 
L 108.051289 32.275024 
L 115.096254 32.281982 
L 122.14122 32.293217 
L 129.186185 32.311359 
L 136.231151 32.340653 
L 143.276116 32.387946 
L 150.321081 32.464287 
L 157.366047 32.587479 
L 164.411012 32.786181 
L 171.455977 33.106434 
L 178.500943 33.62196 
L 185.545908 34.450183 
L 192.590874 35.776521 
L 199.635839 37.889602 
L 206.680804 41.228139 
L 213.72577 46.4323 
L 220.770735 54.370445 
L 227.8157 66.062697 
L 234.860666 82.342029 
L 241.905631 103.049922 
L 248.950597 125.84636 
L 255.995562 145.788829 
L 263.040527 157.934047 
L 270.085493 162.145932 
L 277.130458 162.762482 
L 284.175423 162.786735 
L 291.220389 162.786859 
L 298.265354 162.786859 
L 305.31032 162.786859 
L 312.355285 162.786859 
L 319.40025 162.786859 
L 326.445216 162.786859 
L 333.490181 162.786859 
L 340.535146 162.786859 
L 347.580112 162.786859 
L 354.625077 162.786859 
L 361.670043 162.786859 
L 368.715008 162.786859 
L 375.759973 162.786859 
L 382.804939 162.786859 
L 389.849904 162.786859 
L 396.894869 162.786859 
L 403.939835 162.786859 
" style="fill:none;stroke:#008000;stroke-dasharray:5.55,2.4;stroke-dashoffset:0;stroke-width:1.5;"/>
   </g>
   <g id="line2d_44">
    <path clip-path="url(#pfe3776943e)" d="M 58.736531 32.152794 
L 65.781497 32.152892 
L 72.826462 32.153048 
L 79.871428 32.153297 
L 86.916393 32.153691 
L 93.961358 32.154318 
L 101.006324 32.155315 
L 108.051289 32.1569 
L 115.096254 32.159418 
L 122.14122 32.163422 
L 129.186185 32.169786 
L 136.231151 32.179901 
L 143.276116 32.195977 
L 150.321081 32.221529 
L 157.366047 32.262134 
L 164.411012 32.326653 
L 171.455977 32.429145 
L 178.500943 32.591898 
L 185.545908 32.850188 
L 192.590874 33.259704 
L 199.635839 33.908005 
L 206.680804 34.931855 
L 213.72577 36.542625 
L 220.770735 39.061398 
L 227.8157 42.962149 
L 234.860666 48.911137 
L 241.905631 57.765569 
L 248.950597 70.445168 
L 255.995562 87.525295 
L 263.040527 108.414262 
L 270.085493 130.357137 
L 277.130458 148.524726 
L 284.175423 158.922385 
L 291.220389 162.301958 
L 298.265354 162.768963 
L 305.31032 162.786764 
L 312.355285 162.786859 
L 319.40025 162.786859 
L 326.445216 162.786859 
L 333.490181 162.786859 
L 340.535146 162.786859 
L 347.580112 162.786859 
L 354.625077 162.786859 
L 361.670043 162.786859 
L 368.715008 162.786859 
L 375.759973 162.786859 
L 382.804939 162.786859 
L 389.849904 162.786859 
L 396.894869 162.786859 
L 403.939835 162.786859 
" style="fill:none;stroke:#0000ff;stroke-dasharray:5.55,2.4;stroke-dashoffset:0;stroke-width:1.5;"/>
   </g>
   <g id="line2d_45">
    <path clip-path="url(#pfe3776943e)" d="M 58.736531 32.333899 
L 65.781497 32.333917 
L 72.826462 32.333947 
L 79.871428 32.333995 
L 86.916393 32.334071 
L 93.961358 32.334195 
L 101.006324 32.334394 
L 108.051289 32.334715 
L 115.096254 32.335232 
L 122.14122 32.336065 
L 129.186185 32.337406 
L 136.231151 32.339566 
L 143.276116 32.343044 
L 150.321081 32.348645 
L 157.366047 32.357667 
L 164.411012 32.372195 
L 171.455977 32.39559 
L 178.500943 32.43326 
L 185.545908 32.493909 
L 192.590874 32.591527 
L 199.635839 32.748595 
L 206.680804 33.001166 
L 213.72577 33.406918 
L 220.770735 34.057744 
L 227.8157 35.099069 
L 234.860666 36.758516 
L 241.905631 39.385951 
L 248.950597 43.502953 
L 255.995562 49.846882 
L 263.040527 59.362653 
L 270.085493 73.03212 
L 277.130458 91.353181 
L 284.175423 113.332106 
L 291.220389 135.433653 
L 298.265354 152.248568 
L 305.31032 160.519025 
L 312.355285 162.595827 
L 319.40025 162.783306 
L 326.445216 162.786853 
L 333.490181 162.786859 
L 340.535146 162.786859 
L 347.580112 162.786859 
L 354.625077 162.786859 
L 361.670043 162.786859 
L 368.715008 162.786859 
L 375.759973 162.786859 
L 382.804939 162.786859 
L 389.849904 162.786859 
L 396.894869 162.786859 
L 403.939835 162.786859 
" style="fill:none;stroke:#ff0000;stroke-dasharray:5.55,2.4;stroke-dashoffset:0;stroke-width:1.5;"/>
   </g>
   <g id="line2d_46">
    <path clip-path="url(#pfe3776943e)" d="M 58.736531 32.068262 
L 65.781497 32.071604 
L 72.826462 32.077964 
L 79.871428 32.090676 
L 86.916393 32.117314 
L 93.961358 32.175108 
L 101.006324 32.301714 
L 108.051289 32.336426 
L 115.096254 32.438872 
L 122.14122 32.621629 
L 129.186185 32.920498 
L 136.231151 33.257197 
L 143.276116 33.994528 
L 150.321081 34.963903 
L 157.366047 36.709944 
L 164.411012 39.462418 
L 171.455977 43.686538 
L 178.500943 50.416861 
L 185.545908 60.859027 
L 192.590874 75.373606 
L 199.635839 94.513928 
L 206.680804 117.105404 
L 213.72577 139.135057 
L 220.770735 154.819409 
L 227.8157 167.161593 
L 234.860666 165.71767 
L 241.905631 165.060499 
L 248.950597 163.026168 
L 255.995562 162.915336 
L 263.040527 160.478245 
L 270.085493 163.053799 
L 277.130458 160.767492 
L 284.175423 166.465612 
L 291.220389 167.507244 
L 298.265354 159.791527 
L 305.31032 163.321552 
L 312.355285 165.581449 
L 319.40025 160.422638 
L 326.445216 163.110849 
L 333.490181 166.613076 
L 340.535146 160.159431 
L 347.580112 159.542611 
L 354.625077 160.102254 
L 361.670043 163.277762 
L 368.715008 165.687559 
L 375.759973 164.379108 
L 382.804939 157.379865 
L 389.849904 158.373968 
L 396.894869 166.197721 
L 403.939835 157.954524 
" style="fill:none;stroke:#800080;stroke-linecap:square;stroke-width:1.5;"/>
   </g>
   <g id="line2d_47">
    <path clip-path="url(#pfe3776943e)" d="M 58.736531 32.064859 
L 65.781497 32.065506 
L 72.826462 32.066594 
L 79.871428 32.068454 
L 86.916393 32.071708 
L 93.961358 32.077582 
L 101.006324 32.088635 
L 108.051289 32.110433 
L 115.096254 32.155397 
L 122.14122 32.250958 
L 129.186185 32.454093 
L 136.231151 32.524694 
L 143.276116 32.974818 
L 150.321081 33.001063 
L 157.366047 33.49018 
L 164.411012 34.293936 
L 171.455977 35.342792 
L 178.500943 37.179161 
L 185.545908 39.96401 
L 192.590874 44.748629 
L 199.635839 52.903637 
L 206.680804 63.784305 
L 213.72577 77.394483 
L 220.770735 96.707611 
L 227.8157 122.908598 
L 234.860666 143.431547 
L 241.905631 156.727104 
L 248.950597 166.317353 
L 255.995562 162.732862 
L 263.040527 163.633506 
L 270.085493 165.930966 
L 277.130458 162.77066 
L 284.175423 164.000378 
L 291.220389 161.219088 
L 298.265354 165.433619 
L 305.31032 164.55104 
L 312.355285 162.752041 
L 319.40025 159.495741 
L 326.445216 164.832754 
L 333.490181 161.307572 
L 340.535146 158.831126 
L 347.580112 153.520904 
L 354.625077 164.445248 
L 361.670043 166.862159 
L 368.715008 162.410943 
L 375.759973 160.522402 
L 382.804939 160.429621 
L 389.849904 166.013574 
L 396.894869 165.642979 
L 403.939835 163.8538 
" style="fill:none;stroke:#ffa500;stroke-linecap:square;stroke-width:1.5;"/>
   </g>
   <g id="line2d_48">
    <path clip-path="url(#pfe3776943e)" d="M 58.736531 32.06412 
L 65.781497 32.064278 
L 72.826462 32.064539 
L 79.871428 32.064967 
L 86.916393 32.065676 
L 93.961358 32.066854 
L 101.006324 32.068831 
L 108.051289 32.072197 
L 115.096254 32.078046 
L 122.14122 32.088516 
L 129.186185 32.107993 
L 136.231151 32.145857 
L 143.276116 32.222534 
L 150.321081 32.38121 
L 157.366047 32.70597 
L 164.411012 33.355437 
L 171.455977 33.571941 
L 178.500943 34.024504 
L 185.545908 34.561415 
L 192.590874 35.831564 
L 199.635839 38.051963 
L 206.680804 41.889323 
L 213.72577 46.037795 
L 220.770735 54.920858 
L 227.8157 67.294552 
L 234.860666 82.179117 
L 241.905631 101.716278 
L 248.950597 124.167912 
L 255.995562 148.198907 
L 263.040527 159.090305 
L 270.085493 160.429666 
L 277.130458 167.50151 
L 284.175423 166.139406 
L 291.220389 166.560494 
L 298.265354 161.736057 
L 305.31032 163.580587 
L 312.355285 163.195652 
L 319.40025 161.134903 
L 326.445216 166.485417 
L 333.490181 162.096279 
L 340.535146 162.388926 
L 347.580112 160.260473 
L 354.625077 162.07949 
L 361.670043 159.774769 
L 368.715008 165.808131 
L 375.759973 159.421009 
L 382.804939 161.189557 
L 389.849904 161.778253 
L 396.894869 155.738996 
L 403.939835 168.865743 
" style="fill:none;stroke:#008000;stroke-linecap:square;stroke-width:1.5;"/>
   </g>
   <g id="line2d_49">
    <path clip-path="url(#pfe3776943e)" d="M 58.736531 32.063937 
L 65.781497 32.063978 
L 72.826462 32.064045 
L 79.871428 32.064154 
L 86.916393 32.064334 
L 93.961358 32.064629 
L 101.006324 32.065113 
L 108.051289 32.065911 
L 115.096254 32.067228 
L 122.14122 32.069415 
L 129.186185 32.073074 
L 136.231151 32.079275 
L 143.276116 32.089983 
L 150.321081 32.108975 
L 157.366047 32.14387 
L 164.411012 32.21059 
L 171.455977 32.342529 
L 178.500943 32.605958 
L 185.545908 33.122938 
L 192.590874 34.139632 
L 199.635839 34.48503 
L 206.680804 35.328465 
L 213.72577 36.980317 
L 220.770735 38.774621 
L 227.8157 42.667082 
L 234.860666 48.372649 
L 241.905631 58.060059 
L 248.950597 69.541409 
L 255.995562 89.092926 
L 263.040527 106.50929 
L 270.085493 132.596141 
L 277.130458 147.179715 
L 284.175423 158.750438 
L 291.220389 162.347193 
L 298.265354 161.453054 
L 305.31032 163.298598 
L 312.355285 161.278342 
L 319.40025 158.573486 
L 326.445216 159.991131 
L 333.490181 157.599397 
L 340.535146 162.958394 
L 347.580112 161.201102 
L 354.625077 161.008329 
L 361.670043 158.073968 
L 368.715008 161.562267 
L 375.759973 165.317843 
L 382.804939 160.382103 
L 389.849904 160.286397 
L 396.894869 159.398424 
L 403.939835 162.332953 
" style="fill:none;stroke:#0000ff;stroke-linecap:square;stroke-width:1.5;"/>
   </g>
   <g id="line2d_50">
    <path clip-path="url(#pfe3776943e)" d="M 58.736531 32.063889 
L 65.781497 32.0639 
L 72.826462 32.063917 
L 79.871428 32.063945 
L 86.916393 32.063991 
L 93.961358 32.064067 
L 101.006324 32.06419 
L 108.051289 32.064393 
L 115.096254 32.064726 
L 122.14122 32.065271 
L 129.186185 32.066166 
L 136.231151 32.06764 
L 143.276116 32.070071 
L 150.321081 32.0741 
L 157.366047 32.080826 
L 164.411012 32.092179 
L 171.455977 32.111673 
L 178.500943 32.145964 
L 185.545908 32.208235 
L 192.590874 32.325355 
L 199.635839 32.551405 
L 206.680804 32.987873 
L 213.72577 33.822435 
L 220.770735 35.437028 
L 227.8157 36.096717 
L 234.860666 37.801763 
L 241.905631 40.588825 
L 248.950597 44.196123 
L 255.995562 50.43073 
L 263.040527 60.210165 
L 270.085493 72.973313 
L 277.130458 91.006463 
L 284.175423 110.80445 
L 291.220389 135.295932 
L 298.265354 153.207244 
L 305.31032 166.610645 
L 312.355285 168.473142 
L 319.40025 162.488918 
L 326.445216 163.961415 
L 333.490181 163.168901 
L 340.535146 158.104226 
L 347.580112 163.840853 
L 354.625077 165.259221 
L 361.670043 161.959224 
L 368.715008 165.358821 
L 375.759973 163.195339 
L 382.804939 164.928933 
L 389.849904 164.147033 
L 396.894869 164.366643 
L 403.939835 160.824593 
" style="fill:none;stroke:#ff0000;stroke-linecap:square;stroke-width:1.5;"/>
   </g>
   <g id="patch_3">
    <path d="M 41.476366 178.259776 
L 41.476366 25.10218 
" style="fill:none;stroke:#000000;stroke-linecap:square;stroke-linejoin:miter;stroke-width:0.8;"/>
   </g>
   <g id="patch_4">
    <path d="M 421.2 178.259776 
L 421.2 25.10218 
" style="fill:none;stroke:#000000;stroke-linecap:square;stroke-linejoin:miter;stroke-width:0.8;"/>
   </g>
   <g id="patch_5">
    <path d="M 41.476366 178.259776 
L 421.2 178.259776 
" style="fill:none;stroke:#000000;stroke-linecap:square;stroke-linejoin:miter;stroke-width:0.8;"/>
   </g>
   <g id="patch_6">
    <path d="M 41.476366 25.10218 
L 421.2 25.10218 
" style="fill:none;stroke:#000000;stroke-linecap:square;stroke-linejoin:miter;stroke-width:0.8;"/>
   </g>
   <g id="text_13">
    <!-- Dynamical Decoupling on NV-centre -->
    <defs>
     <path d="M 5.203125 68 
L 5.203125 65.40625 
C 12.09375 65.40625 13.203125 65.40625 13.203125 60.9375 
L 13.203125 7.0625 
C 13.203125 2.59375 12.09375 2.59375 5.203125 2.59375 
L 5.203125 0 
L 37 0 
C 53.09375 0 66 14.734375 66 33.453125 
C 66 52.28125 53.296875 68 37 68 
z
M 23.796875 2.59375 
C 19.796875 2.59375 19.59375 3.078125 19.59375 6.46875 
L 19.59375 61.53125 
C 19.59375 64.921875 19.796875 65.40625 23.796875 65.40625 
L 35 65.40625 
C 43.296875 65.40625 58.59375 60.53125 58.59375 33.453125 
C 58.59375 19.40625 54.5 13.734375 52.59375 11.046875 
C 50.203125 7.96875 44.5 2.59375 35 2.59375 
z
" id="CMR17-68"/>
     <path d="M 39 34.328125 
C 41.5 40.40625 46 40.40625 47.40625 40.40625 
L 47.40625 43 
C 45.5 43 43 43 41.09375 43 
C 39 43 35.703125 43 33.703125 43.09375 
L 33.703125 40.5 
C 37.5 40.203125 37.59375 37.40625 37.59375 36.609375 
C 37.59375 35.625 37.40625 35.125 36.90625 33.921875 
L 26 7.015625 
L 14.09375 36.03125 
C 13.59375 37.21875 13.59375 37.90625 13.59375 38.015625 
C 13.59375 40.203125 15.90625 40.40625 18.296875 40.40625 
L 18.296875 43.09375 
C 15.90625 43 11.59375 43 9.09375 43 
C 6.40625 43 3.203125 43 1 43.09375 
L 1 40.40625 
C 6.40625 40.40625 7 39.90625 8.296875 36.71875 
L 23.203125 0.234375 
C 18.703125 -11.53125 16.09375 -18.40625 9.796875 -18.40625 
C 8.703125 -18.40625 6.203125 -18.109375 4.40625 -16.3125 
C 6.703125 -16.109375 7.703125 -14.71875 7.703125 -13.015625 
C 7.703125 -11.328125 6.5 -9.828125 4.5 -9.828125 
C 2.296875 -9.828125 1.203125 -11.328125 1.203125 -13.125 
C 1.203125 -17.109375 5.296875 -20 9.796875 -20 
C 15.59375 -20 19.203125 -14.40625 21.203125 -9.4375 
z
" id="CMR17-121"/>
     <path d="M 41.5 30.203125 
C 41.5 35.296875 40.5 43.59375 28.703125 43.59375 
C 20.796875 43.59375 16.703125 37.5 15.203125 33.5 
L 15.09375 33.5 
L 15.09375 43.59375 
L 3.296875 42.5 
L 3.296875 39.90625 
C 9.203125 39.90625 10.09375 39.296875 10.09375 34.5 
L 10.09375 6.6875 
C 10.09375 2.875 9.703125 2.390625 3.296875 2.390625 
L 3.296875 -0.203125 
C 5.703125 0 10.09375 0 12.703125 0 
C 15.296875 0 19.796875 0 22.203125 -0.203125 
L 22.203125 2.390625 
C 15.796875 2.390625 15.40625 2.78125 15.40625 6.6875 
L 15.40625 25.90625 
C 15.40625 35.109375 21 42 28 42 
C 35.40625 42 36.203125 35.40625 36.203125 30.59375 
L 36.203125 6.6875 
C 36.203125 2.875 35.796875 2.390625 29.40625 2.390625 
L 29.40625 -0.203125 
C 31.796875 0 36.203125 0 38.796875 0 
C 41.40625 0 45.90625 0 48.296875 -0.203125 
L 48.296875 2.390625 
C 41.90625 2.390625 41.5 2.78125 41.5 6.6875 
z
" id="CMR17-110"/>
     <path d="M 36 25.828125 
C 36 32.375 36 35.84375 31.796875 39.734375 
C 28.09375 43 23.796875 44 20.40625 44 
C 12.5 44 6.796875 37.609375 6.796875 30.796875 
C 6.796875 27 9.796875 27 10.40625 27 
C 11.703125 27 14 27.78125 14 30.53125 
C 14 33 12.09375 34.078125 10.40625 34.078125 
C 10 34.078125 9.5 33.96875 9.203125 33.875 
C 11.296875 40.5 16.703125 42.40625 20.203125 42.40625 
C 25.203125 42.40625 30.703125 37.953125 30.703125 29.453125 
L 30.703125 25 
C 24.796875 25 17.703125 24.203125 12.09375 21.203125 
C 5.796875 17.703125 4 12.703125 4 8.90625 
C 4 1.203125 13 -1 18.296875 -1 
C 23.796875 -1 28.90625 2.171875 31.09375 7.984375 
C 31.296875 3.640625 34.09375 -0.28125 38.5 -0.28125 
C 40.59375 -0.28125 45.90625 1.09375 45.90625 8.859375 
L 45.90625 14.375 
L 44.09375 14.375 
L 44.09375 8.78125 
C 44.09375 2.78125 41.40625 2 40.09375 2 
C 36 2 36 7.15625 36 11.53125 
z
M 30.703125 13.59375 
C 30.703125 4.953125 24.5 0.59375 19 0.59375 
C 14 0.59375 10.09375 4.296875 10.09375 8.90625 
C 10.09375 11.890625 11.40625 17.1875 17.203125 20.390625 
C 22 23.09375 27.5 23.5 30.703125 23.5 
z
" id="CMR17-97"/>
     <path d="M 67.59375 30.203125 
C 67.59375 35.1875 66.703125 43.59375 54.796875 43.59375 
C 48 43.59375 43.296875 39 41.5 33.609375 
L 41.40625 33.609375 
C 40.203125 41.8125 34.296875 43.59375 28.703125 43.59375 
C 20.796875 43.59375 16.703125 37.5 15.203125 33.5 
L 15.09375 33.5 
L 15.09375 43.59375 
L 3.296875 42.5 
L 3.296875 39.90625 
C 9.203125 39.90625 10.09375 39.296875 10.09375 34.5 
L 10.09375 6.6875 
C 10.09375 2.875 9.703125 2.390625 3.296875 2.390625 
L 3.296875 -0.203125 
C 5.703125 0 10.09375 0 12.703125 0 
C 15.296875 0 19.796875 0 22.203125 -0.203125 
L 22.203125 2.390625 
C 15.796875 2.390625 15.40625 2.78125 15.40625 6.6875 
L 15.40625 25.90625 
C 15.40625 35.109375 21 42 28 42 
C 35.40625 42 36.203125 35.40625 36.203125 30.59375 
L 36.203125 6.6875 
C 36.203125 2.875 35.796875 2.390625 29.40625 2.390625 
L 29.40625 -0.203125 
C 31.796875 0 36.203125 0 38.796875 0 
C 41.40625 0 45.90625 0 48.296875 -0.203125 
L 48.296875 2.390625 
C 41.90625 2.390625 41.5 2.78125 41.5 6.6875 
L 41.5 25.90625 
C 41.5 35.109375 47.09375 42 54.09375 42 
C 61.5 42 62.296875 35.40625 62.296875 30.59375 
L 62.296875 6.6875 
C 62.296875 2.875 61.90625 2.390625 55.5 2.390625 
L 55.5 -0.203125 
C 57.90625 0 62.296875 0 64.90625 0 
C 67.5 0 72 0 74.40625 -0.203125 
L 74.40625 2.390625 
C 68 2.390625 67.59375 2.78125 67.59375 6.6875 
z
" id="CMR17-109"/>
     <path d="M 15.5 61.078125 
C 15.5 63.265625 13.703125 65.15625 11.40625 65.15625 
C 9.203125 65.15625 7.296875 63.375 7.296875 61.078125 
C 7.296875 58.890625 9.09375 57 11.40625 57 
C 13.59375 57 15.5 58.796875 15.5 61.078125 
z
M 3.796875 42.28125 
L 3.796875 39.703125 
C 9.40625 39.703125 10.203125 39.09375 10.203125 34.328125 
L 10.203125 6.671875 
C 10.203125 2.875 9.796875 2.390625 3.40625 2.390625 
L 3.40625 -0.203125 
C 5.796875 0 10.09375 0 12.59375 0 
C 15 0 19.09375 0 21.40625 -0.203125 
L 21.40625 2.390625 
C 15.5 2.390625 15.296875 2.984375 15.296875 6.5625 
L 15.296875 43.375 
z
" id="CMR17-105"/>
     <path d="M 34.90625 35 
C 33 35 30.203125 35 30.203125 31.515625 
C 30.203125 28.71875 32.5 27.921875 33.796875 27.921875 
C 34.5 27.921875 37.40625 28.234375 37.40625 31.625 
C 37.40625 38.546875 30.59375 43.796875 22.90625 43.796875 
C 12.296875 43.796875 3.296875 34.03125 3.296875 21.296875 
C 3.296875 8.0625 12.703125 -1 22.90625 -1 
C 35.296875 -1 38.40625 10.578125 38.40625 11.6875 
C 38.40625 12.09375 38.296875 12.390625 37.59375 12.390625 
C 36.90625 12.390625 36.796875 12.296875 36.40625 10.984375 
C 33.796875 2.8125 28.09375 0.796875 23.796875 0.796875 
C 17.40625 0.796875 9.703125 6.671875 9.703125 21.390625 
C 9.703125 36.53125 17.09375 42 23 42 
C 26.90625 42 32.703125 40.203125 34.90625 35 
z
" id="CMR17-99"/>
     <path d="M 15.296875 68.6875 
L 3.40625 67.59375 
L 3.40625 65 
C 9.296875 65 10.203125 64.40625 10.203125 59.640625 
L 10.203125 6.65625 
C 10.203125 2.875 9.796875 2.390625 3.40625 2.390625 
L 3.40625 -0.203125 
C 5.796875 0 10.203125 0 12.703125 0 
C 15.296875 0 19.703125 0 22.09375 -0.203125 
L 22.09375 2.390625 
C 15.703125 2.390625 15.296875 2.78125 15.296875 6.65625 
z
" id="CMR17-108"/>
     <path d="M 38.09375 23 
C 38.5 23.40625 38.5 23.609375 38.5 24.625 
C 38.5 34.96875 33.09375 44 21.703125 44 
C 11.09375 44 2.703125 33.890625 2.703125 21.609375 
C 2.703125 8.609375 12.203125 -1 22.796875 -1 
C 34 -1 38.40625 9.484375 38.40625 11.5625 
C 38.40625 12.25 37.796875 12.25 37.59375 12.25 
C 36.90625 12.25 36.796875 12.046875 36.40625 10.875 
C 34.203125 4.140625 28.703125 0.796875 23.5 0.796875 
C 19.203125 0.796875 14.90625 3.171875 12.203125 7.5 
C 9.09375 12.546875 9.09375 18.375 9.09375 23 
z
M 9.203125 24.5 
C 9.90625 39.140625 17.59375 42.40625 21.59375 42.40625 
C 28.40625 42.40625 33 35.890625 33.09375 24.5 
z
" id="CMR17-101"/>
     <path d="M 43.09375 21.1875 
C 43.09375 34 33.796875 44 22.90625 44 
C 12 44 2.703125 34 2.703125 21.1875 
C 2.703125 8.609375 12 -1 22.90625 -1 
C 33.796875 -1 43.09375 8.609375 43.09375 21.1875 
z
M 22.90625 0.796875 
C 18.203125 0.796875 14.203125 3.59375 11.90625 7.5 
C 9.40625 11.984375 9.09375 17.59375 9.09375 22 
C 9.09375 26.203125 9.296875 31.40625 11.90625 35.90625 
C 13.90625 39.203125 17.796875 42.40625 22.90625 42.40625 
C 27.40625 42.40625 31.203125 39.90625 33.59375 36.40625 
C 36.703125 31.703125 36.703125 25.109375 36.703125 22 
C 36.703125 18.09375 36.5 12.109375 33.796875 7.296875 
C 31 2.703125 26.703125 0.796875 22.90625 0.796875 
z
" id="CMR17-111"/>
     <path d="M 29.40625 42.078125 
L 29.40625 39.5 
C 35.296875 39.5 36.203125 38.890625 36.203125 34.15625 
L 36.203125 16.125 
C 36.203125 7.8125 31.703125 0.59375 24.296875 0.59375 
C 16.09375 0.59375 15.40625 5.4375 15.40625 10.59375 
L 15.40625 43.171875 
L 3.296875 42.078125 
L 3.296875 39.5 
C 7.296875 39.5 10 39.5 10.09375 35.53125 
L 10.09375 16.53125 
C 10.09375 9.890625 10.09375 5.640625 12.703125 2.859375 
C 14 1.578125 16.5 -1 23.703125 -1 
C 32.203125 -1 35.5 5.890625 36.296875 7.90625 
L 36.40625 7.90625 
L 36.40625 -0.984375 
L 48.296875 -0.984375 
L 48.296875 2 
C 42.40625 2 41.5 2.59375 41.5 7.390625 
L 41.5 43.171875 
z
" id="CMR17-117"/>
     <path d="M 22 -16.609375 
C 15.59375 -16.609375 15.203125 -16.203125 15.203125 -12.328125 
L 15.203125 6.28125 
C 18.09375 2.09375 22.296875 -0.59375 27.59375 -0.59375 
C 37.59375 -0.59375 47.703125 8.171875 47.703125 21.6875 
C 47.703125 34.234375 39 43.78125 28.703125 43.78125 
C 22.703125 43.78125 17.796875 40.5 15 36.53125 
L 15 43.78125 
L 3.09375 42.6875 
L 3.09375 40.109375 
C 9 40.109375 9.90625 39.5 9.90625 34.734375 
L 9.90625 -12.328125 
C 9.90625 -16.109375 9.5 -16.609375 3.09375 -16.609375 
L 3.09375 -19.1875 
C 5.5 -19 9.90625 -19 12.5 -19 
C 15.09375 -19 19.59375 -19 22 -19.1875 
z
M 15.203125 31.4375 
C 15.203125 32.84375 15.203125 34.921875 19.09375 38.609375 
C 19.59375 39.015625 23 42 28 42 
C 35.296875 42 41.296875 32.9375 41.296875 21.59375 
C 41.296875 10.25 34.90625 1 27 1 
C 23.40625 1 19.5 2.6875 16.5 7.375 
C 15.203125 9.5625 15.203125 10.15625 15.203125 11.75 
z
" id="CMR17-112"/>
     <path d="M 11.09375 18.1875 
C 13 16.6875 16.296875 15 20.296875 15 
C 28.203125 15 35 21.203125 35 29.5 
C 35 32.09375 34.203125 36.09375 31.203125 39.203125 
C 34 42.0625 38.09375 43 40.40625 43 
C 40.796875 43 41.40625 43 41.90625 42.71875 
C 41.5 42.625 40.59375 42.234375 40.59375 40.703125 
C 40.59375 39.484375 41.5 38.609375 42.796875 38.609375 
C 44.296875 38.609375 45.09375 39.578125 45.09375 40.84375 
C 45.09375 42.671875 43.59375 44.59375 40.40625 44.59375 
C 36.40625 44.59375 32.90625 42.78125 30.09375 40.3125 
C 27.09375 43.015625 23.5 44 20.296875 44 
C 12.40625 44 5.59375 37.796875 5.59375 29.5 
C 5.59375 23.78125 8.90625 20.1875 9.90625 19.1875 
C 6.90625 15.6875 6.90625 11.609375 6.90625 11.109375 
C 6.90625 8.515625 7.90625 4.71875 11.296875 2.625 
C 6.09375 1.328125 2 -2.640625 2 -7.59375 
C 2 -14.734375 11.5 -20 22.90625 -20 
C 33.90625 -20 43.796875 -14.9375 43.796875 -7.484375 
C 43.796875 6 29 6 21.296875 6 
C 19 6 14.90625 6 14.40625 6.109375 
C 11.296875 6.609375 9.203125 9.40625 9.203125 12.90625 
C 9.203125 13.796875 9.203125 16 11.09375 18.1875 
z
M 20.296875 16.6875 
C 11.5 16.6875 11.5 27.5 11.5 29.515625 
C 11.5 31.5 11.5 42.3125 20.296875 42.3125 
C 29.09375 42.3125 29.09375 31.5 29.09375 29.515625 
C 29.09375 27.5 29.09375 16.6875 20.296875 16.6875 
z
M 22.90625 -18.296875 
C 12.90625 -18.296875 6 -13.046875 6 -7.59375 
C 6 -4.515625 7.703125 -1.640625 9.90625 -0.0625 
C 12.40625 1.625 13.40625 1.625 20.203125 1.625 
C 28.40625 1.625 39.796875 1.625 39.796875 -7.59375 
C 39.796875 -13.046875 32.90625 -18.296875 22.90625 -18.296875 
z
" id="CMR17-103"/>
     <path d="M 20.5 66.40625 
C 19.796875 67.5 19.703125 67.5 17.796875 67.5 
L 5.09375 67.5 
L 5.09375 65 
L 7 65 
C 11 65 12.796875 64.515625 13.09375 64.40625 
L 13.09375 9.53125 
C 13.09375 7.046875 13.09375 2.390625 5.09375 2.390625 
L 5.09375 -0.203125 
C 7.40625 0 11.59375 0 14.09375 0 
C 16.59375 0 20.796875 0 23.09375 -0.203125 
L 23.09375 2.390625 
C 15.09375 2.390625 15.09375 7.046875 15.09375 9.53125 
L 15.09375 63.015625 
C 15.796875 62.421875 15.796875 62.21875 16.5 61.234375 
L 53.59375 1.1875 
C 54.296875 0 54.59375 0 55.09375 0 
C 56.09375 0 56.09375 0.296875 56.09375 2.171875 
L 56.09375 57.890625 
C 56.09375 60.359375 56.09375 65 64.09375 65 
L 64.09375 67.59375 
C 61.796875 67.5 57.59375 67.5 55.09375 67.5 
C 52.59375 67.5 48.40625 67.5 46.09375 67.59375 
L 46.09375 65 
C 54.09375 65 54.09375 60.34375 54.09375 57.859375 
L 54.09375 11.921875 
z
" id="CMR17-78"/>
     <path d="M 59 58.515625 
C 59.90625 60.71875 61.5 65 68.203125 65 
L 68.203125 67.6875 
C 65.90625 67.484375 63.296875 67.484375 60.796875 67.484375 
C 58.40625 67.484375 54.296875 67.484375 52 67.6875 
L 52 65 
C 57 65 57.203125 61.5 57.203125 60.90625 
C 57.203125 59.796875 56.90625 59.109375 56.59375 58.3125 
L 36.90625 6.96875 
L 16.296875 60.71875 
C 16 61.421875 15.796875 61.921875 15.796875 62.40625 
C 15.796875 65 19.796875 65 21.90625 65 
L 21.90625 67.484375 
C 18.703125 67.484375 14 67.484375 10.703125 67.484375 
C 8.09375 67.484375 3.40625 67.484375 1 67.6875 
L 1 65 
C 6.796875 65 7.90625 64.609375 9.09375 61.421875 
L 32.90625 -0.40625 
C 33.40625 -1.796875 33.5 -2 34.59375 -2 
C 35.703125 -2 35.796875 -1.796875 36.296875 -0.40625 
z
" id="CMR17-86"/>
     <path d="M 25.5 19 
L 25.5 23.375 
L 0.40625 23.375 
L 0.40625 19 
z
" id="CMR17-45"/>
     <path d="M 15.09375 40 
L 29.09375 40 
L 29.09375 42.578125 
L 15.09375 42.578125 
L 15.09375 61 
L 13.296875 61 
C 13.09375 50.703125 9.59375 41.6875 1.09375 41.6875 
L 1.09375 40 
L 9.796875 40 
L 9.796875 12.046875 
C 9.796875 10.15625 9.796875 -1 21.40625 -1 
C 27.296875 -1 30.703125 4.78125 30.703125 12.140625 
L 30.703125 17.8125 
L 28.90625 17.8125 
L 28.90625 12.234375 
C 28.90625 5.375 26.203125 0.796875 22 0.796875 
C 19.09375 0.796875 15.09375 2.78125 15.09375 11.84375 
z
" id="CMR17-116"/>
     <path d="M 15 23.390625 
C 15 33 19.09375 42 26.59375 42 
C 27.296875 42 28 41.90625 28.703125 41.59375 
C 28.703125 41.59375 26.5 40.890625 26.5 38.3125 
C 26.5 35.90625 28.40625 34.90625 29.90625 34.90625 
C 31.09375 34.90625 33.296875 35.609375 33.296875 38.40625 
C 33.296875 41.609375 30.09375 43.59375 26.703125 43.59375 
C 19.09375 43.59375 15.796875 36.203125 14.796875 32.703125 
L 14.703125 32.703125 
L 14.703125 43.59375 
L 3.09375 42.5 
L 3.09375 39.90625 
C 9 39.90625 9.90625 39.296875 9.90625 34.5 
L 9.90625 6.6875 
C 9.90625 2.875 9.5 2.390625 3.09375 2.390625 
L 3.09375 -0.203125 
C 5.5 0 10.09375 0 12.703125 0 
C 15.59375 0 20.703125 0 23.40625 -0.203125 
L 23.40625 2.390625 
C 16.203125 2.390625 15 2.390625 15 6.875 
z
" id="CMR17-114"/>
    </defs>
    <g transform="translate(137.208807 19.10218)scale(0.12 -0.12)">
     <use transform="scale(0.996264)" xlink:href="#CMR17-68"/>
     <use transform="translate(70.393556 0)scale(0.996264)" xlink:href="#CMR17-121"/>
     <use transform="translate(118.686472 0)scale(0.996264)" xlink:href="#CMR17-110"/>
     <use transform="translate(169.581842 0)scale(0.996264)" xlink:href="#CMR17-97"/>
     <use transform="translate(215.272319 0)scale(0.996264)" xlink:href="#CMR17-109"/>
     <use transform="translate(292.191909 0)scale(0.996264)" xlink:href="#CMR17-105"/>
     <use transform="translate(317.062967 0)scale(0.996264)" xlink:href="#CMR17-99"/>
     <use transform="translate(357.548627 0)scale(0.996264)" xlink:href="#CMR17-97"/>
     <use transform="translate(403.239105 0)scale(0.996264)" xlink:href="#CMR17-108"/>
     <use transform="translate(458.186129 0)scale(0.996264)" xlink:href="#CMR17-68"/>
     <use transform="translate(528.579685 0)scale(0.996264)" xlink:href="#CMR17-101"/>
     <use transform="translate(569.065346 0)scale(0.996264)" xlink:href="#CMR17-99"/>
     <use transform="translate(609.551006 0)scale(0.996264)" xlink:href="#CMR17-111"/>
     <use transform="translate(655.241483 0)scale(0.996264)" xlink:href="#CMR17-117"/>
     <use transform="translate(706.136853 0)scale(0.996264)" xlink:href="#CMR17-112"/>
     <use transform="translate(757.032223 0)scale(0.996264)" xlink:href="#CMR17-108"/>
     <use transform="translate(781.903281 0)scale(0.996264)" xlink:href="#CMR17-105"/>
     <use transform="translate(806.77434 0)scale(0.996264)" xlink:href="#CMR17-110"/>
     <use transform="translate(857.66971 0)scale(0.996264)" xlink:href="#CMR17-103"/>
     <use transform="translate(933.436153 0)scale(0.996264)" xlink:href="#CMR17-111"/>
     <use transform="translate(979.12663 0)scale(0.996264)" xlink:href="#CMR17-110"/>
     <use transform="translate(1060.097966 0)scale(0.996264)" xlink:href="#CMR17-78"/>
     <use transform="translate(1129.170396 0)scale(0.996264)" xlink:href="#CMR17-86"/>
     <use transform="translate(1198.242826 0)scale(0.996264)" xlink:href="#CMR17-45"/>
     <use transform="translate(1228.318792 0)scale(0.996264)" xlink:href="#CMR17-99"/>
     <use transform="translate(1268.804453 0)scale(0.996264)" xlink:href="#CMR17-101"/>
     <use transform="translate(1309.290113 0)scale(0.996264)" xlink:href="#CMR17-110"/>
     <use transform="translate(1357.583029 0)scale(0.996264)" xlink:href="#CMR17-116"/>
     <use transform="translate(1392.863797 0)scale(0.996264)" xlink:href="#CMR17-114"/>
     <use transform="translate(1428.144565 0)scale(0.996264)" xlink:href="#CMR17-101"/>
    </g>
   </g>
   <g id="legend_1">
    <g id="patch_7">
     <path d="M 368.602154 87.250908 
L 415.6 87.250908 
Q 417.2 87.250908 417.2 85.650908 
L 417.2 30.70218 
Q 417.2 29.10218 415.6 29.10218 
L 368.602154 29.10218 
Q 367.002154 29.10218 367.002154 30.70218 
L 367.002154 85.650908 
Q 367.002154 87.250908 368.602154 87.250908 
z
" style="fill:#ffffff;opacity:0.8;stroke:#cccccc;stroke-linejoin:miter;"/>
    </g>
    <g id="LineCollection_6">
     <path d="M 378.202154 39.10218 
L 378.202154 31.10218 
" style="fill:none;stroke:#800080;stroke-width:1.5;"/>
    </g>
    <g id="line2d_51">
     <path d="M 370.202154 35.10218 
L 386.202154 35.10218 
" style="fill:none;stroke:#800080;stroke-linecap:square;stroke-width:1.5;"/>
    </g>
    <g id="line2d_52"/>
    <g id="text_14">
     <!-- N=1 -->
     <defs>
      <path d="M 64.296875 31.515625 
C 65.796875 31.515625 67.296875 31.515625 67.296875 33.203125 
C 67.296875 35 65.59375 35 63.90625 35 
L 8 35 
C 6.296875 35 4.59375 35 4.59375 33.203125 
C 4.59375 31.515625 6.09375 31.515625 7.59375 31.515625 
z
M 63.90625 14 
C 65.59375 14 67.296875 14 67.296875 15.796875 
C 67.296875 17.484375 65.796875 17.484375 64.296875 17.484375 
L 7.59375 17.484375 
C 6.09375 17.484375 4.59375 17.484375 4.59375 15.796875 
C 4.59375 14 6.296875 14 8 14 
z
" id="CMR17-61"/>
     </defs>
     <g transform="translate(392.602154 37.90218)scale(0.08 -0.08)">
      <use transform="scale(0.996264)" xlink:href="#CMR17-78"/>
      <use transform="translate(69.07243 0)scale(0.996264)" xlink:href="#CMR17-61"/>
      <use transform="translate(140.787218 0)scale(0.996264)" xlink:href="#CMR17-49"/>
     </g>
    </g>
    <g id="LineCollection_7">
     <path d="M 378.202154 50.251926 
L 378.202154 42.251926 
" style="fill:none;stroke:#ffa500;stroke-width:1.5;"/>
    </g>
    <g id="line2d_53">
     <path d="M 370.202154 46.251926 
L 386.202154 46.251926 
" style="fill:none;stroke:#ffa500;stroke-linecap:square;stroke-width:1.5;"/>
    </g>
    <g id="line2d_54"/>
    <g id="text_15">
     <!-- N=2 -->
     <g transform="translate(392.602154 49.051926)scale(0.08 -0.08)">
      <use transform="scale(0.996264)" xlink:href="#CMR17-78"/>
      <use transform="translate(69.07243 0)scale(0.996264)" xlink:href="#CMR17-61"/>
      <use transform="translate(140.787218 0)scale(0.996264)" xlink:href="#CMR17-50"/>
     </g>
    </g>
    <g id="LineCollection_8">
     <path d="M 378.202154 61.401671 
L 378.202154 53.401671 
" style="fill:none;stroke:#008000;stroke-width:1.5;"/>
    </g>
    <g id="line2d_55">
     <path d="M 370.202154 57.401671 
L 386.202154 57.401671 
" style="fill:none;stroke:#008000;stroke-linecap:square;stroke-width:1.5;"/>
    </g>
    <g id="line2d_56"/>
    <g id="text_16">
     <!-- N=4 -->
     <g transform="translate(392.602154 60.201671)scale(0.08 -0.08)">
      <use transform="scale(0.996264)" xlink:href="#CMR17-78"/>
      <use transform="translate(69.07243 0)scale(0.996264)" xlink:href="#CMR17-61"/>
      <use transform="translate(140.787218 0)scale(0.996264)" xlink:href="#CMR17-52"/>
     </g>
    </g>
    <g id="LineCollection_9">
     <path d="M 378.202154 72.551417 
L 378.202154 64.551417 
" style="fill:none;stroke:#0000ff;stroke-width:1.5;"/>
    </g>
    <g id="line2d_57">
     <path d="M 370.202154 68.551417 
L 386.202154 68.551417 
" style="fill:none;stroke:#0000ff;stroke-linecap:square;stroke-width:1.5;"/>
    </g>
    <g id="line2d_58"/>
    <g id="text_17">
     <!-- N=8 -->
     <g transform="translate(392.602154 71.351417)scale(0.08 -0.08)">
      <use transform="scale(0.996264)" xlink:href="#CMR17-78"/>
      <use transform="translate(69.07243 0)scale(0.996264)" xlink:href="#CMR17-61"/>
      <use transform="translate(140.787218 0)scale(0.996264)" xlink:href="#CMR17-56"/>
     </g>
    </g>
    <g id="LineCollection_10">
     <path d="M 378.202154 83.701163 
L 378.202154 75.701163 
" style="fill:none;stroke:#ff0000;stroke-width:1.5;"/>
    </g>
    <g id="line2d_59">
     <path d="M 370.202154 79.701163 
L 386.202154 79.701163 
" style="fill:none;stroke:#ff0000;stroke-linecap:square;stroke-width:1.5;"/>
    </g>
    <g id="line2d_60"/>
    <g id="text_18">
     <!-- N=16 -->
     <g transform="translate(392.602154 82.501163)scale(0.08 -0.08)">
      <use transform="scale(0.996264)" xlink:href="#CMR17-78"/>
      <use transform="translate(69.07243 0)scale(0.996264)" xlink:href="#CMR17-61"/>
      <use transform="translate(140.787218 0)scale(0.996264)" xlink:href="#CMR17-49"/>
      <use transform="translate(186.477695 0)scale(0.996264)" xlink:href="#CMR17-54"/>
     </g>
    </g>
   </g>
  </g>
 </g>
 <defs>
  <clipPath id="pfe3776943e">
   <rect height="153.157596" width="379.723634" x="41.476366" y="25.10218"/>
  </clipPath>
 </defs>
</svg>
