<?xml version="1.0" encoding="utf-8" standalone="no"?>
<!DOCTYPE svg PUBLIC "-//W3C//DTD SVG 1.1//EN"
  "http://www.w3.org/Graphics/SVG/1.1/DTD/svg11.dtd">
<!-- Created with matplotlib (https://matplotlib.org/) -->
<svg height="216pt" version="1.1" viewBox="0 0 360 216" width="360pt" xmlns="http://www.w3.org/2000/svg" xmlns:xlink="http://www.w3.org/1999/xlink">
 <defs>
  <style type="text/css">
*{stroke-linecap:butt;stroke-linejoin:round;}
  </style>
 </defs>
 <g id="figure_1">
  <g id="patch_1">
   <path d="M 0 216 
L 360 216 
L 360 0 
L 0 0 
z
" style="fill:#ffffff;"/>
  </g>
  <g id="axes_1">
   <g id="patch_2">
    <path d="M 58.128487 162.92419 
L 342.72 162.92419 
L 342.72 36.563515 
L 58.128487 36.563515 
z
" style="fill:#ffffff;"/>
   </g>
   <g id="matplotlib.axis_1">
    <g id="xtick_1">
     <g id="line2d_1">
      <defs>
       <path d="M 0 0 
L 0 3.5 
" id="m1bc2a7c8df" style="stroke:#000000;stroke-width:0.8;"/>
      </defs>
      <g>
       <use style="stroke:#000000;stroke-width:0.8;" x="71.064465" xlink:href="#m1bc2a7c8df" y="162.92419"/>
      </g>
     </g>
     <g id="text_1">
      <!-- $10^{1}$ -->
      <defs>
       <path d="M 26.59375 63.40625 
C 26.59375 65.5 26.5 65.5 25.09375 65.5 
C 21.203125 61.1875 15.296875 59.796875 9.703125 59.796875 
C 9.40625 59.796875 8.90625 59.796875 8.796875 59.5 
C 8.703125 59.296875 8.703125 59.09375 8.703125 57 
C 11.796875 57 17 57.59375 21 59.984375 
L 21 7.203125 
C 21 3.6875 20.796875 2.5 12.203125 2.5 
L 9.203125 2.5 
L 9.203125 0 
C 14 0 19 0 23.796875 0 
C 28.59375 0 33.59375 0 38.40625 0 
L 38.40625 2.5 
L 35.40625 2.5 
C 26.796875 2.5 26.59375 3.59375 26.59375 7.15625 
z
" id="CMR17-49"/>
       <path d="M 42 31.640625 
C 42 37.75 41.90625 48.125 37.703125 56.109375 
C 34 63.109375 28.09375 65.59375 22.90625 65.59375 
C 18.09375 65.59375 12 63.40625 8.203125 56.203125 
C 4.203125 48.71875 3.796875 39.4375 3.796875 31.640625 
C 3.796875 25.953125 3.90625 17.28125 7 9.671875 
C 11.296875 -0.609375 19 -2 22.90625 -2 
C 27.5 -2 34.5 -0.109375 38.59375 9.375 
C 41.59375 16.28125 42 24.359375 42 31.640625 
z
M 22.90625 -0.40625 
C 16.5 -0.40625 12.703125 5.078125 11.296875 12.6875 
C 10.203125 18.5625 10.203125 27.15625 10.203125 32.75 
C 10.203125 40.4375 10.203125 46.828125 11.5 52.921875 
C 13.40625 61.390625 19 64 22.90625 64 
C 27 64 32.296875 61.296875 34.203125 53.125 
C 35.5 47.4375 35.59375 40.734375 35.59375 32.75 
C 35.59375 26.25 35.59375 18.265625 34.40625 12.375 
C 32.296875 1.484375 26.40625 -0.40625 22.90625 -0.40625 
z
" id="CMR17-48"/>
      </defs>
      <g transform="translate(61.727363 179.610067)scale(0.14 -0.14)">
       <use transform="scale(0.996264)" xlink:href="#CMR17-49"/>
       <use transform="translate(45.690477 0)scale(0.996264)" xlink:href="#CMR17-48"/>
       <use transform="translate(91.380954 36.153639)scale(0.697382)" xlink:href="#CMR17-49"/>
      </g>
     </g>
    </g>
    <g id="xtick_2">
     <g id="line2d_2">
      <g>
       <use style="stroke:#000000;stroke-width:0.8;" x="144.984338" xlink:href="#m1bc2a7c8df" y="162.92419"/>
      </g>
     </g>
     <g id="text_2">
      <!-- $10^{2}$ -->
      <defs>
       <path d="M 41.703125 15.453125 
L 39.90625 15.453125 
C 38.90625 8.375 38.09375 7.171875 37.703125 6.5625 
C 37.203125 5.765625 30 5.765625 28.59375 5.765625 
L 9.40625 5.765625 
C 13 9.671875 20 16.75 28.5 24.953125 
C 34.59375 30.734375 41.703125 37.53125 41.703125 47.421875 
C 41.703125 59.21875 32.296875 66 21.796875 66 
C 10.796875 66 4.09375 56.3125 4.09375 47.34375 
C 4.09375 43.4375 7 42.9375 8.203125 42.9375 
C 9.203125 42.9375 12.203125 43.546875 12.203125 47.03125 
C 12.203125 50.109375 9.59375 51 8.203125 51 
C 7.59375 51 7 50.90625 6.59375 50.703125 
C 8.5 59.21875 14.296875 63.40625 20.40625 63.40625 
C 29.09375 63.40625 34.796875 56.515625 34.796875 47.421875 
C 34.796875 38.734375 29.703125 31.25 24 24.75 
L 4.09375 2.28125 
L 4.09375 0 
L 39.296875 0 
z
" id="CMR17-50"/>
      </defs>
      <g transform="translate(135.647236 179.610067)scale(0.14 -0.14)">
       <use transform="scale(0.996264)" xlink:href="#CMR17-49"/>
       <use transform="translate(45.690477 0)scale(0.996264)" xlink:href="#CMR17-48"/>
       <use transform="translate(91.380954 36.153639)scale(0.697382)" xlink:href="#CMR17-50"/>
      </g>
     </g>
    </g>
    <g id="xtick_3">
     <g id="line2d_3">
      <g>
       <use style="stroke:#000000;stroke-width:0.8;" x="218.904212" xlink:href="#m1bc2a7c8df" y="162.92419"/>
      </g>
     </g>
     <g id="text_3">
      <!-- $10^{3}$ -->
      <defs>
       <path d="M 22.09375 33.703125 
C 31 33.703125 34.90625 25.96875 34.90625 17.03125 
C 34.90625 5 28.5 0.390625 22.703125 0.390625 
C 17.40625 0.390625 8.796875 3.03125 6.09375 10.828125 
C 6.59375 10.625 7.09375 10.625 7.59375 10.625 
C 10 10.625 11.796875 12.21875 11.796875 14.8125 
C 11.796875 17.703125 9.59375 19 7.59375 19 
C 5.90625 19 3.296875 18.203125 3.296875 14.46875 
C 3.296875 5.234375 12.296875 -2 22.90625 -2 
C 34 -2 42.5 6.71875 42.5 16.953125 
C 42.5 26.671875 34.5 33.703125 25 34.796875 
C 32.59375 36.375 39.90625 43.0625 39.90625 52.015625 
C 39.90625 59.6875 32 65.296875 23 65.296875 
C 13.90625 65.296875 5.90625 59.828125 5.90625 52.015625 
C 5.90625 48.59375 8.5 48 9.796875 48 
C 11.90625 48 13.703125 49.296875 13.703125 51.890625 
C 13.703125 54.46875 11.90625 55.765625 9.796875 55.765625 
C 9.40625 55.765625 8.90625 55.765625 8.5 55.578125 
C 11.40625 61.859375 19.296875 63 22.796875 63 
C 26.296875 63 32.90625 61.328125 32.90625 51.875 
C 32.90625 49.109375 32.5 44.1875 29.09375 39.84375 
C 26.09375 36 22.703125 36 19.40625 35.6875 
C 18.90625 35.6875 16.59375 35.453125 16.203125 35.453125 
C 15.5 35.359375 15.09375 35.265625 15.09375 34.5 
C 15.09375 33.796875 15.203125 33.703125 17.203125 33.703125 
z
" id="CMR17-51"/>
      </defs>
      <g transform="translate(209.56711 179.610067)scale(0.14 -0.14)">
       <use transform="scale(0.996264)" xlink:href="#CMR17-49"/>
       <use transform="translate(45.690477 0)scale(0.996264)" xlink:href="#CMR17-48"/>
       <use transform="translate(91.380954 36.153639)scale(0.697382)" xlink:href="#CMR17-51"/>
      </g>
     </g>
    </g>
    <g id="xtick_4">
     <g id="line2d_4">
      <g>
       <use style="stroke:#000000;stroke-width:0.8;" x="292.824085" xlink:href="#m1bc2a7c8df" y="162.92419"/>
      </g>
     </g>
     <g id="text_4">
      <!-- $10^{4}$ -->
      <defs>
       <path d="M 33.59375 64.40625 
C 33.59375 66.5 33.5 66.5 31.703125 66.5 
L 2 19.59375 
L 2 17 
L 27.796875 17 
L 27.796875 7.140625 
C 27.796875 3.5 27.59375 2.5 20.59375 2.5 
L 18.703125 2.5 
L 18.703125 0 
C 21.90625 0 27.296875 0 30.703125 0 
C 34.09375 0 39.5 0 42.703125 0 
L 42.703125 2.5 
L 40.796875 2.5 
C 33.796875 2.5 33.59375 3.5 33.59375 7.140625 
L 33.59375 17 
L 43.796875 17 
L 43.796875 19.59375 
L 33.59375 19.59375 
z
M 28.09375 57.859375 
L 28.09375 19.59375 
L 4 19.59375 
z
" id="CMR17-52"/>
      </defs>
      <g transform="translate(283.486983 179.610067)scale(0.14 -0.14)">
       <use transform="scale(0.996264)" xlink:href="#CMR17-49"/>
       <use transform="translate(45.690477 0)scale(0.996264)" xlink:href="#CMR17-48"/>
       <use transform="translate(91.380954 36.153639)scale(0.697382)" xlink:href="#CMR17-52"/>
      </g>
     </g>
    </g>
    <g id="xtick_5">
     <g id="line2d_5">
      <defs>
       <path d="M 0 0 
L 0 2 
" id="m243e698b78" style="stroke:#000000;stroke-width:0.6;"/>
      </defs>
      <g>
       <use style="stroke:#000000;stroke-width:0.6;" x="59.614131" xlink:href="#m243e698b78" y="162.92419"/>
      </g>
     </g>
    </g>
    <g id="xtick_6">
     <g id="line2d_6">
      <g>
       <use style="stroke:#000000;stroke-width:0.6;" x="63.900889" xlink:href="#m243e698b78" y="162.92419"/>
      </g>
     </g>
    </g>
    <g id="xtick_7">
     <g id="line2d_7">
      <g>
       <use style="stroke:#000000;stroke-width:0.6;" x="67.682077" xlink:href="#m243e698b78" y="162.92419"/>
      </g>
     </g>
    </g>
    <g id="xtick_8">
     <g id="line2d_8">
      <g>
       <use style="stroke:#000000;stroke-width:0.6;" x="93.316564" xlink:href="#m243e698b78" y="162.92419"/>
      </g>
     </g>
    </g>
    <g id="xtick_9">
     <g id="line2d_9">
      <g>
       <use style="stroke:#000000;stroke-width:0.6;" x="106.333208" xlink:href="#m243e698b78" y="162.92419"/>
      </g>
     </g>
    </g>
    <g id="xtick_10">
     <g id="line2d_10">
      <g>
       <use style="stroke:#000000;stroke-width:0.6;" x="115.568663" xlink:href="#m243e698b78" y="162.92419"/>
      </g>
     </g>
    </g>
    <g id="xtick_11">
     <g id="line2d_11">
      <g>
       <use style="stroke:#000000;stroke-width:0.6;" x="122.732239" xlink:href="#m243e698b78" y="162.92419"/>
      </g>
     </g>
    </g>
    <g id="xtick_12">
     <g id="line2d_12">
      <g>
       <use style="stroke:#000000;stroke-width:0.6;" x="128.585307" xlink:href="#m243e698b78" y="162.92419"/>
      </g>
     </g>
    </g>
    <g id="xtick_13">
     <g id="line2d_13">
      <g>
       <use style="stroke:#000000;stroke-width:0.6;" x="133.534005" xlink:href="#m243e698b78" y="162.92419"/>
      </g>
     </g>
    </g>
    <g id="xtick_14">
     <g id="line2d_14">
      <g>
       <use style="stroke:#000000;stroke-width:0.6;" x="137.820762" xlink:href="#m243e698b78" y="162.92419"/>
      </g>
     </g>
    </g>
    <g id="xtick_15">
     <g id="line2d_15">
      <g>
       <use style="stroke:#000000;stroke-width:0.6;" x="141.60195" xlink:href="#m243e698b78" y="162.92419"/>
      </g>
     </g>
    </g>
    <g id="xtick_16">
     <g id="line2d_16">
      <g>
       <use style="stroke:#000000;stroke-width:0.6;" x="167.236437" xlink:href="#m243e698b78" y="162.92419"/>
      </g>
     </g>
    </g>
    <g id="xtick_17">
     <g id="line2d_17">
      <g>
       <use style="stroke:#000000;stroke-width:0.6;" x="180.253081" xlink:href="#m243e698b78" y="162.92419"/>
      </g>
     </g>
    </g>
    <g id="xtick_18">
     <g id="line2d_18">
      <g>
       <use style="stroke:#000000;stroke-width:0.6;" x="189.488537" xlink:href="#m243e698b78" y="162.92419"/>
      </g>
     </g>
    </g>
    <g id="xtick_19">
     <g id="line2d_19">
      <g>
       <use style="stroke:#000000;stroke-width:0.6;" x="196.652113" xlink:href="#m243e698b78" y="162.92419"/>
      </g>
     </g>
    </g>
    <g id="xtick_20">
     <g id="line2d_20">
      <g>
       <use style="stroke:#000000;stroke-width:0.6;" x="202.50518" xlink:href="#m243e698b78" y="162.92419"/>
      </g>
     </g>
    </g>
    <g id="xtick_21">
     <g id="line2d_21">
      <g>
       <use style="stroke:#000000;stroke-width:0.6;" x="207.453879" xlink:href="#m243e698b78" y="162.92419"/>
      </g>
     </g>
    </g>
    <g id="xtick_22">
     <g id="line2d_22">
      <g>
       <use style="stroke:#000000;stroke-width:0.6;" x="211.740636" xlink:href="#m243e698b78" y="162.92419"/>
      </g>
     </g>
    </g>
    <g id="xtick_23">
     <g id="line2d_23">
      <g>
       <use style="stroke:#000000;stroke-width:0.6;" x="215.521824" xlink:href="#m243e698b78" y="162.92419"/>
      </g>
     </g>
    </g>
    <g id="xtick_24">
     <g id="line2d_24">
      <g>
       <use style="stroke:#000000;stroke-width:0.6;" x="241.156311" xlink:href="#m243e698b78" y="162.92419"/>
      </g>
     </g>
    </g>
    <g id="xtick_25">
     <g id="line2d_25">
      <g>
       <use style="stroke:#000000;stroke-width:0.6;" x="254.172955" xlink:href="#m243e698b78" y="162.92419"/>
      </g>
     </g>
    </g>
    <g id="xtick_26">
     <g id="line2d_26">
      <g>
       <use style="stroke:#000000;stroke-width:0.6;" x="263.40841" xlink:href="#m243e698b78" y="162.92419"/>
      </g>
     </g>
    </g>
    <g id="xtick_27">
     <g id="line2d_27">
      <g>
       <use style="stroke:#000000;stroke-width:0.6;" x="270.571986" xlink:href="#m243e698b78" y="162.92419"/>
      </g>
     </g>
    </g>
    <g id="xtick_28">
     <g id="line2d_28">
      <g>
       <use style="stroke:#000000;stroke-width:0.6;" x="276.425054" xlink:href="#m243e698b78" y="162.92419"/>
      </g>
     </g>
    </g>
    <g id="xtick_29">
     <g id="line2d_29">
      <g>
       <use style="stroke:#000000;stroke-width:0.6;" x="281.373752" xlink:href="#m243e698b78" y="162.92419"/>
      </g>
     </g>
    </g>
    <g id="xtick_30">
     <g id="line2d_30">
      <g>
       <use style="stroke:#000000;stroke-width:0.6;" x="285.660509" xlink:href="#m243e698b78" y="162.92419"/>
      </g>
     </g>
    </g>
    <g id="xtick_31">
     <g id="line2d_31">
      <g>
       <use style="stroke:#000000;stroke-width:0.6;" x="289.441697" xlink:href="#m243e698b78" y="162.92419"/>
      </g>
     </g>
    </g>
    <g id="xtick_32">
     <g id="line2d_32">
      <g>
       <use style="stroke:#000000;stroke-width:0.6;" x="315.076185" xlink:href="#m243e698b78" y="162.92419"/>
      </g>
     </g>
    </g>
    <g id="xtick_33">
     <g id="line2d_33">
      <g>
       <use style="stroke:#000000;stroke-width:0.6;" x="328.092828" xlink:href="#m243e698b78" y="162.92419"/>
      </g>
     </g>
    </g>
    <g id="xtick_34">
     <g id="line2d_34">
      <g>
       <use style="stroke:#000000;stroke-width:0.6;" x="337.328284" xlink:href="#m243e698b78" y="162.92419"/>
      </g>
     </g>
    </g>
    <g id="text_5">
     <!-- $t = 2\tau$ -->
     <defs>
      <path d="M 20.09375 40.09375 
L 29.296875 40.09375 
C 31.203125 40.09375 32.203125 40.09375 32.203125 41.890625 
C 32.203125 43 31.59375 43 29.59375 43 
L 20.796875 43 
L 24.5 57.6875 
C 24.90625 59.078125 24.90625 59.28125 24.90625 60 
C 24.90625 61.609375 23.59375 62.5 22.296875 62.5 
C 21.5 62.5 19.203125 62.203125 18.40625 58.984375 
L 14.5 43 
L 5.09375 43 
C 3.09375 43 2.203125 43 2.203125 41.09375 
C 2.203125 40.09375 2.90625 40.09375 4.796875 40.09375 
L 13.703125 40.09375 
L 7.09375 13.765625 
C 6.296875 10.28125 6 9.28125 6 7.984375 
C 6 3.296875 9.296875 -1 14.90625 -1 
C 25 -1 30.40625 13.5625 30.40625 14.25 
C 30.40625 14.859375 30 15.15625 29.40625 15.15625 
C 29.203125 15.15625 28.796875 15.15625 28.59375 14.75 
C 28.5 14.65625 28.40625 14.546875 27.703125 12.953125 
C 25.59375 7.984375 21 1 15.203125 1 
C 12.203125 1 12 3.5 12 5.6875 
C 12 5.78125 12 7.6875 12.296875 8.875 
z
" id="CMMI12-116"/>
      <path d="M 64.296875 31.515625 
C 65.796875 31.515625 67.296875 31.515625 67.296875 33.203125 
C 67.296875 35 65.59375 35 63.90625 35 
L 8 35 
C 6.296875 35 4.59375 35 4.59375 33.203125 
C 4.59375 31.515625 6.09375 31.515625 7.59375 31.515625 
z
M 63.90625 14 
C 65.59375 14 67.296875 14 67.296875 15.796875 
C 67.296875 17.484375 65.796875 17.484375 64.296875 17.484375 
L 7.59375 17.484375 
C 6.09375 17.484375 4.59375 17.484375 4.59375 15.796875 
C 4.59375 14 6.296875 14 8 14 
z
" id="CMR17-61"/>
      <path d="M 28.703125 37.625 
L 45.296875 37.625 
C 46.59375 37.625 49.90625 37.625 49.90625 40.8125 
C 49.90625 43 48 43 46.203125 43 
L 18.703125 43 
C 16.40625 43 13 43 8.40625 38.125 
C 5.796875 35.234375 2.59375 29.953125 2.59375 29.359375 
C 2.59375 28.765625 3.09375 28.5625 3.703125 28.5625 
C 4.40625 28.5625 4.5 28.859375 5 29.453125 
C 10.203125 37.625 15.40625 37.625 17.90625 37.625 
L 26.203125 37.625 
L 15.796875 3.484375 
C 15.296875 1.984375 15.296875 1.78125 15.296875 1.484375 
C 15.296875 0.390625 16 -1 18 -1 
C 21.09375 -1 21.59375 1.6875 21.90625 3.171875 
z
" id="CMMI12-28"/>
     </defs>
     <g transform="translate(182.393318 196.007972)scale(0.14 -0.14)">
      <use transform="scale(0.996264)" xlink:href="#CMMI12-116"/>
      <use transform="translate(62.900339 0)scale(0.996264)" xlink:href="#CMR17-61"/>
      <use transform="translate(162.289136 0)scale(0.996264)" xlink:href="#CMR17-50"/>
      <use transform="translate(207.979613 0)scale(0.996264)" xlink:href="#CMMI12-28"/>
     </g>
    </g>
   </g>
   <g id="matplotlib.axis_2">
    <g id="ytick_1">
     <g id="line2d_35">
      <defs>
       <path d="M 0 0 
L -3.5 0 
" id="m0e29c84c88" style="stroke:#000000;stroke-width:0.8;"/>
      </defs>
      <g>
       <use style="stroke:#000000;stroke-width:0.8;" x="58.128487" xlink:href="#m0e29c84c88" y="129.15209"/>
      </g>
     </g>
     <g id="text_6">
      <!-- $0.6$ -->
      <defs>
       <path d="M 18.40625 4.796875 
C 18.40625 7.6875 16 9.671875 13.59375 9.671875 
C 10.703125 9.671875 8.703125 7.28125 8.703125 4.890625 
C 8.703125 2 11.09375 0 13.5 0 
C 16.40625 0 18.40625 2.390625 18.40625 4.796875 
z
" id="CMMI12-58"/>
       <path d="M 10.59375 34 
C 10.59375 57.65625 21.796875 63 28.296875 63 
C 30.40625 63 35.5 62.640625 37.5 59 
C 35.90625 59 32.90625 59 32.90625 55.515625 
C 32.90625 52.828125 35.09375 51.921875 36.5 51.921875 
C 37.40625 51.921875 40.09375 52.3125 40.09375 55.625 
C 40.09375 61.78125 35.09375 65.296875 28.203125 65.296875 
C 16.296875 65.296875 3.796875 52.96875 3.796875 31 
C 3.796875 3.953125 15.09375 -2 23.09375 -2 
C 32.796875 -2 42 6.671875 42 20.046875 
C 42 32.515625 33.90625 41.59375 23.703125 41.59375 
C 17.59375 41.59375 13.09375 37.609375 10.59375 30.625 
z
M 23.09375 0.390625 
C 10.796875 0.390625 10.796875 18.75 10.796875 22.4375 
C 10.796875 29.625 14.203125 40 23.5 40 
C 25.203125 40 30.09375 40 33.40625 33.125 
C 35.203125 29.21875 35.203125 25.140625 35.203125 20.140625 
C 35.203125 14.75 35.203125 10.78125 33.09375 6.78125 
C 30.90625 2.671875 27.703125 0.390625 23.09375 0.390625 
z
" id="CMR17-54"/>
      </defs>
      <g transform="translate(33.677905 133.995028)scale(0.14 -0.14)">
       <use transform="scale(0.996264)" xlink:href="#CMR17-48"/>
       <use transform="translate(45.690477 0)scale(0.996264)" xlink:href="#CMMI12-58"/>
       <use transform="translate(72.787654 0)scale(0.996264)" xlink:href="#CMR17-54"/>
      </g>
     </g>
    </g>
    <g id="ytick_2">
     <g id="line2d_36">
      <g>
       <use style="stroke:#000000;stroke-width:0.8;" x="58.128487" xlink:href="#m0e29c84c88" y="85.727919"/>
      </g>
     </g>
     <g id="text_7">
      <!-- $0.8$ -->
      <defs>
       <path d="M 27.203125 35.375 
C 33.5 38.546875 39.90625 43.328125 39.90625 50.984375 
C 39.90625 60.015625 31.09375 65.296875 23 65.296875 
C 13.90625 65.296875 5.90625 58.734375 5.90625 49.6875 
C 5.90625 47.203125 6.5 42.921875 10.40625 39.140625 
C 11.40625 38.15625 15.59375 35.171875 18.296875 33.28125 
C 13.796875 30.984375 3.296875 25.53125 3.296875 14.59375 
C 3.296875 4.359375 13.09375 -2 22.796875 -2 
C 33.5 -2 42.5 5.65625 42.5 15.78125 
C 42.5 24.84375 36.40625 29.015625 32.40625 31.703125 
z
M 14.09375 44.09375 
C 13.296875 44.59375 9.296875 47.671875 9.296875 52.359375 
C 9.296875 58.421875 15.59375 63 22.796875 63 
C 30.703125 63 36.5 57.4375 36.5 50.96875 
C 36.5 41.703125 26.09375 36.421875 25.59375 36.421875 
C 25.5 36.421875 25.40625 36.421875 24.59375 37.03125 
z
M 32.5 23.734375 
C 34 22.640625 38.796875 19.375 38.796875 13.296875 
C 38.796875 5.953125 31.40625 0.390625 23 0.390625 
C 13.90625 0.390625 7 6.84375 7 14.6875 
C 7 22.546875 13.09375 29.09375 20 32.1875 
z
" id="CMR17-56"/>
      </defs>
      <g transform="translate(33.677905 90.570857)scale(0.14 -0.14)">
       <use transform="scale(0.996264)" xlink:href="#CMR17-48"/>
       <use transform="translate(45.690477 0)scale(0.996264)" xlink:href="#CMMI12-58"/>
       <use transform="translate(72.787654 0)scale(0.996264)" xlink:href="#CMR17-56"/>
      </g>
     </g>
    </g>
    <g id="ytick_3">
     <g id="line2d_37">
      <g>
       <use style="stroke:#000000;stroke-width:0.8;" x="58.128487" xlink:href="#m0e29c84c88" y="42.303748"/>
      </g>
     </g>
     <g id="text_8">
      <!-- $1.0$ -->
      <g transform="translate(33.677905 47.146687)scale(0.14 -0.14)">
       <use transform="scale(0.996264)" xlink:href="#CMR17-49"/>
       <use transform="translate(45.690477 0)scale(0.996264)" xlink:href="#CMMI12-58"/>
       <use transform="translate(72.787654 0)scale(0.996264)" xlink:href="#CMR17-48"/>
      </g>
     </g>
    </g>
    <g id="text_9">
     <!-- $P_x$ -->
     <defs>
      <path d="M 29.59375 31.609375 
L 46.40625 31.609375 
C 60.203125 31.609375 74 41.765625 74 53.140625 
C 74 60.90625 67.40625 68 54.796875 68 
L 23.90625 68 
C 22 68 21.09375 68 21.09375 66.109375 
C 21.09375 65.109375 22 65.109375 23.5 65.109375 
C 29.59375 65.109375 29.59375 64.3125 29.59375 63.21875 
C 29.59375 63.03125 29.59375 62.421875 29.203125 60.921875 
L 15.703125 7.375 
C 14.796875 3.890625 14.59375 2.890625 7.59375 2.890625 
C 5.703125 2.890625 4.703125 2.890625 4.703125 1.09375 
C 4.703125 0 5.59375 0 6.203125 0 
C 8.09375 0 10.09375 0 12 0 
L 23.703125 0 
C 25.59375 0 27.703125 0 29.59375 0 
C 30.40625 0 31.5 0 31.5 1.890625 
C 31.5 2.890625 30.59375 2.890625 29.09375 2.890625 
C 23.09375 2.890625 23 3.59375 23 4.578125 
C 23 5.078125 23.09375 5.765625 23.203125 6.265625 
z
M 36.796875 61.40625 
C 37.703125 65.109375 38.09375 65.109375 42 65.109375 
L 51.90625 65.109375 
C 59.40625 65.109375 65.59375 62.703125 65.59375 55.234375 
C 65.59375 52.640625 64.296875 44.171875 59.703125 39.59375 
C 58 37.796875 53.203125 34 44.09375 34 
L 30 34 
z
" id="CMMI12-80"/>
      <path d="M 47.40625 40.71875 
C 44.203125 40.109375 43 37.71875 43 35.828125 
C 43 33.421875 44.90625 32.625 46.296875 32.625 
C 49.296875 32.625 51.40625 35.21875 51.40625 37.921875 
C 51.40625 42.109375 46.59375 44 42.40625 44 
C 36.296875 44 32.90625 38.015625 32 36.125 
C 29.703125 44 23.5 44 21.703125 44 
C 11.5 44 6.09375 30.9375 6.09375 28.734375 
C 6.09375 28.34375 6.5 27.84375 7.203125 27.84375 
C 8 27.84375 8.203125 28.4375 8.40625 28.84375 
C 11.796875 39.921875 18.5 42.015625 21.40625 42.015625 
C 25.90625 42.015625 26.796875 37.8125 26.796875 35.421875 
C 26.796875 33.234375 26.203125 30.9375 25 26.140625 
L 21.59375 12.46875 
C 20.09375 6.484375 17.203125 1 11.90625 1 
C 11.40625 1 8.90625 1 6.796875 2.296875 
C 10.40625 3 11.203125 5.984375 11.203125 7.1875 
C 11.203125 9.1875 9.703125 10.375 7.796875 10.375 
C 5.40625 10.375 2.796875 8.28125 2.796875 5.09375 
C 2.796875 0.890625 7.5 -1 11.796875 -1 
C 16.59375 -1 20 2.796875 22.09375 6.890625 
C 23.703125 1 28.703125 -1 32.40625 -1 
C 42.59375 -1 48 12.078125 48 14.265625 
C 48 14.765625 47.59375 15.171875 47 15.171875 
C 46.09375 15.171875 46 14.671875 45.703125 13.875 
C 43 5.09375 37.203125 1 32.703125 1 
C 29.203125 1 27.296875 3.59375 27.296875 7.6875 
C 27.296875 9.875 27.703125 11.46875 29.296875 18.0625 
L 32.796875 31.625 
C 34.296875 37.625 37.703125 42.015625 42.296875 42.015625 
C 42.5 42.015625 45.296875 42.015625 47.40625 40.71875 
z
" id="CMMI12-120"/>
     </defs>
     <g transform="translate(26.965876 106.989121)rotate(-90)scale(0.14 -0.14)">
      <use transform="translate(0 14.943915)scale(0.996264)" xlink:href="#CMMI12-80"/>
      <use transform="translate(62.877232 0)scale(0.697382)" xlink:href="#CMMI12-120"/>
     </g>
    </g>
   </g>
   <g id="LineCollection_1">
    <path clip-path="url(#p73299f911a)" d="M 71.064465 42.307604 
L 71.064465 42.307182 
" style="fill:none;stroke:#800080;stroke-width:1.5;"/>
    <path clip-path="url(#p73299f911a)" d="M 76.344456 42.310648 
L 76.344456 42.309689 
" style="fill:none;stroke:#800080;stroke-width:1.5;"/>
    <path clip-path="url(#p73299f911a)" d="M 81.624447 42.316623 
L 81.624447 42.314277 
" style="fill:none;stroke:#800080;stroke-width:1.5;"/>
    <path clip-path="url(#p73299f911a)" d="M 86.904438 42.32896 
L 86.904438 42.323054 
" style="fill:none;stroke:#800080;stroke-width:1.5;"/>
    <path clip-path="url(#p73299f911a)" d="M 92.184429 42.355533 
L 92.184429 42.340726 
" style="fill:none;stroke:#800080;stroke-width:1.5;"/>
    <path clip-path="url(#p73299f911a)" d="M 97.46442 42.414078 
L 97.46442 42.378171 
" style="fill:none;stroke:#800080;stroke-width:1.5;"/>
    <path clip-path="url(#p73299f911a)" d="M 102.744411 42.541689 
L 102.744411 42.460844 
" style="fill:none;stroke:#800080;stroke-width:1.5;"/>
    <path clip-path="url(#p73299f911a)" d="M 108.024402 42.567144 
L 108.024402 42.493043 
" style="fill:none;stroke:#800080;stroke-width:1.5;"/>
    <path clip-path="url(#p73299f911a)" d="M 113.304392 42.65527 
L 113.304392 42.575072 
" style="fill:none;stroke:#800080;stroke-width:1.5;"/>
    <path clip-path="url(#p73299f911a)" d="M 118.584383 42.815617 
L 118.584383 42.718269 
" style="fill:none;stroke:#800080;stroke-width:1.5;"/>
    <path clip-path="url(#p73299f911a)" d="M 123.864374 43.078529 
L 123.864374 42.951755 
" style="fill:none;stroke:#800080;stroke-width:1.5;"/>
    <path clip-path="url(#p73299f911a)" d="M 129.144365 43.361047 
L 129.144365 43.22847 
" style="fill:none;stroke:#800080;stroke-width:1.5;"/>
    <path clip-path="url(#p73299f911a)" d="M 134.424356 44.004581 
L 134.424356 43.809586 
" style="fill:none;stroke:#800080;stroke-width:1.5;"/>
    <path clip-path="url(#p73299f911a)" d="M 139.704347 44.830479 
L 139.704347 44.593746 
" style="fill:none;stroke:#800080;stroke-width:1.5;"/>
    <path clip-path="url(#p73299f911a)" d="M 144.984338 46.336315 
L 144.984338 45.987949 
" style="fill:none;stroke:#800080;stroke-width:1.5;"/>
    <path clip-path="url(#p73299f911a)" d="M 150.264329 48.713082 
L 150.264329 48.18283 
" style="fill:none;stroke:#800080;stroke-width:1.5;"/>
    <path clip-path="url(#p73299f911a)" d="M 155.54432 52.368063 
L 155.54432 51.543789 
" style="fill:none;stroke:#800080;stroke-width:1.5;"/>
    <path clip-path="url(#p73299f911a)" d="M 160.824311 58.182823 
L 160.824311 56.907579 
" style="fill:none;stroke:#800080;stroke-width:1.5;"/>
    <path clip-path="url(#p73299f911a)" d="M 166.104302 67.165743 
L 166.104302 65.268296 
" style="fill:none;stroke:#800080;stroke-width:1.5;"/>
    <path clip-path="url(#p73299f911a)" d="M 171.384293 79.588838 
L 171.384293 76.952804 
" style="fill:none;stroke:#800080;stroke-width:1.5;"/>
    <path clip-path="url(#p73299f911a)" d="M 176.664284 95.901799 
L 176.664284 92.43045 
" style="fill:none;stroke:#800080;stroke-width:1.5;"/>
    <path clip-path="url(#p73299f911a)" d="M 181.944275 115.030425 
L 181.944275 110.824532 
" style="fill:none;stroke:#800080;stroke-width:1.5;"/>
    <path clip-path="url(#p73299f911a)" d="M 187.224266 133.560765 
L 187.224266 128.883756 
" style="fill:none;stroke:#800080;stroke-width:1.5;"/>
    <path clip-path="url(#p73299f911a)" d="M 192.504257 146.664905 
L 192.504257 141.830122 
" style="fill:none;stroke:#800080;stroke-width:1.5;"/>
    <path clip-path="url(#p73299f911a)" d="M 197.784248 156.922616 
L 197.784248 152.071832 
" style="fill:none;stroke:#800080;stroke-width:1.5;"/>
    <path clip-path="url(#p73299f911a)" d="M 203.064239 155.667091 
L 203.064239 150.929112 
" style="fill:none;stroke:#800080;stroke-width:1.5;"/>
    <path clip-path="url(#p73299f911a)" d="M 208.34423 155.135757 
L 208.34423 150.368935 
" style="fill:none;stroke:#800080;stroke-width:1.5;"/>
    <path clip-path="url(#p73299f911a)" d="M 213.624221 153.423953 
L 213.624221 148.701871 
" style="fill:none;stroke:#800080;stroke-width:1.5;"/>
    <path clip-path="url(#p73299f911a)" d="M 218.904212 153.335539 
L 218.904212 148.606201 
" style="fill:none;stroke:#800080;stroke-width:1.5;"/>
    <path clip-path="url(#p73299f911a)" d="M 224.184203 151.327586 
L 224.184203 146.566333 
" style="fill:none;stroke:#800080;stroke-width:1.5;"/>
    <path clip-path="url(#p73299f911a)" d="M 229.464194 153.454264 
L 229.464194 148.717452 
" style="fill:none;stroke:#800080;stroke-width:1.5;"/>
    <path clip-path="url(#p73299f911a)" d="M 234.744185 151.5898 
L 234.744185 146.784536 
" style="fill:none;stroke:#800080;stroke-width:1.5;"/>
    <path clip-path="url(#p73299f911a)" d="M 240.024176 156.281477 
L 240.024176 151.557 
" style="fill:none;stroke:#800080;stroke-width:1.5;"/>
    <path clip-path="url(#p73299f911a)" d="M 245.304167 157.180523 
L 245.304167 152.388025 
" style="fill:none;stroke:#800080;stroke-width:1.5;"/>
    <path clip-path="url(#p73299f911a)" d="M 250.584158 150.739392 
L 250.584158 146.013941 
" style="fill:none;stroke:#800080;stroke-width:1.5;"/>
    <path clip-path="url(#p73299f911a)" d="M 255.864149 153.62702 
L 255.864149 148.989414 
" style="fill:none;stroke:#800080;stroke-width:1.5;"/>
    <path clip-path="url(#p73299f911a)" d="M 261.14414 155.562121 
L 261.14414 150.807828 
" style="fill:none;stroke:#800080;stroke-width:1.5;"/>
    <path clip-path="url(#p73299f911a)" d="M 266.424131 151.207736 
L 266.424131 146.593824 
" style="fill:none;stroke:#800080;stroke-width:1.5;"/>
    <path clip-path="url(#p73299f911a)" d="M 271.704121 153.393404 
L 271.704121 148.87307 
" style="fill:none;stroke:#800080;stroke-width:1.5;"/>
    <path clip-path="url(#p73299f911a)" d="M 276.984112 156.312434 
L 276.984112 151.77097 
" style="fill:none;stroke:#800080;stroke-width:1.5;"/>
    <path clip-path="url(#p73299f911a)" d="M 282.264103 151.058364 
L 282.264103 146.30603 
" style="fill:none;stroke:#800080;stroke-width:1.5;"/>
    <path clip-path="url(#p73299f911a)" d="M 287.544094 150.445211 
L 287.544094 145.894692 
" style="fill:none;stroke:#800080;stroke-width:1.5;"/>
    <path clip-path="url(#p73299f911a)" d="M 292.824085 150.8901 
L 292.824085 146.379326 
" style="fill:none;stroke:#800080;stroke-width:1.5;"/>
    <path clip-path="url(#p73299f911a)" d="M 298.104076 153.472616 
L 298.104076 149.071086 
" style="fill:none;stroke:#800080;stroke-width:1.5;"/>
    <path clip-path="url(#p73299f911a)" d="M 303.384067 155.469004 
L 303.384067 151.077187 
" style="fill:none;stroke:#800080;stroke-width:1.5;"/>
    <path clip-path="url(#p73299f911a)" d="M 308.664058 154.408243 
L 308.664058 149.964712 
" style="fill:none;stroke:#800080;stroke-width:1.5;"/>
    <path clip-path="url(#p73299f911a)" d="M 313.944049 148.511857 
L 313.944049 144.235891 
" style="fill:none;stroke:#800080;stroke-width:1.5;"/>
    <path clip-path="url(#p73299f911a)" d="M 319.22404 149.338032 
L 319.22404 145.060844 
" style="fill:none;stroke:#800080;stroke-width:1.5;"/>
    <path clip-path="url(#p73299f911a)" d="M 324.504031 155.763811 
L 324.504031 151.629718 
" style="fill:none;stroke:#800080;stroke-width:1.5;"/>
    <path clip-path="url(#p73299f911a)" d="M 329.784022 148.859755 
L 329.784022 144.842456 
" style="fill:none;stroke:#800080;stroke-width:1.5;"/>
   </g>
   <g id="line2d_38">
    <path clip-path="url(#p73299f911a)" d="M 71.064465 42.435507 
L 76.344456 42.437948 
L 81.624447 42.441936 
L 86.904438 42.448449 
L 92.184429 42.459086 
L 97.46442 42.476461 
L 102.744411 42.504835 
L 108.024402 42.551166 
L 113.304392 42.626804 
L 118.584383 42.750241 
L 123.864374 42.951568 
L 129.144365 43.27962 
L 134.424356 43.813334 
L 139.704347 44.679444 
L 144.984338 46.07915 
L 150.264329 48.325932 
L 155.54432 51.892803 
L 160.824311 57.454227 
L 166.104302 65.87443 
L 171.384293 78.02728 
L 176.664284 94.255201 
L 181.944275 113.360201 
L 187.224266 131.721504 
L 192.504257 144.482839 
L 197.784248 149.803444 
L 203.064239 150.807597 
L 208.34423 150.863703 
L 213.624221 150.864175 
L 218.904212 150.864175 
L 224.184203 150.864175 
L 229.464194 150.864175 
L 234.744185 150.864175 
L 240.024176 150.864175 
L 245.304167 150.864175 
L 250.584158 150.864175 
L 255.864149 150.864175 
L 261.14414 150.864175 
L 266.424131 150.864175 
L 271.704121 150.864175 
L 276.984112 150.864175 
L 282.264103 150.864175 
L 287.544094 150.864175 
L 292.824085 150.864175 
L 298.104076 150.864175 
L 303.384067 150.864175 
L 308.664058 150.864175 
L 313.944049 150.864175 
L 319.22404 150.864175 
L 324.504031 150.864175 
L 329.784022 150.864175 
" style="fill:none;stroke:#800080;stroke-linecap:square;stroke-width:1.5;"/>
   </g>
   <g id="line2d_39">
    <defs>
     <path d="M 0 1.5 
C 0.397805 1.5 0.77937 1.341951 1.06066 1.06066 
C 1.341951 0.77937 1.5 0.397805 1.5 0 
C 1.5 -0.397805 1.341951 -0.77937 1.06066 -1.06066 
C 0.77937 -1.341951 0.397805 -1.5 0 -1.5 
C -0.397805 -1.5 -0.77937 -1.341951 -1.06066 -1.06066 
C -1.341951 -0.77937 -1.5 -0.397805 -1.5 0 
C -1.5 0.397805 -1.341951 0.77937 -1.06066 1.06066 
C -0.77937 1.341951 -0.397805 1.5 0 1.5 
z
" id="m27e5e2161c" style="stroke:#800080;"/>
    </defs>
    <g clip-path="url(#p73299f911a)">
     <use style="fill:#800080;stroke:#800080;" x="71.064465" xlink:href="#m27e5e2161c" y="42.307393"/>
     <use style="fill:#800080;stroke:#800080;" x="76.344456" xlink:href="#m27e5e2161c" y="42.310168"/>
     <use style="fill:#800080;stroke:#800080;" x="81.624447" xlink:href="#m27e5e2161c" y="42.31545"/>
     <use style="fill:#800080;stroke:#800080;" x="86.904438" xlink:href="#m27e5e2161c" y="42.326007"/>
     <use style="fill:#800080;stroke:#800080;" x="92.184429" xlink:href="#m27e5e2161c" y="42.348129"/>
     <use style="fill:#800080;stroke:#800080;" x="97.46442" xlink:href="#m27e5e2161c" y="42.396125"/>
     <use style="fill:#800080;stroke:#800080;" x="102.744411" xlink:href="#m27e5e2161c" y="42.501266"/>
     <use style="fill:#800080;stroke:#800080;" x="108.024402" xlink:href="#m27e5e2161c" y="42.530093"/>
     <use style="fill:#800080;stroke:#800080;" x="113.304392" xlink:href="#m27e5e2161c" y="42.615171"/>
     <use style="fill:#800080;stroke:#800080;" x="118.584383" xlink:href="#m27e5e2161c" y="42.766943"/>
     <use style="fill:#800080;stroke:#800080;" x="123.864374" xlink:href="#m27e5e2161c" y="43.015142"/>
     <use style="fill:#800080;stroke:#800080;" x="129.144365" xlink:href="#m27e5e2161c" y="43.294758"/>
     <use style="fill:#800080;stroke:#800080;" x="134.424356" xlink:href="#m27e5e2161c" y="43.907083"/>
     <use style="fill:#800080;stroke:#800080;" x="139.704347" xlink:href="#m27e5e2161c" y="44.712112"/>
     <use style="fill:#800080;stroke:#800080;" x="144.984338" xlink:href="#m27e5e2161c" y="46.162132"/>
     <use style="fill:#800080;stroke:#800080;" x="150.264329" xlink:href="#m27e5e2161c" y="48.447956"/>
     <use style="fill:#800080;stroke:#800080;" x="155.54432" xlink:href="#m27e5e2161c" y="51.955926"/>
     <use style="fill:#800080;stroke:#800080;" x="160.824311" xlink:href="#m27e5e2161c" y="57.545201"/>
     <use style="fill:#800080;stroke:#800080;" x="166.104302" xlink:href="#m27e5e2161c" y="66.21702"/>
     <use style="fill:#800080;stroke:#800080;" x="171.384293" xlink:href="#m27e5e2161c" y="78.270821"/>
     <use style="fill:#800080;stroke:#800080;" x="176.664284" xlink:href="#m27e5e2161c" y="94.166124"/>
     <use style="fill:#800080;stroke:#800080;" x="181.944275" xlink:href="#m27e5e2161c" y="112.927478"/>
     <use style="fill:#800080;stroke:#800080;" x="187.224266" xlink:href="#m27e5e2161c" y="131.22226"/>
     <use style="fill:#800080;stroke:#800080;" x="192.504257" xlink:href="#m27e5e2161c" y="144.247513"/>
     <use style="fill:#800080;stroke:#800080;" x="197.784248" xlink:href="#m27e5e2161c" y="154.497224"/>
     <use style="fill:#800080;stroke:#800080;" x="203.064239" xlink:href="#m27e5e2161c" y="153.298101"/>
     <use style="fill:#800080;stroke:#800080;" x="208.34423" xlink:href="#m27e5e2161c" y="152.752346"/>
     <use style="fill:#800080;stroke:#800080;" x="213.624221" xlink:href="#m27e5e2161c" y="151.062912"/>
     <use style="fill:#800080;stroke:#800080;" x="218.904212" xlink:href="#m27e5e2161c" y="150.97087"/>
     <use style="fill:#800080;stroke:#800080;" x="224.184203" xlink:href="#m27e5e2161c" y="148.946959"/>
     <use style="fill:#800080;stroke:#800080;" x="229.464194" xlink:href="#m27e5e2161c" y="151.085858"/>
     <use style="fill:#800080;stroke:#800080;" x="234.744185" xlink:href="#m27e5e2161c" y="149.187168"/>
     <use style="fill:#800080;stroke:#800080;" x="240.024176" xlink:href="#m27e5e2161c" y="153.919239"/>
     <use style="fill:#800080;stroke:#800080;" x="245.304167" xlink:href="#m27e5e2161c" y="154.784274"/>
     <use style="fill:#800080;stroke:#800080;" x="250.584158" xlink:href="#m27e5e2161c" y="148.376667"/>
     <use style="fill:#800080;stroke:#800080;" x="255.864149" xlink:href="#m27e5e2161c" y="151.308217"/>
     <use style="fill:#800080;stroke:#800080;" x="261.14414" xlink:href="#m27e5e2161c" y="153.184975"/>
     <use style="fill:#800080;stroke:#800080;" x="266.424131" xlink:href="#m27e5e2161c" y="148.90078"/>
     <use style="fill:#800080;stroke:#800080;" x="271.704121" xlink:href="#m27e5e2161c" y="151.133237"/>
     <use style="fill:#800080;stroke:#800080;" x="276.984112" xlink:href="#m27e5e2161c" y="154.041702"/>
     <use style="fill:#800080;stroke:#800080;" x="282.264103" xlink:href="#m27e5e2161c" y="148.682197"/>
     <use style="fill:#800080;stroke:#800080;" x="287.544094" xlink:href="#m27e5e2161c" y="148.169951"/>
     <use style="fill:#800080;stroke:#800080;" x="292.824085" xlink:href="#m27e5e2161c" y="148.634713"/>
     <use style="fill:#800080;stroke:#800080;" x="298.104076" xlink:href="#m27e5e2161c" y="151.271851"/>
     <use style="fill:#800080;stroke:#800080;" x="303.384067" xlink:href="#m27e5e2161c" y="153.273095"/>
     <use style="fill:#800080;stroke:#800080;" x="308.664058" xlink:href="#m27e5e2161c" y="152.186477"/>
     <use style="fill:#800080;stroke:#800080;" x="313.944049" xlink:href="#m27e5e2161c" y="146.373874"/>
     <use style="fill:#800080;stroke:#800080;" x="319.22404" xlink:href="#m27e5e2161c" y="147.199438"/>
     <use style="fill:#800080;stroke:#800080;" x="324.504031" xlink:href="#m27e5e2161c" y="153.696765"/>
     <use style="fill:#800080;stroke:#800080;" x="329.784022" xlink:href="#m27e5e2161c" y="146.851106"/>
    </g>
   </g>
   <g id="patch_3">
    <path d="M 58.128487 162.92419 
L 58.128487 36.563515 
" style="fill:none;stroke:#000000;stroke-linecap:square;stroke-linejoin:miter;stroke-width:0.8;"/>
   </g>
   <g id="patch_4">
    <path d="M 342.72 162.92419 
L 342.72 36.563515 
" style="fill:none;stroke:#000000;stroke-linecap:square;stroke-linejoin:miter;stroke-width:0.8;"/>
   </g>
   <g id="patch_5">
    <path d="M 58.128487 162.92419 
L 342.72 162.92419 
" style="fill:none;stroke:#000000;stroke-linecap:square;stroke-linejoin:miter;stroke-width:0.8;"/>
   </g>
   <g id="patch_6">
    <path d="M 58.128487 36.563515 
L 342.72 36.563515 
" style="fill:none;stroke:#000000;stroke-linecap:square;stroke-linejoin:miter;stroke-width:0.8;"/>
   </g>
   <g id="text_10">
    <!-- Spin Echo on NV-centre -->
    <defs>
     <path d="M 43.796875 67.03125 
C 43.796875 68.8125 43.703125 68.921875 43.09375 68.921875 
C 42.5 68.921875 42.296875 68.515625 41.90625 67.625 
L 38.90625 61.046875 
C 35.09375 66.515625 29.296875 69 23 69 
C 12.796875 69 4.59375 60.953125 4.59375 50.828125 
C 4.59375 47.75 5.296875 43.375 8.703125 39.21875 
C 12.40625 34.65625 15.90625 33.859375 23.90625 31.765625 
C 26.90625 30.96875 31.90625 29.671875 32.90625 29.28125 
C 38.59375 26.90625 41.59375 20.953125 41.59375 15.390625 
C 41.59375 8.234375 36.5 0.59375 27.796875 0.59375 
C 17.09375 0.59375 7.09375 6.546875 6.40625 20.484375 
C 6.296875 22.078125 6.203125 22.171875 5.5 22.171875 
C 4.703125 22.171875 4.59375 22.078125 4.59375 20.078125 
L 4.59375 -0.015625 
C 4.59375 -1.796875 4.703125 -1.90625 5.296875 -1.90625 
C 6 -1.90625 6.203125 -1.40625 7.59375 1.6875 
C 7.703125 1.984375 7.703125 2.1875 9.59375 5.953125 
C 14.59375 -0.609375 23 -2 27.796875 -2 
C 38.703125 -2 46.40625 7.046875 46.40625 17.5625 
C 46.40625 22.71875 44.5 26.6875 43.40625 28.484375 
C 39.203125 34.84375 34.703125 36.03125 29.90625 37.21875 
C 29.203125 37.53125 29 37.53125 23.40625 38.90625 
C 18 40.296875 15.703125 41 13.203125 43.6875 
C 10.40625 46.75 9.40625 49.9375 9.40625 53.109375 
C 9.40625 59.5625 14.59375 66.609375 23.09375 66.609375 
C 33.703125 66.609375 40.296875 59.15625 41.796875 46.765625 
C 42.09375 44.96875 42.203125 44.875 42.90625 44.875 
C 43.796875 44.875 43.796875 45.171875 43.796875 46.859375 
z
" id="CMR17-83"/>
     <path d="M 22 -16.609375 
C 15.59375 -16.609375 15.203125 -16.203125 15.203125 -12.328125 
L 15.203125 6.28125 
C 18.09375 2.09375 22.296875 -0.59375 27.59375 -0.59375 
C 37.59375 -0.59375 47.703125 8.171875 47.703125 21.6875 
C 47.703125 34.234375 39 43.78125 28.703125 43.78125 
C 22.703125 43.78125 17.796875 40.5 15 36.53125 
L 15 43.78125 
L 3.09375 42.6875 
L 3.09375 40.109375 
C 9 40.109375 9.90625 39.5 9.90625 34.734375 
L 9.90625 -12.328125 
C 9.90625 -16.109375 9.5 -16.609375 3.09375 -16.609375 
L 3.09375 -19.1875 
C 5.5 -19 9.90625 -19 12.5 -19 
C 15.09375 -19 19.59375 -19 22 -19.1875 
z
M 15.203125 31.4375 
C 15.203125 32.84375 15.203125 34.921875 19.09375 38.609375 
C 19.59375 39.015625 23 42 28 42 
C 35.296875 42 41.296875 32.9375 41.296875 21.59375 
C 41.296875 10.25 34.90625 1 27 1 
C 23.40625 1 19.5 2.6875 16.5 7.375 
C 15.203125 9.5625 15.203125 10.15625 15.203125 11.75 
z
" id="CMR17-112"/>
     <path d="M 15.5 61.078125 
C 15.5 63.265625 13.703125 65.15625 11.40625 65.15625 
C 9.203125 65.15625 7.296875 63.375 7.296875 61.078125 
C 7.296875 58.890625 9.09375 57 11.40625 57 
C 13.59375 57 15.5 58.796875 15.5 61.078125 
z
M 3.796875 42.28125 
L 3.796875 39.703125 
C 9.40625 39.703125 10.203125 39.09375 10.203125 34.328125 
L 10.203125 6.671875 
C 10.203125 2.875 9.796875 2.390625 3.40625 2.390625 
L 3.40625 -0.203125 
C 5.796875 0 10.09375 0 12.59375 0 
C 15 0 19.09375 0 21.40625 -0.203125 
L 21.40625 2.390625 
C 15.5 2.390625 15.296875 2.984375 15.296875 6.5625 
L 15.296875 43.375 
z
" id="CMR17-105"/>
     <path d="M 41.5 30.203125 
C 41.5 35.296875 40.5 43.59375 28.703125 43.59375 
C 20.796875 43.59375 16.703125 37.5 15.203125 33.5 
L 15.09375 33.5 
L 15.09375 43.59375 
L 3.296875 42.5 
L 3.296875 39.90625 
C 9.203125 39.90625 10.09375 39.296875 10.09375 34.5 
L 10.09375 6.6875 
C 10.09375 2.875 9.703125 2.390625 3.296875 2.390625 
L 3.296875 -0.203125 
C 5.703125 0 10.09375 0 12.703125 0 
C 15.296875 0 19.796875 0 22.203125 -0.203125 
L 22.203125 2.390625 
C 15.796875 2.390625 15.40625 2.78125 15.40625 6.6875 
L 15.40625 25.90625 
C 15.40625 35.109375 21 42 28 42 
C 35.40625 42 36.203125 35.40625 36.203125 30.59375 
L 36.203125 6.6875 
C 36.203125 2.875 35.796875 2.390625 29.40625 2.390625 
L 29.40625 -0.203125 
C 31.796875 0 36.203125 0 38.796875 0 
C 41.40625 0 45.90625 0 48.296875 -0.203125 
L 48.296875 2.390625 
C 41.90625 2.390625 41.5 2.78125 41.5 6.6875 
z
" id="CMR17-110"/>
     <path d="M 60.703125 25.234375 
L 58.90625 25.234375 
C 56.703125 10.5625 55.40625 2.59375 37.796875 2.59375 
L 23.90625 2.59375 
C 19.90625 2.59375 19.703125 3.078125 19.703125 6.46875 
L 19.703125 34 
L 29.09375 34 
C 38.5 34 39.40625 30.625 39.40625 22.34375 
L 41.203125 22.34375 
L 41.203125 48.140625 
L 39.40625 48.140625 
C 39.40625 39.953125 38.5 36.59375 29.09375 36.59375 
L 19.703125 36.59375 
L 19.703125 61.140625 
C 19.703125 64.5 19.90625 65 23.90625 65 
L 37.59375 65 
C 53.09375 65 54.90625 58.890625 56.296875 45.765625 
L 58.09375 45.765625 
L 55.703125 67.578125 
L 5.09375 67.578125 
L 5.09375 65 
C 12 65 13.09375 65 13.09375 60.53125 
L 13.09375 7.046875 
C 13.09375 2.59375 12 2.59375 5.09375 2.59375 
L 5.09375 0 
L 57.09375 0 
z
" id="CMR17-69"/>
     <path d="M 34.90625 35 
C 33 35 30.203125 35 30.203125 31.515625 
C 30.203125 28.71875 32.5 27.921875 33.796875 27.921875 
C 34.5 27.921875 37.40625 28.234375 37.40625 31.625 
C 37.40625 38.546875 30.59375 43.796875 22.90625 43.796875 
C 12.296875 43.796875 3.296875 34.03125 3.296875 21.296875 
C 3.296875 8.0625 12.703125 -1 22.90625 -1 
C 35.296875 -1 38.40625 10.578125 38.40625 11.6875 
C 38.40625 12.09375 38.296875 12.390625 37.59375 12.390625 
C 36.90625 12.390625 36.796875 12.296875 36.40625 10.984375 
C 33.796875 2.8125 28.09375 0.796875 23.796875 0.796875 
C 17.40625 0.796875 9.703125 6.671875 9.703125 21.390625 
C 9.703125 36.53125 17.09375 42 23 42 
C 26.90625 42 32.703125 40.203125 34.90625 35 
z
" id="CMR17-99"/>
     <path d="M 41.5 30.203125 
C 41.5 35.296875 40.5 43.59375 28.703125 43.59375 
C 20.5 43.59375 16.5 37 15.296875 33.703125 
L 15.203125 33.703125 
L 15.203125 68.6875 
L 3.296875 67.59375 
L 3.296875 65 
C 9.203125 65 10.09375 64.40625 10.09375 59.640625 
L 10.09375 6.65625 
C 10.09375 2.875 9.703125 2.390625 3.296875 2.390625 
L 3.296875 -0.203125 
C 5.703125 0 10.09375 0 12.703125 0 
C 15.296875 0 19.796875 0 22.203125 -0.203125 
L 22.203125 2.390625 
C 15.796875 2.390625 15.40625 2.78125 15.40625 6.6875 
L 15.40625 25.90625 
C 15.40625 35.109375 21 42 28 42 
C 35.40625 42 36.203125 35.40625 36.203125 30.59375 
L 36.203125 6.6875 
C 36.203125 2.875 35.796875 2.390625 29.40625 2.390625 
L 29.40625 -0.203125 
C 31.796875 0 36.203125 0 38.796875 0 
C 41.40625 0 45.90625 0 48.296875 -0.203125 
L 48.296875 2.390625 
C 41.90625 2.390625 41.5 2.78125 41.5 6.6875 
z
" id="CMR17-104"/>
     <path d="M 43.09375 21.1875 
C 43.09375 34 33.796875 44 22.90625 44 
C 12 44 2.703125 34 2.703125 21.1875 
C 2.703125 8.609375 12 -1 22.90625 -1 
C 33.796875 -1 43.09375 8.609375 43.09375 21.1875 
z
M 22.90625 0.796875 
C 18.203125 0.796875 14.203125 3.59375 11.90625 7.5 
C 9.40625 11.984375 9.09375 17.59375 9.09375 22 
C 9.09375 26.203125 9.296875 31.40625 11.90625 35.90625 
C 13.90625 39.203125 17.796875 42.40625 22.90625 42.40625 
C 27.40625 42.40625 31.203125 39.90625 33.59375 36.40625 
C 36.703125 31.703125 36.703125 25.109375 36.703125 22 
C 36.703125 18.09375 36.5 12.109375 33.796875 7.296875 
C 31 2.703125 26.703125 0.796875 22.90625 0.796875 
z
" id="CMR17-111"/>
     <path d="M 20.5 66.40625 
C 19.796875 67.5 19.703125 67.5 17.796875 67.5 
L 5.09375 67.5 
L 5.09375 65 
L 7 65 
C 11 65 12.796875 64.515625 13.09375 64.40625 
L 13.09375 9.53125 
C 13.09375 7.046875 13.09375 2.390625 5.09375 2.390625 
L 5.09375 -0.203125 
C 7.40625 0 11.59375 0 14.09375 0 
C 16.59375 0 20.796875 0 23.09375 -0.203125 
L 23.09375 2.390625 
C 15.09375 2.390625 15.09375 7.046875 15.09375 9.53125 
L 15.09375 63.015625 
C 15.796875 62.421875 15.796875 62.21875 16.5 61.234375 
L 53.59375 1.1875 
C 54.296875 0 54.59375 0 55.09375 0 
C 56.09375 0 56.09375 0.296875 56.09375 2.171875 
L 56.09375 57.890625 
C 56.09375 60.359375 56.09375 65 64.09375 65 
L 64.09375 67.59375 
C 61.796875 67.5 57.59375 67.5 55.09375 67.5 
C 52.59375 67.5 48.40625 67.5 46.09375 67.59375 
L 46.09375 65 
C 54.09375 65 54.09375 60.34375 54.09375 57.859375 
L 54.09375 11.921875 
z
" id="CMR17-78"/>
     <path d="M 59 58.515625 
C 59.90625 60.71875 61.5 65 68.203125 65 
L 68.203125 67.6875 
C 65.90625 67.484375 63.296875 67.484375 60.796875 67.484375 
C 58.40625 67.484375 54.296875 67.484375 52 67.6875 
L 52 65 
C 57 65 57.203125 61.5 57.203125 60.90625 
C 57.203125 59.796875 56.90625 59.109375 56.59375 58.3125 
L 36.90625 6.96875 
L 16.296875 60.71875 
C 16 61.421875 15.796875 61.921875 15.796875 62.40625 
C 15.796875 65 19.796875 65 21.90625 65 
L 21.90625 67.484375 
C 18.703125 67.484375 14 67.484375 10.703125 67.484375 
C 8.09375 67.484375 3.40625 67.484375 1 67.6875 
L 1 65 
C 6.796875 65 7.90625 64.609375 9.09375 61.421875 
L 32.90625 -0.40625 
C 33.40625 -1.796875 33.5 -2 34.59375 -2 
C 35.703125 -2 35.796875 -1.796875 36.296875 -0.40625 
z
" id="CMR17-86"/>
     <path d="M 25.5 19 
L 25.5 23.375 
L 0.40625 23.375 
L 0.40625 19 
z
" id="CMR17-45"/>
     <path d="M 38.09375 23 
C 38.5 23.40625 38.5 23.609375 38.5 24.625 
C 38.5 34.96875 33.09375 44 21.703125 44 
C 11.09375 44 2.703125 33.890625 2.703125 21.609375 
C 2.703125 8.609375 12.203125 -1 22.796875 -1 
C 34 -1 38.40625 9.484375 38.40625 11.5625 
C 38.40625 12.25 37.796875 12.25 37.59375 12.25 
C 36.90625 12.25 36.796875 12.046875 36.40625 10.875 
C 34.203125 4.140625 28.703125 0.796875 23.5 0.796875 
C 19.203125 0.796875 14.90625 3.171875 12.203125 7.5 
C 9.09375 12.546875 9.09375 18.375 9.09375 23 
z
M 9.203125 24.5 
C 9.90625 39.140625 17.59375 42.40625 21.59375 42.40625 
C 28.40625 42.40625 33 35.890625 33.09375 24.5 
z
" id="CMR17-101"/>
     <path d="M 15.09375 40 
L 29.09375 40 
L 29.09375 42.578125 
L 15.09375 42.578125 
L 15.09375 61 
L 13.296875 61 
C 13.09375 50.703125 9.59375 41.6875 1.09375 41.6875 
L 1.09375 40 
L 9.796875 40 
L 9.796875 12.046875 
C 9.796875 10.15625 9.796875 -1 21.40625 -1 
C 27.296875 -1 30.703125 4.78125 30.703125 12.140625 
L 30.703125 17.8125 
L 28.90625 17.8125 
L 28.90625 12.234375 
C 28.90625 5.375 26.203125 0.796875 22 0.796875 
C 19.09375 0.796875 15.09375 2.78125 15.09375 11.84375 
z
" id="CMR17-116"/>
     <path d="M 15 23.390625 
C 15 33 19.09375 42 26.59375 42 
C 27.296875 42 28 41.90625 28.703125 41.59375 
C 28.703125 41.59375 26.5 40.890625 26.5 38.3125 
C 26.5 35.90625 28.40625 34.90625 29.90625 34.90625 
C 31.09375 34.90625 33.296875 35.609375 33.296875 38.40625 
C 33.296875 41.609375 30.09375 43.59375 26.703125 43.59375 
C 19.09375 43.59375 15.796875 36.203125 14.796875 32.703125 
L 14.703125 32.703125 
L 14.703125 43.59375 
L 3.09375 42.5 
L 3.09375 39.90625 
C 9 39.90625 9.90625 39.296875 9.90625 34.5 
L 9.90625 6.6875 
C 9.90625 2.875 9.5 2.390625 3.09375 2.390625 
L 3.09375 -0.203125 
C 5.5 0 10.09375 0 12.703125 0 
C 15.59375 0 20.703125 0 23.40625 -0.203125 
L 23.40625 2.390625 
C 16.203125 2.390625 15 2.390625 15 6.875 
z
" id="CMR17-114"/>
    </defs>
    <g transform="translate(107.308325 30.563515)scale(0.192 -0.192)">
     <use transform="scale(0.996264)" xlink:href="#CMR17-83"/>
     <use transform="translate(50.89537 0)scale(0.996264)" xlink:href="#CMR17-112"/>
     <use transform="translate(101.79074 0)scale(0.996264)" xlink:href="#CMR17-105"/>
     <use transform="translate(126.661798 0)scale(0.996264)" xlink:href="#CMR17-110"/>
     <use transform="translate(207.633134 0)scale(0.996264)" xlink:href="#CMR17-69"/>
     <use transform="translate(270.219435 0)scale(0.996264)" xlink:href="#CMR17-99"/>
     <use transform="translate(308.102641 0)scale(0.996264)" xlink:href="#CMR17-104"/>
     <use transform="translate(358.998011 0)scale(0.996264)" xlink:href="#CMR17-111"/>
     <use transform="translate(434.764454 0)scale(0.996264)" xlink:href="#CMR17-111"/>
     <use transform="translate(480.454932 0)scale(0.996264)" xlink:href="#CMR17-110"/>
     <use transform="translate(561.426268 0)scale(0.996264)" xlink:href="#CMR17-78"/>
     <use transform="translate(630.498698 0)scale(0.996264)" xlink:href="#CMR17-86"/>
     <use transform="translate(699.571127 0)scale(0.996264)" xlink:href="#CMR17-45"/>
     <use transform="translate(729.647094 0)scale(0.996264)" xlink:href="#CMR17-99"/>
     <use transform="translate(770.132754 0)scale(0.996264)" xlink:href="#CMR17-101"/>
     <use transform="translate(810.618415 0)scale(0.996264)" xlink:href="#CMR17-110"/>
     <use transform="translate(858.91133 0)scale(0.996264)" xlink:href="#CMR17-116"/>
     <use transform="translate(894.192098 0)scale(0.996264)" xlink:href="#CMR17-114"/>
     <use transform="translate(929.472866 0)scale(0.996264)" xlink:href="#CMR17-101"/>
    </g>
   </g>
   <g id="legend_1">
    <g id="patch_7">
     <path d="M 260.431519 67.275543 
L 332.92 67.275543 
Q 335.72 67.275543 335.72 64.475543 
L 335.72 46.363515 
Q 335.72 43.563515 332.92 43.563515 
L 260.431519 43.563515 
Q 257.631519 43.563515 257.631519 46.363515 
L 257.631519 64.475543 
Q 257.631519 67.275543 260.431519 67.275543 
z
" style="fill:#ffffff;opacity:0.8;stroke:#cccccc;stroke-linejoin:miter;"/>
    </g>
    <g id="LineCollection_2">
     <path d="M 277.231519 61.063515 
L 277.231519 47.063515 
" style="fill:none;stroke:#800080;stroke-width:1.5;"/>
    </g>
    <g id="line2d_40"/>
    <g id="line2d_41">
     <g>
      <use style="fill:#800080;stroke:#800080;" x="277.231519" xlink:href="#m27e5e2161c" y="54.063515"/>
     </g>
    </g>
    <g id="text_11">
     <!-- N=1 -->
     <g transform="translate(302.431519 58.963515)scale(0.14 -0.14)">
      <use transform="scale(0.996264)" xlink:href="#CMR17-78"/>
      <use transform="translate(69.07243 0)scale(0.996264)" xlink:href="#CMR17-61"/>
      <use transform="translate(140.787218 0)scale(0.996264)" xlink:href="#CMR17-49"/>
     </g>
    </g>
   </g>
  </g>
 </g>
 <defs>
  <clipPath id="p73299f911a">
   <rect height="126.360675" width="284.591513" x="58.128487" y="36.563515"/>
  </clipPath>
 </defs>
</svg>
